solid 
facet normal 4.312326e-01 -3.455113e-01 -8.334629e-01
 outer loop
  vertex 4.781085e-03 -8.713199e-04 -3.527979e-03
  vertex 5.378285e-03 -2.053966e-03 -2.728724e-03
  vertex 3.840082e-03 -2.441398e-03 -3.363978e-03
 endloop
endfacet
facet normal 3.168033e-01 3.160304e-02 -9.479646e-01
 outer loop
  vertex 4.781085e-03 -8.713199e-04 -3.527979e-03
  vertex 2.713802e-03 1.437564e-03 -4.141878e-03
  vertex 4.873736e-03 4.713445e-04 -3.452255e-03
 endloop
endfacet
facet normal 4.861069e-01 -3.738488e-01 -7.898969e-01
 outer loop
  vertex 4.781085e-03 -8.713199e-04 -3.527979e-03
  vertex 3.840082e-03 -2.441398e-03 -3.363978e-03
  vertex 3.586721e-03 -1.112939e-03 -4.148642e-03
 endloop
endfacet
facet normal 4.318026e-01 1.501448e-01 -8.893835e-01
 outer loop
  vertex 4.781085e-03 -8.713199e-04 -3.527979e-03
  vertex 3.586721e-03 -1.112939e-03 -4.148642e-03
  vertex 2.713802e-03 1.437564e-03 -4.141878e-03
 endloop
endfacet
facet normal 8.319555e-02 -4.949947e-01 -8.649039e-01
 outer loop
  vertex 3.840082e-03 -2.441398e-03 -3.363978e-03
  vertex 2.294701e-03 -1.023956e-03 -4.323849e-03
  vertex 3.586721e-03 -1.112939e-03 -4.148642e-03
 endloop
endfacet
facet normal 1.375712e-01 4.970778e-02 -9.892438e-01
 outer loop
  vertex 2.294701e-03 -1.023956e-03 -4.323849e-03
  vertex 2.713802e-03 1.437564e-03 -4.141878e-03
  vertex 3.586721e-03 -1.112939e-03 -4.148642e-03
 endloop
endfacet
facet normal 5.647941e-01 -3.521199e-02 -8.244803e-01
 outer loop
  vertex 2.713802e-03 1.437564e-03 -4.141878e-03
  vertex 2.294701e-03 -1.023956e-03 -4.323849e-03
  vertex 1.569146e-03 8.258138e-04 -4.899875e-03
 endloop
endfacet
facet normal 4.050129e-01 3.085880e-01 -8.606614e-01
 outer loop
  vertex 2.713802e-03 1.437564e-03 -4.141878e-03
  vertex 1.569146e-03 8.258138e-04 -4.899875e-03
  vertex 1.145490e-03 1.727094e-03 -4.776090e-03
 endloop
endfacet
facet normal -1.116985e-01 2.819656e-01 -9.529002e-01
 outer loop
  vertex 1.433777e-03 3.121895e-03 -3.493437e-03
  vertex 2.713802e-03 1.437564e-03 -4.141878e-03
  vertex 5.893326e-04 2.783863e-03 -3.494476e-03
 endloop
endfacet
facet normal 3.489292e-01 7.917293e-01 -5.014111e-01
 outer loop
  vertex 5.893326e-04 2.783863e-03 -3.494476e-03
  vertex 2.713802e-03 1.437564e-03 -4.141878e-03
  vertex 1.145490e-03 1.727094e-03 -4.776090e-03
 endloop
endfacet
facet normal -2.804202e-01 -3.839483e-01 -8.797433e-01
 outer loop
  vertex 2.294701e-03 -1.023956e-03 -4.323849e-03
  vertex 5.629706e-04 6.729034e-04 -4.512419e-03
  vertex 1.569146e-03 8.258138e-04 -4.899875e-03
 endloop
endfacet
facet normal -3.540488e-01 -3.808296e-02 -9.344512e-01
 outer loop
  vertex 1.569146e-03 8.258138e-04 -4.899875e-03
  vertex 5.629706e-04 6.729034e-04 -4.512419e-03
  vertex 1.145490e-03 1.727094e-03 -4.776090e-03
 endloop
endfacet
facet normal -7.716554e-01 2.840599e-01 -5.690851e-01
 outer loop
  vertex 1.145490e-03 1.727094e-03 -4.776090e-03
  vertex 5.629706e-04 6.729034e-04 -4.512419e-03
  vertex 5.893326e-04 2.783863e-03 -3.494476e-03
 endloop
endfacet
facet normal 9.343873e-01 2.957423e-01 -1.986377e-01
 outer loop
  vertex 6.769489e-03 -5.457659e-04 -1.879719e-03
  vertex 6.367618e-03 8.781860e-04 -1.650054e-03
  vertex 6.834126e-03 -1.864849e-05 -7.908663e-04
 endloop
endfacet
facet normal 9.458229e-01 -3.106985e-01 9.426343e-02
 outer loop
  vertex 6.216012e-03 -2.224265e-03 -1.858671e-03
  vertex 6.769489e-03 -5.457659e-04 -1.879719e-03
  vertex 6.834126e-03 -1.864849e-05 -7.908663e-04
 endloop
endfacet
facet normal 6.305521e-01 -2.172651e-01 -7.451173e-01
 outer loop
  vertex 6.216012e-03 -2.224265e-03 -1.858671e-03
  vertex 6.007784e-03 -5.644052e-04 -2.518873e-03
  vertex 6.769489e-03 -5.457659e-04 -1.879719e-03
 endloop
endfacet
facet normal 6.107575e-01 2.911337e-01 -7.363535e-01
 outer loop
  vertex 6.007784e-03 -5.644052e-04 -2.518873e-03
  vertex 6.367618e-03 8.781860e-04 -1.650054e-03
  vertex 6.769489e-03 -5.457659e-04 -1.879719e-03
 endloop
endfacet
facet normal 6.558470e-01 5.058081e-01 -5.603774e-01
 outer loop
  vertex 6.367618e-03 8.781860e-04 -1.650054e-03
  vertex 5.124921e-03 1.345353e-03 -2.682791e-03
  vertex 5.650615e-03 1.650439e-03 -1.792159e-03
 endloop
endfacet
facet normal 6.727675e-01 2.512862e-01 -6.958729e-01
 outer loop
  vertex 6.367618e-03 8.781860e-04 -1.650054e-03
  vertex 6.007784e-03 -5.644052e-04 -2.518873e-03
  vertex 5.124921e-03 1.345353e-03 -2.682791e-03
 endloop
endfacet
facet normal 6.860546e-01 4.883905e-01 -5.392622e-01
 outer loop
  vertex 4.561777e-03 2.452351e-03 -2.396660e-03
  vertex 5.124082e-03 2.259106e-03 -1.856305e-03
  vertex 5.124921e-03 1.345353e-03 -2.682791e-03
 endloop
endfacet
facet normal 6.547514e-01 5.073546e-01 -5.602605e-01
 outer loop
  vertex 5.124921e-03 1.345353e-03 -2.682791e-03
  vertex 5.124082e-03 2.259106e-03 -1.856305e-03
  vertex 5.650615e-03 1.650439e-03 -1.792159e-03
 endloop
endfacet
facet normal 6.510946e-01 -1.709778e-01 -7.394880e-01
 outer loop
  vertex 6.007784e-03 -5.644052e-04 -2.518873e-03
  vertex 5.378285e-03 -2.053966e-03 -2.728724e-03
  vertex 4.781085e-03 -8.713199e-04 -3.527979e-03
 endloop
endfacet
facet normal 6.878894e-01 -1.921002e-01 -6.999326e-01
 outer loop
  vertex 6.216012e-03 -2.224265e-03 -1.858671e-03
  vertex 5.378285e-03 -2.053966e-03 -2.728724e-03
  vertex 6.007784e-03 -5.644052e-04 -2.518873e-03
 endloop
endfacet
facet normal 6.353310e-01 -2.875279e-04 -7.722399e-01
 outer loop
  vertex 6.007784e-03 -5.644052e-04 -2.518873e-03
  vertex 4.781085e-03 -8.713199e-04 -3.527979e-03
  vertex 4.873736e-03 4.713445e-04 -3.452255e-03
 endloop
endfacet
facet normal 7.540801e-01 2.983850e-01 -5.850895e-01
 outer loop
  vertex 6.007784e-03 -5.644052e-04 -2.518873e-03
  vertex 4.873736e-03 4.713445e-04 -3.452255e-03
  vertex 5.124921e-03 1.345353e-03 -2.682791e-03
 endloop
endfacet
facet normal 4.599165e-01 5.086203e-01 -7.278614e-01
 outer loop
  vertex 5.124921e-03 1.345353e-03 -2.682791e-03
  vertex 4.873736e-03 4.713445e-04 -3.452255e-03
  vertex 2.713802e-03 1.437564e-03 -4.141878e-03
 endloop
endfacet
facet normal 4.899799e-01 3.773309e-01 -7.858379e-01
 outer loop
  vertex 3.645581e-03 2.321675e-03 -3.136384e-03
  vertex 5.124921e-03 1.345353e-03 -2.682791e-03
  vertex 2.713802e-03 1.437564e-03 -4.141878e-03
 endloop
endfacet
facet normal 5.204422e-01 4.520080e-01 -7.244506e-01
 outer loop
  vertex 4.561777e-03 2.452351e-03 -2.396660e-03
  vertex 5.124921e-03 1.345353e-03 -2.682791e-03
  vertex 3.645581e-03 2.321675e-03 -3.136384e-03
 endloop
endfacet
facet normal 4.061099e-01 6.700617e-01 -6.213630e-01
 outer loop
  vertex 4.561777e-03 2.452351e-03 -2.396660e-03
  vertex 3.645581e-03 2.321675e-03 -3.136384e-03
  vertex 3.538857e-03 3.060123e-03 -2.409813e-03
 endloop
endfacet
facet normal 5.817992e-01 -2.674907e-01 -7.680875e-01
 outer loop
  vertex 6.216012e-03 -2.224265e-03 -1.858671e-03
  vertex 5.718565e-03 -3.347490e-03 -1.844301e-03
  vertex 4.941521e-03 -3.038666e-03 -2.540434e-03
 endloop
endfacet
facet normal 2.939834e-01 -7.079174e-01 -6.422046e-01
 outer loop
  vertex 4.941521e-03 -3.038666e-03 -2.540434e-03
  vertex 5.718565e-03 -3.347490e-03 -1.844301e-03
  vertex 4.982480e-03 -3.623774e-03 -1.876705e-03
 endloop
endfacet
facet normal 6.184711e-01 -4.032845e-01 -6.744294e-01
 outer loop
  vertex 6.216012e-03 -2.224265e-03 -1.858671e-03
  vertex 4.941521e-03 -3.038666e-03 -2.540434e-03
  vertex 5.378285e-03 -2.053966e-03 -2.728724e-03
 endloop
endfacet
facet normal 4.315494e-01 -3.503657e-01 -8.312695e-01
 outer loop
  vertex 4.941521e-03 -3.038666e-03 -2.540434e-03
  vertex 3.840082e-03 -2.441398e-03 -3.363978e-03
  vertex 5.378285e-03 -2.053966e-03 -2.728724e-03
 endloop
endfacet
facet normal 4.533471e-01 4.177115e-01 -7.873967e-01
 outer loop
  vertex 2.847071e-03 2.372134e-03 -3.569361e-03
  vertex 3.645581e-03 2.321675e-03 -3.136384e-03
  vertex 2.713802e-03 1.437564e-03 -4.141878e-03
 endloop
endfacet
facet normal 3.330289e-01 6.853332e-01 -6.476189e-01
 outer loop
  vertex 3.538857e-03 3.060123e-03 -2.409813e-03
  vertex 3.645581e-03 2.321675e-03 -3.136384e-03
  vertex 2.469099e-03 2.954667e-03 -3.071519e-03
 endloop
endfacet
facet normal 3.608138e-01 7.300804e-01 -5.803413e-01
 outer loop
  vertex 2.847071e-03 2.372134e-03 -3.569361e-03
  vertex 2.469099e-03 2.954667e-03 -3.071519e-03
  vertex 3.645581e-03 2.321675e-03 -3.136384e-03
 endloop
endfacet
facet normal 2.144564e-01 -7.260818e-01 -6.533098e-01
 outer loop
  vertex 4.982480e-03 -3.623774e-03 -1.876705e-03
  vertex 3.802708e-03 -3.481732e-03 -2.421843e-03
  vertex 4.941521e-03 -3.038666e-03 -2.540434e-03
 endloop
endfacet
facet normal 1.826182e-01 -6.635669e-01 -7.254858e-01
 outer loop
  vertex 4.941521e-03 -3.038666e-03 -2.540434e-03
  vertex 3.802708e-03 -3.481732e-03 -2.421843e-03
  vertex 3.840082e-03 -2.441398e-03 -3.363978e-03
 endloop
endfacet
facet normal 3.870418e-01 5.724265e-01 -7.228600e-01
 outer loop
  vertex 1.433777e-03 3.121895e-03 -3.493437e-03
  vertex 2.469099e-03 2.954667e-03 -3.071519e-03
  vertex 2.713802e-03 1.437564e-03 -4.141878e-03
 endloop
endfacet
facet normal -2.476943e-01 5.315340e-01 -8.100118e-01
 outer loop
  vertex 2.469099e-03 2.954667e-03 -3.071519e-03
  vertex 2.847071e-03 2.372134e-03 -3.569361e-03
  vertex 2.713802e-03 1.437564e-03 -4.141878e-03
 endloop
endfacet
facet normal 1.433816e-01 -6.671477e-01 -7.309963e-01
 outer loop
  vertex 3.840082e-03 -2.441398e-03 -3.363978e-03
  vertex 3.802708e-03 -3.481732e-03 -2.421843e-03
  vertex 2.754799e-03 -3.166235e-03 -2.915326e-03
 endloop
endfacet
facet normal 1.752078e-01 -4.139064e-01 -8.932993e-01
 outer loop
  vertex 2.707874e-03 -2.455269e-03 -3.579618e-03
  vertex 2.294701e-03 -1.023956e-03 -4.323849e-03
  vertex 3.840082e-03 -2.441398e-03 -3.363978e-03
 endloop
endfacet
facet normal 1.467847e-01 -6.701311e-01 -7.275841e-01
 outer loop
  vertex 3.840082e-03 -2.441398e-03 -3.363978e-03
  vertex 2.754799e-03 -3.166235e-03 -2.915326e-03
  vertex 2.707874e-03 -2.455269e-03 -3.579618e-03
 endloop
endfacet
facet normal -1.375260e-01 -6.810598e-01 -7.191969e-01
 outer loop
  vertex 2.707874e-03 -2.455269e-03 -3.579618e-03
  vertex 2.754799e-03 -3.166235e-03 -2.915326e-03
  vertex 1.834344e-03 -2.303352e-03 -3.556441e-03
 endloop
endfacet
facet normal -3.193816e-02 -5.056434e-01 -8.621512e-01
 outer loop
  vertex 1.834344e-03 -2.303352e-03 -3.556441e-03
  vertex 1.201549e-03 -1.189272e-03 -4.186396e-03
  vertex 2.294701e-03 -1.023956e-03 -4.323849e-03
 endloop
endfacet
facet normal -1.070291e-01 -4.828235e-01 -8.691526e-01
 outer loop
  vertex 2.707874e-03 -2.455269e-03 -3.579618e-03
  vertex 1.834344e-03 -2.303352e-03 -3.556441e-03
  vertex 2.294701e-03 -1.023956e-03 -4.323849e-03
 endloop
endfacet
facet normal -9.200959e-02 -2.022518e-01 -9.750018e-01
 outer loop
  vertex 5.629706e-04 6.729034e-04 -4.512419e-03
  vertex 2.294701e-03 -1.023956e-03 -4.323849e-03
  vertex 1.201549e-03 -1.189272e-03 -4.186396e-03
 endloop
endfacet
facet normal -1.125221e-01 4.327357e-01 -8.944711e-01
 outer loop
  vertex 5.629706e-04 6.729034e-04 -4.512419e-03
  vertex -7.423480e-04 1.445583e-03 -3.974400e-03
  vertex 5.893326e-04 2.783863e-03 -3.494476e-03
 endloop
endfacet
facet normal -1.498290e-01 -5.497707e-01 -8.217685e-01
 outer loop
  vertex 1.834344e-03 -2.303352e-03 -3.556441e-03
  vertex -4.227726e-04 -1.531574e-03 -3.661239e-03
  vertex 1.201549e-03 -1.189272e-03 -4.186396e-03
 endloop
endfacet
facet normal -2.499027e-01 -2.494940e-01 -9.355754e-01
 outer loop
  vertex -4.227726e-04 -1.531574e-03 -3.661239e-03
  vertex 5.629706e-04 6.729034e-04 -4.512419e-03
  vertex 1.201549e-03 -1.189272e-03 -4.186396e-03
 endloop
endfacet
facet normal 5.272188e-02 -3.801251e-01 -9.234313e-01
 outer loop
  vertex 5.629706e-04 6.729034e-04 -4.512419e-03
  vertex -4.227726e-04 -1.531574e-03 -3.661239e-03
  vertex -3.932650e-04 2.060668e-04 -4.374844e-03
 endloop
endfacet
facet normal -2.492014e-01 2.334632e-01 -9.398902e-01
 outer loop
  vertex 5.629706e-04 6.729034e-04 -4.512419e-03
  vertex -3.932650e-04 2.060668e-04 -4.374844e-03
  vertex -7.423480e-04 1.445583e-03 -3.974400e-03
 endloop
endfacet
facet normal 8.661971e-01 -1.765855e-01 -4.674614e-01
 outer loop
  vertex 7.092454e-03 -8.306836e-04 -5.439942e-06
  vertex 6.721531e-03 -1.985936e-03 -2.563518e-04
  vertex 6.834126e-03 -1.864849e-05 -7.908663e-04
 endloop
endfacet
facet normal 9.286231e-01 3.393604e-01 -1.499786e-01
 outer loop
  vertex 6.834126e-03 -1.864849e-05 -7.908663e-04
  vertex 6.367618e-03 8.781860e-04 -1.650054e-03
  vertex 6.283402e-03 1.494951e-03 -7.759255e-04
 endloop
endfacet
facet normal 5.907193e-01 6.850008e-01 -4.264091e-01
 outer loop
  vertex 6.367618e-03 8.781860e-04 -1.650054e-03
  vertex 5.285001e-03 2.284289e-03 -8.910209e-04
  vertex 6.283402e-03 1.494951e-03 -7.759255e-04
 endloop
endfacet
facet normal 8.740629e-01 -4.377696e-01 -2.106462e-01
 outer loop
  vertex 6.721531e-03 -1.985936e-03 -2.563518e-04
  vertex 5.920348e-03 -3.245232e-03 -9.637131e-04
  vertex 6.216012e-03 -2.224265e-03 -1.858671e-03
 endloop
endfacet
facet normal 9.509001e-01 -1.306542e-01 -2.805680e-01
 outer loop
  vertex 6.721531e-03 -1.985936e-03 -2.563518e-04
  vertex 6.216012e-03 -2.224265e-03 -1.858671e-03
  vertex 6.834126e-03 -1.864849e-05 -7.908663e-04
 endloop
endfacet
facet normal 7.378549e-01 6.553319e-01 -1.615867e-01
 outer loop
  vertex 6.367618e-03 8.781860e-04 -1.650054e-03
  vertex 5.650615e-03 1.650439e-03 -1.792159e-03
  vertex 5.285001e-03 2.284289e-03 -8.910209e-04
 endloop
endfacet
facet normal 7.559426e-01 6.388980e-01 -1.426887e-01
 outer loop
  vertex 5.124082e-03 2.259106e-03 -1.856305e-03
  vertex 5.285001e-03 2.284289e-03 -8.910209e-04
  vertex 5.650615e-03 1.650439e-03 -1.792159e-03
 endloop
endfacet
facet normal 5.754187e-01 7.477118e-01 -3.313916e-01
 outer loop
  vertex 4.187056e-03 3.141522e-03 -1.492354e-03
  vertex 5.124082e-03 2.259106e-03 -1.856305e-03
  vertex 4.561777e-03 2.452351e-03 -2.396660e-03
 endloop
endfacet
facet normal 6.530312e-01 7.463779e-01 -1.283367e-01
 outer loop
  vertex 4.187056e-03 3.141522e-03 -1.492354e-03
  vertex 5.285001e-03 2.284289e-03 -8.910209e-04
  vertex 5.124082e-03 2.259106e-03 -1.856305e-03
 endloop
endfacet
facet normal 9.018005e-01 -4.014311e-01 -1.600277e-01
 outer loop
  vertex 5.920348e-03 -3.245232e-03 -9.637131e-04
  vertex 5.718565e-03 -3.347490e-03 -1.844301e-03
  vertex 6.216012e-03 -2.224265e-03 -1.858671e-03
 endloop
endfacet
facet normal 4.713796e-01 7.846481e-01 -4.026520e-01
 outer loop
  vertex 3.538857e-03 3.060123e-03 -2.409813e-03
  vertex 4.187056e-03 3.141522e-03 -1.492354e-03
  vertex 4.561777e-03 2.452351e-03 -2.396660e-03
 endloop
endfacet
facet normal 1.961497e-01 9.548113e-01 -2.232950e-01
 outer loop
  vertex 3.538857e-03 3.060123e-03 -2.409813e-03
  vertex 2.854386e-03 3.380484e-03 -1.641212e-03
  vertex 4.187056e-03 3.141522e-03 -1.492354e-03
 endloop
endfacet
facet normal 3.501628e-01 -9.362557e-01 2.848366e-02
 outer loop
  vertex 5.920348e-03 -3.245232e-03 -9.637131e-04
  vertex 4.982480e-03 -3.623774e-03 -1.876705e-03
  vertex 5.718565e-03 -3.347490e-03 -1.844301e-03
 endloop
endfacet
facet normal 2.861452e-01 -9.528356e-01 1.011198e-01
 outer loop
  vertex 4.317097e-03 -3.727657e-03 -9.726950e-04
  vertex 4.982480e-03 -3.623774e-03 -1.876705e-03
  vertex 5.920348e-03 -3.245232e-03 -9.637131e-04
 endloop
endfacet
facet normal 2.993218e-01 8.894323e-01 -3.454224e-01
 outer loop
  vertex 2.854386e-03 3.380484e-03 -1.641212e-03
  vertex 2.469099e-03 2.954667e-03 -3.071519e-03
  vertex 1.614130e-03 3.528107e-03 -2.335824e-03
 endloop
endfacet
facet normal 9.717874e-02 9.464300e-01 -3.079392e-01
 outer loop
  vertex 3.538857e-03 3.060123e-03 -2.409813e-03
  vertex 2.469099e-03 2.954667e-03 -3.071519e-03
  vertex 2.854386e-03 3.380484e-03 -1.641212e-03
 endloop
endfacet
facet normal -4.958955e-02 -9.874461e-01 -1.499699e-01
 outer loop
  vertex 4.982480e-03 -3.623774e-03 -1.876705e-03
  vertex 4.317097e-03 -3.727657e-03 -9.726950e-04
  vertex 3.802708e-03 -3.481732e-03 -2.421843e-03
 endloop
endfacet
facet normal 2.888842e-01 8.884096e-01 -3.567552e-01
 outer loop
  vertex 2.469099e-03 2.954667e-03 -3.071519e-03
  vertex 1.433777e-03 3.121895e-03 -3.493437e-03
  vertex 1.614130e-03 3.528107e-03 -2.335824e-03
 endloop
endfacet
facet normal -3.586932e-01 8.968542e-01 -2.588276e-01
 outer loop
  vertex 1.433777e-03 3.121895e-03 -3.493437e-03
  vertex 5.893326e-04 2.783863e-03 -3.494476e-03
  vertex 1.614130e-03 3.528107e-03 -2.335824e-03
 endloop
endfacet
facet normal -2.634577e-02 -9.870627e-01 -1.581555e-01
 outer loop
  vertex 4.317097e-03 -3.727657e-03 -9.726950e-04
  vertex 2.886284e-03 -3.613784e-03 -1.445037e-03
  vertex 3.802708e-03 -3.481732e-03 -2.421843e-03
 endloop
endfacet
facet normal -1.562179e-01 -9.487212e-01 -2.748163e-01
 outer loop
  vertex 2.886284e-03 -3.613784e-03 -1.445037e-03
  vertex 2.754799e-03 -3.166235e-03 -2.915326e-03
  vertex 3.802708e-03 -3.481732e-03 -2.421843e-03
 endloop
endfacet
facet normal -2.232522e-01 -9.378986e-01 -2.655272e-01
 outer loop
  vertex 2.886284e-03 -3.613784e-03 -1.445037e-03
  vertex 1.562927e-03 -3.018426e-03 -2.435306e-03
  vertex 2.754799e-03 -3.166235e-03 -2.915326e-03
 endloop
endfacet
facet normal -2.439236e-01 -7.897904e-01 -5.627898e-01
 outer loop
  vertex -4.227726e-04 -1.531574e-03 -3.661239e-03
  vertex 1.834344e-03 -2.303352e-03 -3.556441e-03
  vertex 1.562927e-03 -3.018426e-03 -2.435306e-03
 endloop
endfacet
facet normal -3.212701e-01 -7.612341e-01 -5.633011e-01
 outer loop
  vertex 1.834344e-03 -2.303352e-03 -3.556441e-03
  vertex 2.754799e-03 -3.166235e-03 -2.915326e-03
  vertex 1.562927e-03 -3.018426e-03 -2.435306e-03
 endloop
endfacet
facet normal -3.360330e-01 5.959296e-01 -7.293489e-01
 outer loop
  vertex -7.295713e-04 2.765347e-03 -2.901946e-03
  vertex 5.893326e-04 2.783863e-03 -3.494476e-03
  vertex -7.423480e-04 1.445583e-03 -3.974400e-03
 endloop
endfacet
facet normal -1.485954e-01 9.418721e-01 -3.013245e-01
 outer loop
  vertex -7.295713e-04 2.765347e-03 -2.901946e-03
  vertex 4.536085e-04 3.410057e-03 -1.470201e-03
  vertex 5.893326e-04 2.783863e-03 -3.494476e-03
 endloop
endfacet
facet normal -1.787504e-01 -7.569608e-01 -6.285369e-01
 outer loop
  vertex 1.562927e-03 -3.018426e-03 -2.435306e-03
  vertex 1.561527e-04 -2.559205e-03 -2.588281e-03
  vertex -4.227726e-04 -1.531574e-03 -3.661239e-03
 endloop
endfacet
facet normal -1.500636e-01 6.243776e-01 -7.665726e-01
 outer loop
  vertex -7.295713e-04 2.765347e-03 -2.901946e-03
  vertex -7.423480e-04 1.445583e-03 -3.974400e-03
  vertex -1.993039e-03 2.063504e-03 -3.226265e-03
 endloop
endfacet
facet normal -1.483420e-01 -3.735278e-01 -9.156810e-01
 outer loop
  vertex -1.346069e-03 -2.150718e-04 -4.048695e-03
  vertex -3.932650e-04 2.060668e-04 -4.374844e-03
  vertex -4.227726e-04 -1.531574e-03 -3.661239e-03
 endloop
endfacet
facet normal -3.894957e-01 1.819921e-01 -9.028687e-01
 outer loop
  vertex -1.346069e-03 -2.150718e-04 -4.048695e-03
  vertex -7.423480e-04 1.445583e-03 -3.974400e-03
  vertex -3.932650e-04 2.060668e-04 -4.374844e-03
 endloop
endfacet
facet normal -2.752917e-01 1.426149e-01 -9.507237e-01
 outer loop
  vertex -2.405052e-03 3.439582e-04 -3.658198e-03
  vertex -7.423480e-04 1.445583e-03 -3.974400e-03
  vertex -1.346069e-03 -2.150718e-04 -4.048695e-03
 endloop
endfacet
facet normal -4.877505e-01 3.208089e-01 -8.118997e-01
 outer loop
  vertex -1.993039e-03 2.063504e-03 -3.226265e-03
  vertex -2.405052e-03 3.439582e-04 -3.658198e-03
  vertex -3.701306e-03 1.341251e-03 -2.485406e-03
 endloop
endfacet
facet normal -3.711902e-01 3.088990e-01 -8.756707e-01
 outer loop
  vertex -1.993039e-03 2.063504e-03 -3.226265e-03
  vertex -7.423480e-04 1.445583e-03 -3.974400e-03
  vertex -2.405052e-03 3.439582e-04 -3.658198e-03
 endloop
endfacet
facet normal 8.069635e-01 -3.606725e-01 4.676807e-01
 outer loop
  vertex 7.092454e-03 -8.306836e-04 -5.439942e-06
  vertex 6.550692e-03 -1.160405e-03 6.750693e-04
  vertex 6.721531e-03 -1.985936e-03 -2.563518e-04
 endloop
endfacet
facet normal 8.159772e-01 5.145064e-01 2.635608e-01
 outer loop
  vertex 6.438171e-03 -6.228966e-05 5.201936e-04
  vertex 7.092454e-03 -8.306836e-04 -5.439942e-06
  vertex 6.834126e-03 -1.864849e-05 -7.908663e-04
 endloop
endfacet
facet normal 7.298641e-01 1.682339e-01 6.625675e-01
 outer loop
  vertex 7.092454e-03 -8.306836e-04 -5.439942e-06
  vertex 6.438171e-03 -6.228966e-05 5.201936e-04
  vertex 6.550692e-03 -1.160405e-03 6.750693e-04
 endloop
endfacet
facet normal 8.674347e-01 4.141414e-01 2.757607e-01
 outer loop
  vertex 6.088563e-03 7.483946e-04 4.024258e-04
  vertex 6.438171e-03 -6.228966e-05 5.201936e-04
  vertex 6.834126e-03 -1.864849e-05 -7.908663e-04
 endloop
endfacet
facet normal 7.922089e-01 2.829082e-01 5.407106e-01
 outer loop
  vertex 5.601625e-03 1.589200e-03 1.736509e-04
  vertex 6.834126e-03 -1.864849e-05 -7.908663e-04
  vertex 6.283402e-03 1.494951e-03 -7.759255e-04
 endloop
endfacet
facet normal 8.296679e-01 5.290089e-01 1.783278e-01
 outer loop
  vertex 5.601625e-03 1.589200e-03 1.736509e-04
  vertex 6.088563e-03 7.483946e-04 4.024258e-04
  vertex 6.834126e-03 -1.864849e-05 -7.908663e-04
 endloop
endfacet
facet normal 5.622264e-01 7.590121e-01 3.283324e-01
 outer loop
  vertex 6.283402e-03 1.494951e-03 -7.759255e-04
  vertex 5.285001e-03 2.284289e-03 -8.910209e-04
  vertex 5.601625e-03 1.589200e-03 1.736509e-04
 endloop
endfacet
facet normal 6.335739e-01 7.204758e-01 2.819553e-01
 outer loop
  vertex 4.648212e-03 2.434146e-03 1.569638e-04
  vertex 5.601625e-03 1.589200e-03 1.736509e-04
  vertex 5.285001e-03 2.284289e-03 -8.910209e-04
 endloop
endfacet
facet normal 7.240808e-01 -5.841162e-01 3.667632e-01
 outer loop
  vertex 6.721531e-03 -1.985936e-03 -2.563518e-04
  vertex 6.042960e-03 -2.239533e-03 6.794307e-04
  vertex 5.622290e-03 -3.109318e-03 1.246958e-04
 endloop
endfacet
facet normal 7.320092e-01 -6.219405e-01 2.781234e-01
 outer loop
  vertex 6.721531e-03 -1.985936e-03 -2.563518e-04
  vertex 5.622290e-03 -3.109318e-03 1.246958e-04
  vertex 5.920348e-03 -3.245232e-03 -9.637131e-04
 endloop
endfacet
facet normal 7.963010e-01 -3.727357e-01 4.764167e-01
 outer loop
  vertex 6.042960e-03 -2.239533e-03 6.794307e-04
  vertex 6.721531e-03 -1.985936e-03 -2.563518e-04
  vertex 6.550692e-03 -1.160405e-03 6.750693e-04
 endloop
endfacet
facet normal 5.200095e-01 8.239567e-01 2.251343e-01
 outer loop
  vertex 3.795500e-03 3.089108e-03 -3.961234e-04
  vertex 5.285001e-03 2.284289e-03 -8.910209e-04
  vertex 4.187056e-03 3.141522e-03 -1.492354e-03
 endloop
endfacet
facet normal 5.154263e-01 8.347254e-01 1.938277e-01
 outer loop
  vertex 3.795500e-03 3.089108e-03 -3.961234e-04
  vertex 4.648212e-03 2.434146e-03 1.569638e-04
  vertex 5.285001e-03 2.284289e-03 -8.910209e-04
 endloop
endfacet
facet normal 1.640817e-01 9.807888e-01 1.055012e-01
 outer loop
  vertex 4.187056e-03 3.141522e-03 -1.492354e-03
  vertex 2.854386e-03 3.380484e-03 -1.641212e-03
  vertex 3.795500e-03 3.089108e-03 -3.961234e-04
 endloop
endfacet
facet normal -5.018658e-02 9.633844e-01 2.633853e-01
 outer loop
  vertex 2.854386e-03 3.380484e-03 -1.641212e-03
  vertex 2.721306e-03 3.076761e-03 -5.556425e-04
  vertex 3.795500e-03 3.089108e-03 -3.961234e-04
 endloop
endfacet
facet normal 2.816420e-01 -9.396079e-01 1.944602e-01
 outer loop
  vertex 5.622290e-03 -3.109318e-03 1.246958e-04
  vertex 4.317097e-03 -3.727657e-03 -9.726950e-04
  vertex 5.920348e-03 -3.245232e-03 -9.637131e-04
 endloop
endfacet
facet normal 3.218098e-01 -9.357139e-01 1.444921e-01
 outer loop
  vertex 4.462406e-03 -3.511368e-03 1.043358e-04
  vertex 4.317097e-03 -3.727657e-03 -9.726950e-04
  vertex 5.622290e-03 -3.109318e-03 1.246958e-04
 endloop
endfacet
facet normal 2.432263e-01 9.259525e-01 2.888822e-01
 outer loop
  vertex 2.001620e-03 3.386798e-03 -9.434584e-04
  vertex 2.721306e-03 3.076761e-03 -5.556425e-04
  vertex 2.854386e-03 3.380484e-03 -1.641212e-03
 endloop
endfacet
facet normal 7.323196e-02 9.940603e-01 8.050545e-02
 outer loop
  vertex 2.001620e-03 3.386798e-03 -9.434584e-04
  vertex 2.854386e-03 3.380484e-03 -1.641212e-03
  vertex 1.614130e-03 3.528107e-03 -2.335824e-03
 endloop
endfacet
facet normal 1.777986e-01 9.827826e-01 5.026041e-02
 outer loop
  vertex 2.001620e-03 3.386798e-03 -9.434584e-04
  vertex 1.614130e-03 3.528107e-03 -2.335824e-03
  vertex 1.211734e-03 3.559709e-03 -1.530269e-03
 endloop
endfacet
facet normal -3.209463e-01 -9.192668e-01 2.279078e-01
 outer loop
  vertex 4.317097e-03 -3.727657e-03 -9.726950e-04
  vertex 4.462406e-03 -3.511368e-03 1.043358e-04
  vertex 3.641310e-03 -3.174905e-03 3.051664e-04
 endloop
endfacet
facet normal -3.888488e-01 8.923244e-01 -2.292461e-01
 outer loop
  vertex 5.893326e-04 2.783863e-03 -3.494476e-03
  vertex 1.211734e-03 3.559709e-03 -1.530269e-03
  vertex 1.614130e-03 3.528107e-03 -2.335824e-03
 endloop
endfacet
facet normal -2.075888e-01 9.305080e-01 -3.017645e-01
 outer loop
  vertex 5.893326e-04 2.783863e-03 -3.494476e-03
  vertex 4.536085e-04 3.410057e-03 -1.470201e-03
  vertex 1.211734e-03 3.559709e-03 -1.530269e-03
 endloop
endfacet
facet normal -1.768311e-01 -9.339848e-01 3.104885e-01
 outer loop
  vertex 3.641310e-03 -3.174905e-03 3.051664e-04
  vertex 2.886284e-03 -3.613784e-03 -1.445037e-03
  vertex 4.317097e-03 -3.727657e-03 -9.726950e-04
 endloop
endfacet
facet normal -2.440162e-01 -9.398684e-01 -2.389633e-01
 outer loop
  vertex 2.886284e-03 -3.613784e-03 -1.445037e-03
  vertex 2.083331e-03 -3.476019e-03 -1.166950e-03
  vertex 1.562927e-03 -3.018426e-03 -2.435306e-03
 endloop
endfacet
facet normal -4.546915e-01 -8.809240e-01 -1.312578e-01
 outer loop
  vertex 2.083331e-03 -3.476019e-03 -1.166950e-03
  vertex 1.108515e-03 -3.001897e-03 -9.720996e-04
  vertex 1.562927e-03 -3.018426e-03 -2.435306e-03
 endloop
endfacet
facet normal 1.676187e-01 8.396526e-01 -5.166116e-01
 outer loop
  vertex 4.536085e-04 3.410057e-03 -1.470201e-03
  vertex -7.295713e-04 2.765347e-03 -2.901946e-03
  vertex -5.719113e-04 3.387056e-03 -1.840324e-03
 endloop
endfacet
facet normal -3.011085e-01 -9.499900e-01 -8.278092e-02
 outer loop
  vertex 1.562927e-03 -3.018426e-03 -2.435306e-03
  vertex 1.108515e-03 -3.001897e-03 -9.720996e-04
  vertex 1.561527e-04 -2.559205e-03 -2.588281e-03
 endloop
endfacet
facet normal 1.146814e-01 -9.388268e-01 -3.247343e-01
 outer loop
  vertex 1.561527e-04 -2.559205e-03 -2.588281e-03
  vertex 1.108515e-03 -3.001897e-03 -9.720996e-04
  vertex -2.980490e-04 -2.878815e-03 -1.824673e-03
 endloop
endfacet
facet normal -6.673532e-03 -7.239768e-01 -6.897921e-01
 outer loop
  vertex 1.561527e-04 -2.559205e-03 -2.588281e-03
  vertex -9.303717e-04 -2.609084e-03 -2.525419e-03
  vertex -4.227726e-04 -1.531574e-03 -3.661239e-03
 endloop
endfacet
facet normal 2.081511e-02 -9.266078e-01 -3.754527e-01
 outer loop
  vertex 1.561527e-04 -2.559205e-03 -2.588281e-03
  vertex -2.980490e-04 -2.878815e-03 -1.824673e-03
  vertex -9.303717e-04 -2.609084e-03 -2.525419e-03
 endloop
endfacet
facet normal -2.656892e-01 -4.389482e-01 -8.583319e-01
 outer loop
  vertex -1.346069e-03 -2.150718e-04 -4.048695e-03
  vertex -4.227726e-04 -1.531574e-03 -3.661239e-03
  vertex -3.147958e-03 -8.969858e-04 -3.142208e-03
 endloop
endfacet
facet normal -4.043907e-01 -1.340867e-01 -9.047038e-01
 outer loop
  vertex -1.346069e-03 -2.150718e-04 -4.048695e-03
  vertex -3.147958e-03 -8.969858e-04 -3.142208e-03
  vertex -2.405052e-03 3.439582e-04 -3.658198e-03
 endloop
endfacet
facet normal -4.609438e-01 -9.109835e-02 -8.827411e-01
 outer loop
  vertex -2.405052e-03 3.439582e-04 -3.658198e-03
  vertex -3.147958e-03 -8.969858e-04 -3.142208e-03
  vertex -3.792171e-03 -2.693044e-05 -2.895606e-03
 endloop
endfacet
facet normal -5.187249e-01 2.769514e-01 -8.088402e-01
 outer loop
  vertex -2.405052e-03 3.439582e-04 -3.658198e-03
  vertex -3.792171e-03 -2.693044e-05 -2.895606e-03
  vertex -3.701306e-03 1.341251e-03 -2.485406e-03
 endloop
endfacet
facet normal 4.818068e-01 1.705928e-01 8.595117e-01
 outer loop
  vertex 6.438171e-03 -6.228966e-05 5.201936e-04
  vertex 5.540319e-03 -6.410282e-04 1.138359e-03
  vertex 6.550692e-03 -1.160405e-03 6.750693e-04
 endloop
endfacet
facet normal 4.010740e-01 2.987606e-01 8.659571e-01
 outer loop
  vertex 6.088563e-03 7.483946e-04 4.024258e-04
  vertex 4.276993e-03 2.794516e-04 1.403255e-03
  vertex 6.438171e-03 -6.228966e-05 5.201936e-04
 endloop
endfacet
facet normal 4.011131e-01 3.015956e-01 8.649557e-01
 outer loop
  vertex 6.438171e-03 -6.228966e-05 5.201936e-04
  vertex 4.276993e-03 2.794516e-04 1.403255e-03
  vertex 5.540319e-03 -6.410282e-04 1.138359e-03
 endloop
endfacet
facet normal 3.492279e-01 4.289283e-01 8.331028e-01
 outer loop
  vertex 6.088563e-03 7.483946e-04 4.024258e-04
  vertex 5.601625e-03 1.589200e-03 1.736509e-04
  vertex 4.276993e-03 2.794516e-04 1.403255e-03
 endloop
endfacet
facet normal 3.486449e-01 -1.603060e-01 9.234439e-01
 outer loop
  vertex 5.493643e-03 -1.706139e-03 9.794196e-04
  vertex 6.042960e-03 -2.239533e-03 6.794307e-04
  vertex 6.550692e-03 -1.160405e-03 6.750693e-04
 endloop
endfacet
facet normal 3.525657e-01 -3.051087e-01 8.846503e-01
 outer loop
  vertex 5.540319e-03 -6.410282e-04 1.138359e-03
  vertex 4.752933e-03 -6.589099e-04 1.445994e-03
  vertex 4.437937e-03 -1.722831e-03 1.204593e-03
 endloop
endfacet
facet normal 2.084524e-01 -1.532765e-01 9.659472e-01
 outer loop
  vertex 5.493643e-03 -1.706139e-03 9.794196e-04
  vertex 5.540319e-03 -6.410282e-04 1.138359e-03
  vertex 4.437937e-03 -1.722831e-03 1.204593e-03
 endloop
endfacet
facet normal 3.456858e-01 -1.532913e-01 9.257446e-01
 outer loop
  vertex 5.540319e-03 -6.410282e-04 1.138359e-03
  vertex 5.493643e-03 -1.706139e-03 9.794196e-04
  vertex 6.550692e-03 -1.160405e-03 6.750693e-04
 endloop
endfacet
facet normal 3.507256e-01 2.193552e-01 9.104256e-01
 outer loop
  vertex 4.752933e-03 -6.589099e-04 1.445994e-03
  vertex 5.540319e-03 -6.410282e-04 1.138359e-03
  vertex 4.276993e-03 2.794516e-04 1.403255e-03
 endloop
endfacet
facet normal 5.840170e-01 1.570230e-01 7.964094e-01
 outer loop
  vertex 4.276993e-03 2.794516e-04 1.403255e-03
  vertex 5.601625e-03 1.589200e-03 1.736509e-04
  vertex 4.622984e-03 1.765266e-03 8.565874e-04
 endloop
endfacet
facet normal 5.259111e-01 6.052258e-01 5.975945e-01
 outer loop
  vertex 4.622984e-03 1.765266e-03 8.565874e-04
  vertex 5.601625e-03 1.589200e-03 1.736509e-04
  vertex 4.648212e-03 2.434146e-03 1.569638e-04
 endloop
endfacet
facet normal 3.696585e-01 6.649171e-01 6.490284e-01
 outer loop
  vertex 3.840073e-03 2.184591e-03 8.729085e-04
  vertex 4.622984e-03 1.765266e-03 8.565874e-04
  vertex 4.648212e-03 2.434146e-03 1.569638e-04
 endloop
endfacet
facet normal 1.069808e-01 8.114190e-01 5.745905e-01
 outer loop
  vertex 2.890523e-03 2.554266e-03 5.276585e-04
  vertex 3.840073e-03 2.184591e-03 8.729085e-04
  vertex 3.795500e-03 3.089108e-03 -3.961234e-04
 endloop
endfacet
facet normal 2.481229e-01 7.929532e-01 5.564713e-01
 outer loop
  vertex 3.840073e-03 2.184591e-03 8.729085e-04
  vertex 4.648212e-03 2.434146e-03 1.569638e-04
  vertex 3.795500e-03 3.089108e-03 -3.961234e-04
 endloop
endfacet
facet normal 3.150216e-01 -6.139574e-01 7.237525e-01
 outer loop
  vertex 4.881937e-03 -2.787740e-03 7.197361e-04
  vertex 5.622290e-03 -3.109318e-03 1.246958e-04
  vertex 6.042960e-03 -2.239533e-03 6.794307e-04
 endloop
endfacet
facet normal 2.016100e-01 -3.350008e-01 9.203955e-01
 outer loop
  vertex 4.881937e-03 -2.787740e-03 7.197361e-04
  vertex 5.493643e-03 -1.706139e-03 9.794196e-04
  vertex 4.437937e-03 -1.722831e-03 1.204593e-03
 endloop
endfacet
facet normal 1.870681e-01 -3.281061e-01 9.259330e-01
 outer loop
  vertex 6.042960e-03 -2.239533e-03 6.794307e-04
  vertex 5.493643e-03 -1.706139e-03 9.794196e-04
  vertex 4.881937e-03 -2.787740e-03 7.197361e-04
 endloop
endfacet
facet normal -7.602228e-02 8.934023e-01 4.427786e-01
 outer loop
  vertex 3.795500e-03 3.089108e-03 -3.961234e-04
  vertex 2.721306e-03 3.076761e-03 -5.556425e-04
  vertex 2.890523e-03 2.554266e-03 5.276585e-04
 endloop
endfacet
facet normal -6.535971e-02 -6.241970e-01 7.785282e-01
 outer loop
  vertex 3.641310e-03 -3.174905e-03 3.051664e-04
  vertex 4.462406e-03 -3.511368e-03 1.043358e-04
  vertex 4.881937e-03 -2.787740e-03 7.197361e-04
 endloop
endfacet
facet normal 2.325380e-01 -7.047945e-01 6.702170e-01
 outer loop
  vertex 4.881937e-03 -2.787740e-03 7.197361e-04
  vertex 4.462406e-03 -3.511368e-03 1.043358e-04
  vertex 5.622290e-03 -3.109318e-03 1.246958e-04
 endloop
endfacet
facet normal -1.487367e-01 -4.604633e-01 8.751291e-01
 outer loop
  vertex 4.881937e-03 -2.787740e-03 7.197361e-04
  vertex 4.437937e-03 -1.722831e-03 1.204593e-03
  vertex 3.641310e-03 -3.174905e-03 3.051664e-04
 endloop
endfacet
facet normal 3.335073e-01 8.684716e-01 3.667833e-01
 outer loop
  vertex 1.918491e-03 2.975874e-03 4.132186e-04
  vertex 2.890523e-03 2.554266e-03 5.276585e-04
  vertex 2.721306e-03 3.076761e-03 -5.556425e-04
 endloop
endfacet
facet normal 2.396011e-01 9.250133e-01 2.948587e-01
 outer loop
  vertex 2.001620e-03 3.386798e-03 -9.434584e-04
  vertex 1.918491e-03 2.975874e-03 4.132186e-04
  vertex 2.721306e-03 3.076761e-03 -5.556425e-04
 endloop
endfacet
facet normal 4.316528e-01 8.556298e-01 2.856109e-01
 outer loop
  vertex 1.401100e-03 3.493414e-03 -3.552734e-04
  vertex 1.918491e-03 2.975874e-03 4.132186e-04
  vertex 2.001620e-03 3.386798e-03 -9.434584e-04
 endloop
endfacet
facet normal 1.970643e-01 9.801079e-01 2.353945e-02
 outer loop
  vertex 2.001620e-03 3.386798e-03 -9.434584e-04
  vertex 1.211734e-03 3.559709e-03 -1.530269e-03
  vertex 1.401100e-03 3.493414e-03 -3.552734e-04
 endloop
endfacet
facet normal -6.781348e-02 -9.604430e-01 2.700937e-01
 outer loop
  vertex 2.529525e-03 -3.169273e-03 4.605450e-05
  vertex 2.886284e-03 -3.613784e-03 -1.445037e-03
  vertex 3.641310e-03 -3.174905e-03 3.051664e-04
 endloop
endfacet
facet normal 6.487803e-01 6.715344e-01 -3.579464e-01
 outer loop
  vertex 4.536085e-04 3.410057e-03 -1.470201e-03
  vertex 1.296232e-04 4.025396e-03 -9.030054e-04
  vertex 9.244235e-04 4.025643e-03 5.380396e-04
 endloop
endfacet
facet normal 3.306071e-01 8.778246e-01 -3.465875e-01
 outer loop
  vertex 1.401100e-03 3.493414e-03 -3.552734e-04
  vertex 4.536085e-04 3.410057e-03 -1.470201e-03
  vertex 9.244235e-04 4.025643e-03 5.380396e-04
 endloop
endfacet
facet normal -1.864474e-01 9.787575e-01 8.527101e-02
 outer loop
  vertex 4.536085e-04 3.410057e-03 -1.470201e-03
  vertex 1.401100e-03 3.493414e-03 -3.552734e-04
  vertex 1.211734e-03 3.559709e-03 -1.530269e-03
 endloop
endfacet
facet normal 7.787431e-01 4.643552e-01 -4.218216e-01
 outer loop
  vertex -3.611017e-04 4.795691e-03 -9.609871e-04
  vertex 1.044055e-04 5.241027e-03 3.886458e-04
  vertex 1.296232e-04 4.025396e-03 -9.030054e-04
 endloop
endfacet
facet normal 7.732140e-01 4.692565e-01 -4.265424e-01
 outer loop
  vertex 1.296232e-04 4.025396e-03 -9.030054e-04
  vertex 1.044055e-04 5.241027e-03 3.886458e-04
  vertex 9.244235e-04 4.025643e-03 5.380396e-04
 endloop
endfacet
facet normal 5.955432e-01 6.789099e-01 -4.294295e-01
 outer loop
  vertex -3.611017e-04 4.795691e-03 -9.609871e-04
  vertex -8.131754e-04 5.462279e-03 -5.340874e-04
  vertex 1.044055e-04 5.241027e-03 3.886458e-04
 endloop
endfacet
facet normal -3.524756e-01 -8.682232e-01 3.492125e-01
 outer loop
  vertex 2.083331e-03 -3.476019e-03 -1.166950e-03
  vertex 2.529525e-03 -3.169273e-03 4.605450e-05
  vertex 1.108515e-03 -3.001897e-03 -9.720996e-04
 endloop
endfacet
facet normal -7.155290e-02 -9.604244e-01 2.691934e-01
 outer loop
  vertex 2.083331e-03 -3.476019e-03 -1.166950e-03
  vertex 2.886284e-03 -3.613784e-03 -1.445037e-03
  vertex 2.529525e-03 -3.169273e-03 4.605450e-05
 endloop
endfacet
facet normal 2.207480e-01 7.213333e-01 -6.564667e-01
 outer loop
  vertex 1.296232e-04 4.025396e-03 -9.030054e-04
  vertex 4.536085e-04 3.410057e-03 -1.470201e-03
  vertex -5.719113e-04 3.387056e-03 -1.840324e-03
 endloop
endfacet
facet normal 4.578904e-01 2.270047e-01 -8.595378e-01
 outer loop
  vertex 1.296232e-04 4.025396e-03 -9.030054e-04
  vertex -1.153948e-03 4.159367e-03 -1.551404e-03
  vertex -3.611017e-04 4.795691e-03 -9.609871e-04
 endloop
endfacet
facet normal 4.155834e-01 5.764087e-01 -7.035932e-01
 outer loop
  vertex 1.296232e-04 4.025396e-03 -9.030054e-04
  vertex -5.719113e-04 3.387056e-03 -1.840324e-03
  vertex -1.153948e-03 4.159367e-03 -1.551404e-03
 endloop
endfacet
facet normal 1.142454e-01 5.895650e-01 -7.996006e-01
 outer loop
  vertex -3.611017e-04 4.795691e-03 -9.609871e-04
  vertex -1.656549e-03 4.907575e-03 -1.063583e-03
  vertex -8.131754e-04 5.462279e-03 -5.340874e-04
 endloop
endfacet
facet normal 1.144030e-01 5.953566e-01 -7.952751e-01
 outer loop
  vertex -1.656549e-03 4.907575e-03 -1.063583e-03
  vertex -3.611017e-04 4.795691e-03 -9.609871e-04
  vertex -1.153948e-03 4.159367e-03 -1.551404e-03
 endloop
endfacet
facet normal 2.255707e-01 8.256999e-01 -5.170470e-01
 outer loop
  vertex -7.295713e-04 2.765347e-03 -2.901946e-03
  vertex -1.638291e-03 3.387352e-03 -2.305078e-03
  vertex -5.719113e-04 3.387056e-03 -1.840324e-03
 endloop
endfacet
facet normal 3.360070e-01 5.415138e-01 -7.706245e-01
 outer loop
  vertex -1.153948e-03 4.159367e-03 -1.551404e-03
  vertex -5.719113e-04 3.387056e-03 -1.840324e-03
  vertex -1.638291e-03 3.387352e-03 -2.305078e-03
 endloop
endfacet
facet normal -1.447408e-01 4.703456e-01 -8.705315e-01
 outer loop
  vertex -1.656549e-03 4.907575e-03 -1.063583e-03
  vertex -1.153948e-03 4.159367e-03 -1.551404e-03
  vertex -2.921905e-03 3.697298e-03 -1.507106e-03
 endloop
endfacet
facet normal -2.111254e-01 7.474114e-01 -6.299224e-01
 outer loop
  vertex -2.921905e-03 3.697298e-03 -1.507106e-03
  vertex -1.153948e-03 4.159367e-03 -1.551404e-03
  vertex -1.638291e-03 3.387352e-03 -2.305078e-03
 endloop
endfacet
facet normal 1.285071e-01 -9.293280e-01 -3.461724e-01
 outer loop
  vertex 4.304554e-05 -3.292427e-03 -5.876772e-04
  vertex -2.980490e-04 -2.878815e-03 -1.824673e-03
  vertex 1.108515e-03 -3.001897e-03 -9.720996e-04
 endloop
endfacet
facet normal -1.219021e-01 5.887112e-01 -7.990989e-01
 outer loop
  vertex -1.993039e-03 2.063504e-03 -3.226265e-03
  vertex -1.638291e-03 3.387352e-03 -2.305078e-03
  vertex -7.295713e-04 2.765347e-03 -2.901946e-03
 endloop
endfacet
facet normal -3.143044e-01 5.975302e-01 -7.376790e-01
 outer loop
  vertex -2.921905e-03 3.697298e-03 -1.507106e-03
  vertex -1.638291e-03 3.387352e-03 -2.305078e-03
  vertex -1.993039e-03 2.063504e-03 -3.226265e-03
 endloop
endfacet
facet normal 4.545794e-01 -7.475195e-01 -4.843266e-01
 outer loop
  vertex -1.092081e-03 -3.360622e-03 -1.547830e-03
  vertex 4.304554e-05 -3.292427e-03 -5.876772e-04
  vertex -6.226781e-04 -4.141681e-03 9.824419e-05
 endloop
endfacet
facet normal 2.813675e-01 -7.826991e-01 -5.551706e-01
 outer loop
  vertex -1.092081e-03 -3.360622e-03 -1.547830e-03
  vertex -9.303717e-04 -2.609084e-03 -2.525419e-03
  vertex -2.980490e-04 -2.878815e-03 -1.824673e-03
 endloop
endfacet
facet normal 3.766907e-01 -8.423094e-01 -3.855114e-01
 outer loop
  vertex -1.092081e-03 -3.360622e-03 -1.547830e-03
  vertex -2.980490e-04 -2.878815e-03 -1.824673e-03
  vertex 4.304554e-05 -3.292427e-03 -5.876772e-04
 endloop
endfacet
facet normal -5.107024e-01 4.683285e-01 -7.210072e-01
 outer loop
  vertex -1.993039e-03 2.063504e-03 -3.226265e-03
  vertex -3.701306e-03 1.341251e-03 -2.485406e-03
  vertex -2.921905e-03 3.697298e-03 -1.507106e-03
 endloop
endfacet
facet normal 4.691394e-01 -7.385399e-01 -4.842179e-01
 outer loop
  vertex -1.092081e-03 -3.360622e-03 -1.547830e-03
  vertex -6.226781e-04 -4.141681e-03 9.824419e-05
  vertex -1.891657e-03 -3.912475e-03 -1.480810e-03
 endloop
endfacet
facet normal 2.621895e-01 -9.024935e-01 -3.417047e-01
 outer loop
  vertex -1.891657e-03 -3.912475e-03 -1.480810e-03
  vertex -6.226781e-04 -4.141681e-03 9.824419e-05
  vertex -2.294631e-03 -4.483930e-03 -2.807109e-04
 endloop
endfacet
facet normal 1.295161e-01 -7.476282e-01 -6.513660e-01
 outer loop
  vertex -2.078777e-03 -2.875872e-03 -2.447550e-03
  vertex -4.227726e-04 -1.531574e-03 -3.661239e-03
  vertex -9.303717e-04 -2.609084e-03 -2.525419e-03
 endloop
endfacet
facet normal 1.450295e-01 -7.958666e-01 -5.878459e-01
 outer loop
  vertex -1.092081e-03 -3.360622e-03 -1.547830e-03
  vertex -2.078777e-03 -2.875872e-03 -2.447550e-03
  vertex -9.303717e-04 -2.609084e-03 -2.525419e-03
 endloop
endfacet
facet normal 3.557665e-01 -6.022586e-01 -7.146431e-01
 outer loop
  vertex -1.891657e-03 -3.912475e-03 -1.480810e-03
  vertex -2.078777e-03 -2.875872e-03 -2.447550e-03
  vertex -1.092081e-03 -3.360622e-03 -1.547830e-03
 endloop
endfacet
facet normal 2.728031e-03 -9.032183e-01 -4.291727e-01
 outer loop
  vertex -3.078696e-03 -3.710743e-03 -1.912911e-03
  vertex -1.891657e-03 -3.912475e-03 -1.480810e-03
  vertex -2.294631e-03 -4.483930e-03 -2.807109e-04
 endloop
endfacet
facet normal 1.561070e-01 -6.584537e-01 -7.362536e-01
 outer loop
  vertex -3.078696e-03 -3.710743e-03 -1.912911e-03
  vertex -2.078777e-03 -2.875872e-03 -2.447550e-03
  vertex -1.891657e-03 -3.912475e-03 -1.480810e-03
 endloop
endfacet
facet normal -8.680690e-02 -6.065642e-01 -7.902812e-01
 outer loop
  vertex -2.078777e-03 -2.875872e-03 -2.447550e-03
  vertex -3.243808e-03 -2.332504e-03 -2.736630e-03
  vertex -4.227726e-04 -1.531574e-03 -3.661239e-03
 endloop
endfacet
facet normal -2.777749e-02 -5.152704e-01 -8.565774e-01
 outer loop
  vertex -3.078696e-03 -3.710743e-03 -1.912911e-03
  vertex -3.243808e-03 -2.332504e-03 -2.736630e-03
  vertex -2.078777e-03 -2.875872e-03 -2.447550e-03
 endloop
endfacet
facet normal -2.369210e-01 -2.494639e-01 -9.389548e-01
 outer loop
  vertex -3.147958e-03 -8.969858e-04 -3.142208e-03
  vertex -4.227726e-04 -1.531574e-03 -3.661239e-03
  vertex -3.243808e-03 -2.332504e-03 -2.736630e-03
 endloop
endfacet
facet normal -7.945591e-01 -4.846364e-01 -3.657914e-01
 outer loop
  vertex -3.792171e-03 -2.693044e-05 -2.895606e-03
  vertex -3.147958e-03 -8.969858e-04 -3.142208e-03
  vertex -4.610856e-03 4.205502e-04 -1.710154e-03
 endloop
endfacet
facet normal -7.567171e-01 2.333457e-01 -6.106791e-01
 outer loop
  vertex -3.792171e-03 -2.693044e-05 -2.895606e-03
  vertex -4.610856e-03 4.205502e-04 -1.710154e-03
  vertex -3.701306e-03 1.341251e-03 -2.485406e-03
 endloop
endfacet
facet normal -3.581116e-01 -5.102322e-01 -7.819330e-01
 outer loop
  vertex -4.057410e-03 -3.198505e-03 -1.798926e-03
  vertex -3.243808e-03 -2.332504e-03 -2.736630e-03
  vertex -3.078696e-03 -3.710743e-03 -1.912911e-03
 endloop
endfacet
facet normal -5.640685e-01 -3.021496e-01 -7.684610e-01
 outer loop
  vertex -3.243808e-03 -2.332504e-03 -2.736630e-03
  vertex -4.057410e-03 -3.198505e-03 -1.798926e-03
  vertex -4.583585e-03 -1.578348e-03 -2.049727e-03
 endloop
endfacet
facet normal -5.328107e-01 -1.969458e-01 -8.229977e-01
 outer loop
  vertex -3.243808e-03 -2.332504e-03 -2.736630e-03
  vertex -4.583585e-03 -1.578348e-03 -2.049727e-03
  vertex -3.147958e-03 -8.969858e-04 -3.142208e-03
 endloop
endfacet
facet normal -6.367885e-01 1.206819e-01 -7.615355e-01
 outer loop
  vertex -3.147958e-03 -8.969858e-04 -3.142208e-03
  vertex -4.583585e-03 -1.578348e-03 -2.049727e-03
  vertex -4.610856e-03 4.205502e-04 -1.710154e-03
 endloop
endfacet
facet normal 1.813182e-01 3.021078e-01 9.358710e-01
 outer loop
  vertex 4.622984e-03 1.765266e-03 8.565874e-04
  vertex 3.840073e-03 2.184591e-03 8.729085e-04
  vertex 4.276993e-03 2.794516e-04 1.403255e-03
 endloop
endfacet
facet normal -3.189155e-01 -1.189282e-01 9.402920e-01
 outer loop
  vertex 4.276993e-03 2.794516e-04 1.403255e-03
  vertex 4.437937e-03 -1.722831e-03 1.204593e-03
  vertex 4.752933e-03 -6.589099e-04 1.445994e-03
 endloop
endfacet
facet normal 3.949364e-01 3.293247e-01 8.576540e-01
 outer loop
  vertex 4.276993e-03 2.794516e-04 1.403255e-03
  vertex 3.840073e-03 2.184591e-03 8.729085e-04
  vertex 2.261284e-03 1.773244e-03 1.757867e-03
 endloop
endfacet
facet normal 1.086608e-01 8.131492e-01 5.718226e-01
 outer loop
  vertex 3.840073e-03 2.184591e-03 8.729085e-04
  vertex 2.890523e-03 2.554266e-03 5.276585e-04
  vertex 2.261284e-03 1.773244e-03 1.757867e-03
 endloop
endfacet
facet normal 4.835051e-01 6.057585e-01 6.318857e-01
 outer loop
  vertex 1.864528e-03 2.444994e-03 1.417482e-03
  vertex 2.261284e-03 1.773244e-03 1.757867e-03
  vertex 2.890523e-03 2.554266e-03 5.276585e-04
 endloop
endfacet
facet normal 1.985698e-01 -5.925127e-01 7.807040e-01
 outer loop
  vertex 3.226660e-03 -2.104296e-03 1.223167e-03
  vertex 3.641310e-03 -3.174905e-03 3.051664e-04
  vertex 4.437937e-03 -1.722831e-03 1.204593e-03
 endloop
endfacet
facet normal 4.296005e-01 -2.547425e-01 8.663427e-01
 outer loop
  vertex 3.226660e-03 -2.104296e-03 1.223167e-03
  vertex 4.276993e-03 2.794516e-04 1.403255e-03
  vertex 2.736095e-03 -1.004750e-03 1.789742e-03
 endloop
endfacet
facet normal 4.517812e-02 -9.503545e-02 9.944482e-01
 outer loop
  vertex 4.437937e-03 -1.722831e-03 1.204593e-03
  vertex 4.276993e-03 2.794516e-04 1.403255e-03
  vertex 3.226660e-03 -2.104296e-03 1.223167e-03
 endloop
endfacet
facet normal 3.079495e-01 8.341748e-01 4.575144e-01
 outer loop
  vertex 1.918491e-03 2.975874e-03 4.132186e-04
  vertex 1.864528e-03 2.444994e-03 1.417482e-03
  vertex 2.890523e-03 2.554266e-03 5.276585e-04
 endloop
endfacet
facet normal 7.244853e-01 6.888779e-01 -2.383919e-02
 outer loop
  vertex 1.918491e-03 2.975874e-03 4.132186e-04
  vertex 1.401100e-03 3.493414e-03 -3.552734e-04
  vertex 9.244235e-04 4.025643e-03 5.380396e-04
 endloop
endfacet
facet normal 1.828448e-02 -7.467844e-01 6.648148e-01
 outer loop
  vertex 2.043572e-03 -2.354316e-03 9.748582e-04
  vertex 2.529525e-03 -3.169273e-03 4.605450e-05
  vertex 3.226660e-03 -2.104296e-03 1.223167e-03
 endloop
endfacet
facet normal -1.699812e-01 -6.785698e-01 7.145974e-01
 outer loop
  vertex 3.226660e-03 -2.104296e-03 1.223167e-03
  vertex 2.529525e-03 -3.169273e-03 4.605450e-05
  vertex 3.641310e-03 -3.174905e-03 3.051664e-04
 endloop
endfacet
facet normal -8.038148e-02 -4.846700e-01 8.709959e-01
 outer loop
  vertex 3.226660e-03 -2.104296e-03 1.223167e-03
  vertex 2.736095e-03 -1.004750e-03 1.789742e-03
  vertex 2.043572e-03 -2.354316e-03 9.748582e-04
 endloop
endfacet
facet normal 5.196959e-01 7.890477e-01 -3.275971e-01
 outer loop
  vertex -8.131754e-04 5.462279e-03 -5.340874e-04
  vertex -1.038868e-03 5.912659e-03 1.926575e-04
  vertex 1.044055e-04 5.241027e-03 3.886458e-04
 endloop
endfacet
facet normal -4.230748e-01 -7.792422e-01 4.623735e-01
 outer loop
  vertex 2.043572e-03 -2.354316e-03 9.748582e-04
  vertex 1.108515e-03 -3.001897e-03 -9.720996e-04
  vertex 2.529525e-03 -3.169273e-03 4.605450e-05
 endloop
endfacet
facet normal 2.004490e-01 -9.544107e-01 2.211795e-01
 outer loop
  vertex 9.193973e-04 -2.642088e-03 7.519062e-04
  vertex 1.108515e-03 -3.001897e-03 -9.720996e-04
  vertex 2.043572e-03 -2.354316e-03 9.748582e-04
 endloop
endfacet
facet normal -1.254881e-01 8.253697e-01 -5.504704e-01
 outer loop
  vertex -1.038868e-03 5.912659e-03 1.926575e-04
  vertex -8.131754e-04 5.462279e-03 -5.340874e-04
  vertex -2.037006e-03 5.513543e-03 -1.782317e-04
 endloop
endfacet
facet normal -1.414160e-01 7.875535e-01 -5.998008e-01
 outer loop
  vertex -2.037006e-03 5.513543e-03 -1.782317e-04
  vertex -8.131754e-04 5.462279e-03 -5.340874e-04
  vertex -1.656549e-03 4.907575e-03 -1.063583e-03
 endloop
endfacet
facet normal 3.317185e-01 -9.155442e-01 2.274677e-01
 outer loop
  vertex 9.193973e-04 -2.642088e-03 7.519062e-04
  vertex 4.304554e-05 -3.292427e-03 -5.876772e-04
  vertex 1.108515e-03 -3.001897e-03 -9.720996e-04
 endloop
endfacet
facet normal 7.575019e-01 -6.237300e-01 -1.927482e-01
 outer loop
  vertex 2.892832e-04 -3.330577e-03 5.034918e-04
  vertex 4.304554e-05 -3.292427e-03 -5.876772e-04
  vertex 9.193973e-04 -2.642088e-03 7.519062e-04
 endloop
endfacet
facet normal -3.583232e-01 6.914851e-01 -6.272581e-01
 outer loop
  vertex -2.037006e-03 5.513543e-03 -1.782317e-04
  vertex -1.656549e-03 4.907575e-03 -1.063583e-03
  vertex -2.632204e-03 4.734184e-03 -6.973834e-04
 endloop
endfacet
facet normal -3.679723e-01 6.339836e-01 -6.801920e-01
 outer loop
  vertex -2.921905e-03 3.697298e-03 -1.507106e-03
  vertex -2.632204e-03 4.734184e-03 -6.973834e-04
  vertex -1.656549e-03 4.907575e-03 -1.063583e-03
 endloop
endfacet
facet normal 6.973569e-01 -6.933336e-01 -1.816091e-01
 outer loop
  vertex 2.892832e-04 -3.330577e-03 5.034918e-04
  vertex -6.226781e-04 -4.141681e-03 9.824419e-05
  vertex 4.304554e-05 -3.292427e-03 -5.876772e-04
 endloop
endfacet
facet normal -7.858823e-01 3.432701e-01 -5.143488e-01
 outer loop
  vertex -4.610856e-03 4.205502e-04 -1.710154e-03
  vertex -4.097004e-03 2.689535e-03 -9.809844e-04
  vertex -3.701306e-03 1.341251e-03 -2.485406e-03
 endloop
endfacet
facet normal -6.615067e-01 4.636007e-01 -5.894771e-01
 outer loop
  vertex -2.921905e-03 3.697298e-03 -1.507106e-03
  vertex -3.701306e-03 1.341251e-03 -2.485406e-03
  vertex -4.097004e-03 2.689535e-03 -9.809844e-04
 endloop
endfacet
facet normal 8.251127e-02 -8.847309e-01 -4.587408e-01
 outer loop
  vertex -3.078696e-03 -3.710743e-03 -1.912911e-03
  vertex -2.294631e-03 -4.483930e-03 -2.807109e-04
  vertex -3.452473e-03 -4.297280e-03 -8.489404e-04
 endloop
endfacet
facet normal -4.372872e-01 -7.137658e-01 -5.470999e-01
 outer loop
  vertex -3.452473e-03 -4.297280e-03 -8.489404e-04
  vertex -4.057410e-03 -3.198505e-03 -1.798926e-03
  vertex -3.078696e-03 -3.710743e-03 -1.912911e-03
 endloop
endfacet
facet normal -9.325563e-01 -3.266613e-01 -1.537241e-01
 outer loop
  vertex -4.057410e-03 -3.198505e-03 -1.798926e-03
  vertex -4.505113e-03 -2.307106e-03 -9.771749e-04
  vertex -4.583585e-03 -1.578348e-03 -2.049727e-03
 endloop
endfacet
facet normal -7.481605e-01 -5.729840e-01 -3.345821e-01
 outer loop
  vertex -5.002707e-03 -1.418870e-03 -1.385640e-03
  vertex -4.583585e-03 -1.578348e-03 -2.049727e-03
  vertex -4.505113e-03 -2.307106e-03 -9.771749e-04
 endloop
endfacet
facet normal -5.778804e-01 1.290153e-01 -8.058593e-01
 outer loop
  vertex -4.583585e-03 -1.578348e-03 -2.049727e-03
  vertex -5.160915e-03 -6.971442e-04 -1.494647e-03
  vertex -4.610856e-03 4.205502e-04 -1.710154e-03
 endloop
endfacet
facet normal -8.440241e-01 -2.561796e-01 -4.711638e-01
 outer loop
  vertex -4.583585e-03 -1.578348e-03 -2.049727e-03
  vertex -5.002707e-03 -1.418870e-03 -1.385640e-03
  vertex -5.160915e-03 -6.971442e-04 -1.494647e-03
 endloop
endfacet
facet normal 2.792389e-01 4.672975e-01 8.388437e-01
 outer loop
  vertex 4.276993e-03 2.794516e-04 1.403255e-03
  vertex 2.091901e-03 2.402670e-04 2.152469e-03
  vertex 3.129861e-03 -4.098109e-05 1.963623e-03
 endloop
endfacet
facet normal 3.142486e-01 2.039414e-01 9.271762e-01
 outer loop
  vertex 4.276993e-03 2.794516e-04 1.403255e-03
  vertex 2.261284e-03 1.773244e-03 1.757867e-03
  vertex 2.091901e-03 2.402670e-04 2.152469e-03
 endloop
endfacet
facet normal 4.879742e-01 -3.440974e-01 8.021709e-01
 outer loop
  vertex 4.276993e-03 2.794516e-04 1.403255e-03
  vertex 3.129861e-03 -4.098109e-05 1.963623e-03
  vertex 2.736095e-03 -1.004750e-03 1.789742e-03
 endloop
endfacet
facet normal 1.159717e-01 -2.220479e-01 9.681143e-01
 outer loop
  vertex 3.129861e-03 -4.098109e-05 1.963623e-03
  vertex 2.091901e-03 2.402670e-04 2.152469e-03
  vertex 2.736095e-03 -1.004750e-03 1.789742e-03
 endloop
endfacet
facet normal 5.833234e-01 6.139775e-01 5.317570e-01
 outer loop
  vertex 9.309878e-04 2.522752e-03 2.351770e-03
  vertex 2.261284e-03 1.773244e-03 1.757867e-03
  vertex 1.864528e-03 2.444994e-03 1.417482e-03
 endloop
endfacet
facet normal 7.718398e-01 5.440386e-01 3.290672e-01
 outer loop
  vertex 5.969077e-04 3.739193e-03 2.251067e-03
  vertex 1.864528e-03 2.444994e-03 1.417482e-03
  vertex 1.918491e-03 2.975874e-03 4.132186e-04
 endloop
endfacet
facet normal 6.956861e-01 2.469062e-01 6.745800e-01
 outer loop
  vertex 5.969077e-04 3.739193e-03 2.251067e-03
  vertex 9.309878e-04 2.522752e-03 2.351770e-03
  vertex 1.864528e-03 2.444994e-03 1.417482e-03
 endloop
endfacet
facet normal 7.182107e-01 6.508340e-01 2.461473e-01
 outer loop
  vertex 5.969077e-04 3.739193e-03 2.251067e-03
  vertex 1.918491e-03 2.975874e-03 4.132186e-04
  vertex 9.244235e-04 4.025643e-03 5.380396e-04
 endloop
endfacet
facet normal 8.308858e-01 5.515159e-01 -7.388557e-02
 outer loop
  vertex 3.607367e-04 5.031934e-03 1.710474e-03
  vertex 9.244235e-04 4.025643e-03 5.380396e-04
  vertex 1.044055e-04 5.241027e-03 3.886458e-04
 endloop
endfacet
facet normal 9.379925e-01 2.648779e-01 2.236285e-01
 outer loop
  vertex 3.607367e-04 5.031934e-03 1.710474e-03
  vertex 5.969077e-04 3.739193e-03 2.251067e-03
  vertex 9.244235e-04 4.025643e-03 5.380396e-04
 endloop
endfacet
facet normal 6.243310e-01 7.811559e-01 2.495382e-03
 outer loop
  vertex 3.607367e-04 5.031934e-03 1.710474e-03
  vertex 1.044055e-04 5.241027e-03 3.886458e-04
  vertex -3.474343e-04 5.598206e-03 1.624892e-03
 endloop
endfacet
facet normal 2.285301e-01 -5.864691e-01 7.770637e-01
 outer loop
  vertex 1.528188e-03 -1.509237e-03 1.764232e-03
  vertex 2.043572e-03 -2.354316e-03 9.748582e-04
  vertex 2.736095e-03 -1.004750e-03 1.789742e-03
 endloop
endfacet
facet normal 5.766714e-01 -3.496640e-01 7.383665e-01
 outer loop
  vertex 3.791144e-04 -1.440060e-03 2.694429e-03
  vertex 1.528188e-03 -1.509237e-03 1.764232e-03
  vertex 2.091901e-03 2.402670e-04 2.152469e-03
 endloop
endfacet
facet normal 7.999267e-02 -2.404446e-01 9.673611e-01
 outer loop
  vertex 2.736095e-03 -1.004750e-03 1.789742e-03
  vertex 2.091901e-03 2.402670e-04 2.152469e-03
  vertex 1.528188e-03 -1.509237e-03 1.764232e-03
 endloop
endfacet
facet normal 4.938348e-01 8.667395e-01 -6.992708e-02
 outer loop
  vertex -8.593287e-04 5.843534e-03 1.050639e-03
  vertex -3.474343e-04 5.598206e-03 1.624892e-03
  vertex 1.044055e-04 5.241027e-03 3.886458e-04
 endloop
endfacet
facet normal 5.109663e-01 8.587721e-01 -3.773558e-02
 outer loop
  vertex 1.044055e-04 5.241027e-03 3.886458e-04
  vertex -1.038868e-03 5.912659e-03 1.926575e-04
  vertex -8.593287e-04 5.843534e-03 1.050639e-03
 endloop
endfacet
facet normal 8.227514e-02 9.946217e-01 6.291639e-02
 outer loop
  vertex -8.593287e-04 5.843534e-03 1.050639e-03
  vertex -1.038868e-03 5.912659e-03 1.926575e-04
  vertex -1.689639e-03 5.930504e-03 7.615616e-04
 endloop
endfacet
facet normal 5.133415e-01 -7.085467e-01 4.841922e-01
 outer loop
  vertex 9.193973e-04 -2.642088e-03 7.519062e-04
  vertex 1.528188e-03 -1.509237e-03 1.764232e-03
  vertex 5.103428e-04 -2.214669e-03 1.811054e-03
 endloop
endfacet
facet normal 2.604978e-02 -6.738488e-01 7.384099e-01
 outer loop
  vertex 1.528188e-03 -1.509237e-03 1.764232e-03
  vertex 9.193973e-04 -2.642088e-03 7.519062e-04
  vertex 2.043572e-03 -2.354316e-03 9.748582e-04
 endloop
endfacet
facet normal -2.495283e-01 9.159880e-01 -3.141681e-01
 outer loop
  vertex -2.037006e-03 5.513543e-03 -1.782317e-04
  vertex -1.689639e-03 5.930504e-03 7.615616e-04
  vertex -1.038868e-03 5.912659e-03 1.926575e-04
 endloop
endfacet
facet normal -6.288118e-01 7.698593e-01 -1.091440e-01
 outer loop
  vertex -2.037006e-03 5.513543e-03 -1.782317e-04
  vertex -2.465380e-03 5.309821e-03 8.527887e-04
  vertex -1.689639e-03 5.930504e-03 7.615616e-04
 endloop
endfacet
facet normal 7.131384e-01 -5.098217e-01 4.811606e-01
 outer loop
  vertex 0.000000e+00 -3.326358e-03 1.389535e-03
  vertex 9.193973e-04 -2.642088e-03 7.519062e-04
  vertex 5.103428e-04 -2.214669e-03 1.811054e-03
 endloop
endfacet
facet normal 6.771876e-01 -7.007480e-01 2.244306e-01
 outer loop
  vertex 0.000000e+00 -3.326358e-03 1.389535e-03
  vertex 2.892832e-04 -3.330577e-03 5.034918e-04
  vertex 9.193973e-04 -2.642088e-03 7.519062e-04
 endloop
endfacet
facet normal -6.848251e-01 7.144662e-01 -1.433619e-01
 outer loop
  vertex -3.068372e-03 4.563505e-03 1.383469e-05
  vertex -2.465380e-03 5.309821e-03 8.527887e-04
  vertex -2.037006e-03 5.513543e-03 -1.782317e-04
 endloop
endfacet
facet normal -6.805926e-01 6.878444e-01 -2.523168e-01
 outer loop
  vertex -3.068372e-03 4.563505e-03 1.383469e-05
  vertex -2.037006e-03 5.513543e-03 -1.782317e-04
  vertex -2.632204e-03 4.734184e-03 -6.973834e-04
 endloop
endfacet
facet normal 8.522554e-01 -5.161638e-01 -8.506269e-02
 outer loop
  vertex 0.000000e+00 -3.326358e-03 1.389535e-03
  vertex -5.889365e-04 -4.281828e-03 1.286722e-03
  vertex -6.226781e-04 -4.141681e-03 9.824419e-05
 endloop
endfacet
facet normal 6.001780e-01 -7.745519e-01 1.996392e-01
 outer loop
  vertex -6.226781e-04 -4.141681e-03 9.824419e-05
  vertex 2.892832e-04 -3.330577e-03 5.034918e-04
  vertex 0.000000e+00 -3.326358e-03 1.389535e-03
 endloop
endfacet
facet normal -7.858068e-01 5.018368e-01 -3.614798e-01
 outer loop
  vertex -2.921905e-03 3.697298e-03 -1.507106e-03
  vertex -3.068372e-03 4.563505e-03 1.383469e-05
  vertex -2.632204e-03 4.734184e-03 -6.973834e-04
 endloop
endfacet
facet normal -7.626679e-01 5.277057e-01 -3.739844e-01
 outer loop
  vertex -2.921905e-03 3.697298e-03 -1.507106e-03
  vertex -3.717130e-03 3.613870e-03 -3.119909e-06
  vertex -3.068372e-03 4.563505e-03 1.383469e-05
 endloop
endfacet
facet normal -2.745891e-02 -9.928349e-01 -1.162967e-01
 outer loop
  vertex -1.644294e-03 -4.253096e-03 1.290621e-03
  vertex -6.226781e-04 -4.141681e-03 9.824419e-05
  vertex -5.889365e-04 -4.281828e-03 1.286722e-03
 endloop
endfacet
facet normal -7.413494e-01 -1.072370e-01 6.624962e-01
 outer loop
  vertex -3.828782e-03 2.540650e-03 0.000000e+00
  vertex -4.262569e-03 1.590063e-03 -6.392880e-04
  vertex -3.747675e-03 1.366352e-03 -9.932139e-05
 endloop
endfacet
facet normal -8.581095e-01 -1.018339e-01 5.032673e-01
 outer loop
  vertex -3.828782e-03 2.540650e-03 0.000000e+00
  vertex -3.747675e-03 1.366352e-03 -9.932139e-05
  vertex -3.174442e-03 1.696463e-03 9.448823e-04
 endloop
endfacet
facet normal -9.760337e-01 1.833884e-01 1.171617e-01
 outer loop
  vertex -4.097004e-03 2.689535e-03 -9.809844e-04
  vertex -4.610856e-03 4.205502e-04 -1.710154e-03
  vertex -4.262569e-03 1.590063e-03 -6.392880e-04
 endloop
endfacet
facet normal -9.293568e-01 2.297567e-01 2.889770e-01
 outer loop
  vertex -3.828782e-03 2.540650e-03 0.000000e+00
  vertex -4.097004e-03 2.689535e-03 -9.809844e-04
  vertex -4.262569e-03 1.590063e-03 -6.392880e-04
 endloop
endfacet
facet normal -9.557609e-01 1.002361e-01 2.765389e-01
 outer loop
  vertex -3.828782e-03 2.540650e-03 0.000000e+00
  vertex -3.717130e-03 3.613870e-03 -3.119909e-06
  vertex -4.097004e-03 2.689535e-03 -9.809844e-04
 endloop
endfacet
facet normal -6.953078e-01 6.372838e-01 -3.322897e-01
 outer loop
  vertex -2.921905e-03 3.697298e-03 -1.507106e-03
  vertex -4.097004e-03 2.689535e-03 -9.809844e-04
  vertex -3.717130e-03 3.613870e-03 -3.119909e-06
 endloop
endfacet
facet normal 4.826687e-01 -5.761553e-01 6.596029e-01
 outer loop
  vertex -3.036056e-03 -4.269544e-03 4.490953e-04
  vertex -2.294631e-03 -4.483930e-03 -2.807109e-04
  vertex -3.236047e-03 -3.311988e-03 1.431854e-03
 endloop
endfacet
facet normal -4.625694e-01 -8.293861e-01 3.132863e-01
 outer loop
  vertex -2.294631e-03 -4.483930e-03 -2.807109e-04
  vertex -1.644294e-03 -4.253096e-03 1.290621e-03
  vertex -3.236047e-03 -3.311988e-03 1.431854e-03
 endloop
endfacet
facet normal 1.854310e-01 -9.803519e-01 6.727154e-02
 outer loop
  vertex -2.294631e-03 -4.483930e-03 -2.807109e-04
  vertex -6.226781e-04 -4.141681e-03 9.824419e-05
  vertex -1.644294e-03 -4.253096e-03 1.290621e-03
 endloop
endfacet
facet normal -7.214119e-01 8.244976e-02 6.875805e-01
 outer loop
  vertex -3.900053e-03 0.000000e+00 -2.113697e-04
  vertex -3.845759e-03 -1.659396e-03 4.457932e-05
  vertex -3.488732e-03 -9.650470e-04 3.359117e-04
 endloop
endfacet
facet normal -7.187051e-01 2.316333e-02 6.949291e-01
 outer loop
  vertex -4.262569e-03 1.590063e-03 -6.392880e-04
  vertex -3.900053e-03 0.000000e+00 -2.113697e-04
  vertex -3.747675e-03 1.366352e-03 -9.932139e-05
 endloop
endfacet
facet normal -1.989533e-01 -9.763430e-01 8.468739e-02
 outer loop
  vertex -2.294631e-03 -4.483930e-03 -2.807109e-04
  vertex -3.036056e-03 -4.269544e-03 4.490953e-04
  vertex -3.452473e-03 -4.297280e-03 -8.489404e-04
 endloop
endfacet
facet normal -2.164589e-01 -9.721148e-01 9.021292e-02
 outer loop
  vertex -3.036056e-03 -4.269544e-03 4.490953e-04
  vertex -3.691900e-03 -4.144400e-03 2.239809e-04
  vertex -3.452473e-03 -4.297280e-03 -8.489404e-04
 endloop
endfacet
facet normal -8.772544e-01 2.919865e-01 3.810099e-01
 outer loop
  vertex -4.203633e-03 -2.765366e-03 6.815213e-05
  vertex -3.845759e-03 -1.659396e-03 4.457932e-05
  vertex -4.505113e-03 -2.307106e-03 -9.771749e-04
 endloop
endfacet
facet normal -6.700458e-01 9.169664e-02 7.366345e-01
 outer loop
  vertex -4.720185e-03 -4.965141e-04 -8.955586e-04
  vertex -3.845759e-03 -1.659396e-03 4.457932e-05
  vertex -3.900053e-03 0.000000e+00 -2.113697e-04
 endloop
endfacet
facet normal -7.972089e-01 -1.213547e-01 5.913806e-01
 outer loop
  vertex -4.505113e-03 -2.307106e-03 -9.771749e-04
  vertex -3.845759e-03 -1.659396e-03 4.457932e-05
  vertex -4.720185e-03 -4.965141e-04 -8.955586e-04
 endloop
endfacet
facet normal -9.746411e-01 2.019020e-01 9.648970e-02
 outer loop
  vertex -4.720185e-03 -4.965141e-04 -8.955586e-04
  vertex -4.262569e-03 1.590063e-03 -6.392880e-04
  vertex -4.610856e-03 4.205502e-04 -1.710154e-03
 endloop
endfacet
facet normal -6.581329e-01 5.208916e-02 7.510977e-01
 outer loop
  vertex -4.720185e-03 -4.965141e-04 -8.955586e-04
  vertex -3.900053e-03 0.000000e+00 -2.113697e-04
  vertex -4.262569e-03 1.590063e-03 -6.392880e-04
 endloop
endfacet
facet normal -7.237473e-01 -6.340091e-01 -2.724378e-01
 outer loop
  vertex -3.452473e-03 -4.297280e-03 -8.489404e-04
  vertex -4.261010e-03 -3.545458e-03 -4.506317e-04
  vertex -4.057410e-03 -3.198505e-03 -1.798926e-03
 endloop
endfacet
facet normal -6.937568e-01 -7.182959e-01 -5.246487e-02
 outer loop
  vertex -3.691900e-03 -4.144400e-03 2.239809e-04
  vertex -4.261010e-03 -3.545458e-03 -4.506317e-04
  vertex -3.452473e-03 -4.297280e-03 -8.489404e-04
 endloop
endfacet
facet normal -9.667272e-01 -8.850933e-02 2.400095e-01
 outer loop
  vertex -4.505113e-03 -2.307106e-03 -9.771749e-04
  vertex -4.261010e-03 -3.545458e-03 -4.506317e-04
  vertex -4.203633e-03 -2.765366e-03 6.815213e-05
 endloop
endfacet
facet normal -9.376512e-01 -2.751371e-01 -2.123909e-01
 outer loop
  vertex -4.505113e-03 -2.307106e-03 -9.771749e-04
  vertex -4.057410e-03 -3.198505e-03 -1.798926e-03
  vertex -4.261010e-03 -3.545458e-03 -4.506317e-04
 endloop
endfacet
facet normal -7.475900e-01 -1.182629e-01 6.535465e-01
 outer loop
  vertex -5.002707e-03 -1.418870e-03 -1.385640e-03
  vertex -4.505113e-03 -2.307106e-03 -9.771749e-04
  vertex -4.720185e-03 -4.965141e-04 -8.955586e-04
 endloop
endfacet
facet normal -7.896622e-01 -8.124901e-02 6.081383e-01
 outer loop
  vertex -5.002707e-03 -1.418870e-03 -1.385640e-03
  vertex -4.720185e-03 -4.965141e-04 -8.955586e-04
  vertex -5.160915e-03 -6.971442e-04 -1.494647e-03
 endloop
endfacet
facet normal -7.803462e-01 4.647196e-01 4.184442e-01
 outer loop
  vertex -5.160915e-03 -6.971442e-04 -1.494647e-03
  vertex -4.720185e-03 -4.965141e-04 -8.955586e-04
  vertex -4.610856e-03 4.205502e-04 -1.710154e-03
 endloop
endfacet
facet normal 5.278912e-01 1.565466e-01 8.347599e-01
 outer loop
  vertex 2.261284e-03 1.773244e-03 1.757867e-03
  vertex 7.258087e-04 1.766027e-03 2.730235e-03
  vertex 2.091901e-03 2.402670e-04 2.152469e-03
 endloop
endfacet
facet normal 5.145633e-01 2.678610e-01 8.145398e-01
 outer loop
  vertex 9.309878e-04 2.522752e-03 2.351770e-03
  vertex 7.258087e-04 1.766027e-03 2.730235e-03
  vertex 2.261284e-03 1.773244e-03 1.757867e-03
 endloop
endfacet
facet normal 6.730437e-01 1.766999e-01 7.181847e-01
 outer loop
  vertex 7.258087e-04 1.766027e-03 2.730235e-03
  vertex 9.309878e-04 2.522752e-03 2.351770e-03
  vertex -2.743849e-04 3.146164e-03 3.327997e-03
 endloop
endfacet
facet normal 6.835128e-01 2.446506e-01 6.877182e-01
 outer loop
  vertex 9.309878e-04 2.522752e-03 2.351770e-03
  vertex 5.969077e-04 3.739193e-03 2.251067e-03
  vertex -2.743849e-04 3.146164e-03 3.327997e-03
 endloop
endfacet
facet normal 6.358173e-01 3.937610e-01 6.638439e-01
 outer loop
  vertex -5.747896e-04 5.265778e-03 2.467799e-03
  vertex 5.969077e-04 3.739193e-03 2.251067e-03
  vertex 3.607367e-04 5.031934e-03 1.710474e-03
 endloop
endfacet
facet normal 5.312038e-01 7.294476e-01 4.309625e-01
 outer loop
  vertex 3.607367e-04 5.031934e-03 1.710474e-03
  vertex -3.474343e-04 5.598206e-03 1.624892e-03
  vertex -5.747896e-04 5.265778e-03 2.467799e-03
 endloop
endfacet
facet normal 5.311340e-01 -2.839153e-01 7.983037e-01
 outer loop
  vertex 2.091901e-03 2.402670e-04 2.152469e-03
  vertex 7.460455e-04 2.768253e-04 3.060907e-03
  vertex 3.791144e-04 -1.440060e-03 2.694429e-03
 endloop
endfacet
facet normal 5.530153e-01 1.877588e-01 8.117393e-01
 outer loop
  vertex 7.460455e-04 2.768253e-04 3.060907e-03
  vertex 2.091901e-03 2.402670e-04 2.152469e-03
  vertex 7.258087e-04 1.766027e-03 2.730235e-03
 endloop
endfacet
facet normal 1.299125e-04 9.196387e-01 3.927653e-01
 outer loop
  vertex -3.474343e-04 5.598206e-03 1.624892e-03
  vertex -8.593287e-04 5.843534e-03 1.050639e-03
  vertex -1.549740e-03 5.533035e-03 1.777884e-03
 endloop
endfacet
facet normal -3.874203e-03 9.306167e-01 3.659748e-01
 outer loop
  vertex -3.474343e-04 5.598206e-03 1.624892e-03
  vertex -1.549740e-03 5.533035e-03 1.777884e-03
  vertex -5.747896e-04 5.265778e-03 2.467799e-03
 endloop
endfacet
facet normal -3.066830e-02 9.294349e-01 3.677095e-01
 outer loop
  vertex -1.689639e-03 5.930504e-03 7.615616e-04
  vertex -1.549740e-03 5.533035e-03 1.777884e-03
  vertex -8.593287e-04 5.843534e-03 1.050639e-03
 endloop
endfacet
facet normal 4.653045e-01 -6.301121e-01 6.216514e-01
 outer loop
  vertex 3.791144e-04 -1.440060e-03 2.694429e-03
  vertex 5.103428e-04 -2.214669e-03 1.811054e-03
  vertex 1.528188e-03 -1.509237e-03 1.764232e-03
 endloop
endfacet
facet normal -5.105422e-01 8.012541e-01 3.119913e-01
 outer loop
  vertex -1.549740e-03 5.533035e-03 1.777884e-03
  vertex -2.465380e-03 5.309821e-03 8.527887e-04
  vertex -2.425483e-03 5.001660e-03 1.709493e-03
 endloop
endfacet
facet normal -5.540591e-01 7.465987e-01 3.682511e-01
 outer loop
  vertex -1.689639e-03 5.930504e-03 7.615616e-04
  vertex -2.465380e-03 5.309821e-03 8.527887e-04
  vertex -1.549740e-03 5.533035e-03 1.777884e-03
 endloop
endfacet
facet normal 5.614128e-01 -5.790747e-01 5.911752e-01
 outer loop
  vertex 3.791144e-04 -1.440060e-03 2.694429e-03
  vertex -6.717579e-04 -2.745526e-03 2.413651e-03
  vertex 5.103428e-04 -2.214669e-03 1.811054e-03
 endloop
endfacet
facet normal 5.611504e-01 -5.059826e-01 6.550510e-01
 outer loop
  vertex 5.103428e-04 -2.214669e-03 1.811054e-03
  vertex -6.717579e-04 -2.745526e-03 2.413651e-03
  vertex 0.000000e+00 -3.326358e-03 1.389535e-03
 endloop
endfacet
facet normal -8.219640e-01 3.485805e-01 4.504073e-01
 outer loop
  vertex -3.064782e-03 4.302906e-03 1.083595e-03
  vertex -2.103632e-03 4.641089e-03 2.575905e-03
  vertex -2.425483e-03 5.001660e-03 1.709493e-03
 endloop
endfacet
facet normal -8.119429e-01 5.362179e-01 2.306928e-01
 outer loop
  vertex -3.064782e-03 4.302906e-03 1.083595e-03
  vertex -2.425483e-03 5.001660e-03 1.709493e-03
  vertex -2.465380e-03 5.309821e-03 8.527887e-04
 endloop
endfacet
facet normal -8.382248e-01 5.291770e-01 1.317224e-01
 outer loop
  vertex -3.068372e-03 4.563505e-03 1.383469e-05
  vertex -3.064782e-03 4.302906e-03 1.083595e-03
  vertex -2.465380e-03 5.309821e-03 8.527887e-04
 endloop
endfacet
facet normal 5.301677e-01 -4.068350e-01 7.439136e-01
 outer loop
  vertex -1.089664e-03 -3.720882e-03 1.950350e-03
  vertex -5.889365e-04 -4.281828e-03 1.286722e-03
  vertex 0.000000e+00 -3.326358e-03 1.389535e-03
 endloop
endfacet
facet normal 5.314971e-01 -5.383663e-01 6.539668e-01
 outer loop
  vertex -6.717579e-04 -2.745526e-03 2.413651e-03
  vertex -1.089664e-03 -3.720882e-03 1.950350e-03
  vertex 0.000000e+00 -3.326358e-03 1.389535e-03
 endloop
endfacet
facet normal -8.835259e-01 -1.370890e-01 4.478711e-01
 outer loop
  vertex -2.364571e-03 2.679728e-03 2.843501e-03
  vertex -3.329231e-03 3.159224e-03 1.087263e-03
  vertex -3.174442e-03 1.696463e-03 9.448823e-04
 endloop
endfacet
facet normal -8.401748e-01 1.815004e-01 5.110420e-01
 outer loop
  vertex -3.329231e-03 3.159224e-03 1.087263e-03
  vertex -2.364571e-03 2.679728e-03 2.843501e-03
  vertex -2.103632e-03 4.641089e-03 2.575905e-03
 endloop
endfacet
facet normal -8.439765e-01 1.967493e-01 4.989924e-01
 outer loop
  vertex -3.064782e-03 4.302906e-03 1.083595e-03
  vertex -3.329231e-03 3.159224e-03 1.087263e-03
  vertex -2.103632e-03 4.641089e-03 2.575905e-03
 endloop
endfacet
facet normal -8.911775e-01 2.073572e-01 4.034919e-01
 outer loop
  vertex -3.064782e-03 4.302906e-03 1.083595e-03
  vertex -3.717130e-03 3.613870e-03 -3.119909e-06
  vertex -3.329231e-03 3.159224e-03 1.087263e-03
 endloop
endfacet
facet normal -8.189087e-01 5.569790e-01 1.384303e-01
 outer loop
  vertex -3.068372e-03 4.563505e-03 1.383469e-05
  vertex -3.717130e-03 3.613870e-03 -3.119909e-06
  vertex -3.064782e-03 4.302906e-03 1.083595e-03
 endloop
endfacet
facet normal -2.588990e-01 -6.337584e-01 7.289181e-01
 outer loop
  vertex -1.644294e-03 -4.253096e-03 1.290621e-03
  vertex -1.089664e-03 -3.720882e-03 1.950350e-03
  vertex -2.457082e-03 -2.278835e-03 2.718455e-03
 endloop
endfacet
facet normal -1.862161e-02 -7.704692e-01 6.372052e-01
 outer loop
  vertex -1.089664e-03 -3.720882e-03 1.950350e-03
  vertex -1.644294e-03 -4.253096e-03 1.290621e-03
  vertex -5.889365e-04 -4.281828e-03 1.286722e-03
 endloop
endfacet
facet normal -8.351077e-01 7.301282e-02 5.452194e-01
 outer loop
  vertex -3.422739e-03 5.372484e-04 4.686279e-04
  vertex -3.256200e-03 -3.534255e-04 8.429882e-04
  vertex -2.847197e-03 5.636456e-04 1.346645e-03
 endloop
endfacet
facet normal -8.750151e-01 -1.140888e-02 4.839612e-01
 outer loop
  vertex -3.747675e-03 1.366352e-03 -9.932139e-05
  vertex -3.422739e-03 5.372484e-04 4.686279e-04
  vertex -3.174442e-03 1.696463e-03 9.448823e-04
 endloop
endfacet
facet normal -8.347842e-01 -4.658365e-02 5.486030e-01
 outer loop
  vertex -3.422739e-03 5.372484e-04 4.686279e-04
  vertex -2.847197e-03 5.636456e-04 1.346645e-03
  vertex -3.174442e-03 1.696463e-03 9.448823e-04
 endloop
endfacet
facet normal -8.677508e-01 -1.382912e-01 4.773720e-01
 outer loop
  vertex -3.828782e-03 2.540650e-03 0.000000e+00
  vertex -3.174442e-03 1.696463e-03 9.448823e-04
  vertex -3.329231e-03 3.159224e-03 1.087263e-03
 endloop
endfacet
facet normal -9.242031e-01 9.722270e-02 3.693189e-01
 outer loop
  vertex -3.828782e-03 2.540650e-03 0.000000e+00
  vertex -3.329231e-03 3.159224e-03 1.087263e-03
  vertex -3.717130e-03 3.613870e-03 -3.119909e-06
 endloop
endfacet
facet normal -3.147954e-01 -6.379072e-01 7.028359e-01
 outer loop
  vertex -2.457082e-03 -2.278835e-03 2.718455e-03
  vertex -3.236047e-03 -3.311988e-03 1.431854e-03
  vertex -1.644294e-03 -4.253096e-03 1.290621e-03
 endloop
endfacet
facet normal 5.847575e-02 -7.090312e-01 7.027485e-01
 outer loop
  vertex -3.435831e-03 -3.783663e-03 9.725853e-04
  vertex -3.036056e-03 -4.269544e-03 4.490953e-04
  vertex -3.236047e-03 -3.311988e-03 1.431854e-03
 endloop
endfacet
facet normal -8.981278e-01 3.302676e-01 2.903270e-01
 outer loop
  vertex -3.341516e-03 -1.294250e-03 1.189077e-03
  vertex -3.845759e-03 -1.659396e-03 4.457932e-05
  vertex -3.754613e-03 -2.341990e-03 1.103038e-03
 endloop
endfacet
facet normal -9.574834e-01 1.720198e-01 2.315919e-01
 outer loop
  vertex -3.256200e-03 -3.534255e-04 8.429882e-04
  vertex -3.488732e-03 -9.650470e-04 3.359117e-04
  vertex -3.341516e-03 -1.294250e-03 1.189077e-03
 endloop
endfacet
facet normal -8.956788e-01 3.405654e-01 2.859626e-01
 outer loop
  vertex -3.845759e-03 -1.659396e-03 4.457932e-05
  vertex -3.341516e-03 -1.294250e-03 1.189077e-03
  vertex -3.488732e-03 -9.650470e-04 3.359117e-04
 endloop
endfacet
facet normal -8.627937e-01 -8.513041e-02 4.983371e-01
 outer loop
  vertex -3.488732e-03 -9.650470e-04 3.359117e-04
  vertex -3.256200e-03 -3.534255e-04 8.429882e-04
  vertex -3.900053e-03 0.000000e+00 -2.113697e-04
 endloop
endfacet
facet normal -8.411290e-01 6.822784e-02 5.365137e-01
 outer loop
  vertex -3.900053e-03 0.000000e+00 -2.113697e-04
  vertex -3.256200e-03 -3.534255e-04 8.429882e-04
  vertex -3.422739e-03 5.372484e-04 4.686279e-04
 endloop
endfacet
facet normal -8.350384e-01 4.817963e-02 5.480781e-01
 outer loop
  vertex -3.900053e-03 0.000000e+00 -2.113697e-04
  vertex -3.422739e-03 5.372484e-04 4.686279e-04
  vertex -3.747675e-03 1.366352e-03 -9.932139e-05
 endloop
endfacet
facet normal -3.244740e-01 -8.039414e-01 4.983922e-01
 outer loop
  vertex -3.435831e-03 -3.783663e-03 9.725853e-04
  vertex -3.691900e-03 -4.144400e-03 2.239809e-04
  vertex -3.036056e-03 -4.269544e-03 4.490953e-04
 endloop
endfacet
facet normal -6.286518e-01 -3.892685e-01 6.732510e-01
 outer loop
  vertex -4.002849e-03 -3.319055e-03 7.117620e-04
  vertex -3.435831e-03 -3.783663e-03 9.725853e-04
  vertex -3.236047e-03 -3.311988e-03 1.431854e-03
 endloop
endfacet
facet normal -6.755589e-01 -5.468167e-01 4.945822e-01
 outer loop
  vertex -4.002849e-03 -3.319055e-03 7.117620e-04
  vertex -3.691900e-03 -4.144400e-03 2.239809e-04
  vertex -3.435831e-03 -3.783663e-03 9.725853e-04
 endloop
endfacet
facet normal -9.265112e-01 8.898587e-02 3.655934e-01
 outer loop
  vertex -3.754613e-03 -2.341990e-03 1.103038e-03
  vertex -4.203633e-03 -2.765366e-03 6.815213e-05
  vertex -4.002849e-03 -3.319055e-03 7.117620e-04
 endloop
endfacet
facet normal -9.135525e-01 3.014311e-01 2.730588e-01
 outer loop
  vertex -3.754613e-03 -2.341990e-03 1.103038e-03
  vertex -3.845759e-03 -1.659396e-03 4.457932e-05
  vertex -4.203633e-03 -2.765366e-03 6.815213e-05
 endloop
endfacet
facet normal -8.330207e-01 -4.782319e-01 2.781559e-01
 outer loop
  vertex -4.261010e-03 -3.545458e-03 -4.506317e-04
  vertex -3.691900e-03 -4.144400e-03 2.239809e-04
  vertex -4.002849e-03 -3.319055e-03 7.117620e-04
 endloop
endfacet
facet normal -9.693552e-01 -8.257117e-02 2.313710e-01
 outer loop
  vertex -4.261010e-03 -3.545458e-03 -4.506317e-04
  vertex -4.002849e-03 -3.319055e-03 7.117620e-04
  vertex -4.203633e-03 -2.765366e-03 6.815213e-05
 endloop
endfacet
facet normal 6.648414e-01 4.228629e-01 6.157701e-01
 outer loop
  vertex -8.984811e-04 4.629312e-03 3.254361e-03
  vertex 5.969077e-04 3.739193e-03 2.251067e-03
  vertex -5.747896e-04 5.265778e-03 2.467799e-03
 endloop
endfacet
facet normal 6.496322e-01 3.078718e-01 6.951208e-01
 outer loop
  vertex 5.969077e-04 3.739193e-03 2.251067e-03
  vertex -8.984811e-04 4.629312e-03 3.254361e-03
  vertex -2.743849e-04 3.146164e-03 3.327997e-03
 endloop
endfacet
facet normal 8.097295e-01 -1.907937e-01 5.549197e-01
 outer loop
  vertex 1.518770e-04 2.293272e-04 3.911576e-03
  vertex 1.126356e-04 -7.512986e-04 3.631676e-03
  vertex 7.460455e-04 2.768253e-04 3.060907e-03
 endloop
endfacet
facet normal 8.512650e-01 -2.770542e-01 4.456331e-01
 outer loop
  vertex 7.460455e-04 2.768253e-04 3.060907e-03
  vertex 1.126356e-04 -7.512986e-04 3.631676e-03
  vertex 3.791144e-04 -1.440060e-03 2.694429e-03
 endloop
endfacet
facet normal 7.697415e-01 1.483253e-01 6.208845e-01
 outer loop
  vertex -1.193738e-04 1.666374e-03 3.801856e-03
  vertex 7.460455e-04 2.768253e-04 3.060907e-03
  vertex 7.258087e-04 1.766027e-03 2.730235e-03
 endloop
endfacet
facet normal 7.990754e-01 1.942723e-01 5.689787e-01
 outer loop
  vertex -1.193738e-04 1.666374e-03 3.801856e-03
  vertex 1.518770e-04 2.293272e-04 3.911576e-03
  vertex 7.460455e-04 2.768253e-04 3.060907e-03
 endloop
endfacet
facet normal 7.427077e-01 2.735205e-01 6.112052e-01
 outer loop
  vertex -1.193738e-04 1.666374e-03 3.801856e-03
  vertex 7.258087e-04 1.766027e-03 2.730235e-03
  vertex -2.743849e-04 3.146164e-03 3.327997e-03
 endloop
endfacet
facet normal -2.891267e-01 7.988771e-01 5.274477e-01
 outer loop
  vertex -2.103632e-03 4.641089e-03 2.575905e-03
  vertex -8.984811e-04 4.629312e-03 3.254361e-03
  vertex -5.747896e-04 5.265778e-03 2.467799e-03
 endloop
endfacet
facet normal -2.521323e-01 7.274897e-01 6.381128e-01
 outer loop
  vertex -5.747896e-04 5.265778e-03 2.467799e-03
  vertex -1.549740e-03 5.533035e-03 1.777884e-03
  vertex -2.103632e-03 4.641089e-03 2.575905e-03
 endloop
endfacet
facet normal 6.908435e-01 -4.747450e-01 5.453003e-01
 outer loop
  vertex 1.126356e-04 -7.512986e-04 3.631676e-03
  vertex -4.091357e-04 -1.493982e-03 3.646122e-03
  vertex 3.791144e-04 -1.440060e-03 2.694429e-03
 endloop
endfacet
facet normal -4.814453e-01 7.312681e-01 4.831743e-01
 outer loop
  vertex -2.103632e-03 4.641089e-03 2.575905e-03
  vertex -1.549740e-03 5.533035e-03 1.777884e-03
  vertex -2.425483e-03 5.001660e-03 1.709493e-03
 endloop
endfacet
facet normal 5.125880e-01 -5.537584e-01 6.562051e-01
 outer loop
  vertex -1.132756e-03 -2.007585e-03 3.396488e-03
  vertex -6.717579e-04 -2.745526e-03 2.413651e-03
  vertex 3.791144e-04 -1.440060e-03 2.694429e-03
 endloop
endfacet
facet normal 4.643155e-01 -8.185566e-01 3.381956e-01
 outer loop
  vertex -4.091357e-04 -1.493982e-03 3.646122e-03
  vertex -1.132756e-03 -2.007585e-03 3.396488e-03
  vertex 3.791144e-04 -1.440060e-03 2.694429e-03
 endloop
endfacet
facet normal -9.762930e-01 -1.784153e-02 2.157167e-01
 outer loop
  vertex -2.364571e-03 2.679728e-03 2.843501e-03
  vertex -2.511646e-03 1.226633e-03 2.057684e-03
  vertex -2.310969e-03 1.030553e-03 2.949696e-03
 endloop
endfacet
facet normal 3.752855e-02 -4.418336e-01 8.963117e-01
 outer loop
  vertex -2.457082e-03 -2.278835e-03 2.718455e-03
  vertex -1.089664e-03 -3.720882e-03 1.950350e-03
  vertex -6.717579e-04 -2.745526e-03 2.413651e-03
 endloop
endfacet
facet normal -1.187420e-01 -8.199677e-01 5.599583e-01
 outer loop
  vertex -6.717579e-04 -2.745526e-03 2.413651e-03
  vertex -1.132756e-03 -2.007585e-03 3.396488e-03
  vertex -2.457082e-03 -2.278835e-03 2.718455e-03
 endloop
endfacet
facet normal -9.803869e-01 -1.244334e-01 1.528327e-01
 outer loop
  vertex -2.457082e-03 -2.278835e-03 2.718455e-03
  vertex -2.657207e-03 -2.785238e-04 3.063310e-03
  vertex -2.801473e-03 -3.076417e-04 2.114169e-03
 endloop
endfacet
facet normal -9.546388e-01 2.643827e-01 1.369909e-01
 outer loop
  vertex -2.801473e-03 -3.076417e-04 2.114169e-03
  vertex -2.657207e-03 -2.785238e-04 3.063310e-03
  vertex -2.310969e-03 1.030553e-03 2.949696e-03
 endloop
endfacet
facet normal -9.484310e-01 1.885414e-01 2.548153e-01
 outer loop
  vertex -2.511646e-03 1.226633e-03 2.057684e-03
  vertex -2.801473e-03 -3.076417e-04 2.114169e-03
  vertex -2.310969e-03 1.030553e-03 2.949696e-03
 endloop
endfacet
facet normal -9.442591e-01 1.883132e-01 2.700240e-01
 outer loop
  vertex -2.847197e-03 5.636456e-04 1.346645e-03
  vertex -2.801473e-03 -3.076417e-04 2.114169e-03
  vertex -2.511646e-03 1.226633e-03 2.057684e-03
 endloop
endfacet
facet normal -8.708334e-01 -7.951767e-02 4.851043e-01
 outer loop
  vertex -3.174442e-03 1.696463e-03 9.448823e-04
  vertex -2.847197e-03 5.636456e-04 1.346645e-03
  vertex -2.511646e-03 1.226633e-03 2.057684e-03
 endloop
endfacet
facet normal -8.762457e-01 -1.575715e-01 4.553732e-01
 outer loop
  vertex -3.174442e-03 1.696463e-03 9.448823e-04
  vertex -2.511646e-03 1.226633e-03 2.057684e-03
  vertex -2.364571e-03 2.679728e-03 2.843501e-03
 endloop
endfacet
facet normal -7.032555e-01 -2.823124e-01 6.524809e-01
 outer loop
  vertex -3.236047e-03 -3.311988e-03 1.431854e-03
  vertex -2.457082e-03 -2.278835e-03 2.718455e-03
  vertex -3.329299e-03 -1.769807e-03 1.998609e-03
 endloop
endfacet
facet normal -5.780024e-01 1.451872e-01 8.030155e-01
 outer loop
  vertex -3.329299e-03 -1.769807e-03 1.998609e-03
  vertex -2.457082e-03 -2.278835e-03 2.718455e-03
  vertex -2.801473e-03 -3.076417e-04 2.114169e-03
 endloop
endfacet
facet normal -9.263459e-01 3.185080e-01 2.010868e-01
 outer loop
  vertex -2.801473e-03 -3.076417e-04 2.114169e-03
  vertex -3.341516e-03 -1.294250e-03 1.189077e-03
  vertex -3.329299e-03 -1.769807e-03 1.998609e-03
 endloop
endfacet
facet normal -9.243050e-01 2.027610e-01 3.233392e-01
 outer loop
  vertex -3.256200e-03 -3.534255e-04 8.429882e-04
  vertex -3.341516e-03 -1.294250e-03 1.189077e-03
  vertex -2.801473e-03 -3.076417e-04 2.114169e-03
 endloop
endfacet
facet normal -9.181307e-01 2.337223e-01 3.200155e-01
 outer loop
  vertex -2.801473e-03 -3.076417e-04 2.114169e-03
  vertex -2.847197e-03 5.636456e-04 1.346645e-03
  vertex -3.256200e-03 -3.534255e-04 8.429882e-04
 endloop
endfacet
facet normal -8.045918e-01 -2.470949e-01 5.399779e-01
 outer loop
  vertex -3.754613e-03 -2.341990e-03 1.103038e-03
  vertex -3.236047e-03 -3.311988e-03 1.431854e-03
  vertex -3.329299e-03 -1.769807e-03 1.998609e-03
 endloop
endfacet
facet normal -9.144050e-01 3.428539e-01 2.152085e-01
 outer loop
  vertex -3.341516e-03 -1.294250e-03 1.189077e-03
  vertex -3.754613e-03 -2.341990e-03 1.103038e-03
  vertex -3.329299e-03 -1.769807e-03 1.998609e-03
 endloop
endfacet
facet normal -6.792340e-01 -1.175451e-01 7.244476e-01
 outer loop
  vertex -4.002849e-03 -3.319055e-03 7.117620e-04
  vertex -3.236047e-03 -3.311988e-03 1.431854e-03
  vertex -3.754613e-03 -2.341990e-03 1.103038e-03
 endloop
endfacet
facet normal 5.068118e-01 1.603343e-01 8.470152e-01
 outer loop
  vertex -1.193738e-04 1.666374e-03 3.801856e-03
  vertex -6.841282e-04 9.048992e-04 4.283919e-03
  vertex 1.518770e-04 2.293272e-04 3.911576e-03
 endloop
endfacet
facet normal 4.569875e-01 2.084799e-01 8.646957e-01
 outer loop
  vertex -1.193738e-04 1.666374e-03 3.801856e-03
  vertex -1.188903e-03 2.240305e-03 4.228721e-03
  vertex -6.841282e-04 9.048992e-04 4.283919e-03
 endloop
endfacet
facet normal 5.566801e-01 3.056668e-01 7.724475e-01
 outer loop
  vertex -1.449248e-03 3.590259e-03 3.998953e-03
  vertex -1.193738e-04 1.666374e-03 3.801856e-03
  vertex -2.743849e-04 3.146164e-03 3.327997e-03
 endloop
endfacet
facet normal 4.664891e-01 2.351000e-01 8.527109e-01
 outer loop
  vertex -1.449248e-03 3.590259e-03 3.998953e-03
  vertex -1.188903e-03 2.240305e-03 4.228721e-03
  vertex -1.193738e-04 1.666374e-03 3.801856e-03
 endloop
endfacet
facet normal -3.626891e-01 6.621601e-01 6.557444e-01
 outer loop
  vertex -1.449248e-03 3.590259e-03 3.998953e-03
  vertex -8.984811e-04 4.629312e-03 3.254361e-03
  vertex -2.103632e-03 4.641089e-03 2.575905e-03
 endloop
endfacet
facet normal 5.526494e-01 2.716683e-01 7.878928e-01
 outer loop
  vertex -1.449248e-03 3.590259e-03 3.998953e-03
  vertex -2.743849e-04 3.146164e-03 3.327997e-03
  vertex -8.984811e-04 4.629312e-03 3.254361e-03
 endloop
endfacet
facet normal 4.236156e-01 -2.808599e-01 8.612012e-01
 outer loop
  vertex -1.119026e-03 -5.460031e-04 4.304470e-03
  vertex -4.091357e-04 -1.493982e-03 3.646122e-03
  vertex 1.126356e-04 -7.512986e-04 3.631676e-03
 endloop
endfacet
facet normal 4.281617e-01 -2.638397e-01 8.643299e-01
 outer loop
  vertex 1.518770e-04 2.293272e-04 3.911576e-03
  vertex -1.119026e-03 -5.460031e-04 4.304470e-03
  vertex 1.126356e-04 -7.512986e-04 3.631676e-03
 endloop
endfacet
facet normal 3.437578e-01 -8.979939e-02 9.347549e-01
 outer loop
  vertex -1.119026e-03 -5.460031e-04 4.304470e-03
  vertex 1.518770e-04 2.293272e-04 3.911576e-03
  vertex -6.841282e-04 9.048992e-04 4.283919e-03
 endloop
endfacet
facet normal -4.107811e-01 -1.179035e-01 9.040783e-01
 outer loop
  vertex -6.841282e-04 9.048992e-04 4.283919e-03
  vertex -1.188903e-03 2.240305e-03 4.228721e-03
  vertex -1.726155e-03 1.352482e-03 3.868830e-03
 endloop
endfacet
facet normal -7.247505e-01 1.676663e-01 6.682999e-01
 outer loop
  vertex -2.364571e-03 2.679728e-03 2.843501e-03
  vertex -1.726155e-03 1.352482e-03 3.868830e-03
  vertex -1.188903e-03 2.240305e-03 4.228721e-03
 endloop
endfacet
facet normal -8.354944e-01 1.818978e-01 5.185193e-01
 outer loop
  vertex -2.103632e-03 4.641089e-03 2.575905e-03
  vertex -2.364571e-03 2.679728e-03 2.843501e-03
  vertex -1.449248e-03 3.590259e-03 3.998953e-03
 endloop
endfacet
facet normal 1.410703e-01 -5.233740e-01 8.403445e-01
 outer loop
  vertex -1.976043e-03 -1.504308e-03 3.851498e-03
  vertex -1.132756e-03 -2.007585e-03 3.396488e-03
  vertex -1.119026e-03 -5.460031e-04 4.304470e-03
 endloop
endfacet
facet normal 8.174447e-02 -5.264833e-01 8.462465e-01
 outer loop
  vertex -1.119026e-03 -5.460031e-04 4.304470e-03
  vertex -1.132756e-03 -2.007585e-03 3.396488e-03
  vertex -4.091357e-04 -1.493982e-03 3.646122e-03
 endloop
endfacet
facet normal -8.160794e-01 4.511396e-01 3.612304e-01
 outer loop
  vertex -1.726155e-03 1.352482e-03 3.868830e-03
  vertex -2.310969e-03 1.030553e-03 2.949696e-03
  vertex -2.296377e-03 2.148534e-04 4.001384e-03
 endloop
endfacet
facet normal -8.447862e-01 6.995957e-03 5.350582e-01
 outer loop
  vertex -1.726155e-03 1.352482e-03 3.868830e-03
  vertex -2.364571e-03 2.679728e-03 2.843501e-03
  vertex -2.310969e-03 1.030553e-03 2.949696e-03
 endloop
endfacet
facet normal -1.459254e-01 -7.867568e-01 5.997663e-01
 outer loop
  vertex -1.976043e-03 -1.504308e-03 3.851498e-03
  vertex -2.457082e-03 -2.278835e-03 2.718455e-03
  vertex -1.132756e-03 -2.007585e-03 3.396488e-03
 endloop
endfacet
facet normal -6.421893e-01 -4.779054e-01 5.993323e-01
 outer loop
  vertex -2.457082e-03 -2.278835e-03 2.718455e-03
  vertex -1.976043e-03 -1.504308e-03 3.851498e-03
  vertex -2.577633e-03 -9.557087e-04 3.644341e-03
 endloop
endfacet
facet normal -9.945992e-01 -1.024125e-01 1.685399e-02
 outer loop
  vertex -2.457082e-03 -2.278835e-03 2.718455e-03
  vertex -2.577633e-03 -9.557087e-04 3.644341e-03
  vertex -2.657207e-03 -2.785238e-04 3.063310e-03
 endloop
endfacet
facet normal -9.465687e-01 1.386164e-01 2.911927e-01
 outer loop
  vertex -2.657207e-03 -2.785238e-04 3.063310e-03
  vertex -2.577633e-03 -9.557087e-04 3.644341e-03
  vertex -2.296377e-03 2.148534e-04 4.001384e-03
 endloop
endfacet
facet normal -9.381122e-01 2.672411e-01 2.202902e-01
 outer loop
  vertex -2.310969e-03 1.030553e-03 2.949696e-03
  vertex -2.657207e-03 -2.785238e-04 3.063310e-03
  vertex -2.296377e-03 2.148534e-04 4.001384e-03
 endloop
endfacet
facet normal 4.168313e-01 2.300637e-01 8.793875e-01
 outer loop
  vertex -1.728013e-03 3.081248e-03 4.264254e-03
  vertex -1.188903e-03 2.240305e-03 4.228721e-03
  vertex -1.449248e-03 3.590259e-03 3.998953e-03
 endloop
endfacet
facet normal 2.256525e-01 -5.386044e-02 9.727178e-01
 outer loop
  vertex -6.841282e-04 9.048992e-04 4.283919e-03
  vertex -1.551841e-03 5.617227e-04 4.466210e-03
  vertex -1.119026e-03 -5.460031e-04 4.304470e-03
 endloop
endfacet
facet normal -6.551815e-02 5.922502e-01 8.030860e-01
 outer loop
  vertex -1.551841e-03 5.617227e-04 4.466210e-03
  vertex -6.841282e-04 9.048992e-04 4.283919e-03
  vertex -1.726155e-03 1.352482e-03 3.868830e-03
 endloop
endfacet
facet normal -7.348677e-01 -4.908808e-01 4.679803e-01
 outer loop
  vertex -2.364571e-03 2.679728e-03 2.843501e-03
  vertex -1.188903e-03 2.240305e-03 4.228721e-03
  vertex -1.728013e-03 3.081248e-03 4.264254e-03
 endloop
endfacet
facet normal -8.087297e-01 5.506551e-01 2.067249e-01
 outer loop
  vertex -2.364571e-03 2.679728e-03 2.843501e-03
  vertex -1.728013e-03 3.081248e-03 4.264254e-03
  vertex -1.449248e-03 3.590259e-03 3.998953e-03
 endloop
endfacet
facet normal 1.621147e-02 -4.391023e-01 8.982908e-01
 outer loop
  vertex -2.192518e-03 -6.965063e-04 4.250274e-03
  vertex -1.976043e-03 -1.504308e-03 3.851498e-03
  vertex -1.119026e-03 -5.460031e-04 4.304470e-03
 endloop
endfacet
facet normal -4.080330e-01 -2.860211e-01 8.670069e-01
 outer loop
  vertex -2.296377e-03 2.148534e-04 4.001384e-03
  vertex -1.119026e-03 -5.460031e-04 4.304470e-03
  vertex -1.551841e-03 5.617227e-04 4.466210e-03
 endloop
endfacet
facet normal -8.420077e-02 2.535730e-01 9.636446e-01
 outer loop
  vertex -2.192518e-03 -6.965063e-04 4.250274e-03
  vertex -1.119026e-03 -5.460031e-04 4.304470e-03
  vertex -2.296377e-03 2.148534e-04 4.001384e-03
 endloop
endfacet
facet normal -6.112729e-01 3.868411e-01 6.904342e-01
 outer loop
  vertex -1.726155e-03 1.352482e-03 3.868830e-03
  vertex -2.296377e-03 2.148534e-04 4.001384e-03
  vertex -1.551841e-03 5.617227e-04 4.466210e-03
 endloop
endfacet
facet normal -6.390929e-01 -4.713105e-01 6.078048e-01
 outer loop
  vertex -2.192518e-03 -6.965063e-04 4.250274e-03
  vertex -2.577633e-03 -9.557087e-04 3.644341e-03
  vertex -1.976043e-03 -1.504308e-03 3.851498e-03
 endloop
endfacet
facet normal -8.517814e-01 4.546511e-02 5.219209e-01
 outer loop
  vertex -2.577633e-03 -9.557087e-04 3.644341e-03
  vertex -2.192518e-03 -6.965063e-04 4.250274e-03
  vertex -2.296377e-03 2.148534e-04 4.001384e-03
 endloop
endfacet
endsolid 
