solid 
facet normal -7.009958e-02 6.516832e-02 -9.954090e-01
 outer loop
  vertex 1.734147e-03 -2.749361e-03 -3.972255e-03
  vertex 1.275584e-03 -3.594128e-03 -3.995268e-03
  vertex 7.989406e-04 -2.757506e-03 -3.906928e-03
 endloop
endfacet
facet normal 1.913344e-01 -5.815241e-01 -7.907091e-01
 outer loop
  vertex 3.664003e-03 -3.856876e-03 -3.274661e-03
  vertex 3.002194e-03 -4.682388e-03 -2.827685e-03
  vertex 2.526343e-03 -3.707900e-03 -3.659514e-03
 endloop
endfacet
facet normal 5.911979e-01 2.370843e-01 -7.708930e-01
 outer loop
  vertex 2.629728e-03 -2.082014e-03 -3.080195e-03
  vertex 2.526343e-03 -3.707900e-03 -3.659514e-03
  vertex 1.734147e-03 -2.749361e-03 -3.972255e-03
 endloop
endfacet
facet normal 3.836827e-01 5.122199e-01 -7.683868e-01
 outer loop
  vertex 2.629728e-03 -2.082014e-03 -3.080195e-03
  vertex 1.734147e-03 -2.749361e-03 -3.972255e-03
  vertex 1.276915e-03 -1.666775e-03 -3.478897e-03
 endloop
endfacet
facet normal 1.408026e-01 -6.516490e-01 -7.453377e-01
 outer loop
  vertex 2.526343e-03 -3.707900e-03 -3.659514e-03
  vertex 1.386208e-03 -4.428205e-03 -3.245136e-03
  vertex 1.275584e-03 -3.594128e-03 -3.995268e-03
 endloop
endfacet
facet normal 1.049665e-01 -6.155056e-01 -7.811113e-01
 outer loop
  vertex 3.002194e-03 -4.682388e-03 -2.827685e-03
  vertex 1.386208e-03 -4.428205e-03 -3.245136e-03
  vertex 2.526343e-03 -3.707900e-03 -3.659514e-03
 endloop
endfacet
facet normal 2.484934e-01 -1.086689e-01 -9.625186e-01
 outer loop
  vertex 1.275584e-03 -3.594128e-03 -3.995268e-03
  vertex 1.734147e-03 -2.749361e-03 -3.972255e-03
  vertex 2.526343e-03 -3.707900e-03 -3.659514e-03
 endloop
endfacet
facet normal -3.818528e-01 4.777969e-01 -7.911375e-01
 outer loop
  vertex 7.989406e-04 -2.757506e-03 -3.906928e-03
  vertex -1.810719e-04 -2.329069e-03 -3.175164e-03
  vertex 1.276915e-03 -1.666775e-03 -3.478897e-03
 endloop
endfacet
facet normal -6.754501e-02 3.899809e-01 -9.183423e-01
 outer loop
  vertex 7.989406e-04 -2.757506e-03 -3.906928e-03
  vertex 1.276915e-03 -1.666775e-03 -3.478897e-03
  vertex 1.734147e-03 -2.749361e-03 -3.972255e-03
 endloop
endfacet
facet normal -7.696359e-03 3.949610e-01 -9.186657e-01
 outer loop
  vertex 1.276915e-03 -1.666775e-03 -3.478897e-03
  vertex 1.410223e-04 -9.323453e-04 -3.153628e-03
  vertex 1.159585e-03 -6.692599e-04 -3.049053e-03
 endloop
endfacet
facet normal -2.333006e-01 6.875660e-02 -9.699708e-01
 outer loop
  vertex 1.276915e-03 -1.666775e-03 -3.478897e-03
  vertex -1.810719e-04 -2.329069e-03 -3.175164e-03
  vertex 1.410223e-04 -9.323453e-04 -3.153628e-03
 endloop
endfacet
facet normal -5.377141e-02 5.416357e-01 -8.388918e-01
 outer loop
  vertex 8.143648e-04 3.062914e-04 -2.397054e-03
  vertex 1.159585e-03 -6.692599e-04 -3.049053e-03
  vertex 1.410223e-04 -9.323453e-04 -3.153628e-03
 endloop
endfacet
facet normal -6.220827e-01 -2.770935e-01 -7.322789e-01
 outer loop
  vertex 3.143616e-04 -3.527910e-03 -3.203750e-03
  vertex 7.989406e-04 -2.757506e-03 -3.906928e-03
  vertex 1.275584e-03 -3.594128e-03 -3.995268e-03
 endloop
endfacet
facet normal -5.307475e-01 -6.045776e-01 -5.939638e-01
 outer loop
  vertex 3.143616e-04 -3.527910e-03 -3.203750e-03
  vertex 1.275584e-03 -3.594128e-03 -3.995268e-03
  vertex 1.386208e-03 -4.428205e-03 -3.245136e-03
 endloop
endfacet
facet normal -6.471259e-01 -2.502597e-01 -7.201376e-01
 outer loop
  vertex -1.810719e-04 -2.329069e-03 -3.175164e-03
  vertex 7.989406e-04 -2.757506e-03 -3.906928e-03
  vertex 3.143616e-04 -3.527910e-03 -3.203750e-03
 endloop
endfacet
facet normal 4.601721e-02 4.790446e-03 -9.989292e-01
 outer loop
  vertex -1.810719e-04 -2.329069e-03 -3.175164e-03
  vertex -9.642103e-04 -1.403948e-03 -3.206804e-03
  vertex 1.410223e-04 -9.323453e-04 -3.153628e-03
 endloop
endfacet
facet normal 1.963959e-02 6.645779e-02 -9.975959e-01
 outer loop
  vertex 1.410223e-04 -9.323453e-04 -3.153628e-03
  vertex -9.642103e-04 -1.403948e-03 -3.206804e-03
  vertex -1.204876e-03 -3.478709e-04 -3.141188e-03
 endloop
endfacet
facet normal -1.345489e-01 3.087482e-02 -9.904258e-01
 outer loop
  vertex -2.228679e-03 -9.868915e-04 -3.022025e-03
  vertex -1.204876e-03 -3.478709e-04 -3.141188e-03
  vertex -9.642103e-04 -1.403948e-03 -3.206804e-03
 endloop
endfacet
facet normal -1.345570e-01 4.548893e-01 -8.803239e-01
 outer loop
  vertex -2.753824e-03 4.489726e-04 -2.492680e-03
  vertex -1.321229e-03 5.484771e-04 -2.660234e-03
  vertex -1.204876e-03 -3.478709e-04 -3.141188e-03
 endloop
endfacet
facet normal -2.630518e-01 2.475606e-01 -9.324792e-01
 outer loop
  vertex -1.204876e-03 -3.478709e-04 -3.141188e-03
  vertex -2.228679e-03 -9.868915e-04 -3.022025e-03
  vertex -2.753824e-03 4.489726e-04 -2.492680e-03
 endloop
endfacet
facet normal -6.338497e-02 -4.240864e-01 -9.034008e-01
 outer loop
  vertex -3.067528e-03 -1.287232e-03 -2.822180e-03
  vertex -2.228679e-03 -9.868915e-04 -3.022025e-03
  vertex -2.648572e-03 -2.158704e-03 -2.442477e-03
 endloop
endfacet
facet normal -3.506362e-01 2.083611e-01 -9.130388e-01
 outer loop
  vertex -2.228679e-03 -9.868915e-04 -3.022025e-03
  vertex -3.679026e-03 -6.084337e-04 -2.378679e-03
  vertex -2.753824e-03 4.489726e-04 -2.492680e-03
 endloop
endfacet
facet normal -3.209308e-01 2.982132e-01 -8.989284e-01
 outer loop
  vertex -2.228679e-03 -9.868915e-04 -3.022025e-03
  vertex -3.067528e-03 -1.287232e-03 -2.822180e-03
  vertex -3.679026e-03 -6.084337e-04 -2.378679e-03
 endloop
endfacet
facet normal -6.214506e-01 4.767243e-01 -6.217179e-01
 outer loop
  vertex -2.753824e-03 4.489726e-04 -2.492680e-03
  vertex -3.679026e-03 -6.084337e-04 -2.378679e-03
  vertex -4.872157e-03 -1.211887e-04 -8.124482e-04
 endloop
endfacet
facet normal -6.159690e-01 5.037884e-01 -6.056232e-01
 outer loop
  vertex -2.753824e-03 4.489726e-04 -2.492680e-03
  vertex -4.872157e-03 -1.211887e-04 -8.124482e-04
  vertex -3.386547e-03 1.336074e-03 -1.111211e-03
 endloop
endfacet
facet normal -4.199612e-01 -5.245677e-01 -7.405818e-01
 outer loop
  vertex -2.648572e-03 -2.158704e-03 -2.442477e-03
  vertex -3.648519e-03 -1.622098e-03 -2.255526e-03
  vertex -3.067528e-03 -1.287232e-03 -2.822180e-03
 endloop
endfacet
facet normal -6.607285e-01 -1.100947e-01 -7.425072e-01
 outer loop
  vertex -3.067528e-03 -1.287232e-03 -2.822180e-03
  vertex -3.648519e-03 -1.622098e-03 -2.255526e-03
  vertex -3.679026e-03 -6.084337e-04 -2.378679e-03
 endloop
endfacet
facet normal -7.317015e-01 -1.038667e-01 -6.736651e-01
 outer loop
  vertex -3.679026e-03 -6.084337e-04 -2.378679e-03
  vertex -3.648519e-03 -1.622098e-03 -2.255526e-03
  vertex -4.617797e-03 -1.369015e-03 -1.241765e-03
 endloop
endfacet
facet normal -7.866697e-01 5.131675e-02 -6.152376e-01
 outer loop
  vertex -3.679026e-03 -6.084337e-04 -2.378679e-03
  vertex -4.617797e-03 -1.369015e-03 -1.241765e-03
  vertex -4.872157e-03 -1.211887e-04 -8.124482e-04
 endloop
endfacet
facet normal 4.558410e-01 5.439476e-02 -8.883975e-01
 outer loop
  vertex 3.039196e-03 2.490851e-04 -2.486830e-03
  vertex 4.319134e-03 3.736480e-04 -1.822461e-03
  vertex 3.385758e-03 -7.930378e-04 -2.372814e-03
 endloop
endfacet
facet normal 4.607207e-01 -2.932875e-04 -8.875451e-01
 outer loop
  vertex 3.039196e-03 2.490851e-04 -2.486830e-03
  vertex 3.317935e-03 1.245117e-03 -2.342467e-03
  vertex 4.319134e-03 3.736480e-04 -1.822461e-03
 endloop
endfacet
facet normal 1.010065e-01 1.149642e-01 -9.882211e-01
 outer loop
  vertex 3.039196e-03 2.490851e-04 -2.486830e-03
  vertex 2.128952e-03 8.152053e-04 -2.514007e-03
  vertex 3.317935e-03 1.245117e-03 -2.342467e-03
 endloop
endfacet
facet normal 1.359782e-01 3.265115e-01 -9.353610e-01
 outer loop
  vertex 3.317935e-03 1.245117e-03 -2.342467e-03
  vertex 2.431969e-03 1.797825e-03 -2.278327e-03
  vertex 3.322954e-03 2.419735e-03 -1.931707e-03
 endloop
endfacet
facet normal 6.313542e-02 2.143156e-01 -9.747219e-01
 outer loop
  vertex 3.317935e-03 1.245117e-03 -2.342467e-03
  vertex 2.128952e-03 8.152053e-04 -2.514007e-03
  vertex 2.431969e-03 1.797825e-03 -2.278327e-03
 endloop
endfacet
facet normal -2.471739e-02 7.112964e-01 -7.024575e-01
 outer loop
  vertex 2.894483e-03 3.359154e-03 -9.653910e-04
  vertex 3.322954e-03 2.419735e-03 -1.931707e-03
  vertex 2.006796e-03 2.684239e-03 -1.617563e-03
 endloop
endfacet
facet normal -8.038114e-02 5.706513e-01 -8.172490e-01
 outer loop
  vertex 2.006796e-03 2.684239e-03 -1.617563e-03
  vertex 3.322954e-03 2.419735e-03 -1.931707e-03
  vertex 2.431969e-03 1.797825e-03 -2.278327e-03
 endloop
endfacet
facet normal 6.694624e-01 4.303498e-01 -6.054908e-01
 outer loop
  vertex 3.664003e-03 -3.856876e-03 -3.274661e-03
  vertex 3.452740e-03 -3.058683e-03 -2.940932e-03
  vertex 4.288667e-03 -3.553594e-03 -2.368443e-03
 endloop
endfacet
facet normal 5.009617e-01 3.067514e-01 -8.092842e-01
 outer loop
  vertex 2.629728e-03 -2.082014e-03 -3.080195e-03
  vertex 4.082233e-03 -2.003353e-03 -2.151252e-03
  vertex 3.452740e-03 -3.058683e-03 -2.940932e-03
 endloop
endfacet
facet normal 6.286799e-01 1.893883e-01 -7.542504e-01
 outer loop
  vertex 3.452740e-03 -3.058683e-03 -2.940932e-03
  vertex 4.082233e-03 -2.003353e-03 -2.151252e-03
  vertex 4.288667e-03 -3.553594e-03 -2.368443e-03
 endloop
endfacet
facet normal 5.269010e-01 1.500601e-01 -8.365747e-01
 outer loop
  vertex 4.082233e-03 -2.003353e-03 -2.151252e-03
  vertex 2.629728e-03 -2.082014e-03 -3.080195e-03
  vertex 3.385758e-03 -7.930378e-04 -2.372814e-03
 endloop
endfacet
facet normal 3.573830e-01 2.794502e-01 -8.911706e-01
 outer loop
  vertex 2.629728e-03 -2.082014e-03 -3.080195e-03
  vertex 2.069725e-03 -4.647363e-04 -2.797630e-03
  vertex 3.385758e-03 -7.930378e-04 -2.372814e-03
 endloop
endfacet
facet normal 3.067091e-01 -2.136446e-03 -9.518009e-01
 outer loop
  vertex 3.385758e-03 -7.930378e-04 -2.372814e-03
  vertex 2.069725e-03 -4.647363e-04 -2.797630e-03
  vertex 3.039196e-03 2.490851e-04 -2.486830e-03
 endloop
endfacet
facet normal 1.573871e-01 2.066996e-01 -9.656628e-01
 outer loop
  vertex 3.039196e-03 2.490851e-04 -2.486830e-03
  vertex 2.069725e-03 -4.647363e-04 -2.797630e-03
  vertex 2.128952e-03 8.152053e-04 -2.514007e-03
 endloop
endfacet
facet normal -3.538305e-01 3.199148e-01 -8.788962e-01
 outer loop
  vertex 1.388538e-03 1.637952e-03 -1.916450e-03
  vertex 2.431969e-03 1.797825e-03 -2.278327e-03
  vertex 2.128952e-03 8.152053e-04 -2.514007e-03
 endloop
endfacet
facet normal -3.535647e-01 4.441019e-01 -8.232652e-01
 outer loop
  vertex 2.431969e-03 1.797825e-03 -2.278327e-03
  vertex 1.388538e-03 1.637952e-03 -1.916450e-03
  vertex 2.006796e-03 2.684239e-03 -1.617563e-03
 endloop
endfacet
facet normal 6.873827e-01 -6.837259e-01 -2.449979e-01
 outer loop
  vertex 3.002194e-03 -4.682388e-03 -2.827685e-03
  vertex 3.664003e-03 -3.856876e-03 -3.274661e-03
  vertex 4.288667e-03 -3.553594e-03 -2.368443e-03
 endloop
endfacet
facet normal 3.390178e-01 4.378726e-01 -8.326671e-01
 outer loop
  vertex 3.452740e-03 -3.058683e-03 -2.940932e-03
  vertex 3.664003e-03 -3.856876e-03 -3.274661e-03
  vertex 2.526343e-03 -3.707900e-03 -3.659514e-03
 endloop
endfacet
facet normal 4.642187e-01 2.709442e-01 -8.432616e-01
 outer loop
  vertex 2.526343e-03 -3.707900e-03 -3.659514e-03
  vertex 2.629728e-03 -2.082014e-03 -3.080195e-03
  vertex 3.452740e-03 -3.058683e-03 -2.940932e-03
 endloop
endfacet
facet normal 3.489293e-01 2.772279e-01 -8.952056e-01
 outer loop
  vertex 2.069725e-03 -4.647363e-04 -2.797630e-03
  vertex 2.629728e-03 -2.082014e-03 -3.080195e-03
  vertex 1.276915e-03 -1.666775e-03 -3.478897e-03
 endloop
endfacet
facet normal 1.573251e-01 4.063572e-01 -9.000681e-01
 outer loop
  vertex 2.069725e-03 -4.647363e-04 -2.797630e-03
  vertex 1.276915e-03 -1.666775e-03 -3.478897e-03
  vertex 1.159585e-03 -6.692599e-04 -3.049053e-03
 endloop
endfacet
facet normal 9.480136e-02 5.761319e-01 -8.118403e-01
 outer loop
  vertex 2.069725e-03 -4.647363e-04 -2.797630e-03
  vertex 1.159585e-03 -6.692599e-04 -3.049053e-03
  vertex 8.143648e-04 3.062914e-04 -2.397054e-03
 endloop
endfacet
facet normal -1.708656e-01 2.206916e-01 -9.602605e-01
 outer loop
  vertex 2.069725e-03 -4.647363e-04 -2.797630e-03
  vertex 8.143648e-04 3.062914e-04 -2.397054e-03
  vertex 2.128952e-03 8.152053e-04 -2.514007e-03
 endloop
endfacet
facet normal -2.402878e-01 4.195281e-01 -8.753616e-01
 outer loop
  vertex 8.143648e-04 3.062914e-04 -2.397054e-03
  vertex 1.388538e-03 1.637952e-03 -1.916450e-03
  vertex 2.128952e-03 8.152053e-04 -2.514007e-03
 endloop
endfacet
facet normal -1.835908e-02 -8.839735e-01 -4.671764e-01
 outer loop
  vertex 1.490474e-03 -4.986570e-03 -2.192716e-03
  vertex 1.386208e-03 -4.428205e-03 -3.245136e-03
  vertex 3.002194e-03 -4.682388e-03 -2.827685e-03
 endloop
endfacet
facet normal 1.046129e-01 4.763690e-01 -8.729998e-01
 outer loop
  vertex 1.410223e-04 -9.323453e-04 -3.153628e-03
  vertex -3.341900e-04 0.000000e+00 -2.701821e-03
  vertex 8.143648e-04 3.062914e-04 -2.397054e-03
 endloop
endfacet
facet normal 5.133148e-02 6.010813e-01 -7.975377e-01
 outer loop
  vertex 8.143648e-04 3.062914e-04 -2.397054e-03
  vertex -3.341900e-04 0.000000e+00 -2.701821e-03
  vertex -4.634907e-04 7.536513e-04 -2.142138e-03
 endloop
endfacet
facet normal -4.979428e-01 -7.855242e-01 -3.674298e-01
 outer loop
  vertex 2.994046e-04 -4.303513e-03 -2.038873e-03
  vertex 1.386208e-03 -4.428205e-03 -3.245136e-03
  vertex 1.490474e-03 -4.986570e-03 -2.192716e-03
 endloop
endfacet
facet normal -5.828089e-01 -6.729229e-01 -4.555310e-01
 outer loop
  vertex 3.143616e-04 -3.527910e-03 -3.203750e-03
  vertex 1.386208e-03 -4.428205e-03 -3.245136e-03
  vertex 2.994046e-04 -4.303513e-03 -2.038873e-03
 endloop
endfacet
facet normal 2.148348e-01 5.124070e-01 -8.314356e-01
 outer loop
  vertex -1.204876e-03 -3.478709e-04 -3.141188e-03
  vertex -3.341900e-04 0.000000e+00 -2.701821e-03
  vertex 1.410223e-04 -9.323453e-04 -3.153628e-03
 endloop
endfacet
facet normal 2.328912e-01 4.831072e-01 -8.440196e-01
 outer loop
  vertex -3.341900e-04 0.000000e+00 -2.701821e-03
  vertex -1.204876e-03 -3.478709e-04 -3.141188e-03
  vertex -1.321229e-03 5.484771e-04 -2.660234e-03
 endloop
endfacet
facet normal 3.028877e-01 6.011488e-01 -7.395128e-01
 outer loop
  vertex -3.341900e-04 0.000000e+00 -2.701821e-03
  vertex -1.321229e-03 5.484771e-04 -2.660234e-03
  vertex -4.634907e-04 7.536513e-04 -2.142138e-03
 endloop
endfacet
facet normal -3.001547e-01 7.342247e-01 -6.089509e-01
 outer loop
  vertex -1.707014e-03 1.345712e-03 -1.927440e-03
  vertex -2.753824e-03 4.489726e-04 -2.492680e-03
  vertex -3.386547e-03 1.336074e-03 -1.111211e-03
 endloop
endfacet
facet normal -1.331056e-01 6.350226e-01 -7.609397e-01
 outer loop
  vertex -1.707014e-03 1.345712e-03 -1.927440e-03
  vertex -1.321229e-03 5.484771e-04 -2.660234e-03
  vertex -2.753824e-03 4.489726e-04 -2.492680e-03
 endloop
endfacet
facet normal 2.271522e-01 7.163371e-01 -6.597446e-01
 outer loop
  vertex -1.707014e-03 1.345712e-03 -1.927440e-03
  vertex -4.634907e-04 7.536513e-04 -2.142138e-03
  vertex -1.321229e-03 5.484771e-04 -2.660234e-03
 endloop
endfacet
facet normal -5.952700e-01 -6.652871e-01 -4.506069e-01
 outer loop
  vertex 3.143616e-04 -3.527910e-03 -3.203750e-03
  vertex 2.994046e-04 -4.303513e-03 -2.038873e-03
  vertex -6.819754e-04 -3.404474e-03 -2.069792e-03
 endloop
endfacet
facet normal -3.094505e-01 -6.076680e-01 -7.314233e-01
 outer loop
  vertex -1.810719e-04 -2.329069e-03 -3.175164e-03
  vertex -6.819754e-04 -3.404474e-03 -2.069792e-03
  vertex -1.463443e-03 -2.365484e-03 -2.602364e-03
 endloop
endfacet
facet normal -7.345587e-01 -2.889240e-01 -6.139597e-01
 outer loop
  vertex 3.143616e-04 -3.527910e-03 -3.203750e-03
  vertex -6.819754e-04 -3.404474e-03 -2.069792e-03
  vertex -1.810719e-04 -2.329069e-03 -3.175164e-03
 endloop
endfacet
facet normal -3.743783e-01 -3.463394e-01 -8.601685e-01
 outer loop
  vertex -1.463443e-03 -2.365484e-03 -2.602364e-03
  vertex -9.642103e-04 -1.403948e-03 -3.206804e-03
  vertex -1.810719e-04 -2.329069e-03 -3.175164e-03
 endloop
endfacet
facet normal -2.632916e-01 -4.117313e-01 -8.724419e-01
 outer loop
  vertex -1.463443e-03 -2.365484e-03 -2.602364e-03
  vertex -2.228679e-03 -9.868915e-04 -3.022025e-03
  vertex -9.642103e-04 -1.403948e-03 -3.206804e-03
 endloop
endfacet
facet normal -2.996172e-01 -6.039368e-01 -7.385729e-01
 outer loop
  vertex -1.463443e-03 -2.365484e-03 -2.602364e-03
  vertex -6.819754e-04 -3.404474e-03 -2.069792e-03
  vertex -2.102605e-03 -3.364582e-03 -1.526105e-03
 endloop
endfacet
facet normal -2.118863e-01 -6.503104e-01 -7.295208e-01
 outer loop
  vertex -1.463443e-03 -2.365484e-03 -2.602364e-03
  vertex -2.102605e-03 -3.364582e-03 -1.526105e-03
  vertex -2.648572e-03 -2.158704e-03 -2.442477e-03
 endloop
endfacet
facet normal -1.885065e-01 -3.802707e-01 -9.054609e-01
 outer loop
  vertex -2.648572e-03 -2.158704e-03 -2.442477e-03
  vertex -2.228679e-03 -9.868915e-04 -3.022025e-03
  vertex -1.463443e-03 -2.365484e-03 -2.602364e-03
 endloop
endfacet
facet normal -6.928487e-01 6.370758e-01 -3.377797e-01
 outer loop
  vertex -5.027058e-03 3.851824e-04 4.603331e-04
  vertex -3.386547e-03 1.336074e-03 -1.111211e-03
  vertex -4.872157e-03 -1.211887e-04 -8.124482e-04
 endloop
endfacet
facet normal -3.006661e-01 -5.932782e-01 -7.467402e-01
 outer loop
  vertex -3.699306e-03 -2.651863e-03 -1.449461e-03
  vertex -2.102605e-03 -3.364582e-03 -1.526105e-03
  vertex -3.269033e-03 -3.710222e-03 -7.818485e-04
 endloop
endfacet
facet normal -3.275350e-01 -6.611937e-01 -6.749398e-01
 outer loop
  vertex -3.699306e-03 -2.651863e-03 -1.449461e-03
  vertex -2.648572e-03 -2.158704e-03 -2.442477e-03
  vertex -2.102605e-03 -3.364582e-03 -1.526105e-03
 endloop
endfacet
facet normal -4.270474e-01 -5.441997e-01 -7.221338e-01
 outer loop
  vertex -2.648572e-03 -2.158704e-03 -2.442477e-03
  vertex -3.699306e-03 -2.651863e-03 -1.449461e-03
  vertex -3.648519e-03 -1.622098e-03 -2.255526e-03
 endloop
endfacet
facet normal -7.074058e-01 -4.137029e-01 -5.730855e-01
 outer loop
  vertex -3.648519e-03 -1.622098e-03 -2.255526e-03
  vertex -3.699306e-03 -2.651863e-03 -1.449461e-03
  vertex -4.617797e-03 -1.369015e-03 -1.241765e-03
 endloop
endfacet
facet normal 5.484909e-01 5.585723e-01 -6.222176e-01
 outer loop
  vertex 4.540878e-03 2.590855e-03 -1.572752e-03
  vertex 5.131427e-03 3.105603e-03 -5.900823e-04
  vertex 5.486258e-03 2.174684e-03 -1.112993e-03
 endloop
endfacet
facet normal 4.764187e-01 1.200276e-01 -8.709871e-01
 outer loop
  vertex 4.540878e-03 2.590855e-03 -1.572752e-03
  vertex 5.486258e-03 2.174684e-03 -1.112993e-03
  vertex 4.562499e-03 1.625823e-03 -1.693914e-03
 endloop
endfacet
facet normal 3.765200e-01 7.081901e-01 -5.972432e-01
 outer loop
  vertex 4.008332e-03 3.241743e-03 -1.136685e-03
  vertex 5.131427e-03 3.105603e-03 -5.900823e-04
  vertex 4.540878e-03 2.590855e-03 -1.572752e-03
 endloop
endfacet
facet normal 6.520016e-01 -1.964135e-02 -7.579631e-01
 outer loop
  vertex 4.466957e-03 -7.519057e-04 -1.834235e-03
  vertex 5.248847e-03 -1.236611e-04 -1.177931e-03
  vertex 5.134382e-03 -1.197673e-03 -1.248563e-03
 endloop
endfacet
facet normal 5.985721e-01 8.694264e-02 -7.963368e-01
 outer loop
  vertex 5.248847e-03 -1.236611e-04 -1.177931e-03
  vertex 4.466957e-03 -7.519057e-04 -1.834235e-03
  vertex 4.319134e-03 3.736480e-04 -1.822461e-03
 endloop
endfacet
facet normal 4.618130e-01 1.300966e-03 -8.869763e-01
 outer loop
  vertex 3.317935e-03 1.245117e-03 -2.342467e-03
  vertex 4.562499e-03 1.625823e-03 -1.693914e-03
  vertex 4.319134e-03 3.736480e-04 -1.822461e-03
 endloop
endfacet
facet normal 3.646802e-01 3.059736e-01 -8.794251e-01
 outer loop
  vertex 4.562499e-03 1.625823e-03 -1.693914e-03
  vertex 3.317935e-03 1.245117e-03 -2.342467e-03
  vertex 3.322954e-03 2.419735e-03 -1.931707e-03
 endloop
endfacet
facet normal 2.641258e-01 1.259732e-01 -9.562261e-01
 outer loop
  vertex 4.562499e-03 1.625823e-03 -1.693914e-03
  vertex 3.322954e-03 2.419735e-03 -1.931707e-03
  vertex 4.540878e-03 2.590855e-03 -1.572752e-03
 endloop
endfacet
facet normal -3.355784e-02 7.091338e-01 -7.042749e-01
 outer loop
  vertex 2.894483e-03 3.359154e-03 -9.653910e-04
  vertex 4.008332e-03 3.241743e-03 -1.136685e-03
  vertex 3.322954e-03 2.419735e-03 -1.931707e-03
 endloop
endfacet
facet normal 1.379833e-01 6.267112e-01 -7.669379e-01
 outer loop
  vertex 4.008332e-03 3.241743e-03 -1.136685e-03
  vertex 4.540878e-03 2.590855e-03 -1.572752e-03
  vertex 3.322954e-03 2.419735e-03 -1.931707e-03
 endloop
endfacet
facet normal 9.123395e-01 -4.049204e-01 -6.063043e-02
 outer loop
  vertex 4.903678e-03 -2.330744e-03 -1.280848e-03
  vertex 4.444260e-03 -3.377189e-03 -1.205270e-03
  vertex 4.288667e-03 -3.553594e-03 -2.368443e-03
 endloop
endfacet
facet normal 6.984823e-01 -1.221260e-01 -7.051295e-01
 outer loop
  vertex 4.082233e-03 -2.003353e-03 -2.151252e-03
  vertex 5.134382e-03 -1.197673e-03 -1.248563e-03
  vertex 4.903678e-03 -2.330744e-03 -1.280848e-03
 endloop
endfacet
facet normal 7.486424e-01 1.887317e-01 -6.355431e-01
 outer loop
  vertex 4.903678e-03 -2.330744e-03 -1.280848e-03
  vertex 4.288667e-03 -3.553594e-03 -2.368443e-03
  vertex 4.082233e-03 -2.003353e-03 -2.151252e-03
 endloop
endfacet
facet normal 4.412850e-01 9.050122e-02 -8.927917e-01
 outer loop
  vertex 4.466957e-03 -7.519057e-04 -1.834235e-03
  vertex 4.082233e-03 -2.003353e-03 -2.151252e-03
  vertex 3.385758e-03 -7.930378e-04 -2.372814e-03
 endloop
endfacet
facet normal 6.556413e-01 -1.030168e-02 -7.550022e-01
 outer loop
  vertex 5.134382e-03 -1.197673e-03 -1.248563e-03
  vertex 4.082233e-03 -2.003353e-03 -2.151252e-03
  vertex 4.466957e-03 -7.519057e-04 -1.834235e-03
 endloop
endfacet
facet normal 4.427994e-01 6.750688e-02 -8.940758e-01
 outer loop
  vertex 4.466957e-03 -7.519057e-04 -1.834235e-03
  vertex 3.385758e-03 -7.930378e-04 -2.372814e-03
  vertex 4.319134e-03 3.736480e-04 -1.822461e-03
 endloop
endfacet
facet normal -7.727544e-02 7.435047e-01 -6.642509e-01
 outer loop
  vertex 1.775096e-03 3.497298e-03 -6.805409e-04
  vertex 2.894483e-03 3.359154e-03 -9.653910e-04
  vertex 2.006796e-03 2.684239e-03 -1.617563e-03
 endloop
endfacet
facet normal 8.538579e-01 -5.192968e-01 -3.546147e-02
 outer loop
  vertex 4.444260e-03 -3.377189e-03 -1.205270e-03
  vertex 3.783033e-03 -4.431736e-03 -1.683847e-03
  vertex 4.288667e-03 -3.553594e-03 -2.368443e-03
 endloop
endfacet
facet normal -1.886500e-01 3.711980e-01 -9.091882e-01
 outer loop
  vertex 0.000000e+00 3.136898e-03 -1.016358e-03
  vertex 2.006796e-03 2.684239e-03 -1.617563e-03
  vertex 1.388538e-03 1.637952e-03 -1.916450e-03
 endloop
endfacet
facet normal -2.791306e-02 7.515796e-01 -6.590516e-01
 outer loop
  vertex 2.006796e-03 2.684239e-03 -1.617563e-03
  vertex 0.000000e+00 3.136898e-03 -1.016358e-03
  vertex 1.775096e-03 3.497298e-03 -6.805409e-04
 endloop
endfacet
facet normal -8.759201e-02 8.750286e-01 -4.760805e-01
 outer loop
  vertex 0.000000e+00 3.136898e-03 -1.016358e-03
  vertex 1.062834e-03 4.224854e-03 7.877415e-04
  vertex 1.775096e-03 3.497298e-03 -6.805409e-04
 endloop
endfacet
facet normal 6.865731e-01 -6.497208e-01 -3.263131e-01
 outer loop
  vertex 3.783033e-03 -4.431736e-03 -1.683847e-03
  vertex 3.002194e-03 -4.682388e-03 -2.827685e-03
  vertex 4.288667e-03 -3.553594e-03 -2.368443e-03
 endloop
endfacet
facet normal 3.071439e-01 -9.516624e-01 -1.131137e-03
 outer loop
  vertex 2.411951e-03 -4.874661e-03 -1.334062e-03
  vertex 3.002194e-03 -4.682388e-03 -2.827685e-03
  vertex 3.783033e-03 -4.431736e-03 -1.683847e-03
 endloop
endfacet
facet normal -2.086482e-01 4.103523e-01 -8.877369e-01
 outer loop
  vertex -8.062592e-05 1.540025e-03 -1.616413e-03
  vertex 1.388538e-03 1.637952e-03 -1.916450e-03
  vertex 8.143648e-04 3.062914e-04 -2.397054e-03
 endloop
endfacet
facet normal -2.097396e-01 3.531923e-01 -9.117371e-01
 outer loop
  vertex 1.388538e-03 1.637952e-03 -1.916450e-03
  vertex -8.062592e-05 1.540025e-03 -1.616413e-03
  vertex 0.000000e+00 3.136898e-03 -1.016358e-03
 endloop
endfacet
facet normal 7.054802e-01 3.410433e-01 -6.212787e-01
 outer loop
  vertex 1.062834e-03 4.224854e-03 7.877415e-04
  vertex 0.000000e+00 3.136898e-03 -1.016358e-03
  vertex -7.600548e-05 4.441668e-03 -3.864272e-04
 endloop
endfacet
facet normal 3.937205e-01 4.181548e-01 -8.186151e-01
 outer loop
  vertex 0.000000e+00 3.136898e-03 -1.016358e-03
  vertex -8.288847e-04 4.128214e-03 -9.086460e-04
  vertex -7.600548e-05 4.441668e-03 -3.864272e-04
 endloop
endfacet
facet normal 2.542970e-01 6.224230e-01 -7.402180e-01
 outer loop
  vertex -8.288847e-04 4.128214e-03 -9.086460e-04
  vertex -1.151027e-03 4.932662e-03 -3.428840e-04
  vertex -7.600548e-05 4.441668e-03 -3.864272e-04
 endloop
endfacet
facet normal 1.734542e-01 -9.831318e-01 -5.801307e-02
 outer loop
  vertex 2.411951e-03 -4.874661e-03 -1.334062e-03
  vertex 1.490474e-03 -4.986570e-03 -2.192716e-03
  vertex 3.002194e-03 -4.682388e-03 -2.827685e-03
 endloop
endfacet
facet normal 2.470216e-02 5.472701e-01 -8.365914e-01
 outer loop
  vertex -8.062592e-05 1.540025e-03 -1.616413e-03
  vertex 8.143648e-04 3.062914e-04 -2.397054e-03
  vertex -4.634907e-04 7.536513e-04 -2.142138e-03
 endloop
endfacet
facet normal 1.003894e-01 5.187311e-01 -8.490230e-01
 outer loop
  vertex -8.062592e-05 1.540025e-03 -1.616413e-03
  vertex -4.634907e-04 7.536513e-04 -2.142138e-03
  vertex -1.707014e-03 1.345712e-03 -1.927440e-03
 endloop
endfacet
facet normal -3.760698e-01 -2.165579e-01 -9.009296e-01
 outer loop
  vertex -8.288847e-04 4.128214e-03 -9.086460e-04
  vertex 0.000000e+00 3.136898e-03 -1.016358e-03
  vertex -2.757387e-03 3.813711e-03 -2.804492e-05
 endloop
endfacet
facet normal -4.340974e-01 3.954363e-01 -8.094378e-01
 outer loop
  vertex -2.757387e-03 3.813711e-03 -2.804492e-05
  vertex -1.151027e-03 4.932662e-03 -3.428840e-04
  vertex -8.288847e-04 4.128214e-03 -9.086460e-04
 endloop
endfacet
facet normal -1.210770e-01 -9.593396e-01 2.549663e-01
 outer loop
  vertex 2.411951e-03 -4.874661e-03 -1.334062e-03
  vertex 8.125928e-04 -4.515785e-03 -7.432424e-04
  vertex 1.490474e-03 -4.986570e-03 -2.192716e-03
 endloop
endfacet
facet normal -4.917017e-01 -8.691884e-01 5.235382e-02
 outer loop
  vertex 2.994046e-04 -4.303513e-03 -2.038873e-03
  vertex 1.490474e-03 -4.986570e-03 -2.192716e-03
  vertex 8.125928e-04 -4.515785e-03 -7.432424e-04
 endloop
endfacet
facet normal 7.556910e-02 6.189073e-01 -7.818203e-01
 outer loop
  vertex -1.577466e-03 2.156423e-03 -1.273140e-03
  vertex -8.062592e-05 1.540025e-03 -1.616413e-03
  vertex -1.707014e-03 1.345712e-03 -1.927440e-03
 endloop
endfacet
facet normal -6.815945e-02 3.539502e-01 -9.327773e-01
 outer loop
  vertex 0.000000e+00 3.136898e-03 -1.016358e-03
  vertex -8.062592e-05 1.540025e-03 -1.616413e-03
  vertex -1.577466e-03 2.156423e-03 -1.273140e-03
 endloop
endfacet
facet normal -2.413747e-01 3.424990e-01 -9.079827e-01
 outer loop
  vertex 0.000000e+00 3.136898e-03 -1.016358e-03
  vertex -2.768979e-03 2.501782e-03 -5.198347e-04
  vertex -2.757387e-03 3.813711e-03 -2.804492e-05
 endloop
endfacet
facet normal -2.748911e-01 6.320243e-01 -7.245552e-01
 outer loop
  vertex 0.000000e+00 3.136898e-03 -1.016358e-03
  vertex -1.577466e-03 2.156423e-03 -1.273140e-03
  vertex -2.768979e-03 2.501782e-03 -5.198347e-04
 endloop
endfacet
facet normal -2.863510e-01 1.445835e-01 -9.471530e-01
 outer loop
  vertex -2.214109e-03 5.073405e-03 0.000000e+00
  vertex -1.151027e-03 4.932662e-03 -3.428840e-04
  vertex -2.757387e-03 3.813711e-03 -2.804492e-05
 endloop
endfacet
facet normal -6.554775e-01 -7.230150e-01 -2.181707e-01
 outer loop
  vertex -6.819754e-04 -3.404474e-03 -2.069792e-03
  vertex 2.994046e-04 -4.303513e-03 -2.038873e-03
  vertex -5.741298e-04 -3.915975e-03 -6.986983e-04
 endloop
endfacet
facet normal -3.967995e-01 -9.178802e-01 6.786360e-03
 outer loop
  vertex 8.125928e-04 -4.515785e-03 -7.432424e-04
  vertex -5.741298e-04 -3.915975e-03 -6.986983e-04
  vertex 2.994046e-04 -4.303513e-03 -2.038873e-03
 endloop
endfacet
facet normal -3.450590e-01 6.222435e-01 -7.026716e-01
 outer loop
  vertex -1.707014e-03 1.345712e-03 -1.927440e-03
  vertex -3.386547e-03 1.336074e-03 -1.111211e-03
  vertex -1.577466e-03 2.156423e-03 -1.273140e-03
 endloop
endfacet
facet normal -7.728974e-01 5.604281e-01 -2.975735e-01
 outer loop
  vertex -2.768979e-03 2.501782e-03 -5.198347e-04
  vertex -3.386547e-03 1.336074e-03 -1.111211e-03
  vertex -4.096252e-03 1.191600e-03 4.600358e-04
 endloop
endfacet
facet normal -3.216388e-01 5.583483e-01 -7.647194e-01
 outer loop
  vertex -2.768979e-03 2.501782e-03 -5.198347e-04
  vertex -1.577466e-03 2.156423e-03 -1.273140e-03
  vertex -3.386547e-03 1.336074e-03 -1.111211e-03
 endloop
endfacet
facet normal -6.386930e-01 7.371290e-01 -2.207083e-01
 outer loop
  vertex -5.027058e-03 3.851824e-04 4.603331e-04
  vertex -4.096252e-03 1.191600e-03 4.600358e-04
  vertex -3.386547e-03 1.336074e-03 -1.111211e-03
 endloop
endfacet
facet normal 4.095048e-02 -9.291835e-01 -3.673432e-01
 outer loop
  vertex -2.102605e-03 -3.364582e-03 -1.526105e-03
  vertex -2.152766e-03 -4.011391e-03 1.043863e-04
  vertex -3.269033e-03 -3.710222e-03 -7.818485e-04
 endloop
endfacet
facet normal -5.910388e-01 -5.883677e-01 -5.518121e-01
 outer loop
  vertex -4.447735e-03 -3.151966e-03 -1.145954e-04
  vertex -3.699306e-03 -2.651863e-03 -1.449461e-03
  vertex -3.269033e-03 -3.710222e-03 -7.818485e-04
 endloop
endfacet
facet normal -6.783254e-01 -3.842718e-01 -6.262666e-01
 outer loop
  vertex -3.699306e-03 -2.651863e-03 -1.449461e-03
  vertex -4.711125e-03 -2.199660e-03 -6.310027e-04
  vertex -4.617797e-03 -1.369015e-03 -1.241765e-03
 endloop
endfacet
facet normal -6.702614e-01 -4.883874e-01 -5.587731e-01
 outer loop
  vertex -3.699306e-03 -2.651863e-03 -1.449461e-03
  vertex -4.447735e-03 -3.151966e-03 -1.145954e-04
  vertex -4.711125e-03 -2.199660e-03 -6.310027e-04
 endloop
endfacet
facet normal -7.700228e-01 6.152420e-02 -6.350430e-01
 outer loop
  vertex -4.617797e-03 -1.369015e-03 -1.241765e-03
  vertex -5.630055e-03 -1.651491e-03 -4.171664e-05
  vertex -4.872157e-03 -1.211887e-04 -8.124482e-04
 endloop
endfacet
facet normal 8.875764e-01 -6.747418e-02 -4.556922e-01
 outer loop
  vertex 5.990642e-03 2.234786e-03 -1.394757e-04
  vertex 5.643852e-03 1.085663e-03 -6.447868e-04
  vertex 5.486258e-03 2.174684e-03 -1.112993e-03
 endloop
endfacet
facet normal 7.454154e-01 5.190603e-01 -4.182491e-01
 outer loop
  vertex 5.990642e-03 2.234786e-03 -1.394757e-04
  vertex 5.486258e-03 2.174684e-03 -1.112993e-03
  vertex 5.131427e-03 3.105603e-03 -5.900823e-04
 endloop
endfacet
facet normal 6.140687e-01 1.417203e-01 -7.764245e-01
 outer loop
  vertex 5.643852e-03 1.085663e-03 -6.447868e-04
  vertex 5.248847e-03 -1.236611e-04 -1.177931e-03
  vertex 4.319134e-03 3.736480e-04 -1.822461e-03
 endloop
endfacet
facet normal 9.543162e-01 -2.250674e-01 -1.965331e-01
 outer loop
  vertex 5.643852e-03 1.085663e-03 -6.447868e-04
  vertex 5.495097e-03 -1.162983e-04 9.368830e-06
  vertex 5.248847e-03 -1.236611e-04 -1.177931e-03
 endloop
endfacet
facet normal 6.803222e-01 -5.721273e-02 -7.306767e-01
 outer loop
  vertex 4.562499e-03 1.625823e-03 -1.693914e-03
  vertex 5.643852e-03 1.085663e-03 -6.447868e-04
  vertex 4.319134e-03 3.736480e-04 -1.822461e-03
 endloop
endfacet
facet normal 6.137168e-01 -2.352173e-01 -7.536740e-01
 outer loop
  vertex 5.643852e-03 1.085663e-03 -6.447868e-04
  vertex 4.562499e-03 1.625823e-03 -1.693914e-03
  vertex 5.486258e-03 2.174684e-03 -1.112993e-03
 endloop
endfacet
facet normal 2.689217e-01 9.059907e-01 -3.268976e-01
 outer loop
  vertex 4.008332e-03 3.241743e-03 -1.136685e-03
  vertex 4.058104e-03 3.635577e-03 -4.236761e-06
  vertex 5.131427e-03 3.105603e-03 -5.900823e-04
 endloop
endfacet
facet normal 9.769613e-01 -1.965492e-01 -8.315696e-02
 outer loop
  vertex 5.182290e-03 -1.344301e-03 -3.391566e-04
  vertex 4.903678e-03 -2.330744e-03 -1.280848e-03
  vertex 5.134382e-03 -1.197673e-03 -1.248563e-03
 endloop
endfacet
facet normal 9.752400e-01 -9.067304e-02 -2.017061e-01
 outer loop
  vertex 5.495097e-03 -1.162983e-04 9.368830e-06
  vertex 5.134382e-03 -1.197673e-03 -1.248563e-03
  vertex 5.248847e-03 -1.236611e-04 -1.177931e-03
 endloop
endfacet
facet normal 9.710071e-01 -2.226376e-01 -8.704967e-02
 outer loop
  vertex 5.134382e-03 -1.197673e-03 -1.248563e-03
  vertex 5.495097e-03 -1.162983e-04 9.368830e-06
  vertex 5.182290e-03 -1.344301e-03 -3.391566e-04
 endloop
endfacet
facet normal 4.862489e-02 9.427304e-01 -3.299924e-01
 outer loop
  vertex 2.894483e-03 3.359154e-03 -9.653910e-04
  vertex 4.058104e-03 3.635577e-03 -4.236761e-06
  vertex 4.008332e-03 3.241743e-03 -1.136685e-03
 endloop
endfacet
facet normal -1.015637e-02 9.641944e-01 -2.650019e-01
 outer loop
  vertex 2.894483e-03 3.359154e-03 -9.653910e-04
  vertex 2.658816e-03 3.712468e-03 3.291554e-04
  vertex 4.058104e-03 3.635577e-03 -4.236761e-06
 endloop
endfacet
facet normal 8.257941e-01 -3.294880e-01 4.577136e-01
 outer loop
  vertex 4.183381e-03 -1.742539e-03 4.421152e-04
  vertex 4.444260e-03 -3.377189e-03 -1.205270e-03
  vertex 4.903678e-03 -2.330744e-03 -1.280848e-03
 endloop
endfacet
facet normal 6.196164e-01 -6.264510e-01 4.729002e-01
 outer loop
  vertex 4.183381e-03 -1.742539e-03 4.421152e-04
  vertex 4.903678e-03 -2.330744e-03 -1.280848e-03
  vertex 5.182290e-03 -1.344301e-03 -3.391566e-04
 endloop
endfacet
facet normal 1.895974e-01 9.132624e-01 -3.605616e-01
 outer loop
  vertex 2.658816e-03 3.712468e-03 3.291554e-04
  vertex 1.775096e-03 3.497298e-03 -6.805409e-04
  vertex 1.062834e-03 4.224854e-03 7.877415e-04
 endloop
endfacet
facet normal 5.464299e-02 9.657562e-01 -2.536317e-01
 outer loop
  vertex 2.894483e-03 3.359154e-03 -9.653910e-04
  vertex 1.775096e-03 3.497298e-03 -6.805409e-04
  vertex 2.658816e-03 3.712468e-03 3.291554e-04
 endloop
endfacet
facet normal 6.091356e-01 -6.112560e-01 5.052920e-01
 outer loop
  vertex 3.783033e-03 -4.431736e-03 -1.683847e-03
  vertex 4.444260e-03 -3.377189e-03 -1.205270e-03
  vertex 3.398619e-03 -3.678544e-03 -3.092885e-04
 endloop
endfacet
facet normal 6.444844e-01 -4.892895e-01 5.875676e-01
 outer loop
  vertex 4.183381e-03 -1.742539e-03 4.421152e-04
  vertex 3.398619e-03 -3.678544e-03 -3.092885e-04
  vertex 4.444260e-03 -3.377189e-03 -1.205270e-03
 endloop
endfacet
facet normal 3.799333e-01 -7.623087e-01 5.239620e-01
 outer loop
  vertex 3.398619e-03 -3.678544e-03 -3.092885e-04
  vertex 2.411951e-03 -4.874661e-03 -1.334062e-03
  vertex 3.783033e-03 -4.431736e-03 -1.683847e-03
 endloop
endfacet
facet normal 5.726702e-01 7.003361e-01 -4.261199e-01
 outer loop
  vertex -7.600548e-05 4.441668e-03 -3.864272e-04
  vertex -3.599015e-04 5.414706e-03 8.312458e-04
  vertex 1.062834e-03 4.224854e-03 7.877415e-04
 endloop
endfacet
facet normal 3.312711e-01 7.732598e-01 -5.406743e-01
 outer loop
  vertex -1.151027e-03 4.932662e-03 -3.428840e-04
  vertex -3.599015e-04 5.414706e-03 8.312458e-04
  vertex -7.600548e-05 4.441668e-03 -3.864272e-04
 endloop
endfacet
facet normal 3.553329e-01 7.559600e-01 -5.497846e-01
 outer loop
  vertex -3.599015e-04 5.414706e-03 8.312458e-04
  vertex -1.151027e-03 4.932662e-03 -3.428840e-04
  vertex -1.436838e-03 5.702863e-03 5.314269e-04
 endloop
endfacet
facet normal 4.011045e-01 -7.639395e-01 5.054815e-01
 outer loop
  vertex 3.398619e-03 -3.678544e-03 -3.092885e-04
  vertex 1.954760e-03 -4.218395e-03 2.054545e-05
  vertex 2.411951e-03 -4.874661e-03 -1.334062e-03
 endloop
endfacet
facet normal -3.989495e-01 8.270221e-01 -3.960729e-01
 outer loop
  vertex -2.214109e-03 5.073405e-03 0.000000e+00
  vertex -2.353313e-03 5.436185e-03 8.977204e-04
  vertex -1.436838e-03 5.702863e-03 5.314269e-04
 endloop
endfacet
facet normal -1.228787e-01 7.244158e-01 -6.783233e-01
 outer loop
  vertex -2.214109e-03 5.073405e-03 0.000000e+00
  vertex -1.436838e-03 5.702863e-03 5.314269e-04
  vertex -1.151027e-03 4.932662e-03 -3.428840e-04
 endloop
endfacet
facet normal 1.172793e-02 -9.375970e-01 3.475259e-01
 outer loop
  vertex 1.954760e-03 -4.218395e-03 2.054545e-05
  vertex 1.575993e-04 -3.670165e-03 1.560276e-03
  vertex 8.125928e-04 -4.515785e-03 -7.432424e-04
 endloop
endfacet
facet normal -4.696417e-02 -9.050827e-01 4.226342e-01
 outer loop
  vertex 2.411951e-03 -4.874661e-03 -1.334062e-03
  vertex 1.954760e-03 -4.218395e-03 2.054545e-05
  vertex 8.125928e-04 -4.515785e-03 -7.432424e-04
 endloop
endfacet
facet normal -6.333071e-01 6.784294e-01 -3.723649e-01
 outer loop
  vertex -2.214109e-03 5.073405e-03 0.000000e+00
  vertex -3.134492e-03 4.587305e-03 6.797112e-04
  vertex -2.353313e-03 5.436185e-03 8.977204e-04
 endloop
endfacet
facet normal -6.643575e-01 3.017462e-01 -6.837970e-01
 outer loop
  vertex -2.757387e-03 3.813711e-03 -2.804492e-05
  vertex -3.134492e-03 4.587305e-03 6.797112e-04
  vertex -2.214109e-03 5.073405e-03 0.000000e+00
 endloop
endfacet
facet normal -3.811701e-01 -8.976652e-01 2.211485e-01
 outer loop
  vertex 8.125928e-04 -4.515785e-03 -7.432424e-04
  vertex 1.575993e-04 -3.670165e-03 1.560276e-03
  vertex -5.741298e-04 -3.915975e-03 -6.986983e-04
 endloop
endfacet
facet normal -7.528647e-01 3.422109e-01 -5.622157e-01
 outer loop
  vertex -4.096252e-03 1.191600e-03 4.600358e-04
  vertex -4.119017e-03 2.224607e-03 1.119294e-03
  vertex -2.768979e-03 2.501782e-03 -5.198347e-04
 endloop
endfacet
facet normal -7.699321e-01 2.299410e-01 -5.952577e-01
 outer loop
  vertex -2.757387e-03 3.813711e-03 -2.804492e-05
  vertex -2.768979e-03 2.501782e-03 -5.198347e-04
  vertex -4.119017e-03 2.224607e-03 1.119294e-03
 endloop
endfacet
facet normal -7.645370e-01 1.906474e-01 -6.157409e-01
 outer loop
  vertex -3.134492e-03 4.587305e-03 6.797112e-04
  vertex -2.757387e-03 3.813711e-03 -2.804492e-05
  vertex -3.933904e-03 3.784770e-03 1.423821e-03
 endloop
endfacet
facet normal -1.541900e-01 -9.296313e-01 -3.346806e-01
 outer loop
  vertex -5.741298e-04 -3.915975e-03 -6.986983e-04
  vertex -2.102605e-03 -3.364582e-03 -1.526105e-03
  vertex -6.819754e-04 -3.404474e-03 -2.069792e-03
 endloop
endfacet
facet normal -1.321217e-01 -9.199835e-01 -3.690180e-01
 outer loop
  vertex -2.152766e-03 -4.011391e-03 1.043863e-04
  vertex -2.102605e-03 -3.364582e-03 -1.526105e-03
  vertex -5.741298e-04 -3.915975e-03 -6.986983e-04
 endloop
endfacet
facet normal 1.440630e-02 -9.410560e-01 -3.379438e-01
 outer loop
  vertex -3.377042e-03 -4.040771e-03 1.340086e-04
  vertex -3.269033e-03 -3.710222e-03 -7.818485e-04
  vertex -2.152766e-03 -4.011391e-03 1.043863e-04
 endloop
endfacet
facet normal -5.527506e-01 -7.609161e-01 -3.398138e-01
 outer loop
  vertex -3.269033e-03 -3.710222e-03 -7.818485e-04
  vertex -3.377042e-03 -4.040771e-03 1.340086e-04
  vertex -4.447735e-03 -3.151966e-03 -1.145954e-04
 endloop
endfacet
facet normal -6.508799e-01 -7.483684e-01 1.276717e-01
 outer loop
  vertex -3.330646e-03 -3.847773e-03 1.501822e-03
  vertex -4.447735e-03 -3.151966e-03 -1.145954e-04
  vertex -3.377042e-03 -4.040771e-03 1.340086e-04
 endloop
endfacet
facet normal -3.664333e-01 -9.194590e-01 -1.425544e-01
 outer loop
  vertex -5.969954e-03 -2.705289e-03 9.172204e-04
  vertex -4.447735e-03 -3.151966e-03 -1.145954e-04
  vertex -3.330646e-03 -3.847773e-03 1.501822e-03
 endloop
endfacet
facet normal -6.518420e-01 -4.003401e-01 -6.440728e-01
 outer loop
  vertex -4.711125e-03 -2.199660e-03 -6.310027e-04
  vertex -5.630055e-03 -1.651491e-03 -4.171664e-05
  vertex -4.617797e-03 -1.369015e-03 -1.241765e-03
 endloop
endfacet
facet normal -6.585901e-01 -4.912587e-01 -5.700210e-01
 outer loop
  vertex -4.447735e-03 -3.151966e-03 -1.145954e-04
  vertex -5.630055e-03 -1.651491e-03 -4.171664e-05
  vertex -4.711125e-03 -2.199660e-03 -6.310027e-04
 endloop
endfacet
facet normal -7.396930e-01 2.770146e-02 -6.723740e-01
 outer loop
  vertex -5.630055e-03 -1.651491e-03 -4.171664e-05
  vertex -6.369145e-03 -9.855127e-04 7.988104e-04
  vertex -4.872157e-03 -1.211887e-04 -8.124482e-04
 endloop
endfacet
facet normal -7.136486e-01 6.167180e-01 -3.322118e-01
 outer loop
  vertex -5.027058e-03 3.851824e-04 4.603331e-04
  vertex -4.872157e-03 -1.211887e-04 -8.124482e-04
  vertex -6.369145e-03 -9.855127e-04 7.988104e-04
 endloop
endfacet
facet normal -5.895052e-01 -4.313368e-01 -6.829584e-01
 outer loop
  vertex -5.969954e-03 -2.705289e-03 9.172204e-04
  vertex -5.630055e-03 -1.651491e-03 -4.171664e-05
  vertex -4.447735e-03 -3.151966e-03 -1.145954e-04
 endloop
endfacet
facet normal -8.132867e-01 -2.257043e-01 -5.363043e-01
 outer loop
  vertex -6.369145e-03 -9.855127e-04 7.988104e-04
  vertex -5.630055e-03 -1.651491e-03 -4.171664e-05
  vertex -5.969954e-03 -2.705289e-03 9.172204e-04
 endloop
endfacet
facet normal -7.677644e-01 -2.196545e-01 -6.019051e-01
 outer loop
  vertex -6.369145e-03 -9.855127e-04 7.988104e-04
  vertex -5.969954e-03 -2.705289e-03 9.172204e-04
  vertex -6.644059e-03 -2.187467e-03 1.588111e-03
 endloop
endfacet
facet normal 9.530611e-01 -3.011995e-01 3.087875e-02
 outer loop
  vertex 5.643852e-03 1.085663e-03 -6.447868e-04
  vertex 5.990642e-03 2.234786e-03 -1.394757e-04
  vertex 5.712771e-03 1.445209e-03 7.351773e-04
 endloop
endfacet
facet normal 8.260085e-01 2.620923e-01 4.990166e-01
 outer loop
  vertex 5.990642e-03 2.234786e-03 -1.394757e-04
  vertex 5.283411e-03 2.938352e-03 6.616595e-04
  vertex 5.712771e-03 1.445209e-03 7.351773e-04
 endloop
endfacet
facet normal 7.097524e-01 7.044065e-01 7.942419e-03
 outer loop
  vertex 5.283411e-03 2.938352e-03 6.616595e-04
  vertex 5.990642e-03 2.234786e-03 -1.394757e-04
  vertex 5.131427e-03 3.105603e-03 -5.900823e-04
 endloop
endfacet
facet normal 9.912581e-01 -1.310397e-01 -1.536356e-02
 outer loop
  vertex 5.495097e-03 -1.162983e-04 9.368830e-06
  vertex 5.643852e-03 1.085663e-03 -6.447868e-04
  vertex 5.712771e-03 1.445209e-03 7.351773e-04
 endloop
endfacet
facet normal 4.684406e-01 8.813942e-01 6.089027e-02
 outer loop
  vertex 5.131427e-03 3.105603e-03 -5.900823e-04
  vertex 4.058104e-03 3.635577e-03 -4.236761e-06
  vertex 5.283411e-03 2.938352e-03 6.616595e-04
 endloop
endfacet
facet normal 4.070126e-01 8.940413e-01 1.871653e-01
 outer loop
  vertex 4.058104e-03 3.635577e-03 -4.236761e-06
  vertex 4.009725e-03 3.445756e-03 1.007693e-03
  vertex 5.283411e-03 2.938352e-03 6.616595e-04
 endloop
endfacet
facet normal 7.838636e-01 -3.460062e-01 5.155944e-01
 outer loop
  vertex 5.182290e-03 -1.344301e-03 -3.391566e-04
  vertex 5.495097e-03 -1.162983e-04 9.368830e-06
  vertex 4.922307e-03 -7.607037e-04 4.477393e-04
 endloop
endfacet
facet normal 9.849483e-02 9.772145e-01 1.880176e-01
 outer loop
  vertex 2.658816e-03 3.712468e-03 3.291554e-04
  vertex 4.009725e-03 3.445756e-03 1.007693e-03
  vertex 4.058104e-03 3.635577e-03 -4.236761e-06
 endloop
endfacet
facet normal -6.575391e-03 9.261382e-01 3.771270e-01
 outer loop
  vertex 2.658816e-03 3.712468e-03 3.291554e-04
  vertex 3.002539e-03 3.240583e-03 1.493991e-03
  vertex 4.009725e-03 3.445756e-03 1.007693e-03
 endloop
endfacet
facet normal 6.495159e-01 -4.921437e-01 5.795893e-01
 outer loop
  vertex 5.182290e-03 -1.344301e-03 -3.391566e-04
  vertex 4.922307e-03 -7.607037e-04 4.477393e-04
  vertex 4.183381e-03 -1.742539e-03 4.421152e-04
 endloop
endfacet
facet normal 3.795641e-01 8.448833e-01 3.769659e-01
 outer loop
  vertex 1.062834e-03 4.224854e-03 7.877415e-04
  vertex 2.044256e-03 3.629817e-03 1.133195e-03
  vertex 2.658816e-03 3.712468e-03 3.291554e-04
 endloop
endfacet
facet normal 2.622030e-01 9.188598e-01 2.948665e-01
 outer loop
  vertex 3.002539e-03 3.240583e-03 1.493991e-03
  vertex 2.658816e-03 3.712468e-03 3.291554e-04
  vertex 2.044256e-03 3.629817e-03 1.133195e-03
 endloop
endfacet
facet normal 6.402866e-01 -4.893446e-01 5.920937e-01
 outer loop
  vertex 4.183381e-03 -1.742539e-03 4.421152e-04
  vertex 3.140303e-03 -2.444240e-03 9.901621e-04
  vertex 3.398619e-03 -3.678544e-03 -3.092885e-04
 endloop
endfacet
facet normal 6.370358e-01 -4.694214e-01 6.114155e-01
 outer loop
  vertex 4.183381e-03 -1.742539e-03 4.421152e-04
  vertex 2.652220e-03 -1.185073e-03 2.465437e-03
  vertex 3.140303e-03 -2.444240e-03 9.901621e-04
 endloop
endfacet
facet normal 6.278052e-01 7.572647e-01 -1.800297e-01
 outer loop
  vertex 1.062834e-03 4.224854e-03 7.877415e-04
  vertex -3.599015e-04 5.414706e-03 8.312458e-04
  vertex 1.117485e-04 5.324057e-03 2.094701e-03
 endloop
endfacet
facet normal 6.431568e-01 -4.642030e-01 6.089867e-01
 outer loop
  vertex 3.140303e-03 -2.444240e-03 9.901621e-04
  vertex 2.652220e-03 -1.185073e-03 2.465437e-03
  vertex 2.088955e-03 -2.571534e-03 2.003471e-03
 endloop
endfacet
facet normal 6.002317e-01 -5.809074e-01 5.497895e-01
 outer loop
  vertex 2.457011e-03 -3.331608e-03 7.985518e-04
  vertex 3.140303e-03 -2.444240e-03 9.901621e-04
  vertex 2.088955e-03 -2.571534e-03 2.003471e-03
 endloop
endfacet
facet normal 5.411052e-01 -5.533930e-01 6.332151e-01
 outer loop
  vertex 3.398619e-03 -3.678544e-03 -3.092885e-04
  vertex 3.140303e-03 -2.444240e-03 9.901621e-04
  vertex 2.457011e-03 -3.331608e-03 7.985518e-04
 endloop
endfacet
facet normal 2.667966e-01 9.632018e-01 -3.258545e-02
 outer loop
  vertex -3.599015e-04 5.414706e-03 8.312458e-04
  vertex -1.436838e-03 5.702863e-03 5.314269e-04
  vertex -1.477289e-03 5.752459e-03 1.666267e-03
 endloop
endfacet
facet normal 3.114020e-01 -7.202361e-01 6.199103e-01
 outer loop
  vertex 1.575993e-04 -3.670165e-03 1.560276e-03
  vertex 1.954760e-03 -4.218395e-03 2.054545e-05
  vertex 2.457011e-03 -3.331608e-03 7.985518e-04
 endloop
endfacet
facet normal 3.990642e-01 -7.219511e-01 5.652737e-01
 outer loop
  vertex 2.457011e-03 -3.331608e-03 7.985518e-04
  vertex 1.954760e-03 -4.218395e-03 2.054545e-05
  vertex 3.398619e-03 -3.678544e-03 -3.092885e-04
 endloop
endfacet
facet normal 3.019734e-01 -7.619701e-01 5.728993e-01
 outer loop
  vertex 2.457011e-03 -3.331608e-03 7.985518e-04
  vertex 2.088955e-03 -2.571534e-03 2.003471e-03
  vertex 1.575993e-04 -3.670165e-03 1.560276e-03
 endloop
endfacet
facet normal -2.982202e-01 9.530641e-01 -5.228203e-02
 outer loop
  vertex -2.353313e-03 5.436185e-03 8.977204e-04
  vertex -1.477289e-03 5.752459e-03 1.666267e-03
  vertex -1.436838e-03 5.702863e-03 5.314269e-04
 endloop
endfacet
facet normal -5.582023e-01 7.648855e-01 3.214971e-01
 outer loop
  vertex -2.353313e-03 5.436185e-03 8.977204e-04
  vertex -2.875900e-03 4.639874e-03 1.884906e-03
  vertex -1.477289e-03 5.752459e-03 1.666267e-03
 endloop
endfacet
facet normal -7.460519e-01 6.527533e-01 1.316039e-01
 outer loop
  vertex -2.875900e-03 4.639874e-03 1.884906e-03
  vertex -2.353313e-03 5.436185e-03 8.977204e-04
  vertex -3.134492e-03 4.587305e-03 6.797112e-04
 endloop
endfacet
facet normal -6.528380e-01 7.498497e-01 1.073682e-01
 outer loop
  vertex -3.933904e-03 3.784770e-03 1.423821e-03
  vertex -2.875900e-03 4.639874e-03 1.884906e-03
  vertex -3.134492e-03 4.587305e-03 6.797112e-04
 endloop
endfacet
facet normal 9.864195e-02 -9.922154e-01 7.601582e-02
 outer loop
  vertex -2.152766e-03 -4.011391e-03 1.043863e-04
  vertex -5.741298e-04 -3.915975e-03 -6.986983e-04
  vertex 1.575993e-04 -3.670165e-03 1.560276e-03
 endloop
endfacet
facet normal -8.720670e-01 4.690459e-01 1.396250e-01
 outer loop
  vertex -4.096252e-03 1.191600e-03 4.600358e-04
  vertex -4.515586e-03 -2.336311e-05 1.922423e-03
  vertex -3.829269e-03 1.145234e-03 2.283313e-03
 endloop
endfacet
facet normal -5.992206e-01 6.917980e-01 4.029271e-01
 outer loop
  vertex -5.027058e-03 3.851824e-04 4.603331e-04
  vertex -4.515586e-03 -2.336311e-05 1.922423e-03
  vertex -4.096252e-03 1.191600e-03 4.600358e-04
 endloop
endfacet
facet normal -9.836505e-01 -1.117860e-01 1.411934e-01
 outer loop
  vertex -4.096252e-03 1.191600e-03 4.600358e-04
  vertex -3.829269e-03 1.145234e-03 2.283313e-03
  vertex -4.119017e-03 2.224607e-03 1.119294e-03
 endloop
endfacet
facet normal -7.643321e-01 2.163412e-01 -6.074479e-01
 outer loop
  vertex -2.757387e-03 3.813711e-03 -2.804492e-05
  vertex -4.119017e-03 2.224607e-03 1.119294e-03
  vertex -4.361923e-03 2.981080e-03 1.694351e-03
 endloop
endfacet
facet normal -7.632364e-01 1.996251e-01 -6.145080e-01
 outer loop
  vertex -2.757387e-03 3.813711e-03 -2.804492e-05
  vertex -4.361923e-03 2.981080e-03 1.694351e-03
  vertex -3.933904e-03 3.784770e-03 1.423821e-03
 endloop
endfacet
facet normal 2.711403e-02 -9.899545e-01 1.387621e-01
 outer loop
  vertex -2.152766e-03 -4.011391e-03 1.043863e-04
  vertex -3.330646e-03 -3.847773e-03 1.501822e-03
  vertex -3.377042e-03 -4.040771e-03 1.340086e-04
 endloop
endfacet
facet normal 4.762841e-02 -9.866606e-01 1.556678e-01
 outer loop
  vertex 1.575993e-04 -3.670165e-03 1.560276e-03
  vertex -3.330646e-03 -3.847773e-03 1.501822e-03
  vertex -2.152766e-03 -4.011391e-03 1.043863e-04
 endloop
endfacet
facet normal -3.932297e-01 8.406244e-01 3.724528e-01
 outer loop
  vertex -5.027058e-03 3.851824e-04 4.603331e-04
  vertex -6.090826e-03 -6.263697e-04 1.620293e-03
  vertex -4.515586e-03 -2.336311e-05 1.922423e-03
 endloop
endfacet
facet normal -3.678702e-01 -9.197761e-01 -1.366873e-01
 outer loop
  vertex -3.330646e-03 -3.847773e-03 1.501822e-03
  vertex -5.247591e-03 -3.157017e-03 2.012808e-03
  vertex -5.969954e-03 -2.705289e-03 9.172204e-04
 endloop
endfacet
facet normal -7.204467e-01 6.910771e-01 -5.804314e-02
 outer loop
  vertex -6.369145e-03 -9.855127e-04 7.988104e-04
  vertex -6.090826e-03 -6.263697e-04 1.620293e-03
  vertex -5.027058e-03 3.851824e-04 4.603331e-04
 endloop
endfacet
facet normal -5.791550e-01 -8.139031e-01 4.627400e-02
 outer loop
  vertex -5.969954e-03 -2.705289e-03 9.172204e-04
  vertex -5.247591e-03 -3.157017e-03 2.012808e-03
  vertex -6.644059e-03 -2.187467e-03 1.588111e-03
 endloop
endfacet
facet normal -9.295516e-01 3.258658e-01 1.724681e-01
 outer loop
  vertex -6.369145e-03 -9.855127e-04 7.988104e-04
  vertex -6.644059e-03 -2.187467e-03 1.588111e-03
  vertex -6.090826e-03 -6.263697e-04 1.620293e-03
 endloop
endfacet
facet normal 6.676739e-01 -3.883048e-01 6.351621e-01
 outer loop
  vertex 4.503041e-03 3.628755e-04 1.345146e-03
  vertex 5.495097e-03 -1.162983e-04 9.368830e-06
  vertex 5.712771e-03 1.445209e-03 7.351773e-04
 endloop
endfacet
facet normal 6.066046e-01 2.121558e-01 7.661728e-01
 outer loop
  vertex 4.273460e-03 2.169771e-03 1.674094e-03
  vertex 5.712771e-03 1.445209e-03 7.351773e-04
  vertex 5.283411e-03 2.938352e-03 6.616595e-04
 endloop
endfacet
facet normal 5.117590e-01 -9.051181e-02 8.543479e-01
 outer loop
  vertex 4.503041e-03 3.628755e-04 1.345146e-03
  vertex 5.712771e-03 1.445209e-03 7.351773e-04
  vertex 4.273460e-03 2.169771e-03 1.674094e-03
 endloop
endfacet
facet normal 4.044678e-01 4.876671e-01 7.736838e-01
 outer loop
  vertex 4.273460e-03 2.169771e-03 1.674094e-03
  vertex 5.283411e-03 2.938352e-03 6.616595e-04
  vertex 4.009725e-03 3.445756e-03 1.007693e-03
 endloop
endfacet
facet normal 7.405917e-01 -2.283890e-01 6.319513e-01
 outer loop
  vertex 4.503041e-03 3.628755e-04 1.345146e-03
  vertex 4.922307e-03 -7.607037e-04 4.477393e-04
  vertex 5.495097e-03 -1.162983e-04 9.368830e-06
 endloop
endfacet
facet normal 6.551456e-01 -1.810423e-02 7.552857e-01
 outer loop
  vertex 4.016739e-03 1.251775e-03 1.874773e-03
  vertex 4.273460e-03 2.169771e-03 1.674094e-03
  vertex 3.298328e-03 8.125048e-04 2.487404e-03
 endloop
endfacet
facet normal 7.012082e-01 -4.049069e-02 7.118059e-01
 outer loop
  vertex 4.503041e-03 3.628755e-04 1.345146e-03
  vertex 4.273460e-03 2.169771e-03 1.674094e-03
  vertex 4.016739e-03 1.251775e-03 1.874773e-03
 endloop
endfacet
facet normal 4.253020e-01 6.162635e-01 6.628254e-01
 outer loop
  vertex 4.273460e-03 2.169771e-03 1.674094e-03
  vertex 3.002539e-03 3.240583e-03 1.493991e-03
  vertex 2.839494e-03 2.130359e-03 2.630842e-03
 endloop
endfacet
facet normal 2.962475e-01 4.895463e-01 8.201109e-01
 outer loop
  vertex 4.273460e-03 2.169771e-03 1.674094e-03
  vertex 4.009725e-03 3.445756e-03 1.007693e-03
  vertex 3.002539e-03 3.240583e-03 1.493991e-03
 endloop
endfacet
facet normal 5.274775e-01 -4.012674e-01 7.488337e-01
 outer loop
  vertex 4.503041e-03 3.628755e-04 1.345146e-03
  vertex 4.183381e-03 -1.742539e-03 4.421152e-04
  vertex 4.922307e-03 -7.607037e-04 4.477393e-04
 endloop
endfacet
facet normal 6.721278e-01 -7.140198e-02 7.369844e-01
 outer loop
  vertex 4.503041e-03 3.628755e-04 1.345146e-03
  vertex 4.016739e-03 1.251775e-03 1.874773e-03
  vertex 3.298328e-03 8.125048e-04 2.487404e-03
 endloop
endfacet
facet normal 5.143548e-01 5.755050e-01 6.357933e-01
 outer loop
  vertex 3.002539e-03 3.240583e-03 1.493991e-03
  vertex 1.877622e-03 3.335705e-03 2.317943e-03
  vertex 2.839494e-03 2.130359e-03 2.630842e-03
 endloop
endfacet
facet normal 2.742924e-01 9.235885e-01 2.678582e-01
 outer loop
  vertex 3.002539e-03 3.240583e-03 1.493991e-03
  vertex 2.044256e-03 3.629817e-03 1.133195e-03
  vertex 1.877622e-03 3.335705e-03 2.317943e-03
 endloop
endfacet
facet normal 4.262637e-01 8.621129e-01 2.739718e-01
 outer loop
  vertex 1.062834e-03 4.224854e-03 7.877415e-04
  vertex 1.877622e-03 3.335705e-03 2.317943e-03
  vertex 2.044256e-03 3.629817e-03 1.133195e-03
 endloop
endfacet
facet normal 2.679476e-01 9.629366e-01 -3.093800e-02
 outer loop
  vertex -3.599015e-04 5.414706e-03 8.312458e-04
  vertex -1.477289e-03 5.752459e-03 1.666267e-03
  vertex 1.117485e-04 5.324057e-03 2.094701e-03
 endloop
endfacet
facet normal 1.029011e-01 8.678223e-01 4.861026e-01
 outer loop
  vertex -1.260216e-03 5.164323e-03 2.670295e-03
  vertex 1.117485e-04 5.324057e-03 2.094701e-03
  vertex -1.477289e-03 5.752459e-03 1.666267e-03
 endloop
endfacet
facet normal -5.041827e-01 5.141407e-01 6.938725e-01
 outer loop
  vertex -2.441587e-03 3.757837e-03 2.854053e-03
  vertex -1.260216e-03 5.164323e-03 2.670295e-03
  vertex -2.875900e-03 4.639874e-03 1.884906e-03
 endloop
endfacet
facet normal -4.813646e-01 7.069462e-01 5.181845e-01
 outer loop
  vertex -2.875900e-03 4.639874e-03 1.884906e-03
  vertex -1.260216e-03 5.164323e-03 2.670295e-03
  vertex -1.477289e-03 5.752459e-03 1.666267e-03
 endloop
endfacet
facet normal -4.528165e-01 5.489741e-01 7.025558e-01
 outer loop
  vertex -2.441587e-03 3.757837e-03 2.854053e-03
  vertex -2.875900e-03 4.639874e-03 1.884906e-03
  vertex -3.794114e-03 3.228138e-03 2.396217e-03
 endloop
endfacet
facet normal -3.913733e-01 2.289519e-01 8.912957e-01
 outer loop
  vertex -2.441587e-03 3.757837e-03 2.854053e-03
  vertex -3.794114e-03 3.228138e-03 2.396217e-03
  vertex -3.266412e-03 2.339058e-03 2.856317e-03
 endloop
endfacet
facet normal -6.727846e-01 5.962349e-01 4.380237e-01
 outer loop
  vertex -3.933904e-03 3.784770e-03 1.423821e-03
  vertex -3.794114e-03 3.228138e-03 2.396217e-03
  vertex -2.875900e-03 4.639874e-03 1.884906e-03
 endloop
endfacet
facet normal -4.498033e-01 -2.051457e-01 8.692481e-01
 outer loop
  vertex -3.266412e-03 2.339058e-03 2.856317e-03
  vertex -4.219503e-03 2.224797e-03 2.336162e-03
  vertex -3.829269e-03 1.145234e-03 2.283313e-03
 endloop
endfacet
facet normal -4.875237e-01 1.552697e-01 8.591926e-01
 outer loop
  vertex -3.794114e-03 3.228138e-03 2.396217e-03
  vertex -4.219503e-03 2.224797e-03 2.336162e-03
  vertex -3.266412e-03 2.339058e-03 2.856317e-03
 endloop
endfacet
facet normal -7.902253e-01 3.031562e-01 5.325790e-01
 outer loop
  vertex -3.794114e-03 3.228138e-03 2.396217e-03
  vertex -4.361923e-03 2.981080e-03 1.694351e-03
  vertex -4.219503e-03 2.224797e-03 2.336162e-03
 endloop
endfacet
facet normal -7.399006e-01 5.324448e-01 4.111565e-01
 outer loop
  vertex -3.933904e-03 3.784770e-03 1.423821e-03
  vertex -4.361923e-03 2.981080e-03 1.694351e-03
  vertex -3.794114e-03 3.228138e-03 2.396217e-03
 endloop
endfacet
facet normal -5.983720e-01 9.586313e-02 7.954629e-01
 outer loop
  vertex -4.515586e-03 -2.336311e-05 1.922423e-03
  vertex -3.727250e-03 -1.669715e-03 2.713839e-03
  vertex -2.550956e-03 6.777358e-04 3.315788e-03
 endloop
endfacet
facet normal -9.388247e-01 -3.355683e-01 -7.747374e-02
 outer loop
  vertex -4.119017e-03 2.224607e-03 1.119294e-03
  vertex -3.829269e-03 1.145234e-03 2.283313e-03
  vertex -4.219503e-03 2.224797e-03 2.336162e-03
 endloop
endfacet
facet normal -9.651312e-01 -2.493512e-01 -7.965953e-02
 outer loop
  vertex -4.119017e-03 2.224607e-03 1.119294e-03
  vertex -4.219503e-03 2.224797e-03 2.336162e-03
  vertex -4.361923e-03 2.981080e-03 1.694351e-03
 endloop
endfacet
facet normal -2.988709e-01 4.178098e-02 9.533785e-01
 outer loop
  vertex -5.495675e-03 -1.677711e-03 2.159813e-03
  vertex -4.437624e-03 -2.667400e-03 2.534870e-03
  vertex -3.727250e-03 -1.669715e-03 2.713839e-03
 endloop
endfacet
facet normal -2.864036e-01 3.002340e-01 9.098530e-01
 outer loop
  vertex -3.727250e-03 -1.669715e-03 2.713839e-03
  vertex -4.515586e-03 -2.336311e-05 1.922423e-03
  vertex -5.495675e-03 -1.677711e-03 2.159813e-03
 endloop
endfacet
facet normal -2.897992e-01 3.020070e-01 9.081895e-01
 outer loop
  vertex -5.495675e-03 -1.677711e-03 2.159813e-03
  vertex -4.515586e-03 -2.336311e-05 1.922423e-03
  vertex -6.090826e-03 -6.263697e-04 1.620293e-03
 endloop
endfacet
facet normal -1.950275e-01 -8.725570e-01 4.478934e-01
 outer loop
  vertex -3.107771e-03 -3.129646e-03 2.997878e-03
  vertex -5.247591e-03 -3.157017e-03 2.012808e-03
  vertex -3.330646e-03 -3.847773e-03 1.501822e-03
 endloop
endfacet
facet normal -4.624040e-01 -1.641358e-01 8.713449e-01
 outer loop
  vertex -5.247591e-03 -3.157017e-03 2.012808e-03
  vertex -4.437624e-03 -2.667400e-03 2.534870e-03
  vertex -5.495675e-03 -1.677711e-03 2.159813e-03
 endloop
endfacet
facet normal -3.843262e-01 -1.548942e-01 9.101105e-01
 outer loop
  vertex -5.247591e-03 -3.157017e-03 2.012808e-03
  vertex -5.495675e-03 -1.677711e-03 2.159813e-03
  vertex -6.644059e-03 -2.187467e-03 1.588111e-03
 endloop
endfacet
facet normal -4.953606e-01 1.579400e-01 8.542089e-01
 outer loop
  vertex -6.090826e-03 -6.263697e-04 1.620293e-03
  vertex -6.644059e-03 -2.187467e-03 1.588111e-03
  vertex -5.495675e-03 -1.677711e-03 2.159813e-03
 endloop
endfacet
facet normal 5.502222e-01 1.013565e-01 8.288440e-01
 outer loop
  vertex 3.298328e-03 8.125048e-04 2.487404e-03
  vertex 4.273460e-03 2.169771e-03 1.674094e-03
  vertex 2.839494e-03 2.130359e-03 2.630842e-03
 endloop
endfacet
facet normal 6.765454e-01 -3.746388e-01 6.339811e-01
 outer loop
  vertex 3.573300e-03 -3.409604e-04 1.921391e-03
  vertex 4.183381e-03 -1.742539e-03 4.421152e-04
  vertex 4.503041e-03 3.628755e-04 1.345146e-03
 endloop
endfacet
facet normal 6.277201e-01 -2.171772e-01 7.475303e-01
 outer loop
  vertex 4.503041e-03 3.628755e-04 1.345146e-03
  vertex 3.298328e-03 8.125048e-04 2.487404e-03
  vertex 3.573300e-03 -3.409604e-04 1.921391e-03
 endloop
endfacet
facet normal 6.952333e-01 -3.562655e-01 6.242801e-01
 outer loop
  vertex 3.573300e-03 -3.409604e-04 1.921391e-03
  vertex 2.652220e-03 -1.185073e-03 2.465437e-03
  vertex 4.183381e-03 -1.742539e-03 4.421152e-04
 endloop
endfacet
facet normal 6.896100e-01 -2.306004e-01 6.864849e-01
 outer loop
  vertex 3.298328e-03 8.125048e-04 2.487404e-03
  vertex 1.417338e-03 -8.450928e-06 4.101185e-03
  vertex 2.652220e-03 -1.185073e-03 2.465437e-03
 endloop
endfacet
facet normal 6.343857e-01 -2.133597e-01 7.429889e-01
 outer loop
  vertex 3.573300e-03 -3.409604e-04 1.921391e-03
  vertex 3.298328e-03 8.125048e-04 2.487404e-03
  vertex 2.652220e-03 -1.185073e-03 2.465437e-03
 endloop
endfacet
facet normal 6.128400e-01 1.285083e-01 7.796876e-01
 outer loop
  vertex 1.417338e-03 -8.450928e-06 4.101185e-03
  vertex 3.298328e-03 8.125048e-04 2.487404e-03
  vertex 2.839494e-03 2.130359e-03 2.630842e-03
 endloop
endfacet
facet normal 6.514990e-01 8.505201e-02 7.538668e-01
 outer loop
  vertex 1.417338e-03 -8.450928e-06 4.101185e-03
  vertex 2.839494e-03 2.130359e-03 2.630842e-03
  vertex 1.714330e-03 2.168186e-03 3.598951e-03
 endloop
endfacet
facet normal 5.392498e-01 5.870641e-01 6.037925e-01
 outer loop
  vertex 2.839494e-03 2.130359e-03 2.630842e-03
  vertex 1.877622e-03 3.335705e-03 2.317943e-03
  vertex 1.714330e-03 2.168186e-03 3.598951e-03
 endloop
endfacet
facet normal 7.846465e-01 4.051282e-01 4.692559e-01
 outer loop
  vertex 1.877622e-03 3.335705e-03 2.317943e-03
  vertex 1.097316e-03 3.096219e-03 3.829456e-03
  vertex 1.714330e-03 2.168186e-03 3.598951e-03
 endloop
endfacet
facet normal 6.979275e-01 7.148315e-01 4.373848e-02
 outer loop
  vertex 9.123263e-04 4.239941e-03 2.942794e-03
  vertex 1.877622e-03 3.335705e-03 2.317943e-03
  vertex 1.062834e-03 4.224854e-03 7.877415e-04
 endloop
endfacet
facet normal 7.470097e-01 4.785697e-01 4.614624e-01
 outer loop
  vertex 1.877622e-03 3.335705e-03 2.317943e-03
  vertex 9.123263e-04 4.239941e-03 2.942794e-03
  vertex 1.097316e-03 3.096219e-03 3.829456e-03
 endloop
endfacet
facet normal 5.576911e-01 7.262512e-01 4.019202e-01
 outer loop
  vertex 9.123263e-04 4.239941e-03 2.942794e-03
  vertex 1.117485e-04 5.324057e-03 2.094701e-03
  vertex -3.987877e-05 4.799631e-03 3.252707e-03
 endloop
endfacet
facet normal 7.841499e-01 6.185187e-01 5.043451e-02
 outer loop
  vertex 9.123263e-04 4.239941e-03 2.942794e-03
  vertex 1.062834e-03 4.224854e-03 7.877415e-04
  vertex 1.117485e-04 5.324057e-03 2.094701e-03
 endloop
endfacet
facet normal 5.195914e-01 5.005729e-01 6.924244e-01
 outer loop
  vertex -2.917309e-06 3.612632e-03 4.083087e-03
  vertex 9.123263e-04 4.239941e-03 2.942794e-03
  vertex -3.987877e-05 4.799631e-03 3.252707e-03
 endloop
endfacet
facet normal 7.046419e-02 9.051768e-01 4.191535e-01
 outer loop
  vertex -1.260216e-03 5.164323e-03 2.670295e-03
  vertex -3.987877e-05 4.799631e-03 3.252707e-03
  vertex 1.117485e-04 5.324057e-03 2.094701e-03
 endloop
endfacet
facet normal 6.998869e-01 -4.649864e-01 5.421678e-01
 outer loop
  vertex 1.019356e-03 -2.397832e-03 3.533195e-03
  vertex 2.088955e-03 -2.571534e-03 2.003471e-03
  vertex 2.652220e-03 -1.185073e-03 2.465437e-03
 endloop
endfacet
facet normal 3.934990e-01 -8.412872e-01 3.706674e-01
 outer loop
  vertex 1.019356e-03 -2.397832e-03 3.533195e-03
  vertex 1.575993e-04 -3.670165e-03 1.560276e-03
  vertex 2.088955e-03 -2.571534e-03 2.003471e-03
 endloop
endfacet
facet normal -3.351537e-01 5.330389e-01 7.768794e-01
 outer loop
  vertex -3.987877e-05 4.799631e-03 3.252707e-03
  vertex -1.345007e-03 3.662990e-03 3.469543e-03
  vertex -2.917309e-06 3.612632e-03 4.083087e-03
 endloop
endfacet
facet normal -2.643927e-01 4.647890e-01 8.450253e-01
 outer loop
  vertex -1.345007e-03 3.662990e-03 3.469543e-03
  vertex -3.987877e-05 4.799631e-03 3.252707e-03
  vertex -1.260216e-03 5.164323e-03 2.670295e-03
 endloop
endfacet
facet normal -3.465808e-01 9.192766e-02 9.335047e-01
 outer loop
  vertex -2.550956e-03 6.777358e-04 3.315788e-03
  vertex -1.345007e-03 3.662990e-03 3.469543e-03
  vertex -2.405435e-03 2.517296e-03 3.188663e-03
 endloop
endfacet
facet normal -4.632431e-01 2.181847e-01 8.589536e-01
 outer loop
  vertex -2.441587e-03 3.757837e-03 2.854053e-03
  vertex -2.405435e-03 2.517296e-03 3.188663e-03
  vertex -1.345007e-03 3.662990e-03 3.469543e-03
 endloop
endfacet
facet normal -4.081694e-01 4.468467e-01 7.960689e-01
 outer loop
  vertex -1.260216e-03 5.164323e-03 2.670295e-03
  vertex -2.441587e-03 3.757837e-03 2.854053e-03
  vertex -1.345007e-03 3.662990e-03 3.469543e-03
 endloop
endfacet
facet normal -4.414640e-01 9.656990e-02 8.920672e-01
 outer loop
  vertex -2.405435e-03 2.517296e-03 3.188663e-03
  vertex -2.999921e-03 1.511015e-03 3.003399e-03
  vertex -2.550956e-03 6.777358e-04 3.315788e-03
 endloop
endfacet
facet normal -3.680843e-01 4.648762e-02 9.286296e-01
 outer loop
  vertex -3.266412e-03 2.339058e-03 2.856317e-03
  vertex -2.999921e-03 1.511015e-03 3.003399e-03
  vertex -2.405435e-03 2.517296e-03 3.188663e-03
 endloop
endfacet
facet normal -3.914395e-01 2.289903e-01 8.912567e-01
 outer loop
  vertex -2.441587e-03 3.757837e-03 2.854053e-03
  vertex -3.266412e-03 2.339058e-03 2.856317e-03
  vertex -2.405435e-03 2.517296e-03 3.188663e-03
 endloop
endfacet
facet normal 2.045686e-01 -9.458510e-01 2.520269e-01
 outer loop
  vertex 1.575993e-04 -3.670165e-03 1.560276e-03
  vertex -3.292692e-04 -3.196377e-03 3.733578e-03
  vertex -1.524601e-03 -3.611050e-03 3.147566e-03
 endloop
endfacet
facet normal -4.695706e-01 -2.362178e-03 8.828918e-01
 outer loop
  vertex -2.550956e-03 6.777358e-04 3.315788e-03
  vertex -2.466020e-03 -1.875551e-03 3.354130e-03
  vertex -1.804750e-03 -1.133870e-03 3.707814e-03
 endloop
endfacet
facet normal -6.399420e-01 -5.753031e-02 7.662666e-01
 outer loop
  vertex -3.829269e-03 1.145234e-03 2.283313e-03
  vertex -2.550956e-03 6.777358e-04 3.315788e-03
  vertex -2.999921e-03 1.511015e-03 3.003399e-03
 endloop
endfacet
facet normal -6.366862e-01 -6.847573e-02 7.680767e-01
 outer loop
  vertex -2.999921e-03 1.511015e-03 3.003399e-03
  vertex -3.266412e-03 2.339058e-03 2.856317e-03
  vertex -3.829269e-03 1.145234e-03 2.283313e-03
 endloop
endfacet
facet normal -2.985532e-01 -8.422915e-01 4.487883e-01
 outer loop
  vertex -3.107771e-03 -3.129646e-03 2.997878e-03
  vertex -3.330646e-03 -3.847773e-03 1.501822e-03
  vertex -1.524601e-03 -3.611050e-03 3.147566e-03
 endloop
endfacet
facet normal 4.915780e-02 -9.948047e-01 8.914663e-02
 outer loop
  vertex 1.575993e-04 -3.670165e-03 1.560276e-03
  vertex -1.524601e-03 -3.611050e-03 3.147566e-03
  vertex -3.330646e-03 -3.847773e-03 1.501822e-03
 endloop
endfacet
facet normal -4.551744e-01 -1.995012e-02 8.901788e-01
 outer loop
  vertex -3.727250e-03 -1.669715e-03 2.713839e-03
  vertex -3.107771e-03 -3.129646e-03 2.997878e-03
  vertex -2.466020e-03 -1.875551e-03 3.354130e-03
 endloop
endfacet
facet normal -4.528947e-01 -1.677242e-03 8.915624e-01
 outer loop
  vertex -2.550956e-03 6.777358e-04 3.315788e-03
  vertex -3.727250e-03 -1.669715e-03 2.713839e-03
  vertex -2.466020e-03 -1.875551e-03 3.354130e-03
 endloop
endfacet
facet normal -6.004670e-01 1.079650e-01 7.923275e-01
 outer loop
  vertex -4.515586e-03 -2.336311e-05 1.922423e-03
  vertex -2.550956e-03 6.777358e-04 3.315788e-03
  vertex -3.829269e-03 1.145234e-03 2.283313e-03
 endloop
endfacet
facet normal -3.121597e-01 5.210015e-02 9.486000e-01
 outer loop
  vertex -3.107771e-03 -3.129646e-03 2.997878e-03
  vertex -3.727250e-03 -1.669715e-03 2.713839e-03
  vertex -4.437624e-03 -2.667400e-03 2.534870e-03
 endloop
endfacet
facet normal -3.994677e-01 -2.724845e-01 8.753158e-01
 outer loop
  vertex -3.107771e-03 -3.129646e-03 2.997878e-03
  vertex -4.437624e-03 -2.667400e-03 2.534870e-03
  vertex -5.247591e-03 -3.157017e-03 2.012808e-03
 endloop
endfacet
facet normal 6.992230e-01 6.878471e-02 7.115869e-01
 outer loop
  vertex 1.714330e-03 2.168186e-03 3.598951e-03
  vertex 6.081703e-04 1.749930e-03 4.726322e-03
  vertex 1.417338e-03 -8.450928e-06 4.101185e-03
 endloop
endfacet
facet normal 6.438034e-01 2.482639e-01 7.237971e-01
 outer loop
  vertex 1.714330e-03 2.168186e-03 3.598951e-03
  vertex 1.097316e-03 3.096219e-03 3.829456e-03
  vertex 6.081703e-04 1.749930e-03 4.726322e-03
 endloop
endfacet
facet normal 6.895473e-01 2.110079e-01 6.928204e-01
 outer loop
  vertex 1.097316e-03 3.096219e-03 3.829456e-03
  vertex 4.075474e-04 2.791550e-03 4.608758e-03
  vertex 6.081703e-04 1.749930e-03 4.726322e-03
 endloop
endfacet
facet normal 4.427515e-01 6.298815e-01 6.381382e-01
 outer loop
  vertex 1.097316e-03 3.096219e-03 3.829456e-03
  vertex -2.917309e-06 3.612632e-03 4.083087e-03
  vertex 4.075474e-04 2.791550e-03 4.608758e-03
 endloop
endfacet
facet normal 4.349641e-01 5.945871e-01 6.762192e-01
 outer loop
  vertex -2.917309e-06 3.612632e-03 4.083087e-03
  vertex 1.097316e-03 3.096219e-03 3.829456e-03
  vertex 9.123263e-04 4.239941e-03 2.942794e-03
 endloop
endfacet
facet normal -3.451896e-01 4.973729e-01 7.959048e-01
 outer loop
  vertex -1.345007e-03 3.662990e-03 3.469543e-03
  vertex -1.201158e-03 2.621866e-03 4.182545e-03
  vertex -2.917309e-06 3.612632e-03 4.083087e-03
 endloop
endfacet
facet normal 6.611646e-01 -2.759651e-01 6.976422e-01
 outer loop
  vertex 1.417338e-03 -8.450928e-06 4.101185e-03
  vertex 1.019356e-03 -2.397832e-03 3.533195e-03
  vertex 2.652220e-03 -1.185073e-03 2.465437e-03
 endloop
endfacet
facet normal -3.813663e-01 -1.543103e-01 9.114538e-01
 outer loop
  vertex -2.663262e-05 4.443497e-04 4.808153e-03
  vertex -1.189874e-03 1.222650e-03 4.453202e-03
  vertex -7.958276e-04 -7.266039e-04 4.288066e-03
 endloop
endfacet
facet normal -6.668254e-01 1.363393e-01 7.326360e-01
 outer loop
  vertex -2.550956e-03 6.777358e-04 3.315788e-03
  vertex -1.189874e-03 1.222650e-03 4.453202e-03
  vertex -1.201158e-03 2.621866e-03 4.182545e-03
 endloop
endfacet
facet normal -7.724232e-01 2.827439e-01 5.686987e-01
 outer loop
  vertex -2.550956e-03 6.777358e-04 3.315788e-03
  vertex -1.201158e-03 2.621866e-03 4.182545e-03
  vertex -1.345007e-03 3.662990e-03 3.469543e-03
 endloop
endfacet
facet normal 5.190738e-01 -8.035040e-01 2.914510e-01
 outer loop
  vertex -3.292692e-04 -3.196377e-03 3.733578e-03
  vertex 1.575993e-04 -3.670165e-03 1.560276e-03
  vertex 1.019356e-03 -2.397832e-03 3.533195e-03
 endloop
endfacet
facet normal -1.544576e-01 -4.446055e-01 8.823088e-01
 outer loop
  vertex -3.292692e-04 -3.196377e-03 3.733578e-03
  vertex 1.061364e-04 -1.979752e-03 4.422872e-03
  vertex -1.348869e-03 -2.537229e-03 3.887239e-03
 endloop
endfacet
facet normal -3.034348e-01 -1.166689e-01 9.456827e-01
 outer loop
  vertex -1.348869e-03 -2.537229e-03 3.887239e-03
  vertex 1.061364e-04 -1.979752e-03 4.422872e-03
  vertex -7.958276e-04 -7.266039e-04 4.288066e-03
 endloop
endfacet
facet normal -4.841493e-01 -4.555778e-02 8.737986e-01
 outer loop
  vertex -1.804750e-03 -1.133870e-03 3.707814e-03
  vertex -1.348869e-03 -2.537229e-03 3.887239e-03
  vertex -7.958276e-04 -7.266039e-04 4.288066e-03
 endloop
endfacet
facet normal -4.617997e-01 -1.099618e-01 8.801417e-01
 outer loop
  vertex -1.804750e-03 -1.133870e-03 3.707814e-03
  vertex -7.958276e-04 -7.266039e-04 4.288066e-03
  vertex -1.760241e-03 9.262278e-05 3.884401e-03
 endloop
endfacet
facet normal -6.202025e-01 -7.976376e-02 7.803759e-01
 outer loop
  vertex -1.760241e-03 9.262278e-05 3.884401e-03
  vertex -1.189874e-03 1.222650e-03 4.453202e-03
  vertex -2.550956e-03 6.777358e-04 3.315788e-03
 endloop
endfacet
facet normal -5.018595e-01 -1.732436e-01 8.474218e-01
 outer loop
  vertex -1.760241e-03 9.262278e-05 3.884401e-03
  vertex -7.958276e-04 -7.266039e-04 4.288066e-03
  vertex -1.189874e-03 1.222650e-03 4.453202e-03
 endloop
endfacet
facet normal -2.184553e-01 -5.290693e-01 8.199774e-01
 outer loop
  vertex -1.348869e-03 -2.537229e-03 3.887239e-03
  vertex -1.524601e-03 -3.611050e-03 3.147566e-03
  vertex -3.292692e-04 -3.196377e-03 3.733578e-03
 endloop
endfacet
facet normal -4.449527e-01 -3.010796e-02 8.950478e-01
 outer loop
  vertex -1.804750e-03 -1.133870e-03 3.707814e-03
  vertex -2.466020e-03 -1.875551e-03 3.354130e-03
  vertex -1.348869e-03 -2.537229e-03 3.887239e-03
 endloop
endfacet
facet normal -6.241305e-01 -8.910885e-02 7.762221e-01
 outer loop
  vertex -2.550956e-03 6.777358e-04 3.315788e-03
  vertex -1.804750e-03 -1.133870e-03 3.707814e-03
  vertex -1.760241e-03 9.262278e-05 3.884401e-03
 endloop
endfacet
facet normal -2.368233e-01 -5.245491e-01 8.177792e-01
 outer loop
  vertex -1.524601e-03 -3.611050e-03 3.147566e-03
  vertex -1.348869e-03 -2.537229e-03 3.887239e-03
  vertex -3.107771e-03 -3.129646e-03 2.997878e-03
 endloop
endfacet
facet normal -4.436941e-01 -2.741007e-02 8.957590e-01
 outer loop
  vertex -2.466020e-03 -1.875551e-03 3.354130e-03
  vertex -3.107771e-03 -3.129646e-03 2.997878e-03
  vertex -1.348869e-03 -2.537229e-03 3.887239e-03
 endloop
endfacet
facet normal 4.003202e-01 -1.378620e-01 9.059458e-01
 outer loop
  vertex -2.663262e-05 4.443497e-04 4.808153e-03
  vertex 1.417338e-03 -8.450928e-06 4.101185e-03
  vertex 6.081703e-04 1.749930e-03 4.726322e-03
 endloop
endfacet
facet normal 4.434683e-01 1.500866e-02 8.961644e-01
 outer loop
  vertex 1.417338e-03 -8.450928e-06 4.101185e-03
  vertex -2.663262e-05 4.443497e-04 4.808153e-03
  vertex 2.728943e-04 -7.602932e-04 4.680107e-03
 endloop
endfacet
facet normal 3.806275e-01 -1.276647e-01 9.158736e-01
 outer loop
  vertex 6.081703e-04 1.749930e-03 4.726322e-03
  vertex -3.599810e-04 1.468832e-03 5.089493e-03
  vertex -2.663262e-05 4.443497e-04 4.808153e-03
 endloop
endfacet
facet normal 2.063852e-01 1.489018e-01 9.670747e-01
 outer loop
  vertex 4.075474e-04 2.791550e-03 4.608758e-03
  vertex -3.872927e-04 2.384675e-03 4.841033e-03
  vertex 6.081703e-04 1.749930e-03 4.726322e-03
 endloop
endfacet
facet normal -4.109305e-01 5.685260e-01 7.126811e-01
 outer loop
  vertex -1.201158e-03 2.621866e-03 4.182545e-03
  vertex -3.872927e-04 2.384675e-03 4.841033e-03
  vertex -2.917309e-06 3.612632e-03 4.083087e-03
 endloop
endfacet
facet normal -2.394816e-02 5.305100e-01 8.473403e-01
 outer loop
  vertex -3.872927e-04 2.384675e-03 4.841033e-03
  vertex 4.075474e-04 2.791550e-03 4.608758e-03
  vertex -2.917309e-06 3.612632e-03 4.083087e-03
 endloop
endfacet
facet normal 6.018947e-01 -2.781949e-01 7.485521e-01
 outer loop
  vertex 1.061364e-04 -1.979752e-03 4.422872e-03
  vertex 1.019356e-03 -2.397832e-03 3.533195e-03
  vertex 1.417338e-03 -8.450928e-06 4.101185e-03
 endloop
endfacet
facet normal -3.446976e-01 -1.483875e-01 9.269114e-01
 outer loop
  vertex 1.061364e-04 -1.979752e-03 4.422872e-03
  vertex 2.728943e-04 -7.602932e-04 4.680107e-03
  vertex -7.958276e-04 -7.266039e-04 4.288066e-03
 endloop
endfacet
facet normal 5.604485e-01 -2.436106e-01 7.915499e-01
 outer loop
  vertex 2.728943e-04 -7.602932e-04 4.680107e-03
  vertex 1.061364e-04 -1.979752e-03 4.422872e-03
  vertex 1.417338e-03 -8.450928e-06 4.101185e-03
 endloop
endfacet
facet normal -3.436418e-01 -1.833443e-01 9.210294e-01
 outer loop
  vertex -7.958276e-04 -7.266039e-04 4.288066e-03
  vertex 2.728943e-04 -7.602932e-04 4.680107e-03
  vertex -2.663262e-05 4.443497e-04 4.808153e-03
 endloop
endfacet
facet normal -6.319472e-01 1.853094e-01 7.525312e-01
 outer loop
  vertex -1.189874e-03 1.222650e-03 4.453202e-03
  vertex -3.599810e-04 1.468832e-03 5.089493e-03
  vertex -3.872927e-04 2.384675e-03 4.841033e-03
 endloop
endfacet
facet normal -4.911465e-01 -3.756373e-01 7.859209e-01
 outer loop
  vertex -1.189874e-03 1.222650e-03 4.453202e-03
  vertex -2.663262e-05 4.443497e-04 4.808153e-03
  vertex -3.599810e-04 1.468832e-03 5.089493e-03
 endloop
endfacet
facet normal -5.956644e-01 1.479122e-01 7.894973e-01
 outer loop
  vertex -1.189874e-03 1.222650e-03 4.453202e-03
  vertex -3.872927e-04 2.384675e-03 4.841033e-03
  vertex -1.201158e-03 2.621866e-03 4.182545e-03
 endloop
endfacet
facet normal 4.347864e-01 -5.566585e-01 7.078786e-01
 outer loop
  vertex 1.019356e-03 -2.397832e-03 3.533195e-03
  vertex 1.061364e-04 -1.979752e-03 4.422872e-03
  vertex -3.292692e-04 -3.196377e-03 3.733578e-03
 endloop
endfacet
facet normal 2.722351e-01 2.594916e-01 9.265809e-01
 outer loop
  vertex -3.872927e-04 2.384675e-03 4.841033e-03
  vertex -3.599810e-04 1.468832e-03 5.089493e-03
  vertex 6.081703e-04 1.749930e-03 4.726322e-03
 endloop
endfacet
endsolid 
