solid 
facet normal -4.843984e-01 -3.393890e-01 8.063332e-01
 outer loop
  vertex 2.805121e-03 4.526958e-03 -1.666833e-03
  vertex 2.268817e-03 3.365343e-03 -2.477943e-03
  vertex 3.780113e-03 3.424045e-03 -1.545335e-03
 endloop
endfacet
facet normal 1.263993e-01 -6.064815e-01 7.849862e-01
 outer loop
  vertex 2.805121e-03 4.526958e-03 -1.666833e-03
  vertex 9.873777e-04 4.724201e-03 -1.221748e-03
  vertex 2.268817e-03 3.365343e-03 -2.477943e-03
 endloop
endfacet
facet normal -2.797533e-01 -7.805633e-01 5.589803e-01
 outer loop
  vertex 9.873777e-04 4.724201e-03 -1.221748e-03
  vertex 5.425200e-04 3.997720e-03 -2.458850e-03
  vertex 2.268817e-03 3.365343e-03 -2.477943e-03
 endloop
endfacet
facet normal -3.214759e-02 -8.567708e-01 5.146945e-01
 outer loop
  vertex 5.425200e-04 3.997720e-03 -2.458850e-03
  vertex 9.873777e-04 4.724201e-03 -1.221748e-03
  vertex -4.075129e-04 4.020842e-03 -2.479698e-03
 endloop
endfacet
facet normal -2.673304e-02 -2.189166e-01 9.753773e-01
 outer loop
  vertex -4.075129e-04 4.020842e-03 -2.479698e-03
  vertex -7.427013e-04 2.898075e-03 -2.740882e-03
  vertex 5.425200e-04 3.997720e-03 -2.458850e-03
 endloop
endfacet
facet normal 9.633520e-02 -8.943295e-01 4.369145e-01
 outer loop
  vertex -1.042487e-03 4.672759e-03 -8.794823e-04
  vertex 9.873777e-04 4.724201e-03 -1.221748e-03
  vertex -3.466197e-05 5.014895e-03 -4.013723e-04
 endloop
endfacet
facet normal 2.963281e-01 -9.351200e-01 1.942684e-01
 outer loop
  vertex 9.873777e-04 4.724201e-03 -1.221748e-03
  vertex -1.411404e-03 3.769725e-03 -2.157174e-03
  vertex -4.075129e-04 4.020842e-03 -2.479698e-03
 endloop
endfacet
facet normal 1.138987e-01 -8.265159e-01 5.512700e-01
 outer loop
  vertex 9.873777e-04 4.724201e-03 -1.221748e-03
  vertex -1.042487e-03 4.672759e-03 -8.794823e-04
  vertex -1.411404e-03 3.769725e-03 -2.157174e-03
 endloop
endfacet
facet normal 3.604716e-01 -3.120942e-01 8.790093e-01
 outer loop
  vertex -7.427013e-04 2.898075e-03 -2.740882e-03
  vertex -4.075129e-04 4.020842e-03 -2.479698e-03
  vertex -1.411404e-03 3.769725e-03 -2.157174e-03
 endloop
endfacet
facet normal 2.783621e-01 -8.203989e-01 4.994599e-01
 outer loop
  vertex -2.288126e-03 4.109431e-03 -1.110562e-03
  vertex -1.411404e-03 3.769725e-03 -2.157174e-03
  vertex -1.042487e-03 4.672759e-03 -8.794823e-04
 endloop
endfacet
facet normal 4.406271e-01 -6.774518e-01 5.889880e-01
 outer loop
  vertex -1.411404e-03 3.769725e-03 -2.157174e-03
  vertex -2.288126e-03 4.109431e-03 -1.110562e-03
  vertex -3.001453e-03 3.003651e-03 -1.848780e-03
 endloop
endfacet
facet normal -7.508964e-01 -6.589466e-01 4.409074e-02
 outer loop
  vertex 3.040188e-03 4.360516e-03 -1.510031e-04
  vertex 2.805121e-03 4.526958e-03 -1.666833e-03
  vertex 3.780113e-03 3.424045e-03 -1.545335e-03
 endloop
endfacet
facet normal -4.955048e-01 -2.840491e-01 8.208478e-01
 outer loop
  vertex 2.268817e-03 3.365343e-03 -2.477943e-03
  vertex 3.965464e-03 1.612037e-03 -2.060482e-03
  vertex 3.780113e-03 3.424045e-03 -1.545335e-03
 endloop
endfacet
facet normal -3.588608e-01 -1.270942e-01 9.246978e-01
 outer loop
  vertex 2.268817e-03 3.365343e-03 -2.477943e-03
  vertex 2.684738e-03 7.297662e-04 -2.678774e-03
  vertex 3.965464e-03 1.612037e-03 -2.060482e-03
 endloop
endfacet
facet normal -1.288395e-01 -9.877109e-01 -8.847356e-02
 outer loop
  vertex 9.873777e-04 4.724201e-03 -1.221748e-03
  vertex 2.805121e-03 4.526958e-03 -1.666833e-03
  vertex 3.040188e-03 4.360516e-03 -1.510031e-04
 endloop
endfacet
facet normal -6.766888e-02 -2.141477e-01 9.744546e-01
 outer loop
  vertex 5.425200e-04 3.997720e-03 -2.458850e-03
  vertex 6.622346e-04 2.903274e-03 -2.691053e-03
  vertex 2.268817e-03 3.365343e-03 -2.477943e-03
 endloop
endfacet
facet normal -2.608704e-02 -8.004657e-02 9.964497e-01
 outer loop
  vertex 2.684738e-03 7.297662e-04 -2.678774e-03
  vertex 2.268817e-03 3.365343e-03 -2.477943e-03
  vertex 1.208525e-03 4.388113e-04 -2.740795e-03
 endloop
endfacet
facet normal -1.182760e-01 -4.623789e-02 9.919036e-01
 outer loop
  vertex 1.208525e-03 4.388113e-04 -2.740795e-03
  vertex 2.268817e-03 3.365343e-03 -2.477943e-03
  vertex 6.622346e-04 2.903274e-03 -2.691053e-03
 endloop
endfacet
facet normal -1.173137e-01 -4.602708e-02 9.920277e-01
 outer loop
  vertex 0.000000e+00 1.872043e-03 -2.817213e-03
  vertex 1.208525e-03 4.388113e-04 -2.740795e-03
  vertex 6.622346e-04 2.903274e-03 -2.691053e-03
 endloop
endfacet
facet normal -2.832160e-01 -9.589676e-01 -1.303366e-02
 outer loop
  vertex 9.873777e-04 4.724201e-03 -1.221748e-03
  vertex 5.280816e-04 4.829740e-03 9.934036e-04
  vertex -3.466197e-05 5.014895e-03 -4.013723e-04
 endloop
endfacet
facet normal -3.386724e-02 -2.109704e-01 9.769056e-01
 outer loop
  vertex 5.425200e-04 3.997720e-03 -2.458850e-03
  vertex -7.427013e-04 2.898075e-03 -2.740882e-03
  vertex 6.622346e-04 2.903274e-03 -2.691053e-03
 endloop
endfacet
facet normal -3.490290e-02 -9.924597e-02 9.944506e-01
 outer loop
  vertex 0.000000e+00 1.872043e-03 -2.817213e-03
  vertex 6.622346e-04 2.903274e-03 -2.691053e-03
  vertex -7.427013e-04 2.898075e-03 -2.740882e-03
 endloop
endfacet
facet normal 1.707899e-01 5.042258e-02 9.840164e-01
 outer loop
  vertex -8.647540e-04 1.530093e-03 -2.649601e-03
  vertex 0.000000e+00 1.872043e-03 -2.817213e-03
  vertex -7.427013e-04 2.898075e-03 -2.740882e-03
 endloop
endfacet
facet normal 2.089586e-02 -9.899528e-01 -1.398455e-01
 outer loop
  vertex -3.466197e-05 5.014895e-03 -4.013723e-04
  vertex 5.280816e-04 4.829740e-03 9.934036e-04
  vertex -7.949843e-04 4.844516e-03 6.911164e-04
 endloop
endfacet
facet normal 2.963367e-01 -9.533476e-01 5.755755e-02
 outer loop
  vertex -7.949843e-04 4.844516e-03 6.911164e-04
  vertex -1.042487e-03 4.672759e-03 -8.794823e-04
  vertex -3.466197e-05 5.014895e-03 -4.013723e-04
 endloop
endfacet
facet normal 4.066856e-01 -2.720315e-01 8.721271e-01
 outer loop
  vertex -1.411404e-03 3.769725e-03 -2.157174e-03
  vertex -1.867661e-03 2.078651e-03 -2.471890e-03
  vertex -7.427013e-04 2.898075e-03 -2.740882e-03
 endloop
endfacet
facet normal 1.994227e-01 4.751724e-02 9.787608e-01
 outer loop
  vertex -8.647540e-04 1.530093e-03 -2.649601e-03
  vertex -7.427013e-04 2.898075e-03 -2.740882e-03
  vertex -1.867661e-03 2.078651e-03 -2.471890e-03
 endloop
endfacet
facet normal 2.706109e-01 -8.328566e-01 -4.828246e-01
 outer loop
  vertex -1.114369e-03 3.963669e-03 2.031542e-03
  vertex -2.429351e-03 4.540485e-03 2.995384e-04
  vertex -7.949843e-04 4.844516e-03 6.911164e-04
 endloop
endfacet
facet normal 1.633000e-01 -9.831808e-01 8.178462e-02
 outer loop
  vertex -1.042487e-03 4.672759e-03 -8.794823e-04
  vertex -7.949843e-04 4.844516e-03 6.911164e-04
  vertex -2.429351e-03 4.540485e-03 2.995384e-04
 endloop
endfacet
facet normal 3.446395e-01 -8.875222e-01 3.058235e-01
 outer loop
  vertex -2.429351e-03 4.540485e-03 2.995384e-04
  vertex -2.288126e-03 4.109431e-03 -1.110562e-03
  vertex -1.042487e-03 4.672759e-03 -8.794823e-04
 endloop
endfacet
facet normal 2.999244e-01 -2.521434e-01 9.200375e-01
 outer loop
  vertex -1.867661e-03 2.078651e-03 -2.471890e-03
  vertex -1.411404e-03 3.769725e-03 -2.157174e-03
  vertex -3.001453e-03 3.003651e-03 -1.848780e-03
 endloop
endfacet
facet normal 3.672324e-01 -1.663397e-01 9.151347e-01
 outer loop
  vertex -3.011464e-03 1.129621e-03 -2.185396e-03
  vertex -1.867661e-03 2.078651e-03 -2.471890e-03
  vertex -3.001453e-03 3.003651e-03 -1.848780e-03
 endloop
endfacet
facet normal 1.481581e-01 -8.990967e-01 -4.119154e-01
 outer loop
  vertex -1.114369e-03 3.963669e-03 2.031542e-03
  vertex -2.780324e-03 3.615889e-03 2.191435e-03
  vertex -2.429351e-03 4.540485e-03 2.995384e-04
 endloop
endfacet
facet normal 1.824239e-01 -9.350123e-01 3.040945e-01
 outer loop
  vertex -3.378587e-03 4.031231e-03 -6.968474e-04
  vertex -2.288126e-03 4.109431e-03 -1.110562e-03
  vertex -2.429351e-03 4.540485e-03 2.995384e-04
 endloop
endfacet
facet normal 3.079907e-01 -6.576483e-01 6.874885e-01
 outer loop
  vertex -2.288126e-03 4.109431e-03 -1.110562e-03
  vertex -3.378587e-03 4.031231e-03 -6.968474e-04
  vertex -3.001453e-03 3.003651e-03 -1.848780e-03
 endloop
endfacet
facet normal 2.476552e-01 -1.725663e-01 9.533561e-01
 outer loop
  vertex -4.363300e-03 2.148727e-03 -1.649759e-03
  vertex -3.011464e-03 1.129621e-03 -2.185396e-03
  vertex -3.001453e-03 3.003651e-03 -1.848780e-03
 endloop
endfacet
facet normal 3.024818e-01 -8.772969e-01 -3.726324e-01
 outer loop
  vertex -4.219662e-03 3.919317e-03 3.086964e-04
  vertex -2.429351e-03 4.540485e-03 2.995384e-04
  vertex -2.780324e-03 3.615889e-03 2.191435e-03
 endloop
endfacet
facet normal 3.239347e-01 -9.311671e-01 1.673148e-01
 outer loop
  vertex -4.219662e-03 3.919317e-03 3.086964e-04
  vertex -3.378587e-03 4.031231e-03 -6.968474e-04
  vertex -2.429351e-03 4.540485e-03 2.995384e-04
 endloop
endfacet
facet normal 3.667162e-01 -6.313816e-01 6.832836e-01
 outer loop
  vertex -3.378587e-03 4.031231e-03 -6.968474e-04
  vertex -4.536316e-03 3.163551e-03 -8.772694e-04
  vertex -3.001453e-03 3.003651e-03 -1.848780e-03
 endloop
endfacet
facet normal 5.252232e-01 -7.742272e-01 3.531470e-01
 outer loop
  vertex -3.378587e-03 4.031231e-03 -6.968474e-04
  vertex -4.219662e-03 3.919317e-03 3.086964e-04
  vertex -4.536316e-03 3.163551e-03 -8.772694e-04
 endloop
endfacet
facet normal 4.248728e-01 -5.013296e-01 7.537585e-01
 outer loop
  vertex -3.001453e-03 3.003651e-03 -1.848780e-03
  vertex -4.536316e-03 3.163551e-03 -8.772694e-04
  vertex -4.363300e-03 2.148727e-03 -1.649759e-03
 endloop
endfacet
facet normal -8.049888e-01 -5.596328e-01 1.969877e-01
 outer loop
  vertex 4.600933e-03 2.513209e-03 -7.787018e-04
  vertex 4.256559e-03 3.333826e-03 1.453506e-04
  vertex 3.780113e-03 3.424045e-03 -1.545335e-03
 endloop
endfacet
facet normal -7.916073e-01 -2.406477e-01 5.616463e-01
 outer loop
  vertex 3.965464e-03 1.612037e-03 -2.060482e-03
  vertex 4.600933e-03 2.513209e-03 -7.787018e-04
  vertex 3.780113e-03 3.424045e-03 -1.545335e-03
 endloop
endfacet
facet normal -6.586385e-01 -7.381157e-01 1.462209e-01
 outer loop
  vertex 3.780113e-03 3.424045e-03 -1.545335e-03
  vertex 4.256559e-03 3.333826e-03 1.453506e-04
  vertex 3.040188e-03 4.360516e-03 -1.510031e-04
 endloop
endfacet
facet normal -6.236609e-01 -7.728085e-01 -1.175334e-01
 outer loop
  vertex 4.256559e-03 3.333826e-03 1.453506e-04
  vertex 3.509478e-03 3.818511e-03 9.226319e-04
  vertex 3.040188e-03 4.360516e-03 -1.510031e-04
 endloop
endfacet
facet normal -3.864253e-01 -8.280474e-02 9.185961e-01
 outer loop
  vertex 2.684738e-03 7.297662e-04 -2.678774e-03
  vertex 4.261058e-03 -8.058416e-04 -2.154088e-03
  vertex 3.965464e-03 1.612037e-03 -2.060482e-03
 endloop
endfacet
facet normal -3.513369e-01 -8.885586e-01 -2.950016e-01
 outer loop
  vertex 3.509478e-03 3.818511e-03 9.226319e-04
  vertex 2.358433e-03 4.058434e-03 1.570830e-03
  vertex 3.040188e-03 4.360516e-03 -1.510031e-04
 endloop
endfacet
facet normal -6.939785e-02 -9.775432e-01 -1.989803e-01
 outer loop
  vertex 2.358433e-03 4.058434e-03 1.570830e-03
  vertex 9.873777e-04 4.724201e-03 -1.221748e-03
  vertex 3.040188e-03 4.360516e-03 -1.510031e-04
 endloop
endfacet
facet normal 1.393989e-01 1.695619e-01 9.756109e-01
 outer loop
  vertex 0.000000e+00 1.872043e-03 -2.817213e-03
  vertex -1.647102e-04 6.336570e-04 -2.578446e-03
  vertex 1.208525e-03 4.388113e-04 -2.740795e-03
 endloop
endfacet
facet normal -2.339385e-01 -8.739989e-01 -4.259093e-01
 outer loop
  vertex 5.280816e-04 4.829740e-03 9.934036e-04
  vertex 2.358433e-03 4.058434e-03 1.570830e-03
  vertex 8.103059e-04 4.017774e-03 2.504604e-03
 endloop
endfacet
facet normal -3.788378e-01 -9.248203e-01 -3.448707e-02
 outer loop
  vertex 2.358433e-03 4.058434e-03 1.570830e-03
  vertex 5.280816e-04 4.829740e-03 9.934036e-04
  vertex 9.873777e-04 4.724201e-03 -1.221748e-03
 endloop
endfacet
facet normal 1.213255e-01 1.723372e-01 9.775377e-01
 outer loop
  vertex -1.647102e-04 6.336570e-04 -2.578446e-03
  vertex 0.000000e+00 1.872043e-03 -2.817213e-03
  vertex -8.647540e-04 1.530093e-03 -2.649601e-03
 endloop
endfacet
facet normal 1.962316e-01 2.289218e-01 9.534610e-01
 outer loop
  vertex -8.647540e-04 1.530093e-03 -2.649601e-03
  vertex -1.339861e-03 3.127789e-04 -2.259547e-03
  vertex -1.647102e-04 6.336570e-04 -2.578446e-03
 endloop
endfacet
facet normal -1.204989e-01 -8.836878e-01 -4.523006e-01
 outer loop
  vertex 8.103059e-04 4.017774e-03 2.504604e-03
  vertex -2.774484e-04 4.457962e-03 1.934374e-03
  vertex 5.280816e-04 4.829740e-03 9.934036e-04
 endloop
endfacet
facet normal 6.254742e-02 -9.453613e-01 -3.199686e-01
 outer loop
  vertex -7.949843e-04 4.844516e-03 6.911164e-04
  vertex 5.280816e-04 4.829740e-03 9.934036e-04
  vertex -2.774484e-04 4.457962e-03 1.934374e-03
 endloop
endfacet
facet normal 2.735684e-01 1.950250e-01 9.418734e-01
 outer loop
  vertex -1.867661e-03 2.078651e-03 -2.471890e-03
  vertex -1.339861e-03 3.127789e-04 -2.259547e-03
  vertex -8.647540e-04 1.530093e-03 -2.649601e-03
 endloop
endfacet
facet normal 4.232445e-01 -8.001639e-01 -4.249727e-01
 outer loop
  vertex -7.949843e-04 4.844516e-03 6.911164e-04
  vertex -2.774484e-04 4.457962e-03 1.934374e-03
  vertex -1.114369e-03 3.963669e-03 2.031542e-03
 endloop
endfacet
facet normal 1.184670e-01 1.533767e-01 9.810409e-01
 outer loop
  vertex -1.339861e-03 3.127789e-04 -2.259547e-03
  vertex -1.867661e-03 2.078651e-03 -2.471890e-03
  vertex -3.011464e-03 1.129621e-03 -2.185396e-03
 endloop
endfacet
facet normal 3.360614e-01 -4.858422e-02 9.405861e-01
 outer loop
  vertex -4.413471e-03 6.981233e-04 -1.706762e-03
  vertex -3.011464e-03 1.129621e-03 -2.185396e-03
  vertex -4.363300e-03 2.148727e-03 -1.649759e-03
 endloop
endfacet
facet normal 1.977503e-02 -9.845831e-01 -1.737960e-01
 outer loop
  vertex -4.290252e-03 3.721253e-03 1.422726e-03
  vertex -4.219662e-03 3.919317e-03 3.086964e-04
  vertex -2.780324e-03 3.615889e-03 2.191435e-03
 endloop
endfacet
facet normal 7.962690e-01 -6.022867e-01 -5.662511e-02
 outer loop
  vertex -4.290252e-03 3.721253e-03 1.422726e-03
  vertex -4.970044e-03 2.847621e-03 1.155705e-03
  vertex -4.219662e-03 3.919317e-03 3.086964e-04
 endloop
endfacet
facet normal 7.362743e-01 -6.423638e-01 2.127650e-01
 outer loop
  vertex -5.226634e-03 2.689647e-03 8.080650e-05
  vertex -4.536316e-03 3.163551e-03 -8.772694e-04
  vertex -4.219662e-03 3.919317e-03 3.086964e-04
 endloop
endfacet
facet normal 7.787411e-01 -6.201485e-01 -9.475346e-02
 outer loop
  vertex -4.970044e-03 2.847621e-03 1.155705e-03
  vertex -5.226634e-03 2.689647e-03 8.080650e-05
  vertex -4.219662e-03 3.919317e-03 3.086964e-04
 endloop
endfacet
facet normal 7.826678e-01 -2.869976e-01 5.523255e-01
 outer loop
  vertex -4.536316e-03 3.163551e-03 -8.772694e-04
  vertex -5.483019e-03 1.371362e-03 -4.670036e-04
  vertex -4.363300e-03 2.148727e-03 -1.649759e-03
 endloop
endfacet
facet normal 8.344815e-01 -3.418758e-01 4.321593e-01
 outer loop
  vertex -4.536316e-03 3.163551e-03 -8.772694e-04
  vertex -5.226634e-03 2.689647e-03 8.080650e-05
  vertex -5.483019e-03 1.371362e-03 -4.670036e-04
 endloop
endfacet
facet normal 7.420296e-01 -5.192727e-02 6.683529e-01
 outer loop
  vertex -4.413471e-03 6.981233e-04 -1.706762e-03
  vertex -4.363300e-03 2.148727e-03 -1.649759e-03
  vertex -5.483019e-03 1.371362e-03 -4.670036e-04
 endloop
endfacet
facet normal -7.526497e-01 -3.389241e-01 5.644899e-01
 outer loop
  vertex 3.965464e-03 1.612037e-03 -2.060482e-03
  vertex 4.859409e-03 2.686458e-04 -1.675143e-03
  vertex 5.110340e-03 1.275595e-03 -7.359907e-04
 endloop
endfacet
facet normal -5.117261e-01 -9.561509e-02 8.538116e-01
 outer loop
  vertex 3.965464e-03 1.612037e-03 -2.060482e-03
  vertex 4.261058e-03 -8.058416e-04 -2.154088e-03
  vertex 4.859409e-03 2.686458e-04 -1.675143e-03
 endloop
endfacet
facet normal -7.663823e-01 -5.508421e-01 -3.305014e-01
 outer loop
  vertex 4.874016e-03 2.269411e-03 4.876097e-04
  vertex 3.992952e-03 2.972019e-03 1.359636e-03
  vertex 4.256559e-03 3.333826e-03 1.453506e-04
 endloop
endfacet
facet normal -9.188649e-01 -3.738535e-01 1.261782e-01
 outer loop
  vertex 4.600933e-03 2.513209e-03 -7.787018e-04
  vertex 5.110340e-03 1.275595e-03 -7.359907e-04
  vertex 4.874016e-03 2.269411e-03 4.876097e-04
 endloop
endfacet
facet normal -8.741339e-01 -4.759245e-01 9.688054e-02
 outer loop
  vertex 4.256559e-03 3.333826e-03 1.453506e-04
  vertex 4.600933e-03 2.513209e-03 -7.787018e-04
  vertex 4.874016e-03 2.269411e-03 4.876097e-04
 endloop
endfacet
facet normal -7.589827e-01 -2.923215e-01 5.818019e-01
 outer loop
  vertex 5.110340e-03 1.275595e-03 -7.359907e-04
  vertex 4.600933e-03 2.513209e-03 -7.787018e-04
  vertex 3.965464e-03 1.612037e-03 -2.060482e-03
 endloop
endfacet
facet normal -7.329622e-01 -5.918090e-01 -3.354528e-01
 outer loop
  vertex 3.509478e-03 3.818511e-03 9.226319e-04
  vertex 4.256559e-03 3.333826e-03 1.453506e-04
  vertex 3.992952e-03 2.972019e-03 1.359636e-03
 endloop
endfacet
facet normal -4.830598e-01 -6.034335e-01 -6.344456e-01
 outer loop
  vertex 2.358433e-03 4.058434e-03 1.570830e-03
  vertex 3.509478e-03 3.818511e-03 9.226319e-04
  vertex 3.992952e-03 2.972019e-03 1.359636e-03
 endloop
endfacet
facet normal -4.800443e-01 -5.973407e-01 -6.424497e-01
 outer loop
  vertex 2.358433e-03 4.058434e-03 1.570830e-03
  vertex 3.992952e-03 2.972019e-03 1.359636e-03
  vertex 2.996499e-03 2.375724e-03 2.658621e-03
 endloop
endfacet
facet normal 9.943382e-02 -1.220372e-01 9.875322e-01
 outer loop
  vertex -1.647102e-04 6.336570e-04 -2.578446e-03
  vertex -6.667768e-04 -1.047086e-03 -2.735596e-03
  vertex 1.208525e-03 4.388113e-04 -2.740795e-03
 endloop
endfacet
facet normal 3.026837e-01 -1.779638e-01 9.363287e-01
 outer loop
  vertex -1.647102e-04 6.336570e-04 -2.578446e-03
  vertex -1.339861e-03 3.127789e-04 -2.259547e-03
  vertex -6.667768e-04 -1.047086e-03 -2.735596e-03
 endloop
endfacet
facet normal 1.933781e-01 -5.630175e-01 -8.035024e-01
 outer loop
  vertex 8.764169e-05 3.353647e-03 2.796038e-03
  vertex -2.774484e-04 4.457962e-03 1.934374e-03
  vertex 8.103059e-04 4.017774e-03 2.504604e-03
 endloop
endfacet
facet normal 2.314911e-01 -5.497323e-01 -8.026246e-01
 outer loop
  vertex -1.114369e-03 3.963669e-03 2.031542e-03
  vertex -2.774484e-04 4.457962e-03 1.934374e-03
  vertex 8.764169e-05 3.353647e-03 2.796038e-03
 endloop
endfacet
facet normal 4.802421e-01 -1.390610e-01 -8.660425e-01
 outer loop
  vertex 1.034295e-03 9.480628e-04 3.707247e-03
  vertex -1.114369e-03 3.963669e-03 2.031542e-03
  vertex 8.764169e-05 3.353647e-03 2.796038e-03
 endloop
endfacet
facet normal 5.342486e-02 1.869756e-02 9.983968e-01
 outer loop
  vertex -3.011464e-03 1.129621e-03 -2.185396e-03
  vertex -2.478836e-03 -5.803067e-04 -2.181874e-03
  vertex -1.339861e-03 3.127789e-04 -2.259547e-03
 endloop
endfacet
facet normal 2.956089e-01 9.403750e-02 9.506694e-01
 outer loop
  vertex -4.413471e-03 6.981233e-04 -1.706762e-03
  vertex -2.478836e-03 -5.803067e-04 -2.181874e-03
  vertex -3.011464e-03 1.129621e-03 -2.185396e-03
 endloop
endfacet
facet normal 1.531537e-02 -4.773076e-01 -8.786028e-01
 outer loop
  vertex 1.034295e-03 9.480628e-04 3.707247e-03
  vertex -2.780324e-03 3.615889e-03 2.191435e-03
  vertex -1.114369e-03 3.963669e-03 2.031542e-03
 endloop
endfacet
facet normal 2.922135e-01 -6.023368e-01 -7.428336e-01
 outer loop
  vertex -3.613568e-03 2.379863e-03 2.865905e-03
  vertex -4.338915e-03 3.027741e-03 2.055230e-03
  vertex -2.780324e-03 3.615889e-03 2.191435e-03
 endloop
endfacet
facet normal 3.069236e-01 -6.530036e-01 -6.923758e-01
 outer loop
  vertex -2.780324e-03 3.615889e-03 2.191435e-03
  vertex -4.338915e-03 3.027741e-03 2.055230e-03
  vertex -4.290252e-03 3.721253e-03 1.422726e-03
 endloop
endfacet
facet normal 7.672973e-01 -4.607010e-01 -4.461047e-01
 outer loop
  vertex -4.290252e-03 3.721253e-03 1.422726e-03
  vertex -4.338915e-03 3.027741e-03 2.055230e-03
  vertex -4.970044e-03 2.847621e-03 1.155705e-03
 endloop
endfacet
facet normal 9.715316e-01 -9.171580e-02 -2.184365e-01
 outer loop
  vertex -5.120223e-03 1.231608e-03 1.166278e-03
  vertex -5.226634e-03 2.689647e-03 8.080650e-05
  vertex -4.970044e-03 2.847621e-03 1.155705e-03
 endloop
endfacet
facet normal 9.699606e-01 -9.570712e-02 -2.236438e-01
 outer loop
  vertex -5.120223e-03 1.231608e-03 1.166278e-03
  vertex -5.483019e-03 1.371362e-03 -4.670036e-04
  vertex -5.226634e-03 2.689647e-03 8.080650e-05
 endloop
endfacet
facet normal 7.809855e-01 1.079270e-01 6.151532e-01
 outer loop
  vertex -4.805209e-03 0.000000e+00 -1.086936e-03
  vertex -4.413471e-03 6.981233e-04 -1.706762e-03
  vertex -5.483019e-03 1.371362e-03 -4.670036e-04
 endloop
endfacet
facet normal -9.875726e-01 -1.342683e-01 -8.168448e-02
 outer loop
  vertex 5.110340e-03 1.275595e-03 -7.359907e-04
  vertex 5.104856e-03 5.392051e-04 5.407413e-04
  vertex 4.874016e-03 2.269411e-03 4.876097e-04
 endloop
endfacet
facet normal -8.945785e-01 -1.645944e-01 4.154972e-01
 outer loop
  vertex 5.493057e-03 -9.779553e-04 -8.047062e-04
  vertex 5.110340e-03 1.275595e-03 -7.359907e-04
  vertex 4.859409e-03 2.686458e-04 -1.675143e-03
 endloop
endfacet
facet normal -9.815689e-01 -1.636911e-01 -9.862912e-02
 outer loop
  vertex 5.104856e-03 5.392051e-04 5.407413e-04
  vertex 5.110340e-03 1.275595e-03 -7.359907e-04
  vertex 5.493057e-03 -9.779553e-04 -8.047062e-04
 endloop
endfacet
facet normal -7.279579e-01 1.032530e-01 6.778024e-01
 outer loop
  vertex 4.261058e-03 -8.058416e-04 -2.154088e-03
  vertex 5.493057e-03 -9.779553e-04 -8.047062e-04
  vertex 4.859409e-03 2.686458e-04 -1.675143e-03
 endloop
endfacet
facet normal -8.418384e-01 -1.284145e-01 -5.242307e-01
 outer loop
  vertex 5.104856e-03 5.392051e-04 5.407413e-04
  vertex 4.107749e-03 1.539742e-03 1.896862e-03
  vertex 4.874016e-03 2.269411e-03 4.876097e-04
 endloop
endfacet
facet normal -7.780735e-01 -2.743262e-01 -5.651078e-01
 outer loop
  vertex 4.874016e-03 2.269411e-03 4.876097e-04
  vertex 4.107749e-03 1.539742e-03 1.896862e-03
  vertex 3.992952e-03 2.972019e-03 1.359636e-03
 endloop
endfacet
facet normal -2.478500e-01 7.558859e-02 9.658451e-01
 outer loop
  vertex 2.938698e-03 -1.224018e-03 -2.460698e-03
  vertex 4.261058e-03 -8.058416e-04 -2.154088e-03
  vertex 2.684738e-03 7.297662e-04 -2.678774e-03
 endloop
endfacet
facet normal -6.835028e-01 -3.037452e-01 -6.637490e-01
 outer loop
  vertex 4.107749e-03 1.539742e-03 1.896862e-03
  vertex 2.996499e-03 2.375724e-03 2.658621e-03
  vertex 3.992952e-03 2.972019e-03 1.359636e-03
 endloop
endfacet
facet normal -6.196235e-02 1.027568e-01 9.927747e-01
 outer loop
  vertex 2.684738e-03 7.297662e-04 -2.678774e-03
  vertex 1.208525e-03 4.388113e-04 -2.740795e-03
  vertex 2.938698e-03 -1.224018e-03 -2.460698e-03
 endloop
endfacet
facet normal -3.545584e-01 2.282937e-03 9.350311e-01
 outer loop
  vertex 6.989360e-04 -1.654387e-03 -2.928917e-03
  vertex 2.124316e-03 -3.362306e-03 -2.384251e-03
  vertex 1.208525e-03 4.388113e-04 -2.740795e-03
 endloop
endfacet
facet normal -5.211449e-01 -5.938671e-01 -6.129681e-01
 outer loop
  vertex 1.911237e-03 3.005426e-03 2.971231e-03
  vertex 2.358433e-03 4.058434e-03 1.570830e-03
  vertex 2.996499e-03 2.375724e-03 2.658621e-03
 endloop
endfacet
facet normal 9.071816e-02 -1.110299e-01 9.896679e-01
 outer loop
  vertex -6.667768e-04 -1.047086e-03 -2.735596e-03
  vertex 6.989360e-04 -1.654387e-03 -2.928917e-03
  vertex 1.208525e-03 4.388113e-04 -2.740795e-03
 endloop
endfacet
facet normal -2.089847e-01 1.344884e-01 9.686270e-01
 outer loop
  vertex 2.124316e-03 -3.362306e-03 -2.384251e-03
  vertex 6.989360e-04 -1.654387e-03 -2.928917e-03
  vertex -4.797550e-04 -2.661829e-03 -3.043346e-03
 endloop
endfacet
facet normal 5.880060e-02 -1.803180e-01 9.818492e-01
 outer loop
  vertex 6.989360e-04 -1.654387e-03 -2.928917e-03
  vertex -6.667768e-04 -1.047086e-03 -2.735596e-03
  vertex -4.797550e-04 -2.661829e-03 -3.043346e-03
 endloop
endfacet
facet normal -4.309702e-02 -4.564930e-01 -8.886826e-01
 outer loop
  vertex 1.911237e-03 3.005426e-03 2.971231e-03
  vertex 1.058212e-03 2.606817e-03 3.217353e-03
  vertex 8.103059e-04 4.017774e-03 2.504604e-03
 endloop
endfacet
facet normal -3.627622e-01 -6.854839e-01 -6.312808e-01
 outer loop
  vertex 2.358433e-03 4.058434e-03 1.570830e-03
  vertex 1.911237e-03 3.005426e-03 2.971231e-03
  vertex 8.103059e-04 4.017774e-03 2.504604e-03
 endloop
endfacet
facet normal -2.684219e-01 -2.102558e-01 9.400756e-01
 outer loop
  vertex -6.667768e-04 -1.047086e-03 -2.735596e-03
  vertex -1.406105e-03 -1.901174e-03 -3.137722e-03
  vertex -4.797550e-04 -2.661829e-03 -3.043346e-03
 endloop
endfacet
facet normal 3.939435e-01 5.692888e-01 7.216085e-01
 outer loop
  vertex -2.213317e-03 -2.053702e-03 -2.576714e-03
  vertex -4.797550e-04 -2.661829e-03 -3.043346e-03
  vertex -1.406105e-03 -1.901174e-03 -3.137722e-03
 endloop
endfacet
facet normal 4.696686e-02 -4.438053e-01 -8.948916e-01
 outer loop
  vertex 8.103059e-04 4.017774e-03 2.504604e-03
  vertex 1.058212e-03 2.606817e-03 3.217353e-03
  vertex 8.764169e-05 3.353647e-03 2.796038e-03
 endloop
endfacet
facet normal 1.923690e-01 -2.805034e-01 -9.403786e-01
 outer loop
  vertex 1.034295e-03 9.480628e-04 3.707247e-03
  vertex 8.764169e-05 3.353647e-03 2.796038e-03
  vertex 1.058212e-03 2.606817e-03 3.217353e-03
 endloop
endfacet
facet normal 2.340213e-01 -2.160109e-01 9.479311e-01
 outer loop
  vertex -6.667768e-04 -1.047086e-03 -2.735596e-03
  vertex -1.339861e-03 3.127789e-04 -2.259547e-03
  vertex -2.478836e-03 -5.803067e-04 -2.181874e-03
 endloop
endfacet
facet normal 4.993948e-01 -6.831587e-01 5.328217e-01
 outer loop
  vertex -6.667768e-04 -1.047086e-03 -2.735596e-03
  vertex -2.213317e-03 -2.053702e-03 -2.576714e-03
  vertex -1.406105e-03 -1.901174e-03 -3.137722e-03
 endloop
endfacet
facet normal 2.353018e-01 -2.117928e-01 9.485657e-01
 outer loop
  vertex -6.667768e-04 -1.047086e-03 -2.735596e-03
  vertex -2.478836e-03 -5.803067e-04 -2.181874e-03
  vertex -2.213317e-03 -2.053702e-03 -2.576714e-03
 endloop
endfacet
facet normal 3.642512e-01 2.144085e-01 9.062837e-01
 outer loop
  vertex -4.413471e-03 6.981233e-04 -1.706762e-03
  vertex -3.466750e-03 -1.020454e-03 -1.680685e-03
  vertex -2.478836e-03 -5.803067e-04 -2.181874e-03
 endloop
endfacet
facet normal 4.968660e-01 -1.399751e-01 8.564643e-01
 outer loop
  vertex -2.478836e-03 -5.803067e-04 -2.181874e-03
  vertex -3.466750e-03 -1.020454e-03 -1.680685e-03
  vertex -2.213317e-03 -2.053702e-03 -2.576714e-03
 endloop
endfacet
facet normal -2.572079e-01 -7.285152e-01 -6.349092e-01
 outer loop
  vertex -1.988239e-03 2.087845e-03 3.623882e-03
  vertex -2.780324e-03 3.615889e-03 2.191435e-03
  vertex 1.034295e-03 9.480628e-04 3.707247e-03
 endloop
endfacet
facet normal 5.823354e-01 3.320533e-01 7.420418e-01
 outer loop
  vertex -3.466750e-03 -1.020454e-03 -1.680685e-03
  vertex -4.413471e-03 6.981233e-04 -1.706762e-03
  vertex -4.805209e-03 0.000000e+00 -1.086936e-03
 endloop
endfacet
facet normal 6.589694e-01 6.017332e-01 4.513054e-01
 outer loop
  vertex -4.805209e-03 0.000000e+00 -1.086936e-03
  vertex -4.111775e-03 -1.140433e-03 -5.788873e-04
  vertex -3.466750e-03 -1.020454e-03 -1.680685e-03
 endloop
endfacet
facet normal 2.522298e-01 -5.889898e-01 -7.677702e-01
 outer loop
  vertex -1.988239e-03 2.087845e-03 3.623882e-03
  vertex -3.613568e-03 2.379863e-03 2.865905e-03
  vertex -2.780324e-03 3.615889e-03 2.191435e-03
 endloop
endfacet
facet normal 7.494450e-01 5.897407e-01 3.008955e-01
 outer loop
  vertex -5.096507e-03 -1.194787e-04 -1.272217e-04
  vertex -4.111775e-03 -1.140433e-03 -5.788873e-04
  vertex -4.805209e-03 0.000000e+00 -1.086936e-03
 endloop
endfacet
facet normal 8.214977e-01 -1.851929e-01 -5.393006e-01
 outer loop
  vertex -4.338915e-03 3.027741e-03 2.055230e-03
  vertex -4.511041e-03 1.879638e-03 2.187288e-03
  vertex -4.970044e-03 2.847621e-03 1.155705e-03
 endloop
endfacet
facet normal 6.557128e-01 -1.825724e-01 -7.326036e-01
 outer loop
  vertex -3.613568e-03 2.379863e-03 2.865905e-03
  vertex -4.511041e-03 1.879638e-03 2.187288e-03
  vertex -4.338915e-03 3.027741e-03 2.055230e-03
 endloop
endfacet
facet normal 8.784119e-01 -8.471000e-02 -4.703368e-01
 outer loop
  vertex -5.120223e-03 1.231608e-03 1.166278e-03
  vertex -4.970044e-03 2.847621e-03 1.155705e-03
  vertex -4.511041e-03 1.879638e-03 2.187288e-03
 endloop
endfacet
facet normal 9.003139e-01 3.043300e-01 3.111562e-01
 outer loop
  vertex -4.805209e-03 0.000000e+00 -1.086936e-03
  vertex -5.483019e-03 1.371362e-03 -4.670036e-04
  vertex -5.096507e-03 -1.194787e-04 -1.272217e-04
 endloop
endfacet
facet normal 8.487745e-01 3.165752e-01 4.235115e-01
 outer loop
  vertex -5.592919e-03 3.458208e-04 5.198434e-04
  vertex -5.096507e-03 -1.194787e-04 -1.272217e-04
  vertex -5.483019e-03 1.371362e-03 -4.670036e-04
 endloop
endfacet
facet normal 9.183123e-01 -3.211363e-01 -2.314604e-01
 outer loop
  vertex -5.120223e-03 1.231608e-03 1.166278e-03
  vertex -5.592919e-03 3.458208e-04 5.198434e-04
  vertex -5.483019e-03 1.371362e-03 -4.670036e-04
 endloop
endfacet
facet normal -7.233177e-01 -2.994658e-01 6.221991e-01
 outer loop
  vertex 5.235493e-03 -2.117151e-03 -1.652427e-03
  vertex 5.493057e-03 -9.779553e-04 -8.047062e-04
  vertex 4.261058e-03 -8.058416e-04 -2.154088e-03
 endloop
endfacet
facet normal -9.287280e-01 8.284828e-02 -3.613870e-01
 outer loop
  vertex 5.104856e-03 5.392051e-04 5.407413e-04
  vertex 5.493057e-03 -9.779553e-04 -8.047062e-04
  vertex 4.870150e-03 -1.370532e-03 7.061026e-04
 endloop
endfacet
facet normal -4.537451e-01 3.734935e-03 8.911237e-01
 outer loop
  vertex 5.235493e-03 -2.117151e-03 -1.652427e-03
  vertex 4.261058e-03 -8.058416e-04 -2.154088e-03
  vertex 4.166482e-03 -2.537843e-03 -2.194986e-03
 endloop
endfacet
facet normal -7.616727e-01 1.071008e-01 -6.390494e-01
 outer loop
  vertex 3.614565e-03 -5.960156e-04 2.126739e-03
  vertex 4.107749e-03 1.539742e-03 1.896862e-03
  vertex 5.104856e-03 5.392051e-04 5.407413e-04
 endloop
endfacet
facet normal -7.399591e-01 3.276585e-02 -6.718533e-01
 outer loop
  vertex 4.870150e-03 -1.370532e-03 7.061026e-04
  vertex 3.614565e-03 -5.960156e-04 2.126739e-03
  vertex 5.104856e-03 5.392051e-04 5.407413e-04
 endloop
endfacet
facet normal -1.251391e-01 8.300620e-02 9.886608e-01
 outer loop
  vertex 2.938698e-03 -1.224018e-03 -2.460698e-03
  vertex 2.124316e-03 -3.362306e-03 -2.384251e-03
  vertex 4.166482e-03 -2.537843e-03 -2.194986e-03
 endloop
endfacet
facet normal -2.225985e-01 -1.086386e-02 9.748497e-01
 outer loop
  vertex 2.938698e-03 -1.224018e-03 -2.460698e-03
  vertex 4.166482e-03 -2.537843e-03 -2.194986e-03
  vertex 4.261058e-03 -8.058416e-04 -2.154088e-03
 endloop
endfacet
facet normal -2.045159e-01 2.921073e-01 9.342626e-01
 outer loop
  vertex 3.751874e-03 -3.888480e-03 -1.863455e-03
  vertex 4.166482e-03 -2.537843e-03 -2.194986e-03
  vertex 2.124316e-03 -3.362306e-03 -2.384251e-03
 endloop
endfacet
facet normal -5.110128e-01 2.552433e-02 -8.591941e-01
 outer loop
  vertex 1.034295e-03 9.480628e-04 3.707247e-03
  vertex 4.107749e-03 1.539742e-03 1.896862e-03
  vertex 3.614565e-03 -5.960156e-04 2.126739e-03
 endloop
endfacet
facet normal -5.179797e-01 8.687872e-02 -8.509695e-01
 outer loop
  vertex 1.034295e-03 9.480628e-04 3.707247e-03
  vertex 2.996499e-03 2.375724e-03 2.658621e-03
  vertex 4.107749e-03 1.539742e-03 1.896862e-03
 endloop
endfacet
facet normal -9.271984e-02 7.082030e-02 9.931704e-01
 outer loop
  vertex 1.208525e-03 4.388113e-04 -2.740795e-03
  vertex 2.124316e-03 -3.362306e-03 -2.384251e-03
  vertex 2.938698e-03 -1.224018e-03 -2.460698e-03
 endloop
endfacet
facet normal -6.423580e-01 4.049248e-01 -6.507012e-01
 outer loop
  vertex 1.034295e-03 9.480628e-04 3.707247e-03
  vertex 2.033328e-03 1.916225e-03 3.323500e-03
  vertex 2.996499e-03 2.375724e-03 2.658621e-03
 endloop
endfacet
facet normal -4.294594e-01 -3.211263e-01 -8.440631e-01
 outer loop
  vertex 2.033328e-03 1.916225e-03 3.323500e-03
  vertex 1.911237e-03 3.005426e-03 2.971231e-03
  vertex 2.996499e-03 2.375724e-03 2.658621e-03
 endloop
endfacet
facet normal -1.911863e-01 1.945039e-01 9.620894e-01
 outer loop
  vertex -4.797550e-04 -2.661829e-03 -3.043346e-03
  vertex 3.958319e-04 -4.178089e-03 -2.562810e-03
  vertex 2.124316e-03 -3.362306e-03 -2.384251e-03
 endloop
endfacet
facet normal 3.242623e-01 4.508141e-01 8.316373e-01
 outer loop
  vertex -4.797550e-04 -2.661829e-03 -3.043346e-03
  vertex -1.793454e-03 -3.858316e-03 -1.882532e-03
  vertex 3.958319e-04 -4.178089e-03 -2.562810e-03
 endloop
endfacet
facet normal -1.227485e-01 -3.178288e-01 -9.401690e-01
 outer loop
  vertex 1.911237e-03 3.005426e-03 2.971231e-03
  vertex 2.033328e-03 1.916225e-03 3.323500e-03
  vertex 1.058212e-03 2.606817e-03 3.217353e-03
 endloop
endfacet
facet normal -9.483471e-02 -2.807090e-01 -9.550963e-01
 outer loop
  vertex 1.034295e-03 9.480628e-04 3.707247e-03
  vertex 1.058212e-03 2.606817e-03 3.217353e-03
  vertex 2.033328e-03 1.916225e-03 3.323500e-03
 endloop
endfacet
facet normal 3.678632e-01 4.071704e-01 8.359958e-01
 outer loop
  vertex -2.213317e-03 -2.053702e-03 -2.576714e-03
  vertex -1.793454e-03 -3.858316e-03 -1.882532e-03
  vertex -4.797550e-04 -2.661829e-03 -3.043346e-03
 endloop
endfacet
facet normal 7.123656e-01 3.245546e-01 6.222536e-01
 outer loop
  vertex -3.126812e-03 -2.416532e-03 -1.341686e-03
  vertex -2.213317e-03 -2.053702e-03 -2.576714e-03
  vertex -3.466750e-03 -1.020454e-03 -1.680685e-03
 endloop
endfacet
facet normal 6.788729e-01 3.958358e-01 6.184218e-01
 outer loop
  vertex -1.793454e-03 -3.858316e-03 -1.882532e-03
  vertex -2.213317e-03 -2.053702e-03 -2.576714e-03
  vertex -3.126812e-03 -2.416532e-03 -1.341686e-03
 endloop
endfacet
facet normal 5.799431e-01 -2.711915e-02 -8.142055e-01
 outer loop
  vertex -2.651666e-03 2.295474e-04 3.213231e-03
  vertex -1.988239e-03 2.087845e-03 3.623882e-03
  vertex -1.109381e-03 9.799165e-04 4.286778e-03
 endloop
endfacet
facet normal -2.132170e-01 -6.206102e-01 -7.545737e-01
 outer loop
  vertex 1.034295e-03 9.480628e-04 3.707247e-03
  vertex -1.109381e-03 9.799165e-04 4.286778e-03
  vertex -1.988239e-03 2.087845e-03 3.623882e-03
 endloop
endfacet
facet normal 8.026992e-01 3.179691e-01 5.045489e-01
 outer loop
  vertex -3.466750e-03 -1.020454e-03 -1.680685e-03
  vertex -4.111775e-03 -1.140433e-03 -5.788873e-04
  vertex -3.126812e-03 -2.416532e-03 -1.341686e-03
 endloop
endfacet
facet normal 4.290059e-01 4.619414e-02 -9.021197e-01
 outer loop
  vertex -2.651666e-03 2.295474e-04 3.213231e-03
  vertex -3.613568e-03 2.379863e-03 2.865905e-03
  vertex -1.988239e-03 2.087845e-03 3.623882e-03
 endloop
endfacet
facet normal 6.783208e-01 3.156080e-01 -6.635303e-01
 outer loop
  vertex -3.811727e-03 -2.191478e-04 1.813890e-03
  vertex -5.120223e-03 1.231608e-03 1.166278e-03
  vertex -2.651666e-03 2.295474e-04 3.213231e-03
 endloop
endfacet
facet normal 6.824917e-01 3.228563e-01 -6.557201e-01
 outer loop
  vertex -4.552007e-03 -6.569453e-04 8.278282e-04
  vertex -5.120223e-03 1.231608e-03 1.166278e-03
  vertex -3.811727e-03 -2.191478e-04 1.813890e-03
 endloop
endfacet
facet normal 7.161978e-01 6.977213e-01 -1.567266e-02
 outer loop
  vertex -4.552007e-03 -6.569453e-04 8.278282e-04
  vertex -4.111775e-03 -1.140433e-03 -5.788873e-04
  vertex -5.096507e-03 -1.194787e-04 -1.272217e-04
 endloop
endfacet
facet normal 5.569733e-01 1.163235e-01 -8.223440e-01
 outer loop
  vertex -3.613568e-03 2.379863e-03 2.865905e-03
  vertex -2.651666e-03 2.295474e-04 3.213231e-03
  vertex -4.511041e-03 1.879638e-03 2.187288e-03
 endloop
endfacet
facet normal 6.775092e-01 3.672016e-01 -6.372945e-01
 outer loop
  vertex -4.511041e-03 1.879638e-03 2.187288e-03
  vertex -2.651666e-03 2.295474e-04 3.213231e-03
  vertex -5.120223e-03 1.231608e-03 1.166278e-03
 endloop
endfacet
facet normal 5.252122e-01 3.006885e-01 -7.960770e-01
 outer loop
  vertex -5.592919e-03 3.458208e-04 5.198434e-04
  vertex -5.120223e-03 1.231608e-03 1.166278e-03
  vertex -4.552007e-03 -6.569453e-04 8.278282e-04
 endloop
endfacet
facet normal 6.919346e-01 7.218646e-01 1.174741e-02
 outer loop
  vertex -5.096507e-03 -1.194787e-04 -1.272217e-04
  vertex -5.592919e-03 3.458208e-04 5.198434e-04
  vertex -4.552007e-03 -6.569453e-04 8.278282e-04
 endloop
endfacet
facet normal -9.379376e-01 -4.393053e-02 3.440104e-01
 outer loop
  vertex 5.235493e-03 -2.117151e-03 -1.652427e-03
  vertex 5.555182e-03 -2.571582e-03 -8.388321e-04
  vertex 5.493057e-03 -9.779553e-04 -8.047062e-04
 endloop
endfacet
facet normal -9.962401e-01 -3.716085e-02 -7.826073e-02
 outer loop
  vertex 5.493057e-03 -9.779553e-04 -8.047062e-04
  vertex 5.555182e-03 -2.571582e-03 -8.388321e-04
  vertex 5.476175e-03 -2.220067e-03 0.000000e+00
 endloop
endfacet
facet normal -7.057444e-01 4.632279e-01 5.360455e-01
 outer loop
  vertex 5.555182e-03 -2.571582e-03 -8.388321e-04
  vertex 5.235493e-03 -2.117151e-03 -1.652427e-03
  vertex 4.740164e-03 -3.239353e-03 -1.334806e-03
 endloop
endfacet
facet normal -8.656447e-01 -2.638786e-01 -4.254731e-01
 outer loop
  vertex 5.476175e-03 -2.220067e-03 0.000000e+00
  vertex 4.870150e-03 -1.370532e-03 7.061026e-04
  vertex 5.493057e-03 -9.779553e-04 -8.047062e-04
 endloop
endfacet
facet normal -5.381011e-01 4.408450e-01 7.184030e-01
 outer loop
  vertex 4.166482e-03 -2.537843e-03 -2.194986e-03
  vertex 4.740164e-03 -3.239353e-03 -1.334806e-03
  vertex 5.235493e-03 -2.117151e-03 -1.652427e-03
 endloop
endfacet
facet normal -6.129536e-01 3.607140e-01 7.029746e-01
 outer loop
  vertex 4.740164e-03 -3.239353e-03 -1.334806e-03
  vertex 4.166482e-03 -2.537843e-03 -2.194986e-03
  vertex 3.751874e-03 -3.888480e-03 -1.863455e-03
 endloop
endfacet
facet normal 6.700249e-01 3.805409e-01 6.373816e-01
 outer loop
  vertex -3.071694e-03 -3.457898e-03 -7.778923e-04
  vertex -1.793454e-03 -3.858316e-03 -1.882532e-03
  vertex -3.126812e-03 -2.416532e-03 -1.341686e-03
 endloop
endfacet
facet normal 6.721105e-01 3.298183e-01 -6.629384e-01
 outer loop
  vertex -2.651666e-03 2.295474e-04 3.213231e-03
  vertex -3.431684e-03 -1.307830e-03 1.657561e-03
  vertex -3.811727e-03 -2.191478e-04 1.813890e-03
 endloop
endfacet
facet normal 8.327498e-01 4.973172e-01 2.433175e-01
 outer loop
  vertex -4.111775e-03 -1.140433e-03 -5.788873e-04
  vertex -3.641743e-03 -2.422469e-03 4.327911e-04
  vertex -3.126812e-03 -2.416532e-03 -1.341686e-03
 endloop
endfacet
facet normal 9.411819e-01 1.980406e-01 2.737818e-01
 outer loop
  vertex -3.126812e-03 -2.416532e-03 -1.341686e-03
  vertex -3.641743e-03 -2.422469e-03 4.327911e-04
  vertex -3.071694e-03 -3.457898e-03 -7.778923e-04
 endloop
endfacet
facet normal 6.782157e-01 3.309693e-01 -6.561119e-01
 outer loop
  vertex -3.431684e-03 -1.307830e-03 1.657561e-03
  vertex -4.552007e-03 -6.569453e-04 8.278282e-04
  vertex -3.811727e-03 -2.191478e-04 1.813890e-03
 endloop
endfacet
facet normal 8.927863e-01 4.309244e-01 1.312888e-01
 outer loop
  vertex -4.111775e-03 -1.140433e-03 -5.788873e-04
  vertex -4.552007e-03 -6.569453e-04 8.278282e-04
  vertex -3.641743e-03 -2.422469e-03 4.327911e-04
 endloop
endfacet
facet normal 6.850004e-01 4.764848e-01 -5.511231e-01
 outer loop
  vertex -3.431684e-03 -1.307830e-03 1.657561e-03
  vertex -3.641743e-03 -2.422469e-03 4.327911e-04
  vertex -4.552007e-03 -6.569453e-04 8.278282e-04
 endloop
endfacet
facet normal -6.523801e-01 1.517877e-01 -7.425367e-01
 outer loop
  vertex 4.870150e-03 -1.370532e-03 7.061026e-04
  vertex 5.476175e-03 -2.220067e-03 0.000000e+00
  vertex 4.407953e-03 -2.661256e-03 8.483346e-04
 endloop
endfacet
facet normal -7.650376e-01 5.650875e-01 -3.088586e-01
 outer loop
  vertex 5.555182e-03 -2.571582e-03 -8.388321e-04
  vertex 4.685033e-03 -3.331252e-03 -7.337836e-05
  vertex 5.476175e-03 -2.220067e-03 0.000000e+00
 endloop
endfacet
facet normal -5.547029e-01 8.312556e-01 3.631607e-02
 outer loop
  vertex 2.783771e-03 -4.596163e-03 -1.606977e-04
  vertex 4.685033e-03 -3.331252e-03 -7.337836e-05
  vertex 4.740164e-03 -3.239353e-03 -1.334806e-03
 endloop
endfacet
facet normal -6.435259e-01 7.649265e-01 2.760180e-02
 outer loop
  vertex 4.685033e-03 -3.331252e-03 -7.337836e-05
  vertex 5.555182e-03 -2.571582e-03 -8.388321e-04
  vertex 4.740164e-03 -3.239353e-03 -1.334806e-03
 endloop
endfacet
facet normal -5.587692e-01 8.288899e-01 2.680665e-02
 outer loop
  vertex 4.740164e-03 -3.239353e-03 -1.334806e-03
  vertex 3.751874e-03 -3.888480e-03 -1.863455e-03
  vertex 2.783771e-03 -4.596163e-03 -1.606977e-04
 endloop
endfacet
facet normal -6.057716e-01 1.304321e-01 -7.848747e-01
 outer loop
  vertex 4.870150e-03 -1.370532e-03 7.061026e-04
  vertex 4.407953e-03 -2.661256e-03 8.483346e-04
  vertex 3.734852e-03 -1.897406e-03 1.494777e-03
 endloop
endfacet
facet normal -8.071228e-02 5.638591e-01 8.219175e-01
 outer loop
  vertex 2.124316e-03 -3.362306e-03 -2.384251e-03
  vertex 2.930940e-03 -4.555376e-03 -1.486561e-03
  vertex 3.751874e-03 -3.888480e-03 -1.863455e-03
 endloop
endfacet
facet normal -6.331324e-01 2.899851e-01 -7.176712e-01
 outer loop
  vertex 4.870150e-03 -1.370532e-03 7.061026e-04
  vertex 3.734852e-03 -1.897406e-03 1.494777e-03
  vertex 3.614565e-03 -5.960156e-04 2.126739e-03
 endloop
endfacet
facet normal -6.026287e-01 3.028359e-01 -7.383285e-01
 outer loop
  vertex 3.734852e-03 -1.897406e-03 1.494777e-03
  vertex 2.781308e-03 -2.194237e-03 2.151316e-03
  vertex 3.614565e-03 -5.960156e-04 2.126739e-03
 endloop
endfacet
facet normal -6.007854e-01 4.032377e-01 -6.902581e-01
 outer loop
  vertex 2.781308e-03 -2.194237e-03 2.151316e-03
  vertex 3.734852e-03 -1.897406e-03 1.494777e-03
  vertex 3.081198e-03 -2.870260e-03 1.495377e-03
 endloop
endfacet
facet normal -2.058639e-01 6.207552e-01 7.564939e-01
 outer loop
  vertex 1.990567e-03 -4.868862e-03 -1.184416e-03
  vertex 2.124316e-03 -3.362306e-03 -2.384251e-03
  vertex 4.049788e-04 -4.965112e-03 -1.536921e-03
 endloop
endfacet
facet normal 4.505369e-02 6.198979e-01 7.833880e-01
 outer loop
  vertex 2.124316e-03 -3.362306e-03 -2.384251e-03
  vertex 1.990567e-03 -4.868862e-03 -1.184416e-03
  vertex 2.930940e-03 -4.555376e-03 -1.486561e-03
 endloop
endfacet
facet normal -4.002087e-01 7.253795e-01 5.600514e-01
 outer loop
  vertex 3.958319e-04 -4.178089e-03 -2.562810e-03
  vertex 4.049788e-04 -4.965112e-03 -1.536921e-03
  vertex 2.124316e-03 -3.362306e-03 -2.384251e-03
 endloop
endfacet
facet normal -5.685385e-01 -1.164899e-01 -8.143673e-01
 outer loop
  vertex 2.284630e-03 -2.033360e-03 3.260816e-03
  vertex 1.034295e-03 9.480628e-04 3.707247e-03
  vertex 3.614565e-03 -5.960156e-04 2.126739e-03
 endloop
endfacet
facet normal -8.068465e-01 4.141839e-01 -4.212487e-01
 outer loop
  vertex 2.284630e-03 -2.033360e-03 3.260816e-03
  vertex 3.614565e-03 -5.960156e-04 2.126739e-03
  vertex 2.781308e-03 -2.194237e-03 2.151316e-03
 endloop
endfacet
facet normal 2.914554e-01 7.602234e-01 5.806154e-01
 outer loop
  vertex 3.958319e-04 -4.178089e-03 -2.562810e-03
  vertex -1.793454e-03 -3.858316e-03 -1.882532e-03
  vertex 4.049788e-04 -4.965112e-03 -1.536921e-03
 endloop
endfacet
facet normal 2.861267e-01 7.532632e-01 5.922213e-01
 outer loop
  vertex -1.793454e-03 -3.858316e-03 -1.882532e-03
  vertex -1.204628e-03 -4.849656e-03 -9.061042e-04
  vertex 4.049788e-04 -4.965112e-03 -1.536921e-03
 endloop
endfacet
facet normal 5.992443e-01 7.135159e-01 3.630444e-01
 outer loop
  vertex -1.793454e-03 -3.858316e-03 -1.882532e-03
  vertex -2.308836e-03 -4.211788e-03 -3.371344e-04
  vertex -1.204628e-03 -4.849656e-03 -9.061042e-04
 endloop
endfacet
facet normal -2.423667e-01 -4.226623e-01 -8.732783e-01
 outer loop
  vertex 1.034295e-03 9.480628e-04 3.707247e-03
  vertex -4.477966e-04 -9.133158e-05 4.621643e-03
  vertex -1.109381e-03 9.799165e-04 4.286778e-03
 endloop
endfacet
facet normal 5.447280e-01 7.532993e-02 -8.352226e-01
 outer loop
  vertex -2.651666e-03 2.295474e-04 3.213231e-03
  vertex -1.109381e-03 9.799165e-04 4.286778e-03
  vertex -4.477966e-04 -9.133158e-05 4.621643e-03
 endloop
endfacet
facet normal 5.450402e-01 7.593341e-01 3.554475e-01
 outer loop
  vertex -1.793454e-03 -3.858316e-03 -1.882532e-03
  vertex -3.071694e-03 -3.457898e-03 -7.778923e-04
  vertex -2.308836e-03 -4.211788e-03 -3.371344e-04
 endloop
endfacet
facet normal 5.795446e-01 7.593677e-01 2.957851e-01
 outer loop
  vertex -3.231707e-03 -3.670459e-03 8.133434e-05
  vertex -2.308836e-03 -4.211788e-03 -3.371344e-04
  vertex -3.071694e-03 -3.457898e-03 -7.778923e-04
 endloop
endfacet
facet normal 6.875528e-01 2.593508e-01 -6.782391e-01
 outer loop
  vertex -2.651666e-03 2.295474e-04 3.213231e-03
  vertex -1.989474e-03 -1.640363e-03 3.169484e-03
  vertex -2.877897e-03 -1.970186e-03 2.142741e-03
 endloop
endfacet
facet normal 7.744988e-01 2.106219e-01 -5.964814e-01
 outer loop
  vertex -2.651666e-03 2.295474e-04 3.213231e-03
  vertex -2.877897e-03 -1.970186e-03 2.142741e-03
  vertex -3.431684e-03 -1.307830e-03 1.657561e-03
 endloop
endfacet
facet normal 8.179406e-01 3.486720e-01 -4.576035e-01
 outer loop
  vertex -3.431684e-03 -1.307830e-03 1.657561e-03
  vertex -2.877897e-03 -1.970186e-03 2.142741e-03
  vertex -3.641743e-03 -2.422469e-03 4.327911e-04
 endloop
endfacet
facet normal 9.410651e-01 2.429155e-01 2.353478e-01
 outer loop
  vertex -3.231707e-03 -3.670459e-03 8.133434e-05
  vertex -3.071694e-03 -3.457898e-03 -7.778923e-04
  vertex -3.641743e-03 -2.422469e-03 4.327911e-04
 endloop
endfacet
facet normal -6.551877e-01 5.036639e-01 -5.630734e-01
 outer loop
  vertex 4.685033e-03 -3.331252e-03 -7.337836e-05
  vertex 4.407953e-03 -2.661256e-03 8.483346e-04
  vertex 5.476175e-03 -2.220067e-03 0.000000e+00
 endloop
endfacet
facet normal -4.558263e-01 3.057507e-01 -8.359060e-01
 outer loop
  vertex 3.081198e-03 -2.870260e-03 1.495377e-03
  vertex 3.734852e-03 -1.897406e-03 1.494777e-03
  vertex 4.407953e-03 -2.661256e-03 8.483346e-04
 endloop
endfacet
facet normal -5.750601e-01 5.697970e-01 -5.870582e-01
 outer loop
  vertex 3.419905e-03 -3.692791e-03 8.149846e-04
  vertex 4.407953e-03 -2.661256e-03 8.483346e-04
  vertex 4.685033e-03 -3.331252e-03 -7.337836e-05
 endloop
endfacet
facet normal -4.473765e-01 4.534390e-01 -7.708744e-01
 outer loop
  vertex 3.081198e-03 -2.870260e-03 1.495377e-03
  vertex 4.407953e-03 -2.661256e-03 8.483346e-04
  vertex 3.419905e-03 -3.692791e-03 8.149846e-04
 endloop
endfacet
facet normal -4.968657e-01 7.739324e-01 -3.926234e-01
 outer loop
  vertex 3.419905e-03 -3.692791e-03 8.149846e-04
  vertex 4.685033e-03 -3.331252e-03 -7.337836e-05
  vertex 2.783771e-03 -4.596163e-03 -1.606977e-04
 endloop
endfacet
facet normal -6.429487e-01 7.644130e-01 -4.785089e-02
 outer loop
  vertex 3.751874e-03 -3.888480e-03 -1.863455e-03
  vertex 2.930940e-03 -4.555376e-03 -1.486561e-03
  vertex 2.783771e-03 -4.596163e-03 -1.606977e-04
 endloop
endfacet
facet normal -6.726624e-01 2.871280e-01 -6.819698e-01
 outer loop
  vertex 3.081198e-03 -2.870260e-03 1.495377e-03
  vertex 3.419905e-03 -3.692791e-03 8.149846e-04
  vertex 2.273831e-03 -4.117031e-03 1.766800e-03
 endloop
endfacet
facet normal -3.180213e-01 9.480637e-01 -6.134896e-03
 outer loop
  vertex 2.783771e-03 -4.596163e-03 -1.606977e-04
  vertex 2.930940e-03 -4.555376e-03 -1.486561e-03
  vertex 1.990567e-03 -4.868862e-03 -1.184416e-03
 endloop
endfacet
facet normal -6.994545e-01 3.130808e-01 -6.424514e-01
 outer loop
  vertex 3.081198e-03 -2.870260e-03 1.495377e-03
  vertex 2.273831e-03 -4.117031e-03 1.766800e-03
  vertex 2.781308e-03 -2.194237e-03 2.151316e-03
 endloop
endfacet
facet normal -3.875201e-01 9.202111e-01 5.513397e-02
 outer loop
  vertex 1.017931e-03 -5.320342e-03 -4.853706e-04
  vertex 2.783771e-03 -4.596163e-03 -1.606977e-04
  vertex 1.990567e-03 -4.868862e-03 -1.184416e-03
 endloop
endfacet
facet normal -1.419474e-01 9.097748e-01 3.900779e-01
 outer loop
  vertex 1.017931e-03 -5.320342e-03 -4.853706e-04
  vertex 1.990567e-03 -4.868862e-03 -1.184416e-03
  vertex 4.049788e-04 -4.965112e-03 -1.536921e-03
 endloop
endfacet
facet normal 2.216742e-02 9.510158e-01 3.083466e-01
 outer loop
  vertex -2.150583e-04 -5.302583e-03 -4.515017e-04
  vertex 1.017931e-03 -5.320342e-03 -4.853706e-04
  vertex 4.049788e-04 -4.965112e-03 -1.536921e-03
 endloop
endfacet
facet normal -7.609658e-01 -1.464511e-01 -6.320468e-01
 outer loop
  vertex 1.034295e-03 9.480628e-04 3.707247e-03
  vertex 1.036083e-03 -1.845958e-03 4.352494e-03
  vertex 5.081792e-04 -8.289665e-04 4.752428e-03
 endloop
endfacet
facet normal 4.987135e-01 8.260286e-01 -2.626052e-01
 outer loop
  vertex -1.204628e-03 -4.849656e-03 -9.061042e-04
  vertex -9.931958e-04 -4.500963e-03 5.922470e-04
  vertex -2.150583e-04 -5.302583e-03 -4.515017e-04
 endloop
endfacet
facet normal 2.215155e-01 8.881361e-01 4.026725e-01
 outer loop
  vertex 4.049788e-04 -4.965112e-03 -1.536921e-03
  vertex -1.204628e-03 -4.849656e-03 -9.061042e-04
  vertex -2.150583e-04 -5.302583e-03 -4.515017e-04
 endloop
endfacet
facet normal -2.238988e-01 -4.440018e-01 -8.676012e-01
 outer loop
  vertex 5.081792e-04 -8.289665e-04 4.752428e-03
  vertex -4.477966e-04 -9.133158e-05 4.621643e-03
  vertex 1.034295e-03 9.480628e-04 3.707247e-03
 endloop
endfacet
facet normal 2.150646e-01 4.520633e-01 -8.656708e-01
 outer loop
  vertex -5.427803e-04 -1.258660e-03 4.266940e-03
  vertex 5.081792e-04 -8.289665e-04 4.752428e-03
  vertex 1.036083e-03 -1.845958e-03 4.352494e-03
 endloop
endfacet
facet normal 3.191766e-01 2.516561e-01 -9.136715e-01
 outer loop
  vertex -5.427803e-04 -1.258660e-03 4.266940e-03
  vertex -4.477966e-04 -9.133158e-05 4.621643e-03
  vertex 5.081792e-04 -8.289665e-04 4.752428e-03
 endloop
endfacet
facet normal 5.308981e-01 4.757381e-01 -7.012991e-01
 outer loop
  vertex 2.196493e-04 -2.666593e-03 3.889020e-03
  vertex -1.044965e-03 -2.417080e-03 3.100942e-03
  vertex -5.427803e-04 -1.258660e-03 4.266940e-03
 endloop
endfacet
facet normal 1.778509e-01 3.438074e-01 -9.220442e-01
 outer loop
  vertex 2.196493e-04 -2.666593e-03 3.889020e-03
  vertex -5.427803e-04 -1.258660e-03 4.266940e-03
  vertex 1.036083e-03 -1.845958e-03 4.352494e-03
 endloop
endfacet
facet normal 5.687779e-01 5.995936e-01 -5.630090e-01
 outer loop
  vertex -1.846840e-04 -3.826499e-03 2.469035e-03
  vertex -1.237307e-03 -3.326483e-03 1.938133e-03
  vertex -1.044965e-03 -2.417080e-03 3.100942e-03
 endloop
endfacet
facet normal 5.074264e-01 5.909119e-01 -6.271694e-01
 outer loop
  vertex -1.846840e-04 -3.826499e-03 2.469035e-03
  vertex -1.044965e-03 -2.417080e-03 3.100942e-03
  vertex 2.196493e-04 -2.666593e-03 3.889020e-03
 endloop
endfacet
facet normal 5.624479e-01 6.708217e-01 -4.833743e-01
 outer loop
  vertex -1.846840e-04 -3.826499e-03 2.469035e-03
  vertex -9.931958e-04 -4.500963e-03 5.922470e-04
  vertex -1.237307e-03 -3.326483e-03 1.938133e-03
 endloop
endfacet
facet normal 3.263591e-01 7.407319e-01 -5.872019e-01
 outer loop
  vertex -2.450327e-03 -3.279315e-03 1.323453e-03
  vertex -1.237307e-03 -3.326483e-03 1.938133e-03
  vertex -9.931958e-04 -4.500963e-03 5.922470e-04
 endloop
endfacet
facet normal 4.596586e-01 7.905102e-01 -4.047315e-01
 outer loop
  vertex -2.308836e-03 -4.211788e-03 -3.371344e-04
  vertex -2.450327e-03 -3.279315e-03 1.323453e-03
  vertex -9.931958e-04 -4.500963e-03 5.922470e-04
 endloop
endfacet
facet normal 3.789730e-01 8.880883e-01 -2.601511e-01
 outer loop
  vertex -9.931958e-04 -4.500963e-03 5.922470e-04
  vertex -1.204628e-03 -4.849656e-03 -9.061042e-04
  vertex -2.308836e-03 -4.211788e-03 -3.371344e-04
 endloop
endfacet
facet normal 5.481061e-01 2.020264e-01 -8.116434e-01
 outer loop
  vertex -2.651666e-03 2.295474e-04 3.213231e-03
  vertex -4.477966e-04 -9.133158e-05 4.621643e-03
  vertex -5.427803e-04 -1.258660e-03 4.266940e-03
 endloop
endfacet
facet normal 5.536375e-01 2.148825e-01 -8.045564e-01
 outer loop
  vertex -5.427803e-04 -1.258660e-03 4.266940e-03
  vertex -1.989474e-03 -1.640363e-03 3.169484e-03
  vertex -2.651666e-03 2.295474e-04 3.213231e-03
 endloop
endfacet
facet normal 4.043558e-01 5.558050e-01 -7.263451e-01
 outer loop
  vertex -5.427803e-04 -1.258660e-03 4.266940e-03
  vertex -1.044965e-03 -2.417080e-03 3.100942e-03
  vertex -1.989474e-03 -1.640363e-03 3.169484e-03
 endloop
endfacet
facet normal 3.387413e-01 7.131334e-01 -6.137549e-01
 outer loop
  vertex -2.450327e-03 -3.279315e-03 1.323453e-03
  vertex -1.044965e-03 -2.417080e-03 3.100942e-03
  vertex -1.237307e-03 -3.326483e-03 1.938133e-03
 endloop
endfacet
facet normal 4.524666e-01 6.077992e-01 -6.525750e-01
 outer loop
  vertex -1.989474e-03 -1.640363e-03 3.169484e-03
  vertex -1.044965e-03 -2.417080e-03 3.100942e-03
  vertex -2.450327e-03 -3.279315e-03 1.323453e-03
 endloop
endfacet
facet normal 2.915761e-01 8.444406e-01 -4.493367e-01
 outer loop
  vertex -2.308836e-03 -4.211788e-03 -3.371344e-04
  vertex -3.231707e-03 -3.670459e-03 8.133434e-05
  vertex -2.450327e-03 -3.279315e-03 1.323453e-03
 endloop
endfacet
facet normal 5.230524e-01 5.683281e-01 -6.351530e-01
 outer loop
  vertex -2.877897e-03 -1.970186e-03 2.142741e-03
  vertex -1.989474e-03 -1.640363e-03 3.169484e-03
  vertex -2.450327e-03 -3.279315e-03 1.323453e-03
 endloop
endfacet
facet normal 7.187376e-01 5.220995e-01 -4.591606e-01
 outer loop
  vertex -2.450327e-03 -3.279315e-03 1.323453e-03
  vertex -3.641743e-03 -2.422469e-03 4.327911e-04
  vertex -2.877897e-03 -1.970186e-03 2.142741e-03
 endloop
endfacet
facet normal 7.153694e-01 3.969778e-01 -5.750263e-01
 outer loop
  vertex -3.641743e-03 -2.422469e-03 4.327911e-04
  vertex -2.450327e-03 -3.279315e-03 1.323453e-03
  vertex -3.231707e-03 -3.670459e-03 8.133434e-05
 endloop
endfacet
facet normal -5.596883e-01 7.573805e-01 -3.363387e-01
 outer loop
  vertex 3.419905e-03 -3.692791e-03 8.149846e-04
  vertex 2.783771e-03 -4.596163e-03 -1.606977e-04
  vertex 2.273831e-03 -4.117031e-03 1.766800e-03
 endloop
endfacet
facet normal -8.832308e-01 1.996169e-01 -4.243307e-01
 outer loop
  vertex 2.284630e-03 -2.033360e-03 3.260816e-03
  vertex 2.781308e-03 -2.194237e-03 2.151316e-03
  vertex 2.277959e-03 -3.347122e-03 2.656671e-03
 endloop
endfacet
facet normal -9.228001e-01 2.934718e-01 -2.496284e-01
 outer loop
  vertex 2.277959e-03 -3.347122e-03 2.656671e-03
  vertex 2.781308e-03 -2.194237e-03 2.151316e-03
  vertex 2.273831e-03 -4.117031e-03 1.766800e-03
 endloop
endfacet
facet normal -3.486826e-01 9.230563e-01 -1.624424e-01
 outer loop
  vertex 2.783771e-03 -4.596163e-03 -1.606977e-04
  vertex 1.017931e-03 -5.320342e-03 -4.853706e-04
  vertex 5.404554e-04 -5.208764e-03 1.173560e-03
 endloop
endfacet
facet normal -6.630215e-01 -1.688501e-01 -7.293094e-01
 outer loop
  vertex 1.034295e-03 9.480628e-04 3.707247e-03
  vertex 2.284630e-03 -2.033360e-03 3.260816e-03
  vertex 1.036083e-03 -1.845958e-03 4.352494e-03
 endloop
endfacet
facet normal 1.262897e-02 9.979030e-01 -6.348330e-02
 outer loop
  vertex -2.150583e-04 -5.302583e-03 -4.515017e-04
  vertex 5.404554e-04 -5.208764e-03 1.173560e-03
  vertex 1.017931e-03 -5.320342e-03 -4.853706e-04
 endloop
endfacet
facet normal 5.108719e-01 7.151271e-01 -4.770777e-01
 outer loop
  vertex -1.846840e-04 -3.826499e-03 2.469035e-03
  vertex 5.404554e-04 -5.208764e-03 1.173560e-03
  vertex -9.931958e-04 -4.500963e-03 5.922470e-04
 endloop
endfacet
facet normal 4.867101e-01 8.294261e-01 -2.741634e-01
 outer loop
  vertex 5.404554e-04 -5.208764e-03 1.173560e-03
  vertex -2.150583e-04 -5.302583e-03 -4.515017e-04
  vertex -9.931958e-04 -4.500963e-03 5.922470e-04
 endloop
endfacet
facet normal -5.710379e-01 3.453732e-01 -7.447369e-01
 outer loop
  vertex 1.634262e-03 -4.364353e-03 2.678493e-03
  vertex 2.284630e-03 -2.033360e-03 3.260816e-03
  vertex 2.277959e-03 -3.347122e-03 2.656671e-03
 endloop
endfacet
facet normal -7.737926e-01 4.808043e-01 -4.123982e-01
 outer loop
  vertex 2.273831e-03 -4.117031e-03 1.766800e-03
  vertex 1.634262e-03 -4.364353e-03 2.678493e-03
  vertex 2.277959e-03 -3.347122e-03 2.656671e-03
 endloop
endfacet
facet normal -7.464968e-01 5.721343e-01 -3.397129e-01
 outer loop
  vertex 2.783771e-03 -4.596163e-03 -1.606977e-04
  vertex 1.520449e-03 -5.239076e-03 1.532594e-03
  vertex 2.273831e-03 -4.117031e-03 1.766800e-03
 endloop
endfacet
facet normal -7.370608e-01 5.705121e-01 -3.622944e-01
 outer loop
  vertex 2.273831e-03 -4.117031e-03 1.766800e-03
  vertex 1.520449e-03 -5.239076e-03 1.532594e-03
  vertex 1.634262e-03 -4.364353e-03 2.678493e-03
 endloop
endfacet
facet normal -5.803720e-01 3.672897e-01 -7.268195e-01
 outer loop
  vertex 1.072788e-03 -3.617092e-03 3.428163e-03
  vertex 1.036083e-03 -1.845958e-03 4.352494e-03
  vertex 2.284630e-03 -2.033360e-03 3.260816e-03
 endloop
endfacet
facet normal -5.542179e-01 3.439858e-01 -7.579685e-01
 outer loop
  vertex 1.634262e-03 -4.364353e-03 2.678493e-03
  vertex 1.072788e-03 -3.617092e-03 3.428163e-03
  vertex 2.284630e-03 -2.033360e-03 3.260816e-03
 endloop
endfacet
facet normal 2.271778e-01 7.694980e-01 -5.968778e-01
 outer loop
  vertex 1.634262e-03 -4.364353e-03 2.678493e-03
  vertex 5.404554e-04 -5.208764e-03 1.173560e-03
  vertex 1.072788e-03 -3.617092e-03 3.428163e-03
 endloop
endfacet
facet normal 2.445987e-01 7.588625e-01 -6.035720e-01
 outer loop
  vertex 5.404554e-04 -5.208764e-03 1.173560e-03
  vertex 1.634262e-03 -4.364353e-03 2.678493e-03
  vertex 1.520449e-03 -5.239076e-03 1.532594e-03
 endloop
endfacet
facet normal -8.073130e-02 9.503299e-01 3.005919e-01
 outer loop
  vertex 5.404554e-04 -5.208764e-03 1.173560e-03
  vertex 1.520449e-03 -5.239076e-03 1.532594e-03
  vertex 2.783771e-03 -4.596163e-03 -1.606977e-04
 endloop
endfacet
facet normal 3.739810e-02 4.629542e-01 -8.855929e-01
 outer loop
  vertex 1.072788e-03 -3.617092e-03 3.428163e-03
  vertex 2.196493e-04 -2.666593e-03 3.889020e-03
  vertex 1.036083e-03 -1.845958e-03 4.352494e-03
 endloop
endfacet
facet normal 3.840151e-01 6.584973e-01 -6.472354e-01
 outer loop
  vertex 2.196493e-04 -2.666593e-03 3.889020e-03
  vertex 1.072788e-03 -3.617092e-03 3.428163e-03
  vertex -1.846840e-04 -3.826499e-03 2.469035e-03
 endloop
endfacet
facet normal 3.320095e-01 7.318844e-01 -5.950756e-01
 outer loop
  vertex 1.072788e-03 -3.617092e-03 3.428163e-03
  vertex 5.404554e-04 -5.208764e-03 1.173560e-03
  vertex -1.846840e-04 -3.826499e-03 2.469035e-03
 endloop
endfacet
endsolid 
