solid 
facet normal -4.388712e-01 2.236286e-01 8.702771e-01
 outer loop
  vertex 2.985933e-03 3.195234e-03 -5.113257e-03
  vertex 2.047685e-03 1.394351e-03 -5.123646e-03
  vertex 4.261676e-03 2.438256e-03 -4.275399e-03
 endloop
endfacet
facet normal 1.105026e-02 -1.152521e-02 9.998725e-01
 outer loop
  vertex 2.985933e-03 3.195234e-03 -5.113257e-03
  vertex 1.529133e-03 2.890804e-03 -5.100666e-03
  vertex 2.047685e-03 1.394351e-03 -5.123646e-03
 endloop
endfacet
facet normal 1.145170e-01 -5.128132e-01 8.508281e-01
 outer loop
  vertex 1.529133e-03 2.890804e-03 -5.100666e-03
  vertex 2.985933e-03 3.195234e-03 -5.113257e-03
  vertex 2.368513e-03 4.010872e-03 -4.538552e-03
 endloop
endfacet
facet normal 6.879613e-02 8.519901e-03 9.975944e-01
 outer loop
  vertex 2.047685e-03 1.394351e-03 -5.123646e-03
  vertex 1.529133e-03 2.890804e-03 -5.100666e-03
  vertex 1.054886e-03 1.894961e-03 -5.059456e-03
 endloop
endfacet
facet normal 4.141173e-01 3.350531e-01 8.463133e-01
 outer loop
  vertex 2.047685e-03 1.394351e-03 -5.123646e-03
  vertex 9.480697e-04 8.901515e-04 -4.385972e-03
  vertex 1.732055e-03 -2.544633e-04 -4.316441e-03
 endloop
endfacet
facet normal -2.642598e-01 1.037910e-01 9.588505e-01
 outer loop
  vertex 4.527941e-03 1.056271e-03 -4.327264e-03
  vertex 3.130741e-03 2.632450e-04 -4.626492e-03
  vertex 4.457779e-03 -5.640924e-04 -4.171204e-03
 endloop
endfacet
facet normal -1.708632e-01 -6.980455e-02 9.828190e-01
 outer loop
  vertex 4.261676e-03 2.438256e-03 -4.275399e-03
  vertex 3.130741e-03 2.632450e-04 -4.626492e-03
  vertex 4.527941e-03 1.056271e-03 -4.327264e-03
 endloop
endfacet
facet normal -5.497923e-02 4.122637e-01 9.094041e-01
 outer loop
  vertex 4.457779e-03 -5.640924e-04 -4.171204e-03
  vertex 3.130741e-03 2.632450e-04 -4.626492e-03
  vertex 3.030398e-03 -1.417962e-03 -3.870410e-03
 endloop
endfacet
facet normal -6.378464e-01 -2.814984e-01 7.168756e-01
 outer loop
  vertex 3.998141e-03 4.037269e-03 -3.881991e-03
  vertex 2.985933e-03 3.195234e-03 -5.113257e-03
  vertex 4.261676e-03 2.438256e-03 -4.275399e-03
 endloop
endfacet
facet normal -3.763606e-01 4.632994e-02 9.253141e-01
 outer loop
  vertex 4.261676e-03 2.438256e-03 -4.275399e-03
  vertex 2.047685e-03 1.394351e-03 -5.123646e-03
  vertex 3.130741e-03 2.632450e-04 -4.626492e-03
 endloop
endfacet
facet normal 3.921322e-02 4.332981e-01 9.003972e-01
 outer loop
  vertex 3.130741e-03 2.632450e-04 -4.626492e-03
  vertex 2.047685e-03 1.394351e-03 -5.123646e-03
  vertex 1.732055e-03 -2.544633e-04 -4.316441e-03
 endloop
endfacet
facet normal 5.148815e-02 4.070548e-01 9.119514e-01
 outer loop
  vertex 3.130741e-03 2.632450e-04 -4.626492e-03
  vertex 1.732055e-03 -2.544633e-04 -4.316441e-03
  vertex 3.030398e-03 -1.417962e-03 -3.870410e-03
 endloop
endfacet
facet normal -2.641022e-01 -6.810978e-01 6.829025e-01
 outer loop
  vertex 3.998141e-03 4.037269e-03 -3.881991e-03
  vertex 2.368513e-03 4.010872e-03 -4.538552e-03
  vertex 2.985933e-03 3.195234e-03 -5.113257e-03
 endloop
endfacet
facet normal 3.916093e-01 -8.341654e-01 3.883429e-01
 outer loop
  vertex 2.552404e-03 4.876091e-03 -2.865489e-03
  vertex 8.662946e-04 3.656580e-03 -3.784722e-03
  vertex 2.368513e-03 4.010872e-03 -4.538552e-03
 endloop
endfacet
facet normal 4.580566e-01 -6.484243e-01 6.080543e-01
 outer loop
  vertex 1.529133e-03 2.890804e-03 -5.100666e-03
  vertex 2.368513e-03 4.010872e-03 -4.538552e-03
  vertex 8.662946e-04 3.656580e-03 -3.784722e-03
 endloop
endfacet
facet normal 7.953311e-01 -3.585314e-01 4.887778e-01
 outer loop
  vertex 6.061908e-04 2.097721e-03 -4.180617e-03
  vertex 1.054886e-03 1.894961e-03 -5.059456e-03
  vertex 1.529133e-03 2.890804e-03 -5.100666e-03
 endloop
endfacet
facet normal 7.864893e-01 -2.720433e-01 5.544610e-01
 outer loop
  vertex 6.061908e-04 2.097721e-03 -4.180617e-03
  vertex 1.529133e-03 2.890804e-03 -5.100666e-03
  vertex 8.662946e-04 3.656580e-03 -3.784722e-03
 endloop
endfacet
facet normal 8.921116e-01 1.822638e-01 4.134209e-01
 outer loop
  vertex 1.054886e-03 1.894961e-03 -5.059456e-03
  vertex 6.061908e-04 2.097721e-03 -4.180617e-03
  vertex 9.480697e-04 8.901515e-04 -4.385972e-03
 endloop
endfacet
facet normal 3.076932e-01 5.069682e-01 8.051759e-01
 outer loop
  vertex 1.054886e-03 1.894961e-03 -5.059456e-03
  vertex 9.480697e-04 8.901515e-04 -4.385972e-03
  vertex 2.047685e-03 1.394351e-03 -5.123646e-03
 endloop
endfacet
facet normal -7.722467e-01 2.595748e-01 5.798758e-01
 outer loop
  vertex 5.706374e-03 -8.221368e-04 -3.491916e-03
  vertex 5.818648e-03 -2.171885e-03 -2.738196e-03
  vertex 6.627654e-03 5.600602e-04 -2.883731e-03
 endloop
endfacet
facet normal -4.857084e-01 3.950320e-01 7.797673e-01
 outer loop
  vertex 4.840867e-03 -1.750053e-03 -3.560946e-03
  vertex 5.818648e-03 -2.171885e-03 -2.738196e-03
  vertex 5.706374e-03 -8.221368e-04 -3.491916e-03
 endloop
endfacet
facet normal -7.019480e-01 -2.798921e-01 6.549271e-01
 outer loop
  vertex 5.456991e-03 1.550646e-03 -3.715102e-03
  vertex 6.627654e-03 5.600602e-04 -2.883731e-03
  vertex 5.879879e-03 2.245670e-03 -2.964824e-03
 endloop
endfacet
facet normal -5.986151e-01 -3.582109e-02 8.002355e-01
 outer loop
  vertex 5.443292e-03 4.194596e-04 -3.775985e-03
  vertex 6.627654e-03 5.600602e-04 -2.883731e-03
  vertex 5.456991e-03 1.550646e-03 -3.715102e-03
 endloop
endfacet
facet normal -4.584717e-01 1.047673e-01 8.825121e-01
 outer loop
  vertex 5.706374e-03 -8.221368e-04 -3.491916e-03
  vertex 5.443292e-03 4.194596e-04 -3.775985e-03
  vertex 4.457779e-03 -5.640924e-04 -4.171204e-03
 endloop
endfacet
facet normal -6.049041e-01 5.360134e-02 7.944923e-01
 outer loop
  vertex 6.627654e-03 5.600602e-04 -2.883731e-03
  vertex 5.443292e-03 4.194596e-04 -3.775985e-03
  vertex 5.706374e-03 -8.221368e-04 -3.491916e-03
 endloop
endfacet
facet normal -4.033900e-01 3.122745e-01 8.600937e-01
 outer loop
  vertex 5.706374e-03 -8.221368e-04 -3.491916e-03
  vertex 4.457779e-03 -5.640924e-04 -4.171204e-03
  vertex 4.840867e-03 -1.750053e-03 -3.560946e-03
 endloop
endfacet
facet normal -2.874405e-01 6.695547e-01 6.848901e-01
 outer loop
  vertex 3.992428e-03 -2.451480e-03 -3.231305e-03
  vertex 5.818648e-03 -2.171885e-03 -2.738196e-03
  vertex 4.840867e-03 -1.750053e-03 -3.560946e-03
 endloop
endfacet
facet normal -5.820686e-01 -4.936365e-01 6.461573e-01
 outer loop
  vertex 4.261676e-03 2.438256e-03 -4.275399e-03
  vertex 5.879879e-03 2.245670e-03 -2.964824e-03
  vertex 5.313882e-03 3.593735e-03 -2.444819e-03
 endloop
endfacet
facet normal -6.089142e-01 -3.807250e-01 6.958965e-01
 outer loop
  vertex 5.456991e-03 1.550646e-03 -3.715102e-03
  vertex 5.879879e-03 2.245670e-03 -2.964824e-03
  vertex 4.261676e-03 2.438256e-03 -4.275399e-03
 endloop
endfacet
facet normal -4.972856e-01 -1.280150e-01 8.580904e-01
 outer loop
  vertex 5.456991e-03 1.550646e-03 -3.715102e-03
  vertex 4.261676e-03 2.438256e-03 -4.275399e-03
  vertex 4.527941e-03 1.056271e-03 -4.327264e-03
 endloop
endfacet
facet normal -5.352643e-01 -3.893232e-02 8.437869e-01
 outer loop
  vertex 5.456991e-03 1.550646e-03 -3.715102e-03
  vertex 4.527941e-03 1.056271e-03 -4.327264e-03
  vertex 5.443292e-03 4.194596e-04 -3.775985e-03
 endloop
endfacet
facet normal -4.585342e-01 1.048468e-01 8.824701e-01
 outer loop
  vertex 5.443292e-03 4.194596e-04 -3.775985e-03
  vertex 4.527941e-03 1.056271e-03 -4.327264e-03
  vertex 4.457779e-03 -5.640924e-04 -4.171204e-03
 endloop
endfacet
facet normal -7.291970e-02 4.376047e-01 8.962058e-01
 outer loop
  vertex 3.030398e-03 -1.417962e-03 -3.870410e-03
  vertex 4.840867e-03 -1.750053e-03 -3.560946e-03
  vertex 4.457779e-03 -5.640924e-04 -4.171204e-03
 endloop
endfacet
facet normal -6.054863e-02 4.836020e-01 8.731913e-01
 outer loop
  vertex 3.992428e-03 -2.451480e-03 -3.231305e-03
  vertex 4.840867e-03 -1.750053e-03 -3.560946e-03
  vertex 3.030398e-03 -1.417962e-03 -3.870410e-03
 endloop
endfacet
facet normal 1.654103e-01 6.254837e-01 7.625022e-01
 outer loop
  vertex 2.435262e-03 -2.507968e-03 -2.847171e-03
  vertex 3.992428e-03 -2.451480e-03 -3.231305e-03
  vertex 3.030398e-03 -1.417962e-03 -3.870410e-03
 endloop
endfacet
facet normal -7.501134e-01 -2.719375e-01 6.028099e-01
 outer loop
  vertex 5.313882e-03 3.593735e-03 -2.444819e-03
  vertex 3.998141e-03 4.037269e-03 -3.881991e-03
  vertex 4.261676e-03 2.438256e-03 -4.275399e-03
 endloop
endfacet
facet normal -2.264633e-01 -8.845293e-01 4.078264e-01
 outer loop
  vertex 3.998141e-03 4.037269e-03 -3.881991e-03
  vertex 4.458220e-03 4.576301e-03 -2.457414e-03
  vertex 2.552404e-03 4.876091e-03 -2.865489e-03
 endloop
endfacet
facet normal 5.433798e-01 3.974603e-01 7.394347e-01
 outer loop
  vertex 3.030398e-03 -1.417962e-03 -3.870410e-03
  vertex 1.110305e-03 -5.224168e-04 -2.940787e-03
  vertex 2.435262e-03 -2.507968e-03 -2.847171e-03
 endloop
endfacet
facet normal 5.372784e-01 7.485298e-01 3.886323e-01
 outer loop
  vertex 1.110305e-03 -5.224168e-04 -2.940787e-03
  vertex 3.030398e-03 -1.417962e-03 -3.870410e-03
  vertex 1.732055e-03 -2.544633e-04 -4.316441e-03
 endloop
endfacet
facet normal -1.742607e-01 -8.667157e-01 4.673726e-01
 outer loop
  vertex 3.998141e-03 4.037269e-03 -3.881991e-03
  vertex 2.552404e-03 4.876091e-03 -2.865489e-03
  vertex 2.368513e-03 4.010872e-03 -4.538552e-03
 endloop
endfacet
facet normal 7.311457e-01 5.270967e-01 4.331225e-01
 outer loop
  vertex 1.110305e-03 -5.224168e-04 -2.940787e-03
  vertex 1.732055e-03 -2.544633e-04 -4.316441e-03
  vertex 9.480697e-04 8.901515e-04 -4.385972e-03
 endloop
endfacet
facet normal 1.930699e-01 -7.467184e-01 6.365026e-01
 outer loop
  vertex 7.400550e-04 4.512304e-03 -2.742530e-03
  vertex 8.662946e-04 3.656580e-03 -3.784722e-03
  vertex 2.552404e-03 4.876091e-03 -2.865489e-03
 endloop
endfacet
facet normal 6.508804e-01 -5.461792e-01 5.272978e-01
 outer loop
  vertex 8.662946e-04 3.656580e-03 -3.784722e-03
  vertex 7.400550e-04 4.512304e-03 -2.742530e-03
  vertex 8.154923e-06 3.670273e-03 -2.711278e-03
 endloop
endfacet
facet normal 8.055204e-01 -2.685542e-01 5.282192e-01
 outer loop
  vertex -2.458458e-04 2.123378e-03 -2.868239e-03
  vertex 6.061908e-04 2.097721e-03 -4.180617e-03
  vertex 8.662946e-04 3.656580e-03 -3.784722e-03
 endloop
endfacet
facet normal 7.659657e-01 -1.881479e-01 6.147332e-01
 outer loop
  vertex 8.154923e-06 3.670273e-03 -2.711278e-03
  vertex -2.458458e-04 2.123378e-03 -2.868239e-03
  vertex 8.662946e-04 3.656580e-03 -3.784722e-03
 endloop
endfacet
facet normal 9.591309e-01 2.485409e-01 1.352600e-01
 outer loop
  vertex 9.480697e-04 8.901515e-04 -4.385972e-03
  vertex 6.061908e-04 2.097721e-03 -4.180617e-03
  vertex 1.110305e-03 -5.224168e-04 -2.940787e-03
 endloop
endfacet
facet normal 7.775370e-01 3.849057e-01 4.972763e-01
 outer loop
  vertex 6.061908e-04 2.097721e-03 -4.180617e-03
  vertex -2.458458e-04 2.123378e-03 -2.868239e-03
  vertex 1.110305e-03 -5.224168e-04 -2.940787e-03
 endloop
endfacet
facet normal 3.825425e-02 -3.553484e-02 9.986360e-01
 outer loop
  vertex -2.631079e-03 1.818725e-03 -2.646789e-03
  vertex -3.641492e-03 3.728424e-04 -2.659533e-03
  vertex -2.416239e-03 4.824204e-04 -2.702569e-03
 endloop
endfacet
facet normal -7.150210e-01 1.857440e-01 6.739763e-01
 outer loop
  vertex 7.179650e-03 -1.268992e-03 -1.794043e-03
  vertex 7.491376e-03 4.614563e-04 -1.940234e-03
  vertex 6.627654e-03 5.600602e-04 -2.883731e-03
 endloop
endfacet
facet normal -6.536240e-01 2.319335e-01 7.204044e-01
 outer loop
  vertex 5.818648e-03 -2.171885e-03 -2.738196e-03
  vertex 7.179650e-03 -1.268992e-03 -1.794043e-03
  vertex 6.627654e-03 5.600602e-04 -2.883731e-03
 endloop
endfacet
facet normal -6.472725e-01 2.091986e-01 7.329900e-01
 outer loop
  vertex 5.818648e-03 -2.171885e-03 -2.738196e-03
  vertex 6.325699e-03 -3.015940e-03 -2.049544e-03
  vertex 7.179650e-03 -1.268992e-03 -1.794043e-03
 endloop
endfacet
facet normal -6.581301e-01 -5.156663e-01 5.485919e-01
 outer loop
  vertex 6.526332e-03 1.858758e-03 -1.784532e-03
  vertex 6.627654e-03 5.600602e-04 -2.883731e-03
  vertex 7.491376e-03 4.614563e-04 -1.940234e-03
 endloop
endfacet
facet normal -1.787445e-01 5.552977e-01 8.122160e-01
 outer loop
  vertex 6.325699e-03 -3.015940e-03 -2.049544e-03
  vertex 5.818648e-03 -2.171885e-03 -2.738196e-03
  vertex 5.024395e-03 -3.796365e-03 -1.802359e-03
 endloop
endfacet
facet normal -8.314754e-01 -4.658624e-01 3.026893e-01
 outer loop
  vertex 5.879879e-03 2.245670e-03 -2.964824e-03
  vertex 6.526332e-03 1.858758e-03 -1.784532e-03
  vertex 5.313882e-03 3.593735e-03 -2.444819e-03
 endloop
endfacet
facet normal -8.616850e-01 -3.653192e-01 3.521944e-01
 outer loop
  vertex 6.627654e-03 5.600602e-04 -2.883731e-03
  vertex 6.526332e-03 1.858758e-03 -1.784532e-03
  vertex 5.879879e-03 2.245670e-03 -2.964824e-03
 endloop
endfacet
facet normal -2.905801e-01 6.339584e-01 7.167008e-01
 outer loop
  vertex 3.849819e-03 -3.244331e-03 -2.587808e-03
  vertex 5.818648e-03 -2.171885e-03 -2.738196e-03
  vertex 3.992428e-03 -2.451480e-03 -3.231305e-03
 endloop
endfacet
facet normal -2.523865e-01 5.727092e-01 7.799393e-01
 outer loop
  vertex 5.024395e-03 -3.796365e-03 -1.802359e-03
  vertex 5.818648e-03 -2.171885e-03 -2.738196e-03
  vertex 3.849819e-03 -3.244331e-03 -2.587808e-03
 endloop
endfacet
facet normal 4.013966e-02 8.447353e-01 5.336770e-01
 outer loop
  vertex 3.120420e-03 -3.626074e-03 -1.928702e-03
  vertex 5.024395e-03 -3.796365e-03 -1.802359e-03
  vertex 3.849819e-03 -3.244331e-03 -2.587808e-03
 endloop
endfacet
facet normal 2.411179e-01 6.999666e-01 6.722417e-01
 outer loop
  vertex 2.435262e-03 -2.507968e-03 -2.847171e-03
  vertex 3.120420e-03 -3.626074e-03 -1.928702e-03
  vertex 3.849819e-03 -3.244331e-03 -2.587808e-03
 endloop
endfacet
facet normal 1.705336e-01 6.022786e-01 7.798582e-01
 outer loop
  vertex 2.435262e-03 -2.507968e-03 -2.847171e-03
  vertex 3.849819e-03 -3.244331e-03 -2.587808e-03
  vertex 3.992428e-03 -2.451480e-03 -3.231305e-03
 endloop
endfacet
facet normal -6.795399e-01 -5.861180e-01 4.412383e-01
 outer loop
  vertex 5.313882e-03 3.593735e-03 -2.444819e-03
  vertex 4.458220e-03 4.576301e-03 -2.457414e-03
  vertex 3.998141e-03 4.037269e-03 -3.881991e-03
 endloop
endfacet
facet normal -7.126165e-01 -6.246717e-01 -3.193164e-01
 outer loop
  vertex 5.313882e-03 3.593735e-03 -2.444819e-03
  vertex 4.289390e-03 3.856695e-03 -6.728890e-04
  vertex 4.458220e-03 4.576301e-03 -2.457414e-03
 endloop
endfacet
facet normal 4.661853e-01 7.143654e-01 5.218749e-01
 outer loop
  vertex 1.805850e-03 -2.908031e-03 -1.737300e-03
  vertex 3.120420e-03 -3.626074e-03 -1.928702e-03
  vertex 2.435262e-03 -2.507968e-03 -2.847171e-03
 endloop
endfacet
facet normal -6.422265e-02 -9.233977e-01 -3.784339e-01
 outer loop
  vertex 4.289390e-03 3.856695e-03 -6.728890e-04
  vertex 2.552404e-03 4.876091e-03 -2.865489e-03
  vertex 4.458220e-03 4.576301e-03 -2.457414e-03
 endloop
endfacet
facet normal 6.782949e-01 4.789011e-01 5.572878e-01
 outer loop
  vertex 2.435262e-03 -2.507968e-03 -2.847171e-03
  vertex 1.110305e-03 -5.224168e-04 -2.940787e-03
  vertex 1.805850e-03 -2.908031e-03 -1.737300e-03
 endloop
endfacet
facet normal 6.373051e-01 2.314286e-01 7.350395e-01
 outer loop
  vertex -1.539159e-04 -9.666306e-04 -1.704801e-03
  vertex 1.110305e-03 -5.224168e-04 -2.940787e-03
  vertex -8.154923e-06 3.902361e-04 -2.258393e-03
 endloop
endfacet
facet normal -6.455026e-01 -7.458048e-01 1.646256e-01
 outer loop
  vertex 2.552404e-03 4.876091e-03 -2.865489e-03
  vertex 4.289390e-03 3.856695e-03 -6.728890e-04
  vertex 2.154224e-03 5.498081e-03 -1.608962e-03
 endloop
endfacet
facet normal 6.718612e-01 3.261404e-01 6.650075e-01
 outer loop
  vertex -2.458458e-04 2.123378e-03 -2.868239e-03
  vertex -8.154923e-06 3.902361e-04 -2.258393e-03
  vertex 1.110305e-03 -5.224168e-04 -2.940787e-03
 endloop
endfacet
facet normal -5.604248e-01 1.268134e-01 8.184390e-01
 outer loop
  vertex -2.072562e-03 -3.342195e-03 -2.423423e-03
  vertex -1.582571e-03 -4.602097e-03 -1.892686e-03
  vertex -9.377884e-04 -2.732306e-03 -1.740888e-03
 endloop
endfacet
facet normal 3.508826e-01 5.039854e-01 7.892275e-01
 outer loop
  vertex -1.811608e-03 -5.839133e-03 -1.000911e-03
  vertex -1.582571e-03 -4.602097e-03 -1.892686e-03
  vertex -3.271941e-03 -5.049372e-03 -8.559880e-04
 endloop
endfacet
facet normal 9.393385e-02 -8.800920e-01 4.654187e-01
 outer loop
  vertex 2.154224e-03 5.498081e-03 -1.608962e-03
  vertex 1.011003e-03 5.200763e-03 -1.940450e-03
  vertex 2.552404e-03 4.876091e-03 -2.865489e-03
 endloop
endfacet
facet normal 1.964099e-01 -7.758365e-01 5.995839e-01
 outer loop
  vertex 2.552404e-03 4.876091e-03 -2.865489e-03
  vertex 1.011003e-03 5.200763e-03 -1.940450e-03
  vertex 7.400550e-04 4.512304e-03 -2.742530e-03
 endloop
endfacet
facet normal -1.329504e-02 3.302718e-01 9.437922e-01
 outer loop
  vertex -2.458458e-04 2.123378e-03 -2.868239e-03
  vertex -1.289046e-03 9.836739e-04 -2.484105e-03
  vertex -8.154923e-06 3.902361e-04 -2.258393e-03
 endloop
endfacet
facet normal 4.422211e-02 3.733160e-01 9.266497e-01
 outer loop
  vertex -1.539159e-04 -9.666306e-04 -1.704801e-03
  vertex -8.154923e-06 3.902361e-04 -2.258393e-03
  vertex -1.395196e-03 -1.127814e-04 -1.989551e-03
 endloop
endfacet
facet normal 2.859819e-02 4.086889e-01 9.122256e-01
 outer loop
  vertex -1.395196e-03 -1.127814e-04 -1.989551e-03
  vertex -8.154923e-06 3.902361e-04 -2.258393e-03
  vertex -1.289046e-03 9.836739e-04 -2.484105e-03
 endloop
endfacet
facet normal -1.206435e-01 -6.321203e-01 7.654208e-01
 outer loop
  vertex -2.072562e-03 -3.342195e-03 -2.423423e-03
  vertex -9.377884e-04 -2.732306e-03 -1.740888e-03
  vertex -2.847240e-03 -2.672534e-03 -1.992488e-03
 endloop
endfacet
facet normal -1.340998e-01 -1.898801e-01 9.726062e-01
 outer loop
  vertex -2.847240e-03 -2.672534e-03 -1.992488e-03
  vertex -9.377884e-04 -2.732306e-03 -1.740888e-03
  vertex -1.997357e-03 -1.442399e-03 -1.635152e-03
 endloop
endfacet
facet normal 5.587977e-02 4.059860e-01 9.121693e-01
 outer loop
  vertex -2.072562e-03 -3.342195e-03 -2.423423e-03
  vertex -3.001860e-03 -3.757145e-03 -2.181809e-03
  vertex -1.582571e-03 -4.602097e-03 -1.892686e-03
 endloop
endfacet
facet normal 3.320578e-01 -2.079349e-01 9.200547e-01
 outer loop
  vertex -2.072562e-03 -3.342195e-03 -2.423423e-03
  vertex -2.847240e-03 -2.672534e-03 -1.992488e-03
  vertex -3.001860e-03 -3.757145e-03 -2.181809e-03
 endloop
endfacet
facet normal 2.538485e-01 6.663092e-01 7.011370e-01
 outer loop
  vertex -3.271941e-03 -5.049372e-03 -8.559880e-04
  vertex -1.582571e-03 -4.602097e-03 -1.892686e-03
  vertex -3.001860e-03 -3.757145e-03 -2.181809e-03
 endloop
endfacet
facet normal 5.760622e-01 -7.062235e-01 4.115833e-01
 outer loop
  vertex -1.314732e-04 4.261226e-03 -1.953536e-03
  vertex 7.400550e-04 4.512304e-03 -2.742530e-03
  vertex 1.011003e-03 5.200763e-03 -1.940450e-03
 endloop
endfacet
facet normal 6.448929e-01 -5.404903e-01 5.403549e-01
 outer loop
  vertex 8.154923e-06 3.670273e-03 -2.711278e-03
  vertex 7.400550e-04 4.512304e-03 -2.742530e-03
  vertex -1.314732e-04 4.261226e-03 -1.953536e-03
 endloop
endfacet
facet normal 4.885991e-01 -6.420706e-01 5.907760e-01
 outer loop
  vertex -1.083180e-03 3.295171e-03 -2.216363e-03
  vertex 8.154923e-06 3.670273e-03 -2.711278e-03
  vertex -1.314732e-04 4.261226e-03 -1.953536e-03
 endloop
endfacet
facet normal 4.534858e-01 -1.633655e-01 8.761634e-01
 outer loop
  vertex -1.083180e-03 3.295171e-03 -2.216363e-03
  vertex -2.458458e-04 2.123378e-03 -2.868239e-03
  vertex 8.154923e-06 3.670273e-03 -2.711278e-03
 endloop
endfacet
facet normal 5.413984e-02 2.740718e-01 9.601841e-01
 outer loop
  vertex -2.458458e-04 2.123378e-03 -2.868239e-03
  vertex -2.631079e-03 1.818725e-03 -2.646789e-03
  vertex -1.289046e-03 9.836739e-04 -2.484105e-03
 endloop
endfacet
facet normal -3.469695e-01 4.133230e-01 8.418885e-01
 outer loop
  vertex -2.416239e-03 4.824204e-04 -2.702569e-03
  vertex -1.395196e-03 -1.127814e-04 -1.989551e-03
  vertex -1.289046e-03 9.836739e-04 -2.484105e-03
 endloop
endfacet
facet normal -1.610494e-01 -6.699418e-02 9.846699e-01
 outer loop
  vertex -1.289046e-03 9.836739e-04 -2.484105e-03
  vertex -2.631079e-03 1.818725e-03 -2.646789e-03
  vertex -2.416239e-03 4.824204e-04 -2.702569e-03
 endloop
endfacet
facet normal -2.859665e-01 4.934504e-01 8.214194e-01
 outer loop
  vertex -1.395196e-03 -1.127814e-04 -1.989551e-03
  vertex -2.416239e-03 4.824204e-04 -2.702569e-03
  vertex -2.801729e-03 -5.733472e-04 -2.202542e-03
 endloop
endfacet
facet normal 6.471208e-01 -2.196840e-01 7.300504e-01
 outer loop
  vertex -3.001860e-03 -3.757145e-03 -2.181809e-03
  vertex -2.847240e-03 -2.672534e-03 -1.992488e-03
  vertex -4.291129e-03 -3.144889e-03 -8.547560e-04
 endloop
endfacet
facet normal 7.430305e-01 3.972861e-01 5.385809e-01
 outer loop
  vertex -3.001860e-03 -3.757145e-03 -2.181809e-03
  vertex -4.291129e-03 -3.144889e-03 -8.547560e-04
  vertex -3.271941e-03 -5.049372e-03 -8.559880e-04
 endloop
endfacet
facet normal 1.357439e-01 -4.058035e-01 9.038236e-01
 outer loop
  vertex -1.083180e-03 3.295171e-03 -2.216363e-03
  vertex -2.631079e-03 1.818725e-03 -2.646789e-03
  vertex -2.458458e-04 2.123378e-03 -2.868239e-03
 endloop
endfacet
facet normal 1.037409e-01 -3.770714e-01 9.203559e-01
 outer loop
  vertex -2.631079e-03 1.818725e-03 -2.646789e-03
  vertex -1.083180e-03 3.295171e-03 -2.216363e-03
  vertex -2.437984e-03 3.407292e-03 -2.017716e-03
 endloop
endfacet
facet normal 1.469206e-01 5.328810e-01 8.333379e-01
 outer loop
  vertex -3.641492e-03 3.728424e-04 -2.659533e-03
  vertex -3.972515e-03 -7.770900e-04 -1.865844e-03
  vertex -2.801729e-03 -5.733472e-04 -2.202542e-03
 endloop
endfacet
facet normal -6.749894e-03 4.300372e-01 9.027859e-01
 outer loop
  vertex -3.641492e-03 3.728424e-04 -2.659533e-03
  vertex -2.801729e-03 -5.733472e-04 -2.202542e-03
  vertex -2.416239e-03 4.824204e-04 -2.702569e-03
 endloop
endfacet
facet normal 1.967742e-01 3.698268e-01 9.080243e-01
 outer loop
  vertex -3.518374e-03 -1.732732e-03 -1.575038e-03
  vertex -2.801729e-03 -5.733472e-04 -2.202542e-03
  vertex -3.972515e-03 -7.770900e-04 -1.865844e-03
 endloop
endfacet
facet normal 2.519575e-01 -6.527961e-01 7.144051e-01
 outer loop
  vertex -4.018144e-03 3.297556e-03 -1.560695e-03
  vertex -3.640729e-03 2.493814e-03 -2.428231e-03
  vertex -2.437984e-03 3.407292e-03 -2.017716e-03
 endloop
endfacet
facet normal -4.158231e-02 -3.634910e-01 9.306692e-01
 outer loop
  vertex -2.631079e-03 1.818725e-03 -2.646789e-03
  vertex -2.437984e-03 3.407292e-03 -2.017716e-03
  vertex -3.640729e-03 2.493814e-03 -2.428231e-03
 endloop
endfacet
facet normal 1.976106e-01 -1.466374e-01 9.692510e-01
 outer loop
  vertex -4.299345e-03 1.405302e-03 -2.369210e-03
  vertex -3.641492e-03 3.728424e-04 -2.659533e-03
  vertex -2.631079e-03 1.818725e-03 -2.646789e-03
 endloop
endfacet
facet normal 1.768308e-01 -5.370567e-02 9.827749e-01
 outer loop
  vertex -3.640729e-03 2.493814e-03 -2.428231e-03
  vertex -4.299345e-03 1.405302e-03 -2.369210e-03
  vertex -2.631079e-03 1.818725e-03 -2.646789e-03
 endloop
endfacet
facet normal 6.734013e-01 -3.728349e-01 6.383767e-01
 outer loop
  vertex -4.018144e-03 3.297556e-03 -1.560695e-03
  vertex -4.299345e-03 1.405302e-03 -2.369210e-03
  vertex -3.640729e-03 2.493814e-03 -2.428231e-03
 endloop
endfacet
facet normal -8.419746e-01 1.070012e-01 -5.288001e-01
 outer loop
  vertex 7.179650e-03 -1.268992e-03 -1.794043e-03
  vertex 6.571488e-03 -4.471088e-05 -5.779770e-04
  vertex 7.491376e-03 4.614563e-04 -1.940234e-03
 endloop
endfacet
facet normal -9.001323e-01 4.328922e-01 4.864287e-02
 outer loop
  vertex 6.268105e-03 -3.245107e-03 -1.075873e-03
  vertex 7.179650e-03 -1.268992e-03 -1.794043e-03
  vertex 6.325699e-03 -3.015940e-03 -2.049544e-03
 endloop
endfacet
facet normal -4.820498e-01 8.587710e-01 1.736096e-01
 outer loop
  vertex 6.268105e-03 -3.245107e-03 -1.075873e-03
  vertex 6.325699e-03 -3.015940e-03 -2.049544e-03
  vertex 5.024395e-03 -3.796365e-03 -1.802359e-03
 endloop
endfacet
facet normal -5.209935e-01 8.062943e-01 2.800988e-01
 outer loop
  vertex 5.314390e-03 -3.961018e-03 -7.889870e-04
  vertex 6.268105e-03 -3.245107e-03 -1.075873e-03
  vertex 5.024395e-03 -3.796365e-03 -1.802359e-03
 endloop
endfacet
facet normal -6.716722e-01 -4.079344e-01 -6.184221e-01
 outer loop
  vertex 6.526332e-03 1.858758e-03 -1.784532e-03
  vertex 6.571488e-03 -4.471088e-05 -5.779770e-04
  vertex 4.289390e-03 3.856695e-03 -6.728890e-04
 endloop
endfacet
facet normal -6.820036e-01 -4.030205e-01 -6.102832e-01
 outer loop
  vertex 6.571488e-03 -4.471088e-05 -5.779770e-04
  vertex 6.526332e-03 1.858758e-03 -1.784532e-03
  vertex 7.491376e-03 4.614563e-04 -1.940234e-03
 endloop
endfacet
facet normal 1.186880e-01 9.848968e-01 1.260615e-01
 outer loop
  vertex 5.314390e-03 -3.961018e-03 -7.889870e-04
  vertex 5.024395e-03 -3.796365e-03 -1.802359e-03
  vertex 3.869859e-03 -3.843930e-03 -3.437360e-04
 endloop
endfacet
facet normal -7.146225e-01 -6.215397e-01 -3.209411e-01
 outer loop
  vertex 5.313882e-03 3.593735e-03 -2.444819e-03
  vertex 6.526332e-03 1.858758e-03 -1.784532e-03
  vertex 4.289390e-03 3.856695e-03 -6.728890e-04
 endloop
endfacet
facet normal 8.224395e-02 9.918372e-01 9.744147e-02
 outer loop
  vertex 3.869859e-03 -3.843930e-03 -3.437360e-04
  vertex 5.024395e-03 -3.796365e-03 -1.802359e-03
  vertex 3.120420e-03 -3.626074e-03 -1.928702e-03
 endloop
endfacet
facet normal 4.658101e-01 8.792847e-01 -9.939532e-02
 outer loop
  vertex 1.805850e-03 -2.908031e-03 -1.737300e-03
  vertex 3.869859e-03 -3.843930e-03 -3.437360e-04
  vertex 3.120420e-03 -3.626074e-03 -1.928702e-03
 endloop
endfacet
facet normal 3.183728e-02 8.509274e-01 5.243177e-01
 outer loop
  vertex 1.805850e-03 -2.908031e-03 -1.737300e-03
  vertex 1.723623e-03 -3.548269e-03 -6.932500e-04
  vertex 3.869859e-03 -3.843930e-03 -3.437360e-04
 endloop
endfacet
facet normal -1.746567e-01 8.454463e-01 5.046935e-01
 outer loop
  vertex 1.723623e-03 -3.548269e-03 -6.932500e-04
  vertex 1.805850e-03 -2.908031e-03 -1.737300e-03
  vertex 5.766888e-04 -3.452583e-03 -1.250453e-03
 endloop
endfacet
facet normal 2.454188e-01 2.766816e-01 9.290947e-01
 outer loop
  vertex 1.805850e-03 -2.908031e-03 -1.737300e-03
  vertex 6.537530e-04 -2.074857e-03 -1.681092e-03
  vertex 5.766888e-04 -3.452583e-03 -1.250453e-03
 endloop
endfacet
facet normal 4.011924e-01 5.031223e-01 7.654493e-01
 outer loop
  vertex 1.805850e-03 -2.908031e-03 -1.737300e-03
  vertex 1.110305e-03 -5.224168e-04 -2.940787e-03
  vertex 6.537530e-04 -2.074857e-03 -1.681092e-03
 endloop
endfacet
facet normal -6.558895e-01 4.637059e-01 5.956390e-01
 outer loop
  vertex 1.261171e-04 -5.059919e-03 -4.952880e-04
  vertex 5.766888e-04 -3.452583e-03 -1.250453e-03
  vertex -2.770675e-04 -4.452430e-03 -1.412187e-03
 endloop
endfacet
facet normal 5.548194e-01 4.197171e-01 7.183404e-01
 outer loop
  vertex -1.539159e-04 -9.666306e-04 -1.704801e-03
  vertex 6.537530e-04 -2.074857e-03 -1.681092e-03
  vertex 1.110305e-03 -5.224168e-04 -2.940787e-03
 endloop
endfacet
facet normal -3.564688e-02 -4.599416e-03 9.993539e-01
 outer loop
  vertex -9.377884e-04 -2.732306e-03 -1.740888e-03
  vertex 6.537530e-04 -2.074857e-03 -1.681092e-03
  vertex -1.539159e-04 -9.666306e-04 -1.704801e-03
 endloop
endfacet
facet normal -1.603153e-01 3.026372e-01 9.395263e-01
 outer loop
  vertex -9.377884e-04 -2.732306e-03 -1.740888e-03
  vertex 5.766888e-04 -3.452583e-03 -1.250453e-03
  vertex 6.537530e-04 -2.074857e-03 -1.681092e-03
 endloop
endfacet
facet normal -2.732602e-01 7.824678e-02 9.587525e-01
 outer loop
  vertex 5.766888e-04 -3.452583e-03 -1.250453e-03
  vertex -9.377884e-04 -2.732306e-03 -1.740888e-03
  vertex -2.770675e-04 -4.452430e-03 -1.412187e-03
 endloop
endfacet
facet normal -3.495565e-01 4.456489e-02 9.358548e-01
 outer loop
  vertex -9.377884e-04 -2.732306e-03 -1.740888e-03
  vertex -1.582571e-03 -4.602097e-03 -1.892686e-03
  vertex -2.770675e-04 -4.452430e-03 -1.412187e-03
 endloop
endfacet
facet normal -3.813950e-01 -7.795075e-01 -4.968962e-01
 outer loop
  vertex 2.154224e-03 5.498081e-03 -1.608962e-03
  vertex 4.289390e-03 3.856695e-03 -6.728890e-04
  vertex 1.601490e-03 5.174409e-03 -6.769460e-04
 endloop
endfacet
facet normal 2.906297e-01 -9.441129e-01 -1.555156e-01
 outer loop
  vertex 2.154224e-03 5.498081e-03 -1.608962e-03
  vertex 1.601490e-03 5.174409e-03 -6.769460e-04
  vertex 1.011003e-03 5.200763e-03 -1.940450e-03
 endloop
endfacet
facet normal 3.243449e-01 -9.303572e-01 -1.709852e-01
 outer loop
  vertex 1.011003e-03 5.200763e-03 -1.940450e-03
  vertex 1.601490e-03 5.174409e-03 -6.769460e-04
  vertex 1.721989e-04 4.756797e-03 -1.115905e-03
 endloop
endfacet
facet normal -3.377193e-02 2.716553e-01 9.618019e-01
 outer loop
  vertex -1.539159e-04 -9.666306e-04 -1.704801e-03
  vertex -1.395196e-03 -1.127814e-04 -1.989551e-03
  vertex -1.997357e-03 -1.442399e-03 -1.635152e-03
 endloop
endfacet
facet normal 4.852849e-02 -4.194024e-02 9.979409e-01
 outer loop
  vertex -1.539159e-04 -9.666306e-04 -1.704801e-03
  vertex -1.997357e-03 -1.442399e-03 -1.635152e-03
  vertex -9.377884e-04 -2.732306e-03 -1.740888e-03
 endloop
endfacet
facet normal 6.177592e-01 -7.542907e-01 2.223039e-01
 outer loop
  vertex 1.011003e-03 5.200763e-03 -1.940450e-03
  vertex 1.721989e-04 4.756797e-03 -1.115905e-03
  vertex -1.314732e-04 4.261226e-03 -1.953536e-03
 endloop
endfacet
facet normal 4.217455e-01 -8.391099e-01 3.435480e-01
 outer loop
  vertex 1.721989e-04 4.756797e-03 -1.115905e-03
  vertex -1.047006e-03 4.140344e-03 -1.124864e-03
  vertex -1.314732e-04 4.261226e-03 -1.953536e-03
 endloop
endfacet
facet normal 5.436178e-01 -6.722648e-01 5.025333e-01
 outer loop
  vertex -1.047006e-03 4.140344e-03 -1.124864e-03
  vertex -1.083180e-03 3.295171e-03 -2.216363e-03
  vertex -1.314732e-04 4.261226e-03 -1.953536e-03
 endloop
endfacet
facet normal -2.523664e-01 3.542965e-01 9.004361e-01
 outer loop
  vertex -1.997357e-03 -1.442399e-03 -1.635152e-03
  vertex -1.395196e-03 -1.127814e-04 -1.989551e-03
  vertex -2.801729e-03 -5.733472e-04 -2.202542e-03
 endloop
endfacet
facet normal -6.227904e-02 5.045689e-01 8.611223e-01
 outer loop
  vertex -1.997357e-03 -1.442399e-03 -1.635152e-03
  vertex -2.801729e-03 -5.733472e-04 -2.202542e-03
  vertex -3.518374e-03 -1.732732e-03 -1.575038e-03
 endloop
endfacet
facet normal 1.021926e-01 -3.419580e-01 9.341421e-01
 outer loop
  vertex -3.518374e-03 -1.732732e-03 -1.575038e-03
  vertex -2.847240e-03 -2.672534e-03 -1.992488e-03
  vertex -1.997357e-03 -1.442399e-03 -1.635152e-03
 endloop
endfacet
facet normal 6.015674e-01 7.639071e-02 7.951610e-01
 outer loop
  vertex -4.291129e-03 -3.144889e-03 -8.547560e-04
  vertex -2.847240e-03 -2.672534e-03 -1.992488e-03
  vertex -3.518374e-03 -1.732732e-03 -1.575038e-03
 endloop
endfacet
facet normal 2.422156e-02 -7.908308e-01 6.115553e-01
 outer loop
  vertex -1.047006e-03 4.140344e-03 -1.124864e-03
  vertex -2.437984e-03 3.407292e-03 -2.017716e-03
  vertex -1.083180e-03 3.295171e-03 -2.216363e-03
 endloop
endfacet
facet normal -4.467828e-02 -7.368516e-01 6.745766e-01
 outer loop
  vertex -2.437984e-03 3.407292e-03 -2.017716e-03
  vertex -1.047006e-03 4.140344e-03 -1.124864e-03
  vertex -2.442324e-03 4.180779e-03 -1.173110e-03
 endloop
endfacet
facet normal 7.057671e-01 -2.508642e-02 7.079996e-01
 outer loop
  vertex -3.518374e-03 -1.732732e-03 -1.575038e-03
  vertex -4.648287e-03 -1.424654e-03 -4.377720e-04
  vertex -4.291129e-03 -3.144889e-03 -8.547560e-04
 endloop
endfacet
facet normal 6.813102e-01 4.894134e-01 5.443261e-01
 outer loop
  vertex -3.972515e-03 -7.770900e-04 -1.865844e-03
  vertex -4.648287e-03 -1.424654e-03 -4.377720e-04
  vertex -3.518374e-03 -1.732732e-03 -1.575038e-03
 endloop
endfacet
facet normal 6.512490e-01 2.950821e-01 6.991433e-01
 outer loop
  vertex -3.641492e-03 3.728424e-04 -2.659533e-03
  vertex -4.813674e-03 4.370123e-05 -1.428733e-03
  vertex -3.972515e-03 -7.770900e-04 -1.865844e-03
 endloop
endfacet
facet normal 7.146078e-01 4.448347e-01 5.398684e-01
 outer loop
  vertex -4.648287e-03 -1.424654e-03 -4.377720e-04
  vertex -3.972515e-03 -7.770900e-04 -1.865844e-03
  vertex -4.813674e-03 4.370123e-05 -1.428733e-03
 endloop
endfacet
facet normal 2.395238e-01 -7.153930e-01 6.563850e-01
 outer loop
  vertex -2.442324e-03 4.180779e-03 -1.173110e-03
  vertex -4.018144e-03 3.297556e-03 -1.560695e-03
  vertex -2.437984e-03 3.407292e-03 -2.017716e-03
 endloop
endfacet
facet normal 5.917049e-01 -3.895074e-01 7.058111e-01
 outer loop
  vertex -5.102750e-03 1.559581e-03 -1.610549e-03
  vertex -4.299345e-03 1.405302e-03 -2.369210e-03
  vertex -4.018144e-03 3.297556e-03 -1.560695e-03
 endloop
endfacet
facet normal 6.729079e-01 2.311666e-01 7.026784e-01
 outer loop
  vertex -4.813674e-03 4.370123e-05 -1.428733e-03
  vertex -3.641492e-03 3.728424e-04 -2.659533e-03
  vertex -4.299345e-03 1.405302e-03 -2.369210e-03
 endloop
endfacet
facet normal 6.920418e-01 2.146358e-01 6.892094e-01
 outer loop
  vertex -5.102750e-03 1.559581e-03 -1.610549e-03
  vertex -4.813674e-03 4.370123e-05 -1.428733e-03
  vertex -4.299345e-03 1.405302e-03 -2.369210e-03
 endloop
endfacet
facet normal 7.819441e-01 2.191096e-01 5.835703e-01
 outer loop
  vertex -5.102750e-03 1.559581e-03 -1.610549e-03
  vertex -5.513527e-03 7.111159e-04 -7.415680e-04
  vertex -4.813674e-03 4.370123e-05 -1.428733e-03
 endloop
endfacet
facet normal 6.329461e-01 -5.153254e-01 5.777706e-01
 outer loop
  vertex -5.272800e-03 2.557049e-03 -8.466960e-04
  vertex -4.018144e-03 3.297556e-03 -1.560695e-03
  vertex -4.735397e-03 4.022556e-03 -1.283040e-04
 endloop
endfacet
facet normal 6.212591e-01 -4.069144e-01 6.696699e-01
 outer loop
  vertex -4.018144e-03 3.297556e-03 -1.560695e-03
  vertex -5.272800e-03 2.557049e-03 -8.466960e-04
  vertex -5.102750e-03 1.559581e-03 -1.610549e-03
 endloop
endfacet
facet normal 9.342298e-01 -1.023741e-01 3.416639e-01
 outer loop
  vertex -5.102750e-03 1.559581e-03 -1.610549e-03
  vertex -5.272800e-03 2.557049e-03 -8.466960e-04
  vertex -5.513527e-03 7.111159e-04 -7.415680e-04
 endloop
endfacet
facet normal -9.219153e-01 -8.185784e-02 -3.786441e-01
 outer loop
  vertex 7.179650e-03 -1.268992e-03 -1.794043e-03
  vertex 6.622525e-03 -2.204168e-03 -2.353940e-04
  vertex 6.571488e-03 -4.471088e-05 -5.779770e-04
 endloop
endfacet
facet normal -7.552426e-01 5.477700e-01 -3.599398e-01
 outer loop
  vertex 6.622525e-03 -2.204168e-03 -2.353940e-04
  vertex 6.268105e-03 -3.245107e-03 -1.075873e-03
  vertex 5.547687e-03 -3.410396e-03 1.841980e-04
 endloop
endfacet
facet normal -9.166065e-01 3.884447e-01 -9.456897e-02
 outer loop
  vertex 6.622525e-03 -2.204168e-03 -2.353940e-04
  vertex 7.179650e-03 -1.268992e-03 -1.794043e-03
  vertex 6.268105e-03 -3.245107e-03 -1.075873e-03
 endloop
endfacet
facet normal -6.285619e-01 7.318096e-01 -2.633717e-01
 outer loop
  vertex 6.268105e-03 -3.245107e-03 -1.075873e-03
  vertex 5.314390e-03 -3.961018e-03 -7.889870e-04
  vertex 5.547687e-03 -3.410396e-03 1.841980e-04
 endloop
endfacet
facet normal -7.609915e-02 8.755326e-01 -4.771285e-01
 outer loop
  vertex 5.314390e-03 -3.961018e-03 -7.889870e-04
  vertex 3.869859e-03 -3.843930e-03 -3.437360e-04
  vertex 5.547687e-03 -3.410396e-03 1.841980e-04
 endloop
endfacet
facet normal -9.088106e-02 9.814752e-01 1.686626e-01
 outer loop
  vertex 2.575495e-03 -3.629801e-03 2.402180e-04
  vertex 1.723623e-03 -3.548269e-03 -6.932500e-04
  vertex 1.497482e-03 -3.777941e-03 5.214000e-04
 endloop
endfacet
facet normal 1.434518e-01 9.886536e-01 -4.455971e-02
 outer loop
  vertex 3.869859e-03 -3.843930e-03 -3.437360e-04
  vertex 1.723623e-03 -3.548269e-03 -6.932500e-04
  vertex 2.575495e-03 -3.629801e-03 2.402180e-04
 endloop
endfacet
facet normal -5.705018e-01 8.198449e-01 4.880587e-02
 outer loop
  vertex 6.317164e-04 -4.355582e-03 1.045410e-04
  vertex 1.497482e-03 -3.777941e-03 5.214000e-04
  vertex 1.723623e-03 -3.548269e-03 -6.932500e-04
 endloop
endfacet
facet normal -1.990173e-01 8.117488e-01 5.490500e-01
 outer loop
  vertex 5.766888e-04 -3.452583e-03 -1.250453e-03
  vertex 6.317164e-04 -4.355582e-03 1.045410e-04
  vertex 1.723623e-03 -3.548269e-03 -6.932500e-04
 endloop
endfacet
facet normal -8.771908e-01 3.823457e-01 2.904274e-01
 outer loop
  vertex 6.317164e-04 -4.355582e-03 1.045410e-04
  vertex 5.766888e-04 -3.452583e-03 -1.250453e-03
  vertex 1.261171e-04 -5.059919e-03 -4.952880e-04
 endloop
endfacet
facet normal -8.146129e-01 5.799778e-01 5.614663e-03
 outer loop
  vertex -6.842251e-05 -5.357357e-03 2.004066e-03
  vertex 6.317164e-04 -4.355582e-03 1.045410e-04
  vertex 1.261171e-04 -5.059919e-03 -4.952880e-04
 endloop
endfacet
facet normal -3.302173e-01 6.332839e-01 6.999343e-01
 outer loop
  vertex -1.582571e-03 -4.602097e-03 -1.892686e-03
  vertex -7.659333e-04 -5.976678e-03 -2.637220e-04
  vertex -2.770675e-04 -4.452430e-03 -1.412187e-03
 endloop
endfacet
facet normal -4.771964e-01 6.213178e-01 6.214883e-01
 outer loop
  vertex -7.659333e-04 -5.976678e-03 -2.637220e-04
  vertex 1.261171e-04 -5.059919e-03 -4.952880e-04
  vertex -2.770675e-04 -4.452430e-03 -1.412187e-03
 endloop
endfacet
facet normal -7.128884e-01 7.007222e-01 2.790179e-02
 outer loop
  vertex 1.261171e-04 -5.059919e-03 -4.952880e-04
  vertex -7.659333e-04 -5.976678e-03 -2.637220e-04
  vertex -6.842251e-05 -5.357357e-03 2.004066e-03
 endloop
endfacet
facet normal -4.164650e-01 5.811369e-01 6.991686e-01
 outer loop
  vertex -1.811608e-03 -5.839133e-03 -1.000911e-03
  vertex -7.659333e-04 -5.976678e-03 -2.637220e-04
  vertex -1.582571e-03 -4.602097e-03 -1.892686e-03
 endloop
endfacet
facet normal -1.027038e-01 9.413832e-01 3.213248e-01
 outer loop
  vertex -1.811608e-03 -5.839133e-03 -1.000911e-03
  vertex -2.010123e-03 -6.204122e-03 4.943000e-06
  vertex -7.659333e-04 -5.976678e-03 -2.637220e-04
 endloop
endfacet
facet normal -2.284402e-02 -8.140213e-01 -5.803857e-01
 outer loop
  vertex 1.601490e-03 5.174409e-03 -6.769460e-04
  vertex 3.050052e-03 4.451550e-03 2.798850e-04
  vertex 1.513636e-03 4.173030e-03 7.309980e-04
 endloop
endfacet
facet normal -4.401423e-01 -8.978484e-01 -1.196008e-02
 outer loop
  vertex 1.601490e-03 5.174409e-03 -6.769460e-04
  vertex 4.289390e-03 3.856695e-03 -6.728890e-04
  vertex 3.050052e-03 4.451550e-03 2.798850e-04
 endloop
endfacet
facet normal 4.687183e-01 7.966753e-01 3.815910e-01
 outer loop
  vertex -3.271941e-03 -5.049372e-03 -8.559880e-04
  vertex -2.010123e-03 -6.204122e-03 4.943000e-06
  vertex -1.811608e-03 -5.839133e-03 -1.000911e-03
 endloop
endfacet
facet normal 5.550288e-01 7.932274e-01 2.504660e-01
 outer loop
  vertex -2.010123e-03 -6.204122e-03 4.943000e-06
  vertex -3.271941e-03 -5.049372e-03 -8.559880e-04
  vertex -2.923042e-03 -5.804578e-03 7.625990e-04
 endloop
endfacet
facet normal 3.129839e-01 -9.417385e-01 -1.231650e-01
 outer loop
  vertex -6.808900e-05 4.519603e-03 8.710600e-05
  vertex 1.721989e-04 4.756797e-03 -1.115905e-03
  vertex 1.601490e-03 5.174409e-03 -6.769460e-04
 endloop
endfacet
facet normal 5.598977e-02 -8.152762e-01 -5.763591e-01
 outer loop
  vertex -6.808900e-05 4.519603e-03 8.710600e-05
  vertex 1.601490e-03 5.174409e-03 -6.769460e-04
  vertex 1.513636e-03 4.173030e-03 7.309980e-04
 endloop
endfacet
facet normal 4.500732e-01 -8.889021e-01 -8.536532e-02
 outer loop
  vertex -1.047006e-03 4.140344e-03 -1.124864e-03
  vertex 1.721989e-04 4.756797e-03 -1.115905e-03
  vertex -6.808900e-05 4.519603e-03 8.710600e-05
 endloop
endfacet
facet normal -3.677488e-02 -9.448684e-01 3.253789e-01
 outer loop
  vertex -2.540484e-03 4.755590e-03 4.929570e-04
  vertex -1.047006e-03 4.140344e-03 -1.124864e-03
  vertex -6.808900e-05 4.519603e-03 8.710600e-05
 endloop
endfacet
facet normal -3.859296e-02 -9.453141e-01 3.238700e-01
 outer loop
  vertex -2.540484e-03 4.755590e-03 4.929570e-04
  vertex -2.442324e-03 4.180779e-03 -1.173110e-03
  vertex -1.047006e-03 4.140344e-03 -1.124864e-03
 endloop
endfacet
facet normal 6.582952e-01 3.518577e-01 6.654649e-01
 outer loop
  vertex -4.470902e-03 -4.415792e-03 -4.943000e-06
  vertex -3.271941e-03 -5.049372e-03 -8.559880e-04
  vertex -4.291129e-03 -3.144889e-03 -8.547560e-04
 endloop
endfacet
facet normal 9.774291e-01 1.822284e-01 1.068881e-01
 outer loop
  vertex -4.813674e-03 4.370123e-05 -1.428733e-03
  vertex -5.002290e-03 -2.595547e-04 8.130620e-04
  vertex -4.648287e-03 -1.424654e-03 -4.377720e-04
 endloop
endfacet
facet normal 1.424074e-01 -8.525709e-01 5.028349e-01
 outer loop
  vertex -2.540484e-03 4.755590e-03 4.929570e-04
  vertex -4.735397e-03 4.022556e-03 -1.283040e-04
  vertex -4.018144e-03 3.297556e-03 -1.560695e-03
 endloop
endfacet
facet normal 4.022188e-01 -8.579158e-01 3.196882e-01
 outer loop
  vertex -2.540484e-03 4.755590e-03 4.929570e-04
  vertex -4.018144e-03 3.297556e-03 -1.560695e-03
  vertex -2.442324e-03 4.180779e-03 -1.173110e-03
 endloop
endfacet
facet normal 7.554294e-01 6.378658e-01 1.498456e-01
 outer loop
  vertex -5.002290e-03 -2.595547e-04 8.130620e-04
  vertex -4.813674e-03 4.370123e-05 -1.428733e-03
  vertex -5.513527e-03 7.111159e-04 -7.415680e-04
 endloop
endfacet
facet normal 9.224131e-01 3.805731e-01 -6.571344e-02
 outer loop
  vertex -5.513527e-03 7.111159e-04 -7.415680e-04
  vertex -5.595592e-03 1.045169e-03 4.113700e-05
  vertex -5.002290e-03 -2.595547e-04 8.130620e-04
 endloop
endfacet
facet normal 8.781581e-01 -4.273744e-01 2.149176e-01
 outer loop
  vertex -4.735397e-03 4.022556e-03 -1.283040e-04
  vertex -5.484124e-03 2.642038e-03 1.857810e-04
  vertex -5.272800e-03 2.557049e-03 -8.466960e-04
 endloop
endfacet
facet normal 9.745702e-01 -8.674389e-02 2.066116e-01
 outer loop
  vertex -5.484124e-03 2.642038e-03 1.857810e-04
  vertex -5.595592e-03 1.045169e-03 4.113700e-05
  vertex -5.272800e-03 2.557049e-03 -8.466960e-04
 endloop
endfacet
facet normal 9.809050e-01 -1.191655e-01 1.537044e-01
 outer loop
  vertex -5.272800e-03 2.557049e-03 -8.466960e-04
  vertex -5.595592e-03 1.045169e-03 4.113700e-05
  vertex -5.513527e-03 7.111159e-04 -7.415680e-04
 endloop
endfacet
facet normal -7.659053e-01 -1.183584e-01 -6.319655e-01
 outer loop
  vertex 6.622525e-03 -2.204168e-03 -2.353940e-04
  vertex 5.554478e-03 -2.050652e-03 1.030265e-03
  vertex 6.571488e-03 -4.471088e-05 -5.779770e-04
 endloop
endfacet
facet normal -6.799365e-01 3.898350e-01 -6.210596e-01
 outer loop
  vertex 5.554478e-03 -2.050652e-03 1.030265e-03
  vertex 6.622525e-03 -2.204168e-03 -2.353940e-04
  vertex 5.547687e-03 -3.410396e-03 1.841980e-04
 endloop
endfacet
facet normal -6.909984e-01 3.843726e-01 -6.121919e-01
 outer loop
  vertex 4.853399e-03 -3.193674e-03 1.103932e-03
  vertex 5.554478e-03 -2.050652e-03 1.030265e-03
  vertex 5.547687e-03 -3.410396e-03 1.841980e-04
 endloop
endfacet
facet normal -1.392416e-01 9.352385e-01 -3.254853e-01
 outer loop
  vertex 4.853399e-03 -3.193674e-03 1.103932e-03
  vertex 5.547687e-03 -3.410396e-03 1.841980e-04
  vertex 3.869859e-03 -3.843930e-03 -3.437360e-04
 endloop
endfacet
facet normal -6.567708e-01 -3.997290e-01 -6.394285e-01
 outer loop
  vertex 5.046770e-03 7.748889e-04 4.757340e-04
  vertex 4.289390e-03 3.856695e-03 -6.728890e-04
  vertex 6.571488e-03 -4.471088e-05 -5.779770e-04
 endloop
endfacet
facet normal -6.496323e-01 -3.248219e-01 -6.873635e-01
 outer loop
  vertex 5.207047e-03 -7.286316e-04 1.034761e-03
  vertex 5.046770e-03 7.748889e-04 4.757340e-04
  vertex 6.571488e-03 -4.471088e-05 -5.779770e-04
 endloop
endfacet
facet normal 4.245778e-02 9.647666e-01 -2.596590e-01
 outer loop
  vertex 2.575495e-03 -3.629801e-03 2.402180e-04
  vertex 3.632670e-03 -3.449443e-03 1.083203e-03
  vertex 3.869859e-03 -3.843930e-03 -3.437360e-04
 endloop
endfacet
facet normal -8.216472e-01 -3.650766e-01 -4.377384e-01
 outer loop
  vertex 5.046770e-03 7.748889e-04 4.757340e-04
  vertex 4.469366e-03 2.047859e-03 4.978710e-04
  vertex 4.289390e-03 3.856695e-03 -6.728890e-04
 endloop
endfacet
facet normal -5.665498e-01 -2.432889e-01 -7.872940e-01
 outer loop
  vertex 5.046770e-03 7.748889e-04 4.757340e-04
  vertex 4.043780e-03 8.624963e-04 1.170430e-03
  vertex 4.469366e-03 2.047859e-03 4.978710e-04
 endloop
endfacet
facet normal -5.739278e-01 -3.384409e-01 -7.456974e-01
 outer loop
  vertex 5.046770e-03 7.748889e-04 4.757340e-04
  vertex 5.207047e-03 -7.286316e-04 1.034761e-03
  vertex 4.098984e-03 -8.232447e-05 1.594253e-03
 endloop
endfacet
facet normal -5.509122e-01 -3.681579e-01 -7.489696e-01
 outer loop
  vertex 5.046770e-03 7.748889e-04 4.757340e-04
  vertex 4.098984e-03 -8.232447e-05 1.594253e-03
  vertex 4.043780e-03 8.624963e-04 1.170430e-03
 endloop
endfacet
facet normal 1.175892e-01 9.306227e-01 -3.465750e-01
 outer loop
  vertex 3.632670e-03 -3.449443e-03 1.083203e-03
  vertex 2.575495e-03 -3.629801e-03 2.402180e-04
  vertex 2.614116e-03 -3.196813e-03 1.415980e-03
 endloop
endfacet
facet normal -8.491376e-01 -3.439322e-01 -4.008441e-01
 outer loop
  vertex 4.469366e-03 2.047859e-03 4.978710e-04
  vertex 3.967548e-03 3.287349e-03 4.974030e-04
  vertex 4.289390e-03 3.856695e-03 -6.728890e-04
 endloop
endfacet
facet normal -5.726062e-01 -2.321215e-01 -7.862835e-01
 outer loop
  vertex 4.469366e-03 2.047859e-03 4.978710e-04
  vertex 3.539075e-03 2.003823e-03 1.188350e-03
  vertex 3.967548e-03 3.287349e-03 4.974030e-04
 endloop
endfacet
facet normal -7.373875e-01 -3.167117e-01 -5.966183e-01
 outer loop
  vertex 3.539075e-03 2.003823e-03 1.188350e-03
  vertex 4.043780e-03 8.624963e-04 1.170430e-03
  vertex 2.203614e-03 7.626454e-04 3.497779e-03
 endloop
endfacet
facet normal -5.711776e-01 -2.402563e-01 -7.848777e-01
 outer loop
  vertex 4.469366e-03 2.047859e-03 4.978710e-04
  vertex 4.043780e-03 8.624963e-04 1.170430e-03
  vertex 3.539075e-03 2.003823e-03 1.188350e-03
 endloop
endfacet
facet normal -7.389225e-01 -3.112412e-01 -5.975973e-01
 outer loop
  vertex 4.043780e-03 8.624963e-04 1.170430e-03
  vertex 4.098984e-03 -8.232447e-05 1.594253e-03
  vertex 2.203614e-03 7.626454e-04 3.497779e-03
 endloop
endfacet
facet normal -2.127751e-01 9.191495e-01 -3.314982e-01
 outer loop
  vertex 1.497482e-03 -3.777941e-03 5.214000e-04
  vertex 2.614116e-03 -3.196813e-03 1.415980e-03
  vertex 2.575495e-03 -3.629801e-03 2.402180e-04
 endloop
endfacet
facet normal -6.485832e-01 -5.989067e-01 -4.697346e-01
 outer loop
  vertex 4.289390e-03 3.856695e-03 -6.728890e-04
  vertex 3.967548e-03 3.287349e-03 4.974030e-04
  vertex 3.050052e-03 4.451550e-03 2.798850e-04
 endloop
endfacet
facet normal -3.163597e-01 -4.092230e-01 -8.558347e-01
 outer loop
  vertex 3.967548e-03 3.287349e-03 4.974030e-04
  vertex 2.957253e-03 3.298591e-03 8.654830e-04
  vertex 3.050052e-03 4.451550e-03 2.798850e-04
 endloop
endfacet
facet normal -3.225400e-01 -3.629336e-01 -8.742123e-01
 outer loop
  vertex 3.967548e-03 3.287349e-03 4.974030e-04
  vertex 3.539075e-03 2.003823e-03 1.188350e-03
  vertex 2.957253e-03 3.298591e-03 8.654830e-04
 endloop
endfacet
facet normal -5.493338e-01 8.354349e-01 -1.676055e-02
 outer loop
  vertex 9.006052e-04 -4.144115e-03 1.832227e-03
  vertex 1.497482e-03 -3.777941e-03 5.214000e-04
  vertex 6.317164e-04 -4.355582e-03 1.045410e-04
 endloop
endfacet
facet normal -7.775314e-01 6.272865e-01 4.423216e-02
 outer loop
  vertex -6.842251e-05 -5.357357e-03 2.004066e-03
  vertex 9.006052e-04 -4.144115e-03 1.832227e-03
  vertex 6.317164e-04 -4.355582e-03 1.045410e-04
 endloop
endfacet
facet normal -5.263160e-01 8.474398e-01 -6.955069e-02
 outer loop
  vertex -6.842251e-05 -5.357357e-03 2.004066e-03
  vertex -7.659333e-04 -5.976678e-03 -2.637220e-04
  vertex -1.577079e-03 -6.330735e-03 1.560512e-03
 endloop
endfacet
facet normal -1.528432e-01 9.806453e-01 1.223672e-01
 outer loop
  vertex -7.659333e-04 -5.976678e-03 -2.637220e-04
  vertex -2.010123e-03 -6.204122e-03 4.943000e-06
  vertex -1.577079e-03 -6.330735e-03 1.560512e-03
 endloop
endfacet
facet normal -1.805398e-01 -4.338146e-01 -8.827289e-01
 outer loop
  vertex 2.957253e-03 3.298591e-03 8.654830e-04
  vertex 1.513636e-03 4.173030e-03 7.309980e-04
  vertex 3.050052e-03 4.451550e-03 2.798850e-04
 endloop
endfacet
facet normal -3.765369e-01 -7.126585e-01 -5.918935e-01
 outer loop
  vertex 2.957253e-03 3.298591e-03 8.654830e-04
  vertex 1.704019e-03 3.060060e-03 1.949935e-03
  vertex 1.513636e-03 4.173030e-03 7.309980e-04
 endloop
endfacet
facet normal 3.794872e-01 9.246981e-01 -3.037852e-02
 outer loop
  vertex -2.010123e-03 -6.204122e-03 4.943000e-06
  vertex -2.923042e-03 -5.804578e-03 7.625990e-04
  vertex -1.577079e-03 -6.330735e-03 1.560512e-03
 endloop
endfacet
facet normal 5.436606e-01 7.993788e-01 2.557867e-01
 outer loop
  vertex -3.271941e-03 -5.049372e-03 -8.559880e-04
  vertex -3.922810e-03 -5.095067e-03 6.702030e-04
  vertex -2.923042e-03 -5.804578e-03 7.625990e-04
 endloop
endfacet
facet normal 5.949845e-01 7.547389e-01 2.763380e-01
 outer loop
  vertex -4.470902e-03 -4.415792e-03 -4.943000e-06
  vertex -3.922810e-03 -5.095067e-03 6.702030e-04
  vertex -3.271941e-03 -5.049372e-03 -8.559880e-04
 endloop
endfacet
facet normal 8.120918e-01 5.783804e-01 -7.734926e-02
 outer loop
  vertex -3.922810e-03 -5.095067e-03 6.702030e-04
  vertex -4.470902e-03 -4.415792e-03 -4.943000e-06
  vertex -4.614218e-03 -4.079946e-03 1.001678e-03
 endloop
endfacet
facet normal 9.332438e-01 1.109369e-01 3.416857e-01
 outer loop
  vertex -4.291129e-03 -3.144889e-03 -8.547560e-04
  vertex -4.648287e-03 -1.424654e-03 -4.377720e-04
  vertex -4.963146e-03 -2.822398e-03 8.760120e-04
 endloop
endfacet
facet normal 9.107554e-01 2.827764e-01 3.009354e-01
 outer loop
  vertex -4.614218e-03 -4.079946e-03 1.001678e-03
  vertex -4.291129e-03 -3.144889e-03 -8.547560e-04
  vertex -4.963146e-03 -2.822398e-03 8.760120e-04
 endloop
endfacet
facet normal 9.875119e-01 -3.734391e-02 1.530543e-01
 outer loop
  vertex -4.291129e-03 -3.144889e-03 -8.547560e-04
  vertex -4.614218e-03 -4.079946e-03 1.001678e-03
  vertex -4.470902e-03 -4.415792e-03 -4.943000e-06
 endloop
endfacet
facet normal 1.817842e-01 -8.930868e-01 4.115221e-01
 outer loop
  vertex -4.735397e-03 4.022556e-03 -1.283040e-04
  vertex -2.540484e-03 4.755590e-03 4.929570e-04
  vertex -4.455800e-03 4.584103e-03 9.668590e-04
 endloop
endfacet
facet normal 6.728273e-01 -7.138420e-01 1.942500e-01
 outer loop
  vertex -4.455800e-03 4.584103e-03 9.668590e-04
  vertex -5.258121e-03 3.784436e-03 8.072080e-04
  vertex -4.735397e-03 4.022556e-03 -1.283040e-04
 endloop
endfacet
facet normal 8.470660e-01 -3.733456e-01 3.782754e-01
 outer loop
  vertex -4.735397e-03 4.022556e-03 -1.283040e-04
  vertex -5.258121e-03 3.784436e-03 8.072080e-04
  vertex -5.484124e-03 2.642038e-03 1.857810e-04
 endloop
endfacet
facet normal 9.613510e-01 1.094843e-01 -2.526213e-01
 outer loop
  vertex -5.122833e-03 1.317221e-03 9.865080e-04
  vertex -5.484124e-03 2.642038e-03 1.857810e-04
  vertex -5.231583e-03 2.693641e-03 1.169190e-03
 endloop
endfacet
facet normal 8.967543e-01 -2.256515e-02 -4.419532e-01
 outer loop
  vertex -5.595592e-03 1.045169e-03 4.113700e-05
  vertex -5.484124e-03 2.642038e-03 1.857810e-04
  vertex -5.122833e-03 1.317221e-03 9.865080e-04
 endloop
endfacet
facet normal 9.676749e-01 -5.791371e-02 -2.454612e-01
 outer loop
  vertex -5.258121e-03 3.784436e-03 8.072080e-04
  vertex -5.231583e-03 2.693641e-03 1.169190e-03
  vertex -5.484124e-03 2.642038e-03 1.857810e-04
 endloop
endfacet
facet normal -7.103980e-01 -1.843846e-01 -6.792179e-01
 outer loop
  vertex 6.571488e-03 -4.471088e-05 -5.779770e-04
  vertex 5.554478e-03 -2.050652e-03 1.030265e-03
  vertex 5.207047e-03 -7.286316e-04 1.034761e-03
 endloop
endfacet
facet normal -6.291603e-01 -1.627602e-01 -7.600437e-01
 outer loop
  vertex 5.554478e-03 -2.050652e-03 1.030265e-03
  vertex 3.960534e-03 -1.176571e-03 2.162543e-03
  vertex 5.207047e-03 -7.286316e-04 1.034761e-03
 endloop
endfacet
facet normal -4.876735e-01 2.451146e-01 -8.379101e-01
 outer loop
  vertex 4.038917e-03 -2.526585e-03 1.773114e-03
  vertex 5.554478e-03 -2.050652e-03 1.030265e-03
  vertex 4.853399e-03 -3.193674e-03 1.103932e-03
 endloop
endfacet
facet normal -4.836676e-01 2.165461e-01 -8.480409e-01
 outer loop
  vertex 3.960534e-03 -1.176571e-03 2.162543e-03
  vertex 5.554478e-03 -2.050652e-03 1.030265e-03
  vertex 4.038917e-03 -2.526585e-03 1.773114e-03
 endloop
endfacet
facet normal -1.914600e-01 9.373791e-01 -2.909698e-01
 outer loop
  vertex 3.632670e-03 -3.449443e-03 1.083203e-03
  vertex 4.853399e-03 -3.193674e-03 1.103932e-03
  vertex 3.869859e-03 -3.843930e-03 -3.437360e-04
 endloop
endfacet
facet normal -1.183969e-01 6.274558e-01 -7.695982e-01
 outer loop
  vertex 3.632670e-03 -3.449443e-03 1.083203e-03
  vertex 4.038917e-03 -2.526585e-03 1.773114e-03
  vertex 4.853399e-03 -3.193674e-03 1.103932e-03
 endloop
endfacet
facet normal -7.389262e-01 -2.345479e-01 -6.316450e-01
 outer loop
  vertex 4.098984e-03 -8.232447e-05 1.594253e-03
  vertex 3.960534e-03 -1.176571e-03 2.162543e-03
  vertex 2.203614e-03 7.626454e-04 3.497779e-03
 endloop
endfacet
facet normal -5.693727e-01 -3.210070e-01 -7.568152e-01
 outer loop
  vertex 3.960534e-03 -1.176571e-03 2.162543e-03
  vertex 4.098984e-03 -8.232447e-05 1.594253e-03
  vertex 5.207047e-03 -7.286316e-04 1.034761e-03
 endloop
endfacet
facet normal -5.628230e-01 1.987626e-01 -8.023240e-01
 outer loop
  vertex 2.771336e-03 -2.056562e-03 2.778751e-03
  vertex 3.960534e-03 -1.176571e-03 2.162543e-03
  vertex 4.038917e-03 -2.526585e-03 1.773114e-03
 endloop
endfacet
facet normal -2.046045e-01 7.622081e-01 -6.141464e-01
 outer loop
  vertex 2.771336e-03 -2.056562e-03 2.778751e-03
  vertex 4.038917e-03 -2.526585e-03 1.773114e-03
  vertex 2.614116e-03 -3.196813e-03 1.415980e-03
 endloop
endfacet
facet normal -9.880831e-02 6.233660e-01 -7.756621e-01
 outer loop
  vertex 4.038917e-03 -2.526585e-03 1.773114e-03
  vertex 3.632670e-03 -3.449443e-03 1.083203e-03
  vertex 2.614116e-03 -3.196813e-03 1.415980e-03
 endloop
endfacet
facet normal -5.269293e-01 6.807700e-01 -5.088199e-01
 outer loop
  vertex 1.790633e-03 -3.347535e-03 2.067115e-03
  vertex 2.771336e-03 -2.056562e-03 2.778751e-03
  vertex 2.614116e-03 -3.196813e-03 1.415980e-03
 endloop
endfacet
facet normal -3.244482e-01 9.253464e-01 -1.961310e-01
 outer loop
  vertex 2.614116e-03 -3.196813e-03 1.415980e-03
  vertex 1.497482e-03 -3.777941e-03 5.214000e-04
  vertex 1.790633e-03 -3.347535e-03 2.067115e-03
 endloop
endfacet
facet normal -6.516890e-01 7.535680e-01 -8.623651e-02
 outer loop
  vertex 1.790633e-03 -3.347535e-03 2.067115e-03
  vertex 1.497482e-03 -3.777941e-03 5.214000e-04
  vertex 9.006052e-04 -4.144115e-03 1.832227e-03
 endloop
endfacet
facet normal -6.056637e-01 -4.378462e-01 -6.644262e-01
 outer loop
  vertex 2.502916e-03 2.195577e-03 2.006507e-03
  vertex 2.957253e-03 3.298591e-03 8.654830e-04
  vertex 3.539075e-03 2.003823e-03 1.188350e-03
 endloop
endfacet
facet normal -5.858782e-01 -5.224011e-01 -6.195514e-01
 outer loop
  vertex 2.502916e-03 2.195577e-03 2.006507e-03
  vertex 3.539075e-03 2.003823e-03 1.188350e-03
  vertex 2.203614e-03 7.626454e-04 3.497779e-03
 endloop
endfacet
facet normal -5.044410e-01 -5.116838e-01 -6.954990e-01
 outer loop
  vertex 2.502916e-03 2.195577e-03 2.006507e-03
  vertex 1.704019e-03 3.060060e-03 1.949935e-03
  vertex 2.957253e-03 3.298591e-03 8.654830e-04
 endloop
endfacet
facet normal -5.323118e-01 -6.649094e-01 -5.239653e-01
 outer loop
  vertex -1.347802e-04 3.995537e-03 2.630910e-03
  vertex 1.513636e-03 4.173030e-03 7.309980e-04
  vertex 1.704019e-03 3.060060e-03 1.949935e-03
 endloop
endfacet
facet normal 4.738199e-01 8.470945e-01 -2.406772e-01
 outer loop
  vertex -2.923042e-03 -5.804578e-03 7.625990e-04
  vertex -2.607278e-03 -5.579962e-03 2.174806e-03
  vertex -1.577079e-03 -6.330735e-03 1.560512e-03
 endloop
endfacet
facet normal -1.298638e-01 -9.704588e-01 -2.033351e-01
 outer loop
  vertex 1.513636e-03 4.173030e-03 7.309980e-04
  vertex -1.347802e-04 3.995537e-03 2.630910e-03
  vertex -6.808900e-05 4.519603e-03 8.710600e-05
 endloop
endfacet
facet normal -1.260558e-01 -9.709600e-01 -2.033385e-01
 outer loop
  vertex -2.540484e-03 4.755590e-03 4.929570e-04
  vertex -6.808900e-05 4.519603e-03 8.710600e-05
  vertex -1.347802e-04 3.995537e-03 2.630910e-03
 endloop
endfacet
facet normal 6.840742e-01 6.810129e-01 -2.612736e-01
 outer loop
  vertex -2.923042e-03 -5.804578e-03 7.625990e-04
  vertex -3.537402e-03 -4.740874e-03 1.926622e-03
  vertex -2.607278e-03 -5.579962e-03 2.174806e-03
 endloop
endfacet
facet normal 5.585572e-01 7.376666e-01 -3.792912e-01
 outer loop
  vertex -3.922810e-03 -5.095067e-03 6.702030e-04
  vertex -3.537402e-03 -4.740874e-03 1.926622e-03
  vertex -2.923042e-03 -5.804578e-03 7.625990e-04
 endloop
endfacet
facet normal 7.213455e-01 4.892847e-01 -4.901644e-01
 outer loop
  vertex -4.373090e-03 -3.321858e-03 2.113259e-03
  vertex -3.537402e-03 -4.740874e-03 1.926622e-03
  vertex -4.614218e-03 -4.079946e-03 1.001678e-03
 endloop
endfacet
facet normal 6.997635e-01 6.021361e-01 -3.843996e-01
 outer loop
  vertex -3.922810e-03 -5.095067e-03 6.702030e-04
  vertex -4.614218e-03 -4.079946e-03 1.001678e-03
  vertex -3.537402e-03 -4.740874e-03 1.926622e-03
 endloop
endfacet
facet normal 9.121387e-01 2.184293e-01 -3.468309e-01
 outer loop
  vertex -4.614218e-03 -4.079946e-03 1.001678e-03
  vertex -4.963146e-03 -2.822398e-03 8.760120e-04
  vertex -4.373090e-03 -3.321858e-03 2.113259e-03
 endloop
endfacet
facet normal 7.668788e-01 4.653489e-02 -6.401027e-01
 outer loop
  vertex -5.122833e-03 1.317221e-03 9.865080e-04
  vertex -4.220546e-03 2.093658e-03 2.123944e-03
  vertex -4.234304e-03 4.874685e-04 1.990693e-03
 endloop
endfacet
facet normal 7.923836e-01 1.262271e-01 -5.968207e-01
 outer loop
  vertex -4.234304e-03 4.874685e-04 1.990693e-03
  vertex -5.002290e-03 -2.595547e-04 8.130620e-04
  vertex -5.122833e-03 1.317221e-03 9.865080e-04
 endloop
endfacet
facet normal 8.749385e-01 -2.173361e-01 -4.327212e-01
 outer loop
  vertex -4.234304e-03 4.874685e-04 1.990693e-03
  vertex -4.478732e-03 -7.396968e-04 2.112821e-03
  vertex -5.002290e-03 -2.595547e-04 8.130620e-04
 endloop
endfacet
facet normal 9.629032e-01 2.689485e-01 2.200095e-02
 outer loop
  vertex -5.002290e-03 -2.595547e-04 8.130620e-04
  vertex -4.611224e-03 -1.747086e-03 1.881673e-03
  vertex -4.648287e-03 -1.424654e-03 -4.377720e-04
 endloop
endfacet
facet normal 9.227438e-01 -3.325480e-02 -3.839765e-01
 outer loop
  vertex -4.478732e-03 -7.396968e-04 2.112821e-03
  vertex -4.611224e-03 -1.747086e-03 1.881673e-03
  vertex -5.002290e-03 -2.595547e-04 8.130620e-04
 endloop
endfacet
facet normal 9.117724e-01 7.859588e-02 -4.031052e-01
 outer loop
  vertex -4.963146e-03 -2.822398e-03 8.760120e-04
  vertex -4.611224e-03 -1.747086e-03 1.881673e-03
  vertex -4.373090e-03 -3.321858e-03 2.113259e-03
 endloop
endfacet
facet normal 9.625383e-01 -2.660417e-01 -5.236366e-02
 outer loop
  vertex -4.611224e-03 -1.747086e-03 1.881673e-03
  vertex -4.963146e-03 -2.822398e-03 8.760120e-04
  vertex -4.648287e-03 -1.424654e-03 -4.377720e-04
 endloop
endfacet
facet normal 6.578838e-01 -6.883025e-01 3.056609e-01
 outer loop
  vertex -2.690425e-03 5.232699e-03 1.890056e-03
  vertex -3.425860e-03 4.750747e-03 2.387673e-03
  vertex -2.540484e-03 4.755590e-03 4.929570e-04
 endloop
endfacet
facet normal 9.992314e-02 -9.940151e-01 4.415163e-02
 outer loop
  vertex -2.540484e-03 4.755590e-03 4.929570e-04
  vertex -3.425860e-03 4.750747e-03 2.387673e-03
  vertex -4.455800e-03 4.584103e-03 9.668590e-04
 endloop
endfacet
facet normal 7.041122e-01 6.067243e-02 -7.074920e-01
 outer loop
  vertex -4.473676e-03 3.814144e-03 2.019567e-03
  vertex -4.220546e-03 2.093658e-03 2.123944e-03
  vertex -5.231583e-03 2.693641e-03 1.169190e-03
 endloop
endfacet
facet normal 7.237745e-01 1.466755e-01 -6.742676e-01
 outer loop
  vertex -5.231583e-03 2.693641e-03 1.169190e-03
  vertex -4.220546e-03 2.093658e-03 2.123944e-03
  vertex -5.122833e-03 1.317221e-03 9.865080e-04
 endloop
endfacet
facet normal 8.740024e-01 1.186499e-01 -4.712133e-01
 outer loop
  vertex -5.595592e-03 1.045169e-03 4.113700e-05
  vertex -5.122833e-03 1.317221e-03 9.865080e-04
  vertex -5.002290e-03 -2.595547e-04 8.130620e-04
 endloop
endfacet
facet normal 6.817634e-01 -5.959539e-01 -4.243083e-01
 outer loop
  vertex -3.425860e-03 4.750747e-03 2.387673e-03
  vertex -4.473676e-03 3.814144e-03 2.019567e-03
  vertex -4.455800e-03 4.584103e-03 9.668590e-04
 endloop
endfacet
facet normal 6.799542e-01 -5.972971e-01 -4.253215e-01
 outer loop
  vertex -5.258121e-03 3.784436e-03 8.072080e-04
  vertex -4.455800e-03 4.584103e-03 9.668590e-04
  vertex -4.473676e-03 3.814144e-03 2.019567e-03
 endloop
endfacet
facet normal 8.309247e-01 -1.569253e-01 -5.337964e-01
 outer loop
  vertex -4.473676e-03 3.814144e-03 2.019567e-03
  vertex -5.231583e-03 2.693641e-03 1.169190e-03
  vertex -5.258121e-03 3.784436e-03 8.072080e-04
 endloop
endfacet
facet normal -7.381513e-01 -2.327706e-01 -6.332065e-01
 outer loop
  vertex 2.967678e-03 -8.123790e-04 3.186071e-03
  vertex 2.203614e-03 7.626454e-04 3.497779e-03
  vertex 3.960534e-03 -1.176571e-03 2.162543e-03
 endloop
endfacet
facet normal -6.156270e-01 3.312404e-01 -7.150407e-01
 outer loop
  vertex 3.960534e-03 -1.176571e-03 2.162543e-03
  vertex 2.771336e-03 -2.056562e-03 2.778751e-03
  vertex 2.967678e-03 -8.123790e-04 3.186071e-03
 endloop
endfacet
facet normal -6.968765e-01 -2.018648e-01 -6.881960e-01
 outer loop
  vertex 2.967678e-03 -8.123790e-04 3.186071e-03
  vertex 2.043321e-03 -1.212585e-03 4.239478e-03
  vertex 2.203614e-03 7.626454e-04 3.497779e-03
 endloop
endfacet
facet normal -7.702853e-01 3.049150e-01 -5.600780e-01
 outer loop
  vertex 2.043321e-03 -1.212585e-03 4.239478e-03
  vertex 2.967678e-03 -8.123790e-04 3.186071e-03
  vertex 2.771336e-03 -2.056562e-03 2.778751e-03
 endloop
endfacet
facet normal -5.929208e-01 7.493849e-01 -2.947325e-01
 outer loop
  vertex 1.489045e-03 -3.057839e-03 3.410407e-03
  vertex 1.790633e-03 -3.347535e-03 2.067115e-03
  vertex 9.006052e-04 -4.144115e-03 1.832227e-03
 endloop
endfacet
facet normal -6.742782e-01 6.760417e-01 -2.971811e-01
 outer loop
  vertex 2.771336e-03 -2.056562e-03 2.778751e-03
  vertex 1.790633e-03 -3.347535e-03 2.067115e-03
  vertex 1.489045e-03 -3.057839e-03 3.410407e-03
 endloop
endfacet
facet normal -7.003425e-01 -4.392659e-01 -5.626419e-01
 outer loop
  vertex 1.549127e-03 2.368209e-03 3.058948e-03
  vertex 2.502916e-03 2.195577e-03 2.006507e-03
  vertex 2.203614e-03 7.626454e-04 3.497779e-03
 endloop
endfacet
facet normal -6.319220e-01 -6.148564e-01 -4.718328e-01
 outer loop
  vertex 2.502916e-03 2.195577e-03 2.006507e-03
  vertex 1.549127e-03 2.368209e-03 3.058948e-03
  vertex 1.704019e-03 3.060060e-03 1.949935e-03
 endloop
endfacet
facet normal -4.116869e-01 8.196273e-01 -3.984032e-01
 outer loop
  vertex -1.450958e-03 -5.363841e-03 3.419358e-03
  vertex -6.842251e-05 -5.357357e-03 2.004066e-03
  vertex -1.577079e-03 -6.330735e-03 1.560512e-03
 endloop
endfacet
facet normal -5.220405e-01 -7.872760e-01 -3.281314e-01
 outer loop
  vertex -1.347802e-04 3.995537e-03 2.630910e-03
  vertex 1.704019e-03 3.060060e-03 1.949935e-03
  vertex 8.838568e-04 3.132545e-03 3.080863e-03
 endloop
endfacet
facet normal -6.781790e-01 -5.772400e-01 -4.548266e-01
 outer loop
  vertex 1.549127e-03 2.368209e-03 3.058948e-03
  vertex 8.838568e-04 3.132545e-03 3.080863e-03
  vertex 1.704019e-03 3.060060e-03 1.949935e-03
 endloop
endfacet
facet normal 3.327868e-01 8.271606e-01 -4.528336e-01
 outer loop
  vertex -1.577079e-03 -6.330735e-03 1.560512e-03
  vertex -2.607278e-03 -5.579962e-03 2.174806e-03
  vertex -1.450958e-03 -5.363841e-03 3.419358e-03
 endloop
endfacet
facet normal 5.424395e-01 5.826908e-01 -6.051700e-01
 outer loop
  vertex -2.607278e-03 -5.579962e-03 2.174806e-03
  vertex -2.425909e-03 -4.680742e-03 3.203193e-03
  vertex -1.450958e-03 -5.363841e-03 3.419358e-03
 endloop
endfacet
facet normal 6.283378e-01 5.273454e-01 -5.719253e-01
 outer loop
  vertex -3.537402e-03 -4.740874e-03 1.926622e-03
  vertex -2.425909e-03 -4.680742e-03 3.203193e-03
  vertex -2.607278e-03 -5.579962e-03 2.174806e-03
 endloop
endfacet
facet normal 7.062650e-01 3.226763e-01 -6.301347e-01
 outer loop
  vertex -3.537402e-03 -4.740874e-03 1.926622e-03
  vertex -3.060492e-03 -3.569971e-03 3.060741e-03
  vertex -2.425909e-03 -4.680742e-03 3.203193e-03
 endloop
endfacet
facet normal 5.915559e-01 5.880053e-02 -8.041169e-01
 outer loop
  vertex -3.587110e-03 -2.143380e-03 2.777648e-03
  vertex -3.060492e-03 -3.569971e-03 3.060741e-03
  vertex -4.373090e-03 -3.321858e-03 2.113259e-03
 endloop
endfacet
facet normal 5.800489e-01 4.324007e-01 -6.903426e-01
 outer loop
  vertex -3.537402e-03 -4.740874e-03 1.926622e-03
  vertex -4.373090e-03 -3.321858e-03 2.113259e-03
  vertex -3.060492e-03 -3.569971e-03 3.060741e-03
 endloop
endfacet
facet normal -4.196719e-01 -8.944750e-01 1.542400e-01
 outer loop
  vertex -2.018469e-03 4.870839e-03 2.581662e-03
  vertex -2.540484e-03 4.755590e-03 4.929570e-04
  vertex -1.347802e-04 3.995537e-03 2.630910e-03
 endloop
endfacet
facet normal 6.645973e-01 -1.821581e-03 -7.471995e-01
 outer loop
  vertex -3.500979e-03 -5.575014e-04 2.831657e-03
  vertex -3.351375e-03 1.344370e-03 2.960086e-03
  vertex -2.716065e-03 4.113311e-04 3.527438e-03
 endloop
endfacet
facet normal 6.562372e-01 -9.945757e-03 -7.544891e-01
 outer loop
  vertex -3.587110e-03 -2.143380e-03 2.777648e-03
  vertex -4.611224e-03 -1.747086e-03 1.881673e-03
  vertex -3.500979e-03 -5.575014e-04 2.831657e-03
 endloop
endfacet
facet normal 6.558082e-01 -1.183593e-02 -7.548348e-01
 outer loop
  vertex -4.611224e-03 -1.747086e-03 1.881673e-03
  vertex -3.587110e-03 -2.143380e-03 2.777648e-03
  vertex -4.373090e-03 -3.321858e-03 2.113259e-03
 endloop
endfacet
facet normal 1.473167e-01 -8.103522e-01 -5.671218e-01
 outer loop
  vertex -3.425860e-03 4.750747e-03 2.387673e-03
  vertex -2.690425e-03 5.232699e-03 1.890056e-03
  vertex -2.018469e-03 4.870839e-03 2.581662e-03
 endloop
endfacet
facet normal -6.133272e-01 -7.652491e-01 1.955086e-01
 outer loop
  vertex -2.690425e-03 5.232699e-03 1.890056e-03
  vertex -2.540484e-03 4.755590e-03 4.929570e-04
  vertex -2.018469e-03 4.870839e-03 2.581662e-03
 endloop
endfacet
facet normal 7.151448e-01 5.170337e-02 -6.970615e-01
 outer loop
  vertex -4.234304e-03 4.874685e-04 1.990693e-03
  vertex -4.220546e-03 2.093658e-03 2.123944e-03
  vertex -3.351375e-03 1.344370e-03 2.960086e-03
 endloop
endfacet
facet normal 7.451946e-01 -1.359688e-02 -6.667084e-01
 outer loop
  vertex -3.351375e-03 1.344370e-03 2.960086e-03
  vertex -3.500979e-03 -5.575014e-04 2.831657e-03
  vertex -4.234304e-03 4.874685e-04 1.990693e-03
 endloop
endfacet
facet normal 6.042940e-01 -1.971914e-01 -7.719743e-01
 outer loop
  vertex -4.234304e-03 4.874685e-04 1.990693e-03
  vertex -3.500979e-03 -5.575014e-04 2.831657e-03
  vertex -4.478732e-03 -7.396968e-04 2.112821e-03
 endloop
endfacet
facet normal 5.752987e-01 1.103016e-01 -8.104721e-01
 outer loop
  vertex -4.478732e-03 -7.396968e-04 2.112821e-03
  vertex -3.500979e-03 -5.575014e-04 2.831657e-03
  vertex -4.611224e-03 -1.747086e-03 1.881673e-03
 endloop
endfacet
facet normal 8.219775e-01 1.452716e-01 -5.506806e-01
 outer loop
  vertex -3.564406e-03 3.961199e-03 3.415589e-03
  vertex -3.101018e-03 2.864111e-03 3.817853e-03
  vertex -4.473676e-03 3.814144e-03 2.019567e-03
 endloop
endfacet
facet normal 8.131099e-01 8.469126e-02 -5.759164e-01
 outer loop
  vertex -4.473676e-03 3.814144e-03 2.019567e-03
  vertex -3.101018e-03 2.864111e-03 3.817853e-03
  vertex -4.220546e-03 2.093658e-03 2.123944e-03
 endloop
endfacet
facet normal 7.669497e-01 2.149265e-01 -6.046443e-01
 outer loop
  vertex -4.220546e-03 2.093658e-03 2.123944e-03
  vertex -3.101018e-03 2.864111e-03 3.817853e-03
  vertex -3.351375e-03 1.344370e-03 2.960086e-03
 endloop
endfacet
facet normal 6.868442e-01 -6.181700e-01 -3.822445e-01
 outer loop
  vertex -3.425860e-03 4.750747e-03 2.387673e-03
  vertex -3.564406e-03 3.961199e-03 3.415589e-03
  vertex -4.473676e-03 3.814144e-03 2.019567e-03
 endloop
endfacet
facet normal -6.558144e-01 4.644053e-01 -5.951766e-01
 outer loop
  vertex 2.771336e-03 -2.056562e-03 2.778751e-03
  vertex 1.489045e-03 -3.057839e-03 3.410407e-03
  vertex 2.043321e-03 -1.212585e-03 4.239478e-03
 endloop
endfacet
facet normal -7.837486e-01 6.080946e-01 -1.263290e-01
 outer loop
  vertex 9.006052e-04 -4.144115e-03 1.832227e-03
  vertex -6.842251e-05 -5.357357e-03 2.004066e-03
  vertex 1.489045e-03 -3.057839e-03 3.410407e-03
 endloop
endfacet
facet normal -7.480109e-01 -4.405801e-01 -4.963556e-01
 outer loop
  vertex 4.661168e-04 2.927618e-03 4.194503e-03
  vertex 1.549127e-03 2.368209e-03 3.058948e-03
  vertex 2.203614e-03 7.626454e-04 3.497779e-03
 endloop
endfacet
facet normal -7.045122e-01 -6.024452e-01 -3.751298e-01
 outer loop
  vertex 8.838568e-04 3.132545e-03 3.080863e-03
  vertex 1.549127e-03 2.368209e-03 3.058948e-03
  vertex 4.661168e-04 2.927618e-03 4.194503e-03
 endloop
endfacet
facet normal 7.578561e-01 1.067231e-01 -6.436336e-01
 outer loop
  vertex -2.425909e-03 -4.680742e-03 3.203193e-03
  vertex -1.744956e-03 -2.877667e-03 4.303966e-03
  vertex -1.708057e-03 -4.529908e-03 4.073449e-03
 endloop
endfacet
facet normal 5.542255e-01 6.127406e-01 -5.633675e-01
 outer loop
  vertex -2.425909e-03 -4.680742e-03 3.203193e-03
  vertex -1.708057e-03 -4.529908e-03 4.073449e-03
  vertex -1.450958e-03 -5.363841e-03 3.419358e-03
 endloop
endfacet
facet normal -5.167014e-01 -7.863953e-01 -3.385293e-01
 outer loop
  vertex -1.347802e-04 3.995537e-03 2.630910e-03
  vertex 8.838568e-04 3.132545e-03 3.080863e-03
  vertex 4.661168e-04 2.927618e-03 4.194503e-03
 endloop
endfacet
facet normal 7.300786e-01 6.824762e-02 -6.799467e-01
 outer loop
  vertex -2.323509e-03 -9.952905e-04 3.871694e-03
  vertex -1.744956e-03 -2.877667e-03 4.303966e-03
  vertex -2.614064e-03 -2.073138e-03 3.451531e-03
 endloop
endfacet
facet normal 5.959789e-01 2.423007e-01 -7.655714e-01
 outer loop
  vertex -1.744956e-03 -2.877667e-03 4.303966e-03
  vertex -2.425909e-03 -4.680742e-03 3.203193e-03
  vertex -3.060492e-03 -3.569971e-03 3.060741e-03
 endloop
endfacet
facet normal 6.916712e-01 -1.779312e-02 -7.219933e-01
 outer loop
  vertex -1.744956e-03 -2.877667e-03 4.303966e-03
  vertex -3.060492e-03 -3.569971e-03 3.060741e-03
  vertex -2.614064e-03 -2.073138e-03 3.451531e-03
 endloop
endfacet
facet normal -5.139440e-01 -7.874371e-01 -3.403005e-01
 outer loop
  vertex -1.347802e-04 3.995537e-03 2.630910e-03
  vertex 4.661168e-04 2.927618e-03 4.194503e-03
  vertex -8.839963e-04 3.605125e-03 4.665818e-03
 endloop
endfacet
facet normal 8.485918e-01 1.635372e-01 -5.031378e-01
 outer loop
  vertex -2.610592e-03 1.447605e-03 4.042153e-03
  vertex -2.024791e-03 -4.370123e-05 4.545438e-03
  vertex -2.716065e-03 4.113311e-04 3.527438e-03
 endloop
endfacet
facet normal 6.623198e-01 1.474432e-03 -7.492198e-01
 outer loop
  vertex -2.716065e-03 4.113311e-04 3.527438e-03
  vertex -2.323509e-03 -9.952905e-04 3.871694e-03
  vertex -3.500979e-03 -5.575014e-04 2.831657e-03
 endloop
endfacet
facet normal 8.441177e-01 1.069940e-01 -5.253737e-01
 outer loop
  vertex -2.323509e-03 -9.952905e-04 3.871694e-03
  vertex -2.716065e-03 4.113311e-04 3.527438e-03
  vertex -2.024791e-03 -4.370123e-05 4.545438e-03
 endloop
endfacet
facet normal 6.793541e-01 1.002372e-01 -7.269323e-01
 outer loop
  vertex -3.500979e-03 -5.575014e-04 2.831657e-03
  vertex -2.323509e-03 -9.952905e-04 3.871694e-03
  vertex -2.614064e-03 -2.073138e-03 3.451531e-03
 endloop
endfacet
facet normal 5.694855e-01 -2.935167e-03 -8.219962e-01
 outer loop
  vertex -3.587110e-03 -2.143380e-03 2.777648e-03
  vertex -3.500979e-03 -5.575014e-04 2.831657e-03
  vertex -2.614064e-03 -2.073138e-03 3.451531e-03
 endloop
endfacet
facet normal 5.665069e-01 4.585022e-02 -8.227805e-01
 outer loop
  vertex -3.587110e-03 -2.143380e-03 2.777648e-03
  vertex -2.614064e-03 -2.073138e-03 3.451531e-03
  vertex -3.060492e-03 -3.569971e-03 3.060741e-03
 endloop
endfacet
facet normal -3.090105e-01 -9.065022e-01 -2.876913e-01
 outer loop
  vertex -1.964129e-03 4.191166e-03 3.979405e-03
  vertex -1.347802e-04 3.995537e-03 2.630910e-03
  vertex -8.839963e-04 3.605125e-03 4.665818e-03
 endloop
endfacet
facet normal -3.790841e-01 -8.379014e-01 -3.927040e-01
 outer loop
  vertex -1.347802e-04 3.995537e-03 2.630910e-03
  vertex -1.964129e-03 4.191166e-03 3.979405e-03
  vertex -2.018469e-03 4.870839e-03 2.581662e-03
 endloop
endfacet
facet normal 7.994952e-01 1.999624e-01 -5.664119e-01
 outer loop
  vertex -2.610592e-03 1.447605e-03 4.042153e-03
  vertex -2.716065e-03 4.113311e-04 3.527438e-03
  vertex -3.351375e-03 1.344370e-03 2.960086e-03
 endloop
endfacet
facet normal 1.361493e-01 -8.888475e-01 -4.375082e-01
 outer loop
  vertex -1.964129e-03 4.191166e-03 3.979405e-03
  vertex -3.425860e-03 4.750747e-03 2.387673e-03
  vertex -2.018469e-03 4.870839e-03 2.581662e-03
 endloop
endfacet
facet normal -1.436723e-02 -9.473578e-01 -3.198543e-01
 outer loop
  vertex -3.051842e-03 4.219486e-03 3.944383e-03
  vertex -3.425860e-03 4.750747e-03 2.387673e-03
  vertex -1.964129e-03 4.191166e-03 3.979405e-03
 endloop
endfacet
facet normal 8.020129e-01 1.878943e-01 -5.669842e-01
 outer loop
  vertex -2.610592e-03 1.447605e-03 4.042153e-03
  vertex -3.351375e-03 1.344370e-03 2.960086e-03
  vertex -3.101018e-03 2.864111e-03 3.817853e-03
 endloop
endfacet
facet normal 7.275603e-01 -4.190185e-02 -6.847629e-01
 outer loop
  vertex -3.564406e-03 3.961199e-03 3.415589e-03
  vertex -3.051842e-03 4.219486e-03 3.944383e-03
  vertex -2.220069e-03 3.465831e-03 4.874259e-03
 endloop
endfacet
facet normal 6.960924e-01 -6.116341e-01 -3.759776e-01
 outer loop
  vertex -3.051842e-03 4.219486e-03 3.944383e-03
  vertex -3.564406e-03 3.961199e-03 3.415589e-03
  vertex -3.425860e-03 4.750747e-03 2.387673e-03
 endloop
endfacet
facet normal 7.454856e-01 7.191470e-02 -6.626308e-01
 outer loop
  vertex -3.564406e-03 3.961199e-03 3.415589e-03
  vertex -2.220069e-03 3.465831e-03 4.874259e-03
  vertex -3.101018e-03 2.864111e-03 3.817853e-03
 endloop
endfacet
facet normal -7.545096e-01 -1.761628e-01 -6.322040e-01
 outer loop
  vertex 2.043321e-03 -1.212585e-03 4.239478e-03
  vertex 1.035878e-03 -1.020035e-03 5.388166e-03
  vertex 2.203614e-03 7.626454e-04 3.497779e-03
 endloop
endfacet
facet normal -7.644058e-01 4.409485e-01 -4.703702e-01
 outer loop
  vertex 4.505892e-04 -3.260061e-03 4.908444e-03
  vertex 2.043321e-03 -1.212585e-03 4.239478e-03
  vertex 1.489045e-03 -3.057839e-03 3.410407e-03
 endloop
endfacet
facet normal -6.853071e-01 3.192400e-01 -6.545533e-01
 outer loop
  vertex 4.505892e-04 -3.260061e-03 4.908444e-03
  vertex 1.035878e-03 -1.020035e-03 5.388166e-03
  vertex 2.043321e-03 -1.212585e-03 4.239478e-03
 endloop
endfacet
facet normal -6.531828e-01 6.644646e-01 -3.630964e-01
 outer loop
  vertex 4.505892e-04 -3.260061e-03 4.908444e-03
  vertex 1.489045e-03 -3.057839e-03 3.410407e-03
  vertex -6.842251e-05 -5.357357e-03 2.004066e-03
 endloop
endfacet
facet normal -4.730562e-01 7.522287e-01 -4.586608e-01
 outer loop
  vertex -1.450958e-03 -5.363841e-03 3.419358e-03
  vertex 4.505892e-04 -3.260061e-03 4.908444e-03
  vertex -6.842251e-05 -5.357357e-03 2.004066e-03
 endloop
endfacet
facet normal -7.475205e-01 -2.160633e-01 -6.281160e-01
 outer loop
  vertex 4.058838e-04 1.905483e-03 5.244136e-03
  vertex 2.203614e-03 7.626454e-04 3.497779e-03
  vertex 6.364564e-04 5.415036e-04 5.438922e-03
 endloop
endfacet
facet normal -7.528408e-01 -4.494404e-01 -4.808680e-01
 outer loop
  vertex 2.203614e-03 7.626454e-04 3.497779e-03
  vertex 4.058838e-04 1.905483e-03 5.244136e-03
  vertex 4.661168e-04 2.927618e-03 4.194503e-03
 endloop
endfacet
facet normal 6.702419e-01 7.854640e-02 -7.379745e-01
 outer loop
  vertex -1.744956e-03 -2.877667e-03 4.303966e-03
  vertex -4.986787e-04 -2.747986e-03 5.449660e-03
  vertex -1.006580e-03 -3.974637e-03 4.857816e-03
 endloop
endfacet
facet normal 2.838344e-01 6.444222e-01 -7.100409e-01
 outer loop
  vertex -1.708057e-03 -4.529908e-03 4.073449e-03
  vertex -1.006580e-03 -3.974637e-03 4.857816e-03
  vertex -1.450958e-03 -5.363841e-03 3.419358e-03
 endloop
endfacet
facet normal 6.990288e-01 1.141011e-01 -7.059318e-01
 outer loop
  vertex -1.708057e-03 -4.529908e-03 4.073449e-03
  vertex -1.744956e-03 -2.877667e-03 4.303966e-03
  vertex -1.006580e-03 -3.974637e-03 4.857816e-03
 endloop
endfacet
facet normal -5.150160e-01 -5.991496e-01 -6.130076e-01
 outer loop
  vertex 4.058838e-04 1.905483e-03 5.244136e-03
  vertex -6.594245e-04 2.675290e-03 5.386746e-03
  vertex 4.661168e-04 2.927618e-03 4.194503e-03
 endloop
endfacet
facet normal 8.267323e-01 1.283079e-01 -5.477690e-01
 outer loop
  vertex -1.744956e-03 -2.877667e-03 4.303966e-03
  vertex -2.323509e-03 -9.952905e-04 3.871694e-03
  vertex -2.024791e-03 -4.370123e-05 4.545438e-03
 endloop
endfacet
facet normal -5.147830e-01 -5.994990e-01 -6.128617e-01
 outer loop
  vertex -8.839963e-04 3.605125e-03 4.665818e-03
  vertex 4.661168e-04 2.927618e-03 4.194503e-03
  vertex -6.594245e-04 2.675290e-03 5.386746e-03
 endloop
endfacet
facet normal -1.798956e-02 -7.742012e-01 -6.326839e-01
 outer loop
  vertex -2.220069e-03 3.465831e-03 4.874259e-03
  vertex -1.964129e-03 4.191166e-03 3.979405e-03
  vertex -8.839963e-04 3.605125e-03 4.665818e-03
 endloop
endfacet
facet normal 7.636886e-01 1.503074e-02 -6.454098e-01
 outer loop
  vertex -2.220069e-03 3.465831e-03 4.874259e-03
  vertex -1.923216e-03 1.809459e-03 5.186940e-03
  vertex -3.101018e-03 2.864111e-03 3.817853e-03
 endloop
endfacet
facet normal 8.126498e-01 1.943640e-01 -5.493842e-01
 outer loop
  vertex -1.923216e-03 1.809459e-03 5.186940e-03
  vertex -2.610592e-03 1.447605e-03 4.042153e-03
  vertex -3.101018e-03 2.864111e-03 3.817853e-03
 endloop
endfacet
facet normal 8.281056e-01 1.423043e-01 -5.422090e-01
 outer loop
  vertex -2.610592e-03 1.447605e-03 4.042153e-03
  vertex -1.923216e-03 1.809459e-03 5.186940e-03
  vertex -2.024791e-03 -4.370123e-05 4.545438e-03
 endloop
endfacet
facet normal 4.764350e-05 -7.768567e-01 -6.296774e-01
 outer loop
  vertex -1.964129e-03 4.191166e-03 3.979405e-03
  vertex -2.220069e-03 3.465831e-03 4.874259e-03
  vertex -3.051842e-03 4.219486e-03 3.944383e-03
 endloop
endfacet
facet normal -8.015281e-01 3.178907e-01 -5.064565e-01
 outer loop
  vertex 1.035878e-03 -1.020035e-03 5.388166e-03
  vertex 4.505892e-04 -3.260061e-03 4.908444e-03
  vertex 3.673956e-04 -2.119617e-03 5.755937e-03
 endloop
endfacet
facet normal -7.566113e-01 -1.730360e-01 -6.305536e-01
 outer loop
  vertex 2.203614e-03 7.626454e-04 3.497779e-03
  vertex 1.035878e-03 -1.020035e-03 5.388166e-03
  vertex 6.364564e-04 5.415036e-04 5.438922e-03
 endloop
endfacet
facet normal -1.909039e-01 -2.050141e-01 -9.599609e-01
 outer loop
  vertex -6.402056e-04 -2.723681e-04 5.561807e-03
  vertex 1.035878e-03 -1.020035e-03 5.388166e-03
  vertex 3.673956e-04 -2.119617e-03 5.755937e-03
 endloop
endfacet
facet normal -1.408776e-01 5.838733e-01 -7.995283e-01
 outer loop
  vertex -4.986787e-04 -2.747986e-03 5.449660e-03
  vertex 3.673956e-04 -2.119617e-03 5.755937e-03
  vertex 4.505892e-04 -3.260061e-03 4.908444e-03
 endloop
endfacet
facet normal 2.938205e-01 6.001286e-02 -9.539748e-01
 outer loop
  vertex 3.673956e-04 -2.119617e-03 5.755937e-03
  vertex -4.986787e-04 -2.747986e-03 5.449660e-03
  vertex -6.402056e-04 -2.723681e-04 5.561807e-03
 endloop
endfacet
facet normal -3.358354e-01 7.272499e-01 -5.986002e-01
 outer loop
  vertex -1.450958e-03 -5.363841e-03 3.419358e-03
  vertex -1.006580e-03 -3.974637e-03 4.857816e-03
  vertex 4.505892e-04 -3.260061e-03 4.908444e-03
 endloop
endfacet
facet normal -2.133738e-01 4.947987e-01 -8.424048e-01
 outer loop
  vertex -4.986787e-04 -2.747986e-03 5.449660e-03
  vertex 4.505892e-04 -3.260061e-03 4.908444e-03
  vertex -1.006580e-03 -3.974637e-03 4.857816e-03
 endloop
endfacet
facet normal 6.709696e-01 7.179012e-02 -7.380013e-01
 outer loop
  vertex -1.744956e-03 -2.877667e-03 4.303966e-03
  vertex -6.402056e-04 -2.723681e-04 5.561807e-03
  vertex -4.986787e-04 -2.747986e-03 5.449660e-03
 endloop
endfacet
facet normal -4.660189e-03 -1.421433e-01 -9.898351e-01
 outer loop
  vertex -6.402056e-04 -2.723681e-04 5.561807e-03
  vertex 4.058838e-04 1.905483e-03 5.244136e-03
  vertex 6.364564e-04 5.415036e-04 5.438922e-03
 endloop
endfacet
facet normal -1.745730e-01 -5.950920e-02 -9.828443e-01
 outer loop
  vertex 4.058838e-04 1.905483e-03 5.244136e-03
  vertex -6.402056e-04 -2.723681e-04 5.561807e-03
  vertex -6.594245e-04 2.675290e-03 5.386746e-03
 endloop
endfacet
facet normal -1.000687e-01 6.743681e-03 -9.949577e-01
 outer loop
  vertex 1.035878e-03 -1.020035e-03 5.388166e-03
  vertex -6.402056e-04 -2.723681e-04 5.561807e-03
  vertex 6.364564e-04 5.415036e-04 5.438922e-03
 endloop
endfacet
facet normal 6.004845e-01 1.265692e-01 -7.895559e-01
 outer loop
  vertex -2.024791e-03 -4.370123e-05 4.545438e-03
  vertex -6.402056e-04 -2.723681e-04 5.561807e-03
  vertex -1.744956e-03 -2.877667e-03 4.303966e-03
 endloop
endfacet
facet normal -5.736149e-02 -6.203411e-01 -7.822318e-01
 outer loop
  vertex -6.594245e-04 2.675290e-03 5.386746e-03
  vertex -2.220069e-03 3.465831e-03 4.874259e-03
  vertex -8.839963e-04 3.605125e-03 4.665818e-03
 endloop
endfacet
facet normal 1.938249e-01 -5.690176e-02 -9.793845e-01
 outer loop
  vertex -1.923216e-03 1.809459e-03 5.186940e-03
  vertex -6.594245e-04 2.675290e-03 5.386746e-03
  vertex -6.402056e-04 -2.723681e-04 5.561807e-03
 endloop
endfacet
facet normal 2.456585e-01 -1.371231e-01 -9.596088e-01
 outer loop
  vertex -6.594245e-04 2.675290e-03 5.386746e-03
  vertex -1.923216e-03 1.809459e-03 5.186940e-03
  vertex -2.220069e-03 3.465831e-03 4.874259e-03
 endloop
endfacet
facet normal 6.002051e-01 2.320708e-01 -7.654391e-01
 outer loop
  vertex -6.402056e-04 -2.723681e-04 5.561807e-03
  vertex -2.024791e-03 -4.370123e-05 4.545438e-03
  vertex -1.923216e-03 1.809459e-03 5.186940e-03
 endloop
endfacet
endsolid 
