solid 
facet normal 6.915679e-01 3.699784e-02 -7.213633e-01
 outer loop
  vertex 6.176170e-03 -1.764940e-05 -4.250795e-03
  vertex 7.326276e-03 7.789085e-05 -3.143294e-03
  vertex 6.828263e-03 -1.117331e-03 -3.682038e-03
 endloop
endfacet
facet normal 6.642124e-01 2.340620e-01 -7.099555e-01
 outer loop
  vertex 6.176170e-03 -1.764940e-05 -4.250795e-03
  vertex 6.463436e-03 1.793627e-03 -3.384887e-03
  vertex 7.326276e-03 7.789085e-05 -3.143294e-03
 endloop
endfacet
facet normal 4.126487e-01 3.387810e-01 -8.455463e-01
 outer loop
  vertex 6.176170e-03 -1.764940e-05 -4.250795e-03
  vertex 4.918711e-03 1.789286e-03 -4.140492e-03
  vertex 6.463436e-03 1.793627e-03 -3.384887e-03
 endloop
endfacet
facet normal 3.559269e-01 5.822170e-01 -7.309852e-01
 outer loop
  vertex 5.327872e-03 2.802451e-03 -3.134298e-03
  vertex 6.463436e-03 1.793627e-03 -3.384887e-03
  vertex 4.918711e-03 1.789286e-03 -4.140492e-03
 endloop
endfacet
facet normal 6.471466e-01 -4.884658e-01 -5.853225e-01
 outer loop
  vertex 6.534314e-03 -2.088417e-03 -3.196641e-03
  vertex 5.861268e-03 -1.628054e-03 -4.324960e-03
  vertex 6.828263e-03 -1.117331e-03 -3.682038e-03
 endloop
endfacet
facet normal 5.795742e-01 -7.596478e-02 -8.113711e-01
 outer loop
  vertex 6.828263e-03 -1.117331e-03 -3.682038e-03
  vertex 5.861268e-03 -1.628054e-03 -4.324960e-03
  vertex 6.176170e-03 -1.764940e-05 -4.250795e-03
 endloop
endfacet
facet normal 2.654170e-01 2.416814e-01 -9.333509e-01
 outer loop
  vertex 6.176170e-03 -1.764940e-05 -4.250795e-03
  vertex 3.991286e-03 6.485540e-04 -4.699604e-03
  vertex 4.918711e-03 1.789286e-03 -4.140492e-03
 endloop
endfacet
facet normal -2.081075e-01 5.616729e-01 -8.007589e-01
 outer loop
  vertex 2.454294e-03 2.516056e-03 -2.990245e-03
  vertex 4.918711e-03 1.789286e-03 -4.140492e-03
  vertex 3.991286e-03 6.485540e-04 -4.699604e-03
 endloop
endfacet
facet normal 5.323817e-01 -6.238963e-01 -5.721215e-01
 outer loop
  vertex 5.861268e-03 -1.628054e-03 -4.324960e-03
  vertex 6.534314e-03 -2.088417e-03 -3.196641e-03
  vertex 4.881187e-03 -2.411055e-03 -4.383105e-03
 endloop
endfacet
facet normal 4.899891e-01 -7.237470e-01 -4.859022e-01
 outer loop
  vertex 4.881187e-03 -2.411055e-03 -4.383105e-03
  vertex 6.534314e-03 -2.088417e-03 -3.196641e-03
  vertex 4.473607e-03 -3.456692e-03 -3.236647e-03
 endloop
endfacet
facet normal 3.261060e-01 -2.024165e-02 -9.451165e-01
 outer loop
  vertex 5.861268e-03 -1.628054e-03 -4.324960e-03
  vertex 4.405778e-03 -1.076185e-03 -4.838987e-03
  vertex 6.176170e-03 -1.764940e-05 -4.250795e-03
 endloop
endfacet
facet normal 2.433623e-01 -2.347309e-01 -9.411037e-01
 outer loop
  vertex 5.861268e-03 -1.628054e-03 -4.324960e-03
  vertex 4.881187e-03 -2.411055e-03 -4.383105e-03
  vertex 4.405778e-03 -1.076185e-03 -4.838987e-03
 endloop
endfacet
facet normal 2.387262e-01 1.350849e-01 -9.616454e-01
 outer loop
  vertex 6.176170e-03 -1.764940e-05 -4.250795e-03
  vertex 4.405778e-03 -1.076185e-03 -4.838987e-03
  vertex 3.991286e-03 6.485540e-04 -4.699604e-03
 endloop
endfacet
facet normal -5.858200e-02 -7.271220e-01 -6.840042e-01
 outer loop
  vertex 4.473607e-03 -3.456692e-03 -3.236647e-03
  vertex 3.346057e-03 -2.503958e-03 -4.152869e-03
  vertex 4.881187e-03 -2.411055e-03 -4.383105e-03
 endloop
endfacet
facet normal -1.172517e-01 -3.581035e-01 -9.262904e-01
 outer loop
  vertex 4.881187e-03 -2.411055e-03 -4.383105e-03
  vertex 3.346057e-03 -2.503958e-03 -4.152869e-03
  vertex 4.405778e-03 -1.076185e-03 -4.838987e-03
 endloop
endfacet
facet normal -3.711082e-01 -1.637944e-01 -9.140296e-01
 outer loop
  vertex 4.405778e-03 -1.076185e-03 -4.838987e-03
  vertex 3.346057e-03 -2.503958e-03 -4.152869e-03
  vertex 1.893432e-03 -1.445119e-04 -3.985897e-03
 endloop
endfacet
facet normal -3.218012e-01 -8.209355e-04 -9.468069e-01
 outer loop
  vertex 4.405778e-03 -1.076185e-03 -4.838987e-03
  vertex 1.893432e-03 -1.445119e-04 -3.985897e-03
  vertex 3.991286e-03 6.485540e-04 -4.699604e-03
 endloop
endfacet
facet normal -4.261069e-01 3.944938e-01 -8.141299e-01
 outer loop
  vertex 3.991286e-03 6.485540e-04 -4.699604e-03
  vertex 1.893432e-03 -1.445119e-04 -3.985897e-03
  vertex 2.454294e-03 2.516056e-03 -2.990245e-03
 endloop
endfacet
facet normal 8.314373e-01 2.059493e-01 -5.160397e-01
 outer loop
  vertex 7.326276e-03 7.789085e-05 -3.143294e-03
  vertex 7.405131e-03 1.486350e-03 -2.454132e-03
  vertex 7.994748e-03 3.718934e-04 -1.948924e-03
 endloop
endfacet
facet normal 7.980312e-01 -1.824420e-01 -5.743354e-01
 outer loop
  vertex 7.541647e-03 -1.561163e-03 -1.964452e-03
  vertex 6.534314e-03 -2.088417e-03 -3.196641e-03
  vertex 7.994748e-03 3.718934e-04 -1.948924e-03
 endloop
endfacet
facet normal 9.341823e-01 -3.387618e-01 -1.119993e-01
 outer loop
  vertex 6.828263e-03 -1.117331e-03 -3.682038e-03
  vertex 7.326276e-03 7.789085e-05 -3.143294e-03
  vertex 6.534314e-03 -2.088417e-03 -3.196641e-03
 endloop
endfacet
facet normal 8.611128e-01 -3.047861e-01 -4.069277e-01
 outer loop
  vertex 7.994748e-03 3.718934e-04 -1.948924e-03
  vertex 6.534314e-03 -2.088417e-03 -3.196641e-03
  vertex 7.326276e-03 7.789085e-05 -3.143294e-03
 endloop
endfacet
facet normal 7.198925e-01 2.721227e-01 -6.385170e-01
 outer loop
  vertex 7.405131e-03 1.486350e-03 -2.454132e-03
  vertex 7.326276e-03 7.789085e-05 -3.143294e-03
  vertex 6.463436e-03 1.793627e-03 -3.384887e-03
 endloop
endfacet
facet normal 6.775434e-01 5.291531e-01 -5.108149e-01
 outer loop
  vertex 7.405131e-03 1.486350e-03 -2.454132e-03
  vertex 6.463436e-03 1.793627e-03 -3.384887e-03
  vertex 6.863041e-03 2.377211e-03 -2.250317e-03
 endloop
endfacet
facet normal 5.347519e-01 7.141382e-01 -4.517157e-01
 outer loop
  vertex 5.327872e-03 2.802451e-03 -3.134298e-03
  vertex 6.018524e-03 3.044639e-03 -1.933802e-03
  vertex 6.463436e-03 1.793627e-03 -3.384887e-03
 endloop
endfacet
facet normal 3.968667e-01 7.518548e-01 -5.265085e-01
 outer loop
  vertex 6.018524e-03 3.044639e-03 -1.933802e-03
  vertex 6.863041e-03 2.377211e-03 -2.250317e-03
  vertex 6.463436e-03 1.793627e-03 -3.384887e-03
 endloop
endfacet
facet normal 7.861866e-01 -3.988417e-01 -4.720550e-01
 outer loop
  vertex 6.534314e-03 -2.088417e-03 -3.196641e-03
  vertex 7.541647e-03 -1.561163e-03 -1.964452e-03
  vertex 6.610061e-03 -3.094565e-03 -2.220387e-03
 endloop
endfacet
facet normal 1.310760e-01 6.714308e-01 -7.293832e-01
 outer loop
  vertex 4.918711e-03 1.789286e-03 -4.140492e-03
  vertex 4.208509e-03 2.841709e-03 -3.299317e-03
  vertex 5.327872e-03 2.802451e-03 -3.134298e-03
 endloop
endfacet
facet normal 5.061572e-01 -5.806441e-01 -6.376968e-01
 outer loop
  vertex 6.534314e-03 -2.088417e-03 -3.196641e-03
  vertex 6.610061e-03 -3.094565e-03 -2.220387e-03
  vertex 5.629765e-03 -3.518449e-03 -2.612514e-03
 endloop
endfacet
facet normal -2.396316e-01 5.023325e-01 -8.308061e-01
 outer loop
  vertex 2.454294e-03 2.516056e-03 -2.990245e-03
  vertex 4.208509e-03 2.841709e-03 -3.299317e-03
  vertex 4.918711e-03 1.789286e-03 -4.140492e-03
 endloop
endfacet
facet normal 3.758606e-01 -5.441381e-01 -7.500950e-01
 outer loop
  vertex 4.473607e-03 -3.456692e-03 -3.236647e-03
  vertex 6.534314e-03 -2.088417e-03 -3.196641e-03
  vertex 5.629765e-03 -3.518449e-03 -2.612514e-03
 endloop
endfacet
facet normal 9.967110e-01 2.849817e-02 -7.586194e-02
 outer loop
  vertex 8.064803e-03 1.271322e-03 -6.906312e-04
  vertex 8.078004e-03 8.049338e-05 -9.645412e-04
  vertex 7.994748e-03 3.718934e-04 -1.948924e-03
 endloop
endfacet
facet normal 9.631619e-01 -2.245732e-01 -1.479395e-01
 outer loop
  vertex 7.994748e-03 3.718934e-04 -1.948924e-03
  vertex 8.078004e-03 8.049338e-05 -9.645412e-04
  vertex 7.541647e-03 -1.561163e-03 -1.964452e-03
 endloop
endfacet
facet normal 7.232662e-01 5.421202e-01 -4.277754e-01
 outer loop
  vertex 7.994748e-03 3.718934e-04 -1.948924e-03
  vertex 7.080450e-03 2.237298e-03 -1.130755e-03
  vertex 8.064803e-03 1.271322e-03 -6.906312e-04
 endloop
endfacet
facet normal 7.080446e-01 -5.214047e-01 4.762457e-01
 outer loop
  vertex 7.541647e-03 -1.561163e-03 -1.964452e-03
  vertex 8.078004e-03 8.049338e-05 -9.645412e-04
  vertex 7.068357e-03 -8.451731e-04 -4.769186e-04
 endloop
endfacet
facet normal 8.904230e-01 4.534717e-01 -3.886242e-02
 outer loop
  vertex 7.405131e-03 1.486350e-03 -2.454132e-03
  vertex 7.080450e-03 2.237298e-03 -1.130755e-03
  vertex 7.994748e-03 3.718934e-04 -1.948924e-03
 endloop
endfacet
facet normal 8.403243e-01 5.334217e-01 -9.652117e-02
 outer loop
  vertex 7.080450e-03 2.237298e-03 -1.130755e-03
  vertex 7.405131e-03 1.486350e-03 -2.454132e-03
  vertex 6.863041e-03 2.377211e-03 -2.250317e-03
 endloop
endfacet
facet normal 6.150687e-01 7.881954e-01 -2.093900e-02
 outer loop
  vertex 6.018524e-03 3.044639e-03 -1.933802e-03
  vertex 7.080450e-03 2.237298e-03 -1.130755e-03
  vertex 6.863041e-03 2.377211e-03 -2.250317e-03
 endloop
endfacet
facet normal 8.579532e-01 -2.997155e-01 4.172372e-01
 outer loop
  vertex 7.541647e-03 -1.561163e-03 -1.964452e-03
  vertex 7.068357e-03 -8.451731e-04 -4.769186e-04
  vertex 6.919440e-03 -2.435206e-03 -1.312880e-03
 endloop
endfacet
facet normal 2.063866e-01 9.293203e-01 -3.062161e-01
 outer loop
  vertex 4.823701e-03 3.277581e-03 -2.032157e-03
  vertex 6.018524e-03 3.044639e-03 -1.933802e-03
  vertex 5.327872e-03 2.802451e-03 -3.134298e-03
 endloop
endfacet
facet normal 8.159002e-01 -5.631534e-01 1.310158e-01
 outer loop
  vertex 6.919440e-03 -2.435206e-03 -1.312880e-03
  vertex 6.245523e-03 -3.395037e-03 -1.241764e-03
  vertex 6.610061e-03 -3.094565e-03 -2.220387e-03
 endloop
endfacet
facet normal 8.434306e-01 -5.285079e-01 9.645829e-02
 outer loop
  vertex 7.541647e-03 -1.561163e-03 -1.964452e-03
  vertex 6.919440e-03 -2.435206e-03 -1.312880e-03
  vertex 6.610061e-03 -3.094565e-03 -2.220387e-03
 endloop
endfacet
facet normal 1.315608e-01 9.160147e-01 -3.789575e-01
 outer loop
  vertex 4.208509e-03 2.841709e-03 -3.299317e-03
  vertex 3.690750e-03 3.282607e-03 -2.413329e-03
  vertex 4.823701e-03 3.277581e-03 -2.032157e-03
 endloop
endfacet
facet normal 8.579603e-02 9.285861e-01 -3.610635e-01
 outer loop
  vertex 5.327872e-03 2.802451e-03 -3.134298e-03
  vertex 4.208509e-03 2.841709e-03 -3.299317e-03
  vertex 4.823701e-03 3.277581e-03 -2.032157e-03
 endloop
endfacet
facet normal 6.608091e-01 -7.503886e-01 1.575624e-02
 outer loop
  vertex 6.610061e-03 -3.094565e-03 -2.220387e-03
  vertex 6.245523e-03 -3.395037e-03 -1.241764e-03
  vertex 5.708478e-03 -3.879025e-03 -1.768192e-03
 endloop
endfacet
facet normal 4.910441e-01 -7.836667e-01 -3.804501e-01
 outer loop
  vertex 5.708478e-03 -3.879025e-03 -1.768192e-03
  vertex 5.629765e-03 -3.518449e-03 -2.612514e-03
  vertex 6.610061e-03 -3.094565e-03 -2.220387e-03
 endloop
endfacet
facet normal -2.447800e-01 8.033770e-01 -5.428334e-01
 outer loop
  vertex 3.690750e-03 3.282607e-03 -2.413329e-03
  vertex 4.208509e-03 2.841709e-03 -3.299317e-03
  vertex 2.454294e-03 2.516056e-03 -2.990245e-03
 endloop
endfacet
facet normal 1.090302e-01 -9.104535e-01 -3.989821e-01
 outer loop
  vertex 5.708478e-03 -3.879025e-03 -1.768192e-03
  vertex 4.674407e-03 -3.908220e-03 -1.984151e-03
  vertex 5.629765e-03 -3.518449e-03 -2.612514e-03
 endloop
endfacet
facet normal 1.427606e-01 -9.235785e-01 -3.558401e-01
 outer loop
  vertex 4.473607e-03 -3.456692e-03 -3.236647e-03
  vertex 5.629765e-03 -3.518449e-03 -2.612514e-03
  vertex 4.674407e-03 -3.908220e-03 -1.984151e-03
 endloop
endfacet
facet normal -2.464936e-01 -8.073288e-01 -5.361539e-01
 outer loop
  vertex 3.346057e-03 -2.503958e-03 -4.152869e-03
  vertex 4.473607e-03 -3.456692e-03 -3.236647e-03
  vertex 2.769022e-03 -3.464921e-03 -2.440583e-03
 endloop
endfacet
facet normal -2.743642e-01 -7.552150e-01 -5.952937e-01
 outer loop
  vertex 4.473607e-03 -3.456692e-03 -3.236647e-03
  vertex 3.701781e-03 -3.889053e-03 -2.332408e-03
  vertex 2.769022e-03 -3.464921e-03 -2.440583e-03
 endloop
endfacet
facet normal 1.078676e-01 -9.296051e-01 -3.524187e-01
 outer loop
  vertex 4.473607e-03 -3.456692e-03 -3.236647e-03
  vertex 4.674407e-03 -3.908220e-03 -1.984151e-03
  vertex 3.701781e-03 -3.889053e-03 -2.332408e-03
 endloop
endfacet
facet normal -4.704645e-01 -3.941260e-03 -8.824101e-01
 outer loop
  vertex 3.195864e-04 -6.559166e-04 -3.144504e-03
  vertex -6.409931e-04 1.120924e-03 -2.640299e-03
  vertex 1.893432e-03 -1.445119e-04 -3.985897e-03
 endloop
endfacet
facet normal -2.346002e-01 -8.118393e-01 -5.346772e-01
 outer loop
  vertex 2.769022e-03 -3.464921e-03 -2.440583e-03
  vertex 1.758860e-03 -2.582064e-03 -3.337859e-03
  vertex 3.346057e-03 -2.503958e-03 -4.152869e-03
 endloop
endfacet
facet normal -4.386513e-01 -2.081963e-01 -8.742078e-01
 outer loop
  vertex 3.346057e-03 -2.503958e-03 -4.152869e-03
  vertex 1.758860e-03 -2.582064e-03 -3.337859e-03
  vertex 1.893432e-03 -1.445119e-04 -3.985897e-03
 endloop
endfacet
facet normal -1.607085e-01 -2.452951e-01 -9.560351e-01
 outer loop
  vertex 1.893432e-03 -1.445119e-04 -3.985897e-03
  vertex 1.758860e-03 -2.582064e-03 -3.337859e-03
  vertex 1.138042e-03 -1.497506e-03 -3.511772e-03
 endloop
endfacet
facet normal -4.564126e-01 -5.635296e-02 -8.879819e-01
 outer loop
  vertex 1.893432e-03 -1.445119e-04 -3.985897e-03
  vertex 1.138042e-03 -1.497506e-03 -3.511772e-03
  vertex 3.195864e-04 -6.559166e-04 -3.144504e-03
 endloop
endfacet
facet normal 8.817808e-01 -9.642347e-02 4.616982e-01
 outer loop
  vertex 8.064803e-03 1.271322e-03 -6.906312e-04
  vertex 7.645619e-03 6.604835e-04 -1.761746e-05
  vertex 8.078004e-03 8.049338e-05 -9.645412e-04
 endloop
endfacet
facet normal 6.670221e-01 2.957075e-01 6.838411e-01
 outer loop
  vertex 7.645619e-03 6.604835e-04 -1.761746e-05
  vertex 8.064803e-03 1.271322e-03 -6.906312e-04
  vertex 7.097503e-03 1.542278e-03 1.357107e-04
 endloop
endfacet
facet normal 5.460581e-01 7.375028e-01 3.973791e-01
 outer loop
  vertex 8.064803e-03 1.271322e-03 -6.906312e-04
  vertex 7.080450e-03 2.237298e-03 -1.130755e-03
  vertex 7.097503e-03 1.542278e-03 1.357107e-04
 endloop
endfacet
facet normal 4.193125e-01 7.982424e-01 4.324188e-01
 outer loop
  vertex 7.097503e-03 1.542278e-03 1.357107e-04
  vertex 7.080450e-03 2.237298e-03 -1.130755e-03
  vertex 5.854859e-03 2.267007e-03 2.845466e-06
 endloop
endfacet
facet normal 6.841881e-01 -4.397883e-01 5.817842e-01
 outer loop
  vertex 7.645619e-03 6.604835e-04 -1.761746e-05
  vertex 7.068357e-03 -8.451731e-04 -4.769186e-04
  vertex 8.078004e-03 8.049338e-05 -9.645412e-04
 endloop
endfacet
facet normal 5.287874e-01 8.367896e-01 1.420109e-01
 outer loop
  vertex 7.080450e-03 2.237298e-03 -1.130755e-03
  vertex 6.018524e-03 3.044639e-03 -1.933802e-03
  vertex 5.617189e-03 3.112675e-03 -8.403007e-04
 endloop
endfacet
facet normal 5.097150e-01 6.750482e-01 5.333860e-01
 outer loop
  vertex 7.080450e-03 2.237298e-03 -1.130755e-03
  vertex 5.617189e-03 3.112675e-03 -8.403007e-04
  vertex 5.854859e-03 2.267007e-03 2.845466e-06
 endloop
endfacet
facet normal 1.906435e-01 9.816190e-01 8.894907e-03
 outer loop
  vertex 4.823701e-03 3.277581e-03 -2.032157e-03
  vertex 5.617189e-03 3.112675e-03 -8.403007e-04
  vertex 6.018524e-03 3.044639e-03 -1.933802e-03
 endloop
endfacet
facet normal -1.032839e-01 9.736177e-01 2.034724e-01
 outer loop
  vertex 4.823701e-03 3.277581e-03 -2.032157e-03
  vertex 4.438099e-03 2.981961e-03 -8.133468e-04
  vertex 5.617189e-03 3.112675e-03 -8.403007e-04
 endloop
endfacet
facet normal 3.189275e-01 -4.772735e-01 8.188377e-01
 outer loop
  vertex 5.202941e-03 -2.417112e-03 -2.656905e-04
  vertex 5.163527e-03 -3.720732e-03 -1.010177e-03
  vertex 6.245523e-03 -3.395037e-03 -1.241764e-03
 endloop
endfacet
facet normal 4.965314e-01 -2.879539e-01 8.188645e-01
 outer loop
  vertex 5.202941e-03 -2.417112e-03 -2.656905e-04
  vertex 6.245523e-03 -3.395037e-03 -1.241764e-03
  vertex 6.919440e-03 -2.435206e-03 -1.312880e-03
 endloop
endfacet
facet normal 4.626762e-01 -4.461121e-01 7.661036e-01
 outer loop
  vertex 5.202941e-03 -2.417112e-03 -2.656905e-04
  vertex 6.919440e-03 -2.435206e-03 -1.312880e-03
  vertex 7.068357e-03 -8.451731e-04 -4.769186e-04
 endloop
endfacet
facet normal -6.794999e-02 9.742884e-01 2.148138e-01
 outer loop
  vertex 4.823701e-03 3.277581e-03 -2.032157e-03
  vertex 3.690750e-03 3.282607e-03 -2.413329e-03
  vertex 4.438099e-03 2.981961e-03 -8.133468e-04
 endloop
endfacet
facet normal 2.059357e-01 9.746942e-01 8.695848e-02
 outer loop
  vertex 4.438099e-03 2.981961e-03 -8.133468e-04
  vertex 3.690750e-03 3.282607e-03 -2.413329e-03
  vertex 3.143346e-03 3.323410e-03 -1.574311e-03
 endloop
endfacet
facet normal 3.429323e-01 -8.393277e-01 4.218133e-01
 outer loop
  vertex 5.708478e-03 -3.879025e-03 -1.768192e-03
  vertex 6.245523e-03 -3.395037e-03 -1.241764e-03
  vertex 5.163527e-03 -3.720732e-03 -1.010177e-03
 endloop
endfacet
facet normal -3.969843e-01 8.670061e-01 -3.011708e-01
 outer loop
  vertex 3.143346e-03 3.323410e-03 -1.574311e-03
  vertex 3.690750e-03 3.282607e-03 -2.413329e-03
  vertex 2.454294e-03 2.516056e-03 -2.990245e-03
 endloop
endfacet
facet normal -1.311230e-02 -9.806445e-01 1.953570e-01
 outer loop
  vertex 5.708478e-03 -3.879025e-03 -1.768192e-03
  vertex 5.163527e-03 -3.720732e-03 -1.010177e-03
  vertex 4.674407e-03 -3.908220e-03 -1.984151e-03
 endloop
endfacet
facet normal -2.119286e-01 -9.344081e-01 2.863001e-01
 outer loop
  vertex 4.674407e-03 -3.908220e-03 -1.984151e-03
  vertex 5.163527e-03 -3.720732e-03 -1.010177e-03
  vertex 3.955419e-03 -3.517836e-03 -1.242260e-03
 endloop
endfacet
facet normal -4.191448e-01 -8.252460e-01 3.785323e-01
 outer loop
  vertex 3.701781e-03 -3.889053e-03 -2.332408e-03
  vertex 3.955419e-03 -3.517836e-03 -1.242260e-03
  vertex 2.769022e-03 -3.464921e-03 -2.440583e-03
 endloop
endfacet
facet normal -1.431079e-01 -9.262441e-01 3.487003e-01
 outer loop
  vertex 3.701781e-03 -3.889053e-03 -2.332408e-03
  vertex 4.674407e-03 -3.908220e-03 -1.984151e-03
  vertex 3.955419e-03 -3.517836e-03 -1.242260e-03
 endloop
endfacet
facet normal -4.680346e-01 -8.336170e-01 -2.933025e-01
 outer loop
  vertex 2.769022e-03 -3.464921e-03 -2.440583e-03
  vertex 1.548234e-03 -3.000875e-03 -1.811423e-03
  vertex 1.758860e-03 -2.582064e-03 -3.337859e-03
 endloop
endfacet
facet normal -6.712516e-01 -4.754241e-01 -5.686767e-01
 outer loop
  vertex 1.758860e-03 -2.582064e-03 -3.337859e-03
  vertex 6.602196e-04 -1.987476e-03 -2.538139e-03
  vertex 1.138042e-03 -1.497506e-03 -3.511772e-03
 endloop
endfacet
facet normal -6.090340e-01 -7.394300e-01 -2.869161e-01
 outer loop
  vertex 1.548234e-03 -3.000875e-03 -1.811423e-03
  vertex 6.602196e-04 -1.987476e-03 -2.538139e-03
  vertex 1.758860e-03 -2.582064e-03 -3.337859e-03
 endloop
endfacet
facet normal -7.014286e-01 -4.361418e-01 -5.637181e-01
 outer loop
  vertex 6.602196e-04 -1.987476e-03 -2.538139e-03
  vertex 3.195864e-04 -6.559166e-04 -3.144504e-03
  vertex 1.138042e-03 -1.497506e-03 -3.511772e-03
 endloop
endfacet
facet normal 4.555255e-01 -4.149105e-01 7.876204e-01
 outer loop
  vertex 7.645619e-03 6.604835e-04 -1.761746e-05
  vertex 6.442093e-03 2.510398e-04 4.627590e-04
  vertex 7.068357e-03 -8.451731e-04 -4.769186e-04
 endloop
endfacet
facet normal 3.941450e-01 3.257158e-02 9.184709e-01
 outer loop
  vertex 6.442093e-03 2.510398e-04 4.627590e-04
  vertex 7.097503e-03 1.542278e-03 1.357107e-04
  vertex 5.800094e-03 1.153894e-03 7.062436e-04
 endloop
endfacet
facet normal 3.532471e-01 5.720796e-02 9.337793e-01
 outer loop
  vertex 6.442093e-03 2.510398e-04 4.627590e-04
  vertex 7.645619e-03 6.604835e-04 -1.761746e-05
  vertex 7.097503e-03 1.542278e-03 1.357107e-04
 endloop
endfacet
facet normal 1.203604e-01 5.260766e-01 8.418769e-01
 outer loop
  vertex 4.462070e-03 1.539498e-03 6.565780e-04
  vertex 5.800094e-03 1.153894e-03 7.062436e-04
  vertex 5.854859e-03 2.267007e-03 2.845466e-06
 endloop
endfacet
facet normal 2.113269e-01 5.146827e-01 8.309288e-01
 outer loop
  vertex 5.800094e-03 1.153894e-03 7.062436e-04
  vertex 7.097503e-03 1.542278e-03 1.357107e-04
  vertex 5.854859e-03 2.267007e-03 2.845466e-06
 endloop
endfacet
facet normal 5.250379e-01 -3.607958e-01 7.708188e-01
 outer loop
  vertex 6.442093e-03 2.510398e-04 4.627590e-04
  vertex 5.534586e-03 -9.055944e-04 5.395174e-04
  vertex 7.068357e-03 -8.451731e-04 -4.769186e-04
 endloop
endfacet
facet normal -4.366789e-02 7.127057e-01 7.001027e-01
 outer loop
  vertex 5.854859e-03 2.267007e-03 2.845466e-06
  vertex 4.438099e-03 2.981961e-03 -8.133468e-04
  vertex 4.462070e-03 1.539498e-03 6.565780e-04
 endloop
endfacet
facet normal -6.081907e-02 6.961195e-01 7.153451e-01
 outer loop
  vertex 5.617189e-03 3.112675e-03 -8.403007e-04
  vertex 4.438099e-03 2.981961e-03 -8.133468e-04
  vertex 5.854859e-03 2.267007e-03 2.845466e-06
 endloop
endfacet
facet normal 4.946919e-01 -4.906620e-01 7.173079e-01
 outer loop
  vertex 5.202941e-03 -2.417112e-03 -2.656905e-04
  vertex 7.068357e-03 -8.451731e-04 -4.769186e-04
  vertex 5.534586e-03 -9.055944e-04 5.395174e-04
 endloop
endfacet
facet normal 2.802990e-01 6.874117e-01 6.699983e-01
 outer loop
  vertex 4.462070e-03 1.539498e-03 6.565780e-04
  vertex 4.438099e-03 2.981961e-03 -8.133468e-04
  vertex 3.403494e-03 2.799768e-03 -1.935841e-04
 endloop
endfacet
facet normal 4.300339e-02 9.368107e-01 3.471835e-01
 outer loop
  vertex 3.143346e-03 3.323410e-03 -1.574311e-03
  vertex 3.403494e-03 2.799768e-03 -1.935841e-04
  vertex 4.438099e-03 2.981961e-03 -8.133468e-04
 endloop
endfacet
facet normal 1.033575e-01 9.363094e-01 3.356218e-01
 outer loop
  vertex 3.143346e-03 3.323410e-03 -1.574311e-03
  vertex 2.171563e-03 3.212161e-03 -9.646843e-04
  vertex 3.403494e-03 2.799768e-03 -1.935841e-04
 endloop
endfacet
facet normal -3.189648e-01 8.817457e-01 -3.475427e-01
 outer loop
  vertex 3.143346e-03 3.323410e-03 -1.574311e-03
  vertex 2.454294e-03 2.516056e-03 -2.990245e-03
  vertex 2.171563e-03 3.212161e-03 -9.646843e-04
 endloop
endfacet
facet normal -2.423235e-01 -4.756026e-01 8.456249e-01
 outer loop
  vertex 5.202941e-03 -2.417112e-03 -2.656905e-04
  vertex 3.955419e-03 -3.517836e-03 -1.242260e-03
  vertex 5.163527e-03 -3.720732e-03 -1.010177e-03
 endloop
endfacet
facet normal 1.033653e-01 -8.389186e-01 5.343512e-01
 outer loop
  vertex 5.202941e-03 -2.417112e-03 -2.656905e-04
  vertex 1.911033e-03 -2.446936e-03 3.242756e-04
  vertex 3.204868e-03 -2.949947e-03 -7.157203e-04
 endloop
endfacet
facet normal 1.206983e-02 -6.712315e-01 7.411495e-01
 outer loop
  vertex 5.202941e-03 -2.417112e-03 -2.656905e-04
  vertex 3.204868e-03 -2.949947e-03 -7.157203e-04
  vertex 3.955419e-03 -3.517836e-03 -1.242260e-03
 endloop
endfacet
facet normal -1.923802e-01 9.194829e-01 -3.428426e-01
 outer loop
  vertex 7.493402e-04 3.061209e-03 -5.714731e-04
  vertex 2.171563e-03 3.212161e-03 -9.646843e-04
  vertex 2.454294e-03 2.516056e-03 -2.990245e-03
 endloop
endfacet
facet normal -3.943573e-01 -8.484676e-01 3.529661e-01
 outer loop
  vertex 3.204868e-03 -2.949947e-03 -7.157203e-04
  vertex 2.769022e-03 -3.464921e-03 -2.440583e-03
  vertex 3.955419e-03 -3.517836e-03 -1.242260e-03
 endloop
endfacet
facet normal 4.683916e-02 -9.603364e-01 2.748820e-01
 outer loop
  vertex 2.283850e-03 -3.107377e-03 -1.108784e-03
  vertex 2.769022e-03 -3.464921e-03 -2.440583e-03
  vertex 3.204868e-03 -2.949947e-03 -7.157203e-04
 endloop
endfacet
facet normal -1.418790e-01 9.395089e-01 -3.117586e-01
 outer loop
  vertex 2.454294e-03 2.516056e-03 -2.990245e-03
  vertex -1.870539e-04 2.475031e-03 -1.911821e-03
  vertex 7.493402e-04 3.061209e-03 -5.714731e-04
 endloop
endfacet
facet normal -2.819760e-01 -9.473663e-01 1.516133e-01
 outer loop
  vertex 2.283850e-03 -3.107377e-03 -1.108784e-03
  vertex 1.548234e-03 -3.000875e-03 -1.811423e-03
  vertex 2.769022e-03 -3.464921e-03 -2.440583e-03
 endloop
endfacet
facet normal -1.881301e-01 5.134756e-01 -8.372275e-01
 outer loop
  vertex -6.409931e-04 1.120924e-03 -2.640299e-03
  vertex -1.870539e-04 2.475031e-03 -1.911821e-03
  vertex 1.893432e-03 -1.445119e-04 -3.985897e-03
 endloop
endfacet
facet normal -3.529115e-01 3.922821e-01 -8.494517e-01
 outer loop
  vertex 2.454294e-03 2.516056e-03 -2.990245e-03
  vertex 1.893432e-03 -1.445119e-04 -3.985897e-03
  vertex -1.870539e-04 2.475031e-03 -1.911821e-03
 endloop
endfacet
facet normal -6.155088e-01 -7.378978e-01 -2.768677e-01
 outer loop
  vertex 4.478151e-04 -2.416722e-03 -9.219265e-04
  vertex 6.602196e-04 -1.987476e-03 -2.538139e-03
  vertex 1.548234e-03 -3.000875e-03 -1.811423e-03
 endloop
endfacet
facet normal -1.900431e-01 5.137829e-01 -8.366067e-01
 outer loop
  vertex -1.870539e-04 2.475031e-03 -1.911821e-03
  vertex -6.409931e-04 1.120924e-03 -2.640299e-03
  vertex -3.127152e-03 2.885385e-03 -9.919405e-04
 endloop
endfacet
facet normal -4.727537e-01 -8.342759e-01 -2.837036e-01
 outer loop
  vertex -3.545931e-04 -1.603700e-03 -1.975645e-03
  vertex 6.602196e-04 -1.987476e-03 -2.538139e-03
  vertex 4.478151e-04 -2.416722e-03 -9.219265e-04
 endloop
endfacet
facet normal -3.654651e-01 -6.086101e-01 -7.042933e-01
 outer loop
  vertex -3.545931e-04 -1.603700e-03 -1.975645e-03
  vertex -1.277766e-03 -6.742122e-04 -2.299811e-03
  vertex 3.195864e-04 -6.559166e-04 -3.144504e-03
 endloop
endfacet
facet normal -5.571503e-01 -4.579726e-01 -6.927081e-01
 outer loop
  vertex 6.602196e-04 -1.987476e-03 -2.538139e-03
  vertex -3.545931e-04 -1.603700e-03 -1.975645e-03
  vertex 3.195864e-04 -6.559166e-04 -3.144504e-03
 endloop
endfacet
facet normal -4.674534e-01 -1.857778e-03 -8.840158e-01
 outer loop
  vertex -1.277766e-03 -6.742122e-04 -2.299811e-03
  vertex -6.409931e-04 1.120924e-03 -2.640299e-03
  vertex 3.195864e-04 -6.559166e-04 -3.144504e-03
 endloop
endfacet
facet normal -1.979211e-01 -1.144421e-01 -9.735144e-01
 outer loop
  vertex -6.409931e-04 1.120924e-03 -2.640299e-03
  vertex -1.277766e-03 -6.742122e-04 -2.299811e-03
  vertex -2.360593e-03 9.291909e-04 -2.268155e-03
 endloop
endfacet
facet normal -2.364828e-01 4.642017e-01 -8.535764e-01
 outer loop
  vertex -6.409931e-04 1.120924e-03 -2.640299e-03
  vertex -2.360593e-03 9.291909e-04 -2.268155e-03
  vertex -3.127152e-03 2.885385e-03 -9.919405e-04
 endloop
endfacet
facet normal -1.055519e-01 -5.167624e-02 -9.930702e-01
 outer loop
  vertex -2.360593e-03 9.291909e-04 -2.268155e-03
  vertex -1.277766e-03 -6.742122e-04 -2.299811e-03
  vertex -2.489534e-03 -3.330210e-04 -2.188768e-03
 endloop
endfacet
facet normal 3.631093e-01 -2.248934e-01 9.041983e-01
 outer loop
  vertex 5.157673e-03 9.405321e-05 9.395124e-04
  vertex 5.534586e-03 -9.055944e-04 5.395174e-04
  vertex 6.442093e-03 2.510398e-04 4.627590e-04
 endloop
endfacet
facet normal 3.485110e-01 -4.953358e-03 9.372916e-01
 outer loop
  vertex 5.157673e-03 9.405321e-05 9.395124e-04
  vertex 6.442093e-03 2.510398e-04 4.627590e-04
  vertex 5.800094e-03 1.153894e-03 7.062436e-04
 endloop
endfacet
facet normal 2.193042e-02 2.022044e-01 9.790978e-01
 outer loop
  vertex 5.800094e-03 1.153894e-03 7.062436e-04
  vertex 4.462070e-03 1.539498e-03 6.565780e-04
  vertex 5.157673e-03 9.405321e-05 9.395124e-04
 endloop
endfacet
facet normal 4.073267e-01 -4.974037e-01 7.659468e-01
 outer loop
  vertex 5.202941e-03 -2.417112e-03 -2.656905e-04
  vertex 5.534586e-03 -9.055944e-04 5.395174e-04
  vertex 4.166440e-03 -1.424825e-03 9.299033e-04
 endloop
endfacet
facet normal 3.580359e-01 -2.717935e-01 8.932741e-01
 outer loop
  vertex 3.757989e-03 -5.550853e-05 1.510253e-03
  vertex 4.166440e-03 -1.424825e-03 9.299033e-04
  vertex 5.534586e-03 -9.055944e-04 5.395174e-04
 endloop
endfacet
facet normal 3.883395e-01 -2.123834e-01 8.967083e-01
 outer loop
  vertex 5.157673e-03 9.405321e-05 9.395124e-04
  vertex 3.757989e-03 -5.550853e-05 1.510253e-03
  vertex 5.534586e-03 -9.055944e-04 5.395174e-04
 endloop
endfacet
facet normal 3.259257e-01 3.302440e-01 8.858394e-01
 outer loop
  vertex 5.157673e-03 9.405321e-05 9.395124e-04
  vertex 4.462070e-03 1.539498e-03 6.565780e-04
  vertex 3.757989e-03 -5.550853e-05 1.510253e-03
 endloop
endfacet
facet normal 3.769519e-01 7.143505e-01 5.895851e-01
 outer loop
  vertex 3.273714e-03 1.962725e-03 9.035657e-04
  vertex 4.462070e-03 1.539498e-03 6.565780e-04
  vertex 3.403494e-03 2.799768e-03 -1.935841e-04
 endloop
endfacet
facet normal 1.314911e-01 -7.038044e-01 6.981185e-01
 outer loop
  vertex 4.166440e-03 -1.424825e-03 9.299033e-04
  vertex 1.911033e-03 -2.446936e-03 3.242756e-04
  vertex 5.202941e-03 -2.417112e-03 -2.656905e-04
 endloop
endfacet
facet normal 3.341972e-01 7.298478e-01 5.963510e-01
 outer loop
  vertex 2.082612e-03 2.940488e-03 3.744220e-04
  vertex 3.273714e-03 1.962725e-03 9.035657e-04
  vertex 3.403494e-03 2.799768e-03 -1.935841e-04
 endloop
endfacet
facet normal 1.913685e-01 9.593676e-01 2.073447e-01
 outer loop
  vertex 3.403494e-03 2.799768e-03 -1.935841e-04
  vertex 2.171563e-03 3.212161e-03 -9.646843e-04
  vertex 2.082612e-03 2.940488e-03 3.744220e-04
 endloop
endfacet
facet normal -4.993647e-02 9.794533e-01 1.953908e-01
 outer loop
  vertex 2.171563e-03 3.212161e-03 -9.646843e-04
  vertex 7.493402e-04 3.061209e-03 -5.714731e-04
  vertex 2.082612e-03 2.940488e-03 3.744220e-04
 endloop
endfacet
facet normal -2.109359e-02 -9.100660e-01 4.139263e-01
 outer loop
  vertex 1.911033e-03 -2.446936e-03 3.242756e-04
  vertex 2.283850e-03 -3.107377e-03 -1.108784e-03
  vertex 3.204868e-03 -2.949947e-03 -7.157203e-04
 endloop
endfacet
facet normal 1.351446e-01 8.696804e-01 -4.747546e-01
 outer loop
  vertex -1.870539e-04 2.475031e-03 -1.911821e-03
  vertex -4.629641e-04 3.144618e-03 -7.637775e-04
  vertex 7.493402e-04 3.061209e-03 -5.714731e-04
 endloop
endfacet
facet normal -4.056082e-01 -8.656674e-01 2.934314e-01
 outer loop
  vertex 1.911033e-03 -2.446936e-03 3.242756e-04
  vertex 1.548234e-03 -3.000875e-03 -1.811423e-03
  vertex 2.283850e-03 -3.107377e-03 -1.108784e-03
 endloop
endfacet
facet normal -2.606192e-01 -9.228388e-01 2.836302e-01
 outer loop
  vertex 1.548234e-03 -3.000875e-03 -1.811423e-03
  vertex 1.911033e-03 -2.446936e-03 3.242756e-04
  vertex 4.478151e-04 -2.416722e-03 -9.219265e-04
 endloop
endfacet
facet normal 2.033263e-01 8.662491e-01 -4.563672e-01
 outer loop
  vertex -1.537734e-03 3.676673e-03 -2.327073e-04
  vertex -4.629641e-04 3.144618e-03 -7.637775e-04
  vertex -1.870539e-04 2.475031e-03 -1.911821e-03
 endloop
endfacet
facet normal -8.739588e-02 7.754943e-01 -6.252764e-01
 outer loop
  vertex -1.537734e-03 3.676673e-03 -2.327073e-04
  vertex -1.870539e-04 2.475031e-03 -1.911821e-03
  vertex -3.127152e-03 2.885385e-03 -9.919405e-04
 endloop
endfacet
facet normal -1.933617e-01 -8.424962e-01 -5.028036e-01
 outer loop
  vertex -1.427506e-03 -2.026926e-03 -8.538806e-04
  vertex -3.545931e-04 -1.603700e-03 -1.975645e-03
  vertex 4.478151e-04 -2.416722e-03 -9.219265e-04
 endloop
endfacet
facet normal -4.194469e-01 -6.408341e-01 -6.429587e-01
 outer loop
  vertex -1.427506e-03 -2.026926e-03 -8.538806e-04
  vertex -1.277766e-03 -6.742122e-04 -2.299811e-03
  vertex -3.545931e-04 -1.603700e-03 -1.975645e-03
 endloop
endfacet
facet normal -6.838148e-02 -7.250018e-01 -6.853440e-01
 outer loop
  vertex -1.427506e-03 -2.026926e-03 -8.538806e-04
  vertex -2.238728e-03 -1.135224e-03 -1.716240e-03
  vertex -1.277766e-03 -6.742122e-04 -2.299811e-03
 endloop
endfacet
facet normal -1.931106e-01 -5.421032e-01 -8.178217e-01
 outer loop
  vertex -2.489534e-03 -3.330210e-04 -2.188768e-03
  vertex -2.238728e-03 -1.135224e-03 -1.716240e-03
  vertex -3.459228e-03 -1.061420e-03 -1.476969e-03
 endloop
endfacet
facet normal -2.276323e-01 -5.460647e-01 -8.062238e-01
 outer loop
  vertex -2.489534e-03 -3.330210e-04 -2.188768e-03
  vertex -1.277766e-03 -6.742122e-04 -2.299811e-03
  vertex -2.238728e-03 -1.135224e-03 -1.716240e-03
 endloop
endfacet
facet normal -4.513574e-01 -2.392140e-01 -8.596820e-01
 outer loop
  vertex -3.459228e-03 -1.061420e-03 -1.476969e-03
  vertex -3.347825e-03 3.713058e-04 -1.934126e-03
  vertex -2.489534e-03 -3.330210e-04 -2.188768e-03
 endloop
endfacet
facet normal -3.058230e-01 -2.861303e-02 -9.516583e-01
 outer loop
  vertex -3.347825e-03 3.713058e-04 -1.934126e-03
  vertex -2.360593e-03 9.291909e-04 -2.268155e-03
  vertex -2.489534e-03 -3.330210e-04 -2.188768e-03
 endloop
endfacet
facet normal -2.527929e-01 4.572192e-01 -8.526702e-01
 outer loop
  vertex -2.360593e-03 9.291909e-04 -2.268155e-03
  vertex -3.824854e-03 1.429841e-03 -1.565584e-03
  vertex -3.127152e-03 2.885385e-03 -9.919405e-04
 endloop
endfacet
facet normal -3.883219e-01 1.420105e-01 -9.105158e-01
 outer loop
  vertex -2.360593e-03 9.291909e-04 -2.268155e-03
  vertex -3.347825e-03 3.713058e-04 -1.934126e-03
  vertex -3.824854e-03 1.429841e-03 -1.565584e-03
 endloop
endfacet
facet normal 4.741021e-01 -2.199179e-01 8.525628e-01
 outer loop
  vertex 3.088507e-03 -1.298320e-03 1.561964e-03
  vertex 4.166440e-03 -1.424825e-03 9.299033e-04
  vertex 3.757989e-03 -5.550853e-05 1.510253e-03
 endloop
endfacet
facet normal 2.221874e-01 -8.109820e-01 5.412403e-01
 outer loop
  vertex 3.088507e-03 -1.298320e-03 1.561964e-03
  vertex 1.911033e-03 -2.446936e-03 3.242756e-04
  vertex 4.166440e-03 -1.424825e-03 9.299033e-04
 endloop
endfacet
facet normal 3.060900e-01 3.406709e-01 8.889613e-01
 outer loop
  vertex 3.757989e-03 -5.550853e-05 1.510253e-03
  vertex 4.462070e-03 1.539498e-03 6.565780e-04
  vertex 3.273714e-03 1.962725e-03 9.035657e-04
 endloop
endfacet
facet normal 5.701242e-01 3.589461e-01 7.389967e-01
 outer loop
  vertex 3.757989e-03 -5.550853e-05 1.510253e-03
  vertex 3.273714e-03 1.962725e-03 9.035657e-04
  vertex 2.266709e-03 1.754874e-03 1.781412e-03
 endloop
endfacet
facet normal 3.500668e-01 7.383849e-01 5.764035e-01
 outer loop
  vertex 2.082612e-03 2.940488e-03 3.744220e-04
  vertex 2.266709e-03 1.754874e-03 1.781412e-03
  vertex 3.273714e-03 1.962725e-03 9.035657e-04
 endloop
endfacet
facet normal 4.630574e-01 7.067060e-01 5.349248e-01
 outer loop
  vertex 8.739410e-04 3.018277e-03 1.317939e-03
  vertex 2.266709e-03 1.754874e-03 1.781412e-03
  vertex 2.082612e-03 2.940488e-03 3.744220e-04
 endloop
endfacet
facet normal 3.507794e-01 -8.289769e-01 4.356042e-01
 outer loop
  vertex 2.050647e-03 -1.647414e-03 1.733380e-03
  vertex 1.911033e-03 -2.446936e-03 3.242756e-04
  vertex 3.088507e-03 -1.298320e-03 1.561964e-03
 endloop
endfacet
facet normal 7.782811e-02 9.968129e-01 1.751771e-02
 outer loop
  vertex 7.493402e-04 3.061209e-03 -5.714731e-04
  vertex 8.739410e-04 3.018277e-03 1.317939e-03
  vertex 2.082612e-03 2.940488e-03 3.744220e-04
 endloop
endfacet
facet normal 2.956545e-01 9.552924e-01 2.209292e-03
 outer loop
  vertex 7.493402e-04 3.061209e-03 -5.714731e-04
  vertex -3.584688e-04 3.402113e-03 2.732349e-04
  vertex 8.739410e-04 3.018277e-03 1.317939e-03
 endloop
endfacet
facet normal 1.058277e-01 9.625321e-01 -2.496647e-01
 outer loop
  vertex 7.493402e-04 3.061209e-03 -5.714731e-04
  vertex -4.629641e-04 3.144618e-03 -7.637775e-04
  vertex -3.584688e-04 3.402113e-03 2.732349e-04
 endloop
endfacet
facet normal 3.229124e-01 9.104145e-01 -2.585984e-01
 outer loop
  vertex -4.629641e-04 3.144618e-03 -7.637775e-04
  vertex -1.537734e-03 3.676673e-03 -2.327073e-04
  vertex -3.584688e-04 3.402113e-03 2.732349e-04
 endloop
endfacet
facet normal 1.236297e-01 -9.778547e-01 -1.688664e-01
 outer loop
  vertex 1.911033e-03 -2.446936e-03 3.242756e-04
  vertex -1.637291e-04 -2.680210e-03 1.561321e-04
  vertex 4.478151e-04 -2.416722e-03 -9.219265e-04
 endloop
endfacet
facet normal -2.032034e-01 -9.183148e-01 -3.397150e-01
 outer loop
  vertex -1.427506e-03 -2.026926e-03 -8.538806e-04
  vertex 4.478151e-04 -2.416722e-03 -9.219265e-04
  vertex -1.637291e-04 -2.680210e-03 1.561321e-04
 endloop
endfacet
facet normal 2.040284e-01 -7.990819e-01 -5.655445e-01
 outer loop
  vertex -2.671469e-03 -2.680539e-03 -3.791406e-04
  vertex -1.427506e-03 -2.026926e-03 -8.538806e-04
  vertex -1.088954e-03 -2.972029e-03 6.036323e-04
 endloop
endfacet
facet normal -1.689407e-01 -7.602872e-01 -6.272339e-01
 outer loop
  vertex -2.238728e-03 -1.135224e-03 -1.716240e-03
  vertex -1.427506e-03 -2.026926e-03 -8.538806e-04
  vertex -3.459228e-03 -1.061420e-03 -1.476969e-03
 endloop
endfacet
facet normal -1.664702e-02 -5.666583e-01 -8.237847e-01
 outer loop
  vertex -2.671469e-03 -2.680539e-03 -3.791406e-04
  vertex -3.459228e-03 -1.061420e-03 -1.476969e-03
  vertex -1.427506e-03 -2.026926e-03 -8.538806e-04
 endloop
endfacet
facet normal -5.429614e-01 5.201028e-01 -6.593072e-01
 outer loop
  vertex -3.127152e-03 2.885385e-03 -9.919405e-04
  vertex -3.824854e-03 1.429841e-03 -1.565584e-03
  vertex -5.347702e-03 1.898864e-03 5.852753e-05
 endloop
endfacet
facet normal -1.727642e-02 -7.025437e-01 -7.114309e-01
 outer loop
  vertex -3.470225e-03 -3.183092e-03 1.365316e-04
  vertex -4.103321e-03 -2.202576e-03 -8.163619e-04
  vertex -2.671469e-03 -2.680539e-03 -3.791406e-04
 endloop
endfacet
facet normal 7.949131e-02 -5.326411e-01 -8.425999e-01
 outer loop
  vertex -3.459228e-03 -1.061420e-03 -1.476969e-03
  vertex -2.671469e-03 -2.680539e-03 -3.791406e-04
  vertex -4.103321e-03 -2.202576e-03 -8.163619e-04
 endloop
endfacet
facet normal -4.128099e-01 -2.475844e-01 -8.765215e-01
 outer loop
  vertex -4.753899e-03 2.645220e-04 -1.241754e-03
  vertex -3.347825e-03 3.713058e-04 -1.934126e-03
  vertex -3.459228e-03 -1.061420e-03 -1.476969e-03
 endloop
endfacet
facet normal -6.434028e-01 3.196505e-01 -6.955979e-01
 outer loop
  vertex -3.824854e-03 1.429841e-03 -1.565584e-03
  vertex -4.753899e-03 2.645220e-04 -1.241754e-03
  vertex -5.347702e-03 1.898864e-03 5.852753e-05
 endloop
endfacet
facet normal -4.457733e-01 1.084722e-01 -8.885494e-01
 outer loop
  vertex -3.824854e-03 1.429841e-03 -1.565584e-03
  vertex -3.347825e-03 3.713058e-04 -1.934126e-03
  vertex -4.753899e-03 2.645220e-04 -1.241754e-03
 endloop
endfacet
facet normal -1.997249e-01 -4.040332e-01 -8.926742e-01
 outer loop
  vertex -3.459228e-03 -1.061420e-03 -1.476969e-03
  vertex -4.103321e-03 -2.202576e-03 -8.163619e-04
  vertex -4.924825e-03 -1.170092e-03 -1.099873e-03
 endloop
endfacet
facet normal -2.439933e-01 -6.661237e-02 -9.674865e-01
 outer loop
  vertex -3.459228e-03 -1.061420e-03 -1.476969e-03
  vertex -4.924825e-03 -1.170092e-03 -1.099873e-03
  vertex -4.753899e-03 2.645220e-04 -1.241754e-03
 endloop
endfacet
facet normal 5.472107e-01 -2.616940e-01 7.950325e-01
 outer loop
  vertex 2.398301e-03 -2.142012e-04 2.393874e-03
  vertex 3.088507e-03 -1.298320e-03 1.561964e-03
  vertex 3.757989e-03 -5.550853e-05 1.510253e-03
 endloop
endfacet
facet normal 4.980336e-01 2.877244e-01 8.180325e-01
 outer loop
  vertex 3.757989e-03 -5.550853e-05 1.510253e-03
  vertex 2.266709e-03 1.754874e-03 1.781412e-03
  vertex 2.398301e-03 -2.142012e-04 2.393874e-03
 endloop
endfacet
facet normal 5.540150e-01 7.461736e-01 3.691779e-01
 outer loop
  vertex 8.739410e-04 3.018277e-03 1.317939e-03
  vertex 7.042842e-04 2.213176e-03 3.199790e-03
  vertex 2.266709e-03 1.754874e-03 1.781412e-03
 endloop
endfacet
facet normal 2.926555e-01 -4.578598e-01 8.394743e-01
 outer loop
  vertex 2.398301e-03 -2.142012e-04 2.393874e-03
  vertex 2.050647e-03 -1.647414e-03 1.733380e-03
  vertex 3.088507e-03 -1.298320e-03 1.561964e-03
 endloop
endfacet
facet normal 5.654869e-01 -4.543756e-01 6.883077e-01
 outer loop
  vertex 2.398301e-03 -2.142012e-04 2.393874e-03
  vertex 1.484861e-03 -1.214522e-03 2.483975e-03
  vertex 2.050647e-03 -1.647414e-03 1.733380e-03
 endloop
endfacet
facet normal 4.247524e-01 -6.079577e-01 6.708001e-01
 outer loop
  vertex -3.597063e-04 -2.690009e-03 2.314700e-03
  vertex 2.050647e-03 -1.647414e-03 1.733380e-03
  vertex 1.484861e-03 -1.214522e-03 2.483975e-03
 endloop
endfacet
facet normal 4.588170e-01 8.594437e-01 -2.254851e-01
 outer loop
  vertex -3.584688e-04 3.402113e-03 2.732349e-04
  vertex -4.652963e-04 3.878411e-03 1.871289e-03
  vertex 8.739410e-04 3.018277e-03 1.317939e-03
 endloop
endfacet
facet normal 3.203075e-01 9.134961e-01 -2.508545e-01
 outer loop
  vertex -1.537734e-03 3.676673e-03 -2.327073e-04
  vertex -4.652963e-04 3.878411e-03 1.871289e-03
  vertex -3.584688e-04 3.402113e-03 2.732349e-04
 endloop
endfacet
facet normal -3.960084e-02 7.320710e-01 -6.800763e-01
 outer loop
  vertex -1.537734e-03 3.676673e-03 -2.327073e-04
  vertex -3.127152e-03 2.885385e-03 -9.919405e-04
  vertex -3.192932e-03 4.423128e-03 6.671998e-04
 endloop
endfacet
facet normal 1.339710e-03 -8.389003e-01 -5.442834e-01
 outer loop
  vertex -1.427506e-03 -2.026926e-03 -8.538806e-04
  vertex -1.637291e-04 -2.680210e-03 1.561321e-04
  vertex -1.088954e-03 -2.972029e-03 6.036323e-04
 endloop
endfacet
facet normal 1.320524e-01 -9.328197e-01 -3.352752e-01
 outer loop
  vertex -1.637291e-04 -2.680210e-03 1.561321e-04
  vertex 1.911033e-03 -2.446936e-03 3.242756e-04
  vertex -1.088954e-03 -2.972029e-03 6.036323e-04
 endloop
endfacet
facet normal -4.018695e-01 6.636010e-01 -6.309791e-01
 outer loop
  vertex -4.357667e-03 3.529324e-03 4.690037e-04
  vertex -3.192932e-03 4.423128e-03 6.671998e-04
  vertex -3.127152e-03 2.885385e-03 -9.919405e-04
 endloop
endfacet
facet normal 1.972959e-01 -8.067523e-01 -5.569785e-01
 outer loop
  vertex -1.088954e-03 -2.972029e-03 6.036323e-04
  vertex -2.401096e-03 -3.529262e-03 9.459600e-04
  vertex -2.671469e-03 -2.680539e-03 -3.791406e-04
 endloop
endfacet
facet normal -5.164174e-01 3.141132e-01 -7.966467e-01
 outer loop
  vertex -4.970473e-03 2.864820e-03 1.948634e-04
  vertex -3.127152e-03 2.885385e-03 -9.919405e-04
  vertex -5.347702e-03 1.898864e-03 5.852753e-05
 endloop
endfacet
facet normal -4.174698e-01 6.478585e-01 -6.371800e-01
 outer loop
  vertex -4.357667e-03 3.529324e-03 4.690037e-04
  vertex -3.127152e-03 2.885385e-03 -9.919405e-04
  vertex -4.970473e-03 2.864820e-03 1.948634e-04
 endloop
endfacet
facet normal 1.557070e-01 -8.170762e-01 -5.551052e-01
 outer loop
  vertex -2.671469e-03 -2.680539e-03 -3.791406e-04
  vertex -2.401096e-03 -3.529262e-03 9.459600e-04
  vertex -3.470225e-03 -3.183092e-03 1.365316e-04
 endloop
endfacet
facet normal -3.464258e-01 -7.879318e-01 -5.090703e-01
 outer loop
  vertex -4.405857e-03 -2.957768e-03 5.583915e-04
  vertex -5.174668e-03 -2.102114e-03 -2.427970e-04
  vertex -4.103321e-03 -2.202576e-03 -8.163619e-04
 endloop
endfacet
facet normal -4.109853e-01 -7.578288e-01 -5.067412e-01
 outer loop
  vertex -3.470225e-03 -3.183092e-03 1.365316e-04
  vertex -4.405857e-03 -2.957768e-03 5.583915e-04
  vertex -4.103321e-03 -2.202576e-03 -8.163619e-04
 endloop
endfacet
facet normal -7.173790e-01 1.659026e-02 -6.964856e-01
 outer loop
  vertex -5.590695e-03 -4.098040e-04 -3.959179e-04
  vertex -4.753899e-03 2.645220e-04 -1.241754e-03
  vertex -4.924825e-03 -1.170092e-03 -1.099873e-03
 endloop
endfacet
facet normal -6.886925e-01 2.814096e-01 -6.682150e-01
 outer loop
  vertex -4.753899e-03 2.645220e-04 -1.241754e-03
  vertex -5.796119e-03 6.557239e-04 -2.845466e-06
  vertex -5.347702e-03 1.898864e-03 5.852753e-05
 endloop
endfacet
facet normal -7.458059e-01 9.922125e-02 -6.587327e-01
 outer loop
  vertex -4.753899e-03 2.645220e-04 -1.241754e-03
  vertex -5.590695e-03 -4.098040e-04 -3.959179e-04
  vertex -5.796119e-03 6.557239e-04 -2.845466e-06
 endloop
endfacet
facet normal -4.352512e-01 -5.434160e-01 -7.178130e-01
 outer loop
  vertex -4.103321e-03 -2.202576e-03 -8.163619e-04
  vertex -5.174668e-03 -2.102114e-03 -2.427970e-04
  vertex -4.924825e-03 -1.170092e-03 -1.099873e-03
 endloop
endfacet
facet normal -4.768344e-01 -5.223085e-01 -7.069815e-01
 outer loop
  vertex -4.924825e-03 -1.170092e-03 -1.099873e-03
  vertex -5.174668e-03 -2.102114e-03 -2.427970e-04
  vertex -5.634631e-03 -1.366674e-03 -4.759015e-04
 endloop
endfacet
facet normal -6.717131e-01 9.228378e-02 -7.350410e-01
 outer loop
  vertex -4.924825e-03 -1.170092e-03 -1.099873e-03
  vertex -5.634631e-03 -1.366674e-03 -4.759015e-04
  vertex -5.590695e-03 -4.098040e-04 -3.959179e-04
 endloop
endfacet
facet normal 6.898267e-01 2.566603e-01 6.769524e-01
 outer loop
  vertex 2.266709e-03 1.754874e-03 1.781412e-03
  vertex 7.042842e-04 2.213176e-03 3.199790e-03
  vertex 2.398301e-03 -2.142012e-04 2.393874e-03
 endloop
endfacet
facet normal 5.354549e-01 -4.231125e-01 7.309336e-01
 outer loop
  vertex 1.112255e-03 -1.630078e-05 3.450541e-03
  vertex 1.484861e-03 -1.214522e-03 2.483975e-03
  vertex 2.398301e-03 -2.142012e-04 2.393874e-03
 endloop
endfacet
facet normal 6.401787e-01 2.005529e-01 7.415859e-01
 outer loop
  vertex 7.042842e-04 2.213176e-03 3.199790e-03
  vertex 1.112255e-03 -1.630078e-05 3.450541e-03
  vertex 2.398301e-03 -2.142012e-04 2.393874e-03
 endloop
endfacet
facet normal 6.048435e-01 7.109820e-01 3.587045e-01
 outer loop
  vertex -4.652963e-04 3.878411e-03 1.871289e-03
  vertex 7.042842e-04 2.213176e-03 3.199790e-03
  vertex 8.739410e-04 3.018277e-03 1.317939e-03
 endloop
endfacet
facet normal 4.835037e-01 -6.691850e-01 5.642833e-01
 outer loop
  vertex 1.484861e-03 -1.214522e-03 2.483975e-03
  vertex 4.169066e-04 -1.241808e-03 3.366688e-03
  vertex -3.597063e-04 -2.690009e-03 2.314700e-03
 endloop
endfacet
facet normal 5.937496e-01 -3.852284e-01 7.064421e-01
 outer loop
  vertex 1.112255e-03 -1.630078e-05 3.450541e-03
  vertex 4.169066e-04 -1.241808e-03 3.366688e-03
  vertex 1.484861e-03 -1.214522e-03 2.483975e-03
 endloop
endfacet
facet normal 4.560037e-01 8.333700e-01 -3.123380e-01
 outer loop
  vertex -1.537734e-03 3.676673e-03 -2.327073e-04
  vertex -2.125107e-03 4.845821e-03 2.029229e-03
  vertex -4.652963e-04 3.878411e-03 1.871289e-03
 endloop
endfacet
facet normal 4.435784e-01 -7.976550e-01 4.086377e-01
 outer loop
  vertex -3.597063e-04 -2.690009e-03 2.314700e-03
  vertex 1.911033e-03 -2.446936e-03 3.242756e-04
  vertex 2.050647e-03 -1.647414e-03 1.733380e-03
 endloop
endfacet
facet normal 1.765914e-01 8.923437e-01 -4.153773e-01
 outer loop
  vertex -2.125107e-03 4.845821e-03 2.029229e-03
  vertex -1.537734e-03 3.676673e-03 -2.327073e-04
  vertex -3.192932e-03 4.423128e-03 6.671998e-04
 endloop
endfacet
facet normal 1.794651e-01 -9.800809e-01 8.505079e-02
 outer loop
  vertex -3.597063e-04 -2.690009e-03 2.314700e-03
  vertex -1.088954e-03 -2.972029e-03 6.036323e-04
  vertex 1.911033e-03 -2.446936e-03 3.242756e-04
 endloop
endfacet
facet normal 3.878850e-01 -9.216102e-01 -1.341380e-02
 outer loop
  vertex -3.597063e-04 -2.690009e-03 2.314700e-03
  vertex -2.401096e-03 -3.529262e-03 9.459600e-04
  vertex -1.088954e-03 -2.972029e-03 6.036323e-04
 endloop
endfacet
facet normal 3.851040e-01 -9.228339e-01 -8.515761e-03
 outer loop
  vertex -2.704102e-03 -3.668504e-03 2.332551e-03
  vertex -2.401096e-03 -3.529262e-03 9.459600e-04
  vertex -3.597063e-04 -2.690009e-03 2.314700e-03
 endloop
endfacet
facet normal 8.261106e-02 -9.932284e-01 -8.168727e-02
 outer loop
  vertex -2.704102e-03 -3.668504e-03 2.332551e-03
  vertex -3.644702e-03 -3.661326e-03 1.294041e-03
  vertex -2.401096e-03 -3.529262e-03 9.459600e-04
 endloop
endfacet
facet normal -9.110779e-03 -9.237006e-01 -3.830069e-01
 outer loop
  vertex -2.401096e-03 -3.529262e-03 9.459600e-04
  vertex -3.644702e-03 -3.661326e-03 1.294041e-03
  vertex -3.470225e-03 -3.183092e-03 1.365316e-04
 endloop
endfacet
facet normal -3.815427e-01 -8.325975e-01 -4.015055e-01
 outer loop
  vertex -3.470225e-03 -3.183092e-03 1.365316e-04
  vertex -3.644702e-03 -3.661326e-03 1.294041e-03
  vertex -4.405857e-03 -2.957768e-03 5.583915e-04
 endloop
endfacet
facet normal -7.902871e-01 -6.033175e-01 1.070243e-01
 outer loop
  vertex -5.174668e-03 -2.102114e-03 -2.427970e-04
  vertex -4.981171e-03 -2.107056e-03 1.158158e-03
  vertex -5.727232e-03 -1.278473e-03 3.200023e-04
 endloop
endfacet
facet normal -7.871579e-01 -6.074731e-01 1.065775e-01
 outer loop
  vertex -4.981171e-03 -2.107056e-03 1.158158e-03
  vertex -5.174668e-03 -2.102114e-03 -2.427970e-04
  vertex -4.405857e-03 -2.957768e-03 5.583915e-04
 endloop
endfacet
facet normal -9.880322e-01 1.542426e-01 -1.280860e-03
 outer loop
  vertex -5.590695e-03 -4.098040e-04 -3.959179e-04
  vertex -5.727232e-03 -1.278473e-03 3.200023e-04
  vertex -5.580306e-03 -3.310726e-04 1.071484e-03
 endloop
endfacet
facet normal -9.805544e-01 -1.954719e-01 1.742964e-02
 outer loop
  vertex -5.580306e-03 -3.310726e-04 1.071484e-03
  vertex -5.796119e-03 6.557239e-04 -2.845466e-06
  vertex -5.590695e-03 -4.098040e-04 -3.959179e-04
 endloop
endfacet
facet normal -9.176184e-01 3.410718e-01 -2.040749e-01
 outer loop
  vertex -5.347702e-03 1.898864e-03 5.852753e-05
  vertex -5.796119e-03 6.557239e-04 -2.845466e-06
  vertex -5.951930e-03 1.118558e-03 1.471290e-03
 endloop
endfacet
facet normal -8.417207e-01 -5.385566e-01 -3.824961e-02
 outer loop
  vertex -5.634631e-03 -1.366674e-03 -4.759015e-04
  vertex -5.174668e-03 -2.102114e-03 -2.427970e-04
  vertex -5.727232e-03 -1.278473e-03 3.200023e-04
 endloop
endfacet
facet normal -9.910332e-01 5.565816e-02 -1.214716e-01
 outer loop
  vertex -5.590695e-03 -4.098040e-04 -3.959179e-04
  vertex -5.634631e-03 -1.366674e-03 -4.759015e-04
  vertex -5.727232e-03 -1.278473e-03 3.200023e-04
 endloop
endfacet
facet normal 6.624027e-01 -4.359303e-02 7.478786e-01
 outer loop
  vertex -5.782755e-04 1.669473e-03 5.046121e-03
  vertex 1.637291e-04 1.630078e-05 4.292559e-03
  vertex 1.112255e-03 -1.630078e-05 3.450541e-03
 endloop
endfacet
facet normal 7.732935e-01 2.088374e-01 5.986686e-01
 outer loop
  vertex 1.112255e-03 -1.630078e-05 3.450541e-03
  vertex 7.042842e-04 2.213176e-03 3.199790e-03
  vertex -5.782755e-04 1.669473e-03 5.046121e-03
 endloop
endfacet
facet normal 7.820786e-01 6.173189e-01 8.526696e-02
 outer loop
  vertex -9.489078e-04 4.262714e-03 3.524737e-03
  vertex 7.042842e-04 2.213176e-03 3.199790e-03
  vertex -4.652963e-04 3.878411e-03 1.871289e-03
 endloop
endfacet
facet normal 6.037330e-01 -3.901241e-01 6.952048e-01
 outer loop
  vertex 1.637291e-04 1.630078e-05 4.292559e-03
  vertex 4.169066e-04 -1.241808e-03 3.366688e-03
  vertex 1.112255e-03 -1.630078e-05 3.450541e-03
 endloop
endfacet
facet normal 4.988698e-01 8.649225e-01 -5.511713e-02
 outer loop
  vertex -4.652963e-04 3.878411e-03 1.871289e-03
  vertex -2.125107e-03 4.845821e-03 2.029229e-03
  vertex -9.489078e-04 4.262714e-03 3.524737e-03
 endloop
endfacet
facet normal 7.188958e-01 -6.174495e-01 3.192881e-01
 outer loop
  vertex 4.169066e-04 -1.241808e-03 3.366688e-03
  vertex -4.658669e-04 -2.097400e-03 3.699733e-03
  vertex -3.597063e-04 -2.690009e-03 2.314700e-03
 endloop
endfacet
facet normal -1.490276e-01 9.714415e-01 -1.846406e-01
 outer loop
  vertex -3.192932e-03 4.423128e-03 6.671998e-04
  vertex -3.440071e-03 4.729935e-03 2.480861e-03
  vertex -2.125107e-03 4.845821e-03 2.029229e-03
 endloop
endfacet
facet normal -5.183901e-01 8.287468e-01 -2.108330e-01
 outer loop
  vertex -3.192932e-03 4.423128e-03 6.671998e-04
  vertex -4.295399e-03 4.037378e-03 1.861600e-03
  vertex -3.440071e-03 4.729935e-03 2.480861e-03
 endloop
endfacet
facet normal -6.958143e-01 6.841805e-01 -2.184938e-01
 outer loop
  vertex -5.228362e-03 3.012342e-03 1.622964e-03
  vertex -4.295399e-03 4.037378e-03 1.861600e-03
  vertex -4.357667e-03 3.529324e-03 4.690037e-04
 endloop
endfacet
facet normal -5.590753e-01 7.866371e-01 -2.619866e-01
 outer loop
  vertex -3.192932e-03 4.423128e-03 6.671998e-04
  vertex -4.357667e-03 3.529324e-03 4.690037e-04
  vertex -4.295399e-03 4.037378e-03 1.861600e-03
 endloop
endfacet
facet normal 3.852041e-01 -9.228134e-01 5.759388e-03
 outer loop
  vertex -1.951571e-03 -3.347984e-03 3.357286e-03
  vertex -2.704102e-03 -3.668504e-03 2.332551e-03
  vertex -3.597063e-04 -2.690009e-03 2.314700e-03
 endloop
endfacet
facet normal -1.721793e-01 -8.970434e-01 4.070227e-01
 outer loop
  vertex -2.581705e-03 -2.784645e-03 4.332278e-03
  vertex -2.704102e-03 -3.668504e-03 2.332551e-03
  vertex -1.951571e-03 -3.347984e-03 3.357286e-03
 endloop
endfacet
facet normal -6.793402e-01 7.072376e-01 -1.957340e-01
 outer loop
  vertex -4.970473e-03 2.864820e-03 1.948634e-04
  vertex -5.228362e-03 3.012342e-03 1.622964e-03
  vertex -4.357667e-03 3.529324e-03 4.690037e-04
 endloop
endfacet
facet normal -2.410476e-01 -9.471257e-01 2.117759e-01
 outer loop
  vertex -3.644702e-03 -3.661326e-03 1.294041e-03
  vertex -2.704102e-03 -3.668504e-03 2.332551e-03
  vertex -4.060917e-03 -3.296050e-03 2.453920e-03
 endloop
endfacet
facet normal -2.079550e-01 -8.898775e-01 4.060452e-01
 outer loop
  vertex -2.704102e-03 -3.668504e-03 2.332551e-03
  vertex -2.581705e-03 -2.784645e-03 4.332278e-03
  vertex -4.060917e-03 -3.296050e-03 2.453920e-03
 endloop
endfacet
facet normal -6.739411e-01 -7.387279e-01 -9.194972e-03
 outer loop
  vertex -4.405857e-03 -2.957768e-03 5.583915e-04
  vertex -3.644702e-03 -3.661326e-03 1.294041e-03
  vertex -4.060917e-03 -3.296050e-03 2.453920e-03
 endloop
endfacet
facet normal -8.127956e-01 -5.808662e-01 4.424567e-02
 outer loop
  vertex -4.060917e-03 -3.296050e-03 2.453920e-03
  vertex -4.981171e-03 -2.107056e-03 1.158158e-03
  vertex -4.405857e-03 -2.957768e-03 5.583915e-04
 endloop
endfacet
facet normal -9.022247e-01 3.808897e-01 -2.022712e-01
 outer loop
  vertex -5.347702e-03 1.898864e-03 5.852753e-05
  vertex -5.228362e-03 3.012342e-03 1.622964e-03
  vertex -4.970473e-03 2.864820e-03 1.948634e-04
 endloop
endfacet
facet normal -8.340871e-01 -2.575761e-01 4.878045e-01
 outer loop
  vertex -5.727232e-03 -1.278473e-03 3.200023e-04
  vertex -4.981171e-03 -2.107056e-03 1.158158e-03
  vertex -5.580306e-03 -3.310726e-04 1.071484e-03
 endloop
endfacet
facet normal -9.700804e-01 -2.413034e-01 -2.677168e-02
 outer loop
  vertex -5.951930e-03 1.118558e-03 1.471290e-03
  vertex -5.796119e-03 6.557239e-04 -2.845466e-06
  vertex -5.580306e-03 -3.310726e-04 1.071484e-03
 endloop
endfacet
facet normal 4.332405e-01 -2.055467e-01 8.775268e-01
 outer loop
  vertex -9.873064e-04 5.907954e-04 4.995399e-03
  vertex 1.637291e-04 1.630078e-05 4.292559e-03
  vertex -5.782755e-04 1.669473e-03 5.046121e-03
 endloop
endfacet
facet normal 7.755289e-01 2.018653e-01 5.981683e-01
 outer loop
  vertex -7.200354e-04 3.381617e-03 4.652112e-03
  vertex -5.782755e-04 1.669473e-03 5.046121e-03
  vertex 7.042842e-04 2.213176e-03 3.199790e-03
 endloop
endfacet
facet normal 5.177902e-01 7.218993e-01 4.590804e-01
 outer loop
  vertex -7.200354e-04 3.381617e-03 4.652112e-03
  vertex -9.489078e-04 4.262714e-03 3.524737e-03
  vertex -1.649403e-03 4.104742e-03 4.563225e-03
 endloop
endfacet
facet normal 7.666019e-01 5.721344e-01 2.915197e-01
 outer loop
  vertex -7.200354e-04 3.381617e-03 4.652112e-03
  vertex 7.042842e-04 2.213176e-03 3.199790e-03
  vertex -9.489078e-04 4.262714e-03 3.524737e-03
 endloop
endfacet
facet normal 6.064750e-01 -3.884886e-01 6.937324e-01
 outer loop
  vertex 4.169066e-04 -1.241808e-03 3.366688e-03
  vertex 1.637291e-04 1.630078e-05 4.292559e-03
  vertex -8.641737e-04 -1.033404e-03 4.603340e-03
 endloop
endfacet
facet normal 4.466784e-01 -1.777959e-01 8.768506e-01
 outer loop
  vertex -8.641737e-04 -1.033404e-03 4.603340e-03
  vertex 1.637291e-04 1.630078e-05 4.292559e-03
  vertex -9.873064e-04 5.907954e-04 4.995399e-03
 endloop
endfacet
facet normal 2.125532e-01 9.345024e-01 2.855281e-01
 outer loop
  vertex -2.571497e-03 4.583126e-03 3.683954e-03
  vertex -1.649403e-03 4.104742e-03 4.563225e-03
  vertex -9.489078e-04 4.262714e-03 3.524737e-03
 endloop
endfacet
facet normal 2.091009e-01 9.554958e-01 2.080975e-01
 outer loop
  vertex -2.125107e-03 4.845821e-03 2.029229e-03
  vertex -2.571497e-03 4.583126e-03 3.683954e-03
  vertex -9.489078e-04 4.262714e-03 3.524737e-03
 endloop
endfacet
facet normal 6.158222e-01 -3.632342e-01 6.991594e-01
 outer loop
  vertex -8.641737e-04 -1.033404e-03 4.603340e-03
  vertex -4.658669e-04 -2.097400e-03 3.699733e-03
  vertex 4.169066e-04 -1.241808e-03 3.366688e-03
 endloop
endfacet
facet normal -5.537313e-01 6.786044e-01 4.825741e-01
 outer loop
  vertex -4.186296e-03 3.396360e-03 3.499899e-03
  vertex -2.571497e-03 4.583126e-03 3.683954e-03
  vertex -3.440071e-03 4.729935e-03 2.480861e-03
 endloop
endfacet
facet normal -3.660720e-02 9.884521e-01 1.470456e-01
 outer loop
  vertex -2.125107e-03 4.845821e-03 2.029229e-03
  vertex -3.440071e-03 4.729935e-03 2.480861e-03
  vertex -2.571497e-03 4.583126e-03 3.683954e-03
 endloop
endfacet
facet normal 5.337644e-01 -4.223567e-01 7.326052e-01
 outer loop
  vertex -8.641737e-04 -1.033404e-03 4.603340e-03
  vertex -1.346280e-03 -2.670931e-03 4.010539e-03
  vertex -4.658669e-04 -2.097400e-03 3.699733e-03
 endloop
endfacet
facet normal 5.950212e-01 -7.214140e-01 3.542762e-01
 outer loop
  vertex -1.346280e-03 -2.670931e-03 4.010539e-03
  vertex -3.597063e-04 -2.690009e-03 2.314700e-03
  vertex -4.658669e-04 -2.097400e-03 3.699733e-03
 endloop
endfacet
facet normal -7.208935e-01 6.277668e-01 2.936350e-01
 outer loop
  vertex -3.440071e-03 4.729935e-03 2.480861e-03
  vertex -4.295399e-03 4.037378e-03 1.861600e-03
  vertex -4.186296e-03 3.396360e-03 3.499899e-03
 endloop
endfacet
facet normal 5.327997e-01 -7.839024e-01 3.187812e-01
 outer loop
  vertex -1.346280e-03 -2.670931e-03 4.010539e-03
  vertex -1.951571e-03 -3.347984e-03 3.357286e-03
  vertex -3.597063e-04 -2.690009e-03 2.314700e-03
 endloop
endfacet
facet normal 2.254979e-01 -7.733229e-01 5.925558e-01
 outer loop
  vertex -2.581705e-03 -2.784645e-03 4.332278e-03
  vertex -1.951571e-03 -3.347984e-03 3.357286e-03
  vertex -1.346280e-03 -2.670931e-03 4.010539e-03
 endloop
endfacet
facet normal -7.305960e-01 5.448004e-01 4.116091e-01
 outer loop
  vertex -4.083834e-03 -1.656275e-03 2.738866e-03
  vertex -2.932981e-03 -1.233423e-03 4.221921e-03
  vertex -3.342163e-03 -1.098910e-03 3.317592e-03
 endloop
endfacet
facet normal -9.024910e-01 -2.073594e-01 3.775077e-01
 outer loop
  vertex -3.644855e-03 6.019121e-05 3.230638e-03
  vertex -3.342163e-03 -1.098910e-03 3.317592e-03
  vertex -2.932981e-03 -1.233423e-03 4.221921e-03
 endloop
endfacet
facet normal -6.989440e-01 -1.707907e-01 6.944838e-01
 outer loop
  vertex -4.069811e-03 1.455258e-03 3.146034e-03
  vertex -3.644855e-03 6.019121e-05 3.230638e-03
  vertex -3.123127e-03 1.827530e-03 4.190349e-03
 endloop
endfacet
facet normal -4.363815e-01 -7.857005e-02 8.963247e-01
 outer loop
  vertex -5.153621e-03 1.372911e-03 2.611155e-03
  vertex -3.644855e-03 6.019121e-05 3.230638e-03
  vertex -4.069811e-03 1.455258e-03 3.146034e-03
 endloop
endfacet
facet normal -5.050159e-01 -5.594622e-01 6.572374e-01
 outer loop
  vertex -3.123127e-03 1.827530e-03 4.190349e-03
  vertex -4.784934e-03 2.300490e-03 3.316029e-03
  vertex -4.069811e-03 1.455258e-03 3.146034e-03
 endloop
endfacet
facet normal -7.407474e-01 6.073974e-01 2.869872e-01
 outer loop
  vertex -4.186296e-03 3.396360e-03 3.499899e-03
  vertex -4.295399e-03 4.037378e-03 1.861600e-03
  vertex -5.228362e-03 3.012342e-03 1.622964e-03
 endloop
endfacet
facet normal -5.709253e-01 -8.785662e-02 8.162877e-01
 outer loop
  vertex -4.083834e-03 -1.656275e-03 2.738866e-03
  vertex -3.342163e-03 -1.098910e-03 3.317592e-03
  vertex -3.644855e-03 6.019121e-05 3.230638e-03
 endloop
endfacet
facet normal -5.661291e-01 -2.858060e-01 7.731835e-01
 outer loop
  vertex -5.008057e-03 1.670437e-04 2.271991e-03
  vertex -3.644855e-03 6.019121e-05 3.230638e-03
  vertex -5.153621e-03 1.372911e-03 2.611155e-03
 endloop
endfacet
facet normal -5.776021e-01 -8.488987e-02 8.118926e-01
 outer loop
  vertex -4.083834e-03 -1.656275e-03 2.738866e-03
  vertex -3.644855e-03 6.019121e-05 3.230638e-03
  vertex -5.008057e-03 1.670437e-04 2.271991e-03
 endloop
endfacet
facet normal -3.621168e-01 -4.684529e-01 8.058681e-01
 outer loop
  vertex -4.069811e-03 1.455258e-03 3.146034e-03
  vertex -4.784934e-03 2.300490e-03 3.316029e-03
  vertex -5.153621e-03 1.372911e-03 2.611155e-03
 endloop
endfacet
facet normal -6.573792e-01 7.215343e-01 2.173494e-01
 outer loop
  vertex -5.228362e-03 3.012342e-03 1.622964e-03
  vertex -5.734943e-03 2.317339e-03 2.397996e-03
  vertex -4.186296e-03 3.396360e-03 3.499899e-03
 endloop
endfacet
facet normal -2.067243e-01 -8.905254e-01 4.052524e-01
 outer loop
  vertex -4.060917e-03 -3.296050e-03 2.453920e-03
  vertex -2.581705e-03 -2.784645e-03 4.332278e-03
  vertex -3.634834e-03 -2.832966e-03 3.688880e-03
 endloop
endfacet
facet normal -9.338727e-01 -7.385308e-02 3.498963e-01
 outer loop
  vertex -3.634834e-03 -2.832966e-03 3.688880e-03
  vertex -4.083834e-03 -1.656275e-03 2.738866e-03
  vertex -4.060917e-03 -3.296050e-03 2.453920e-03
 endloop
endfacet
facet normal -8.525519e-01 -1.010222e-01 5.127863e-01
 outer loop
  vertex -4.060917e-03 -3.296050e-03 2.453920e-03
  vertex -4.083834e-03 -1.656275e-03 2.738866e-03
  vertex -4.981171e-03 -2.107056e-03 1.158158e-03
 endloop
endfacet
facet normal -8.105749e-01 -2.475486e-01 5.307428e-01
 outer loop
  vertex -4.981171e-03 -2.107056e-03 1.158158e-03
  vertex -4.083834e-03 -1.656275e-03 2.738866e-03
  vertex -5.580306e-03 -3.310726e-04 1.071484e-03
 endloop
endfacet
facet normal -8.146858e-01 -2.834091e-01 5.059311e-01
 outer loop
  vertex -5.580306e-03 -3.310726e-04 1.071484e-03
  vertex -4.083834e-03 -1.656275e-03 2.738866e-03
  vertex -5.008057e-03 1.670437e-04 2.271991e-03
 endloop
endfacet
facet normal -7.844023e-01 -3.435198e-01 5.164370e-01
 outer loop
  vertex -5.008057e-03 1.670437e-04 2.271991e-03
  vertex -5.951930e-03 1.118558e-03 1.471290e-03
  vertex -5.580306e-03 -3.310726e-04 1.071484e-03
 endloop
endfacet
facet normal -7.631444e-01 -2.586830e-01 5.921940e-01
 outer loop
  vertex -5.008057e-03 1.670437e-04 2.271991e-03
  vertex -5.153621e-03 1.372911e-03 2.611155e-03
  vertex -5.951930e-03 1.118558e-03 1.471290e-03
 endloop
endfacet
facet normal -9.200695e-01 3.298838e-01 -2.113027e-01
 outer loop
  vertex -5.951930e-03 1.118558e-03 1.471290e-03
  vertex -5.734943e-03 2.317339e-03 2.397996e-03
  vertex -5.347702e-03 1.898864e-03 5.852753e-05
 endloop
endfacet
facet normal -7.400823e-01 -3.223220e-01 5.902430e-01
 outer loop
  vertex -5.734943e-03 2.317339e-03 2.397996e-03
  vertex -5.951930e-03 1.118558e-03 1.471290e-03
  vertex -5.153621e-03 1.372911e-03 2.611155e-03
 endloop
endfacet
facet normal -8.884831e-01 4.031816e-01 -2.191856e-01
 outer loop
  vertex -5.228362e-03 3.012342e-03 1.622964e-03
  vertex -5.347702e-03 1.898864e-03 5.852753e-05
  vertex -5.734943e-03 2.317339e-03 2.397996e-03
 endloop
endfacet
facet normal 3.303565e-01 2.375656e-01 9.134698e-01
 outer loop
  vertex -5.782755e-04 1.669473e-03 5.046121e-03
  vertex -7.200354e-04 3.381617e-03 4.652112e-03
  vertex -1.899535e-03 3.023689e-03 5.171764e-03
 endloop
endfacet
facet normal 2.515687e-01 4.299053e-01 8.671186e-01
 outer loop
  vertex -7.200354e-04 3.381617e-03 4.652112e-03
  vertex -1.649403e-03 4.104742e-03 4.563225e-03
  vertex -1.899535e-03 3.023689e-03 5.171764e-03
 endloop
endfacet
facet normal -6.395324e-02 5.007267e-01 8.632397e-01
 outer loop
  vertex -1.649403e-03 4.104742e-03 4.563225e-03
  vertex -2.857313e-03 3.786229e-03 4.658492e-03
  vertex -1.899535e-03 3.023689e-03 5.171764e-03
 endloop
endfacet
facet normal -1.604071e-01 7.866428e-01 5.962069e-01
 outer loop
  vertex -1.649403e-03 4.104742e-03 4.563225e-03
  vertex -2.571497e-03 4.583126e-03 3.683954e-03
  vertex -2.857313e-03 3.786229e-03 4.658492e-03
 endloop
endfacet
facet normal 5.001492e-01 -5.888016e-01 6.349515e-01
 outer loop
  vertex -2.581705e-03 -2.784645e-03 4.332278e-03
  vertex -8.641737e-04 -1.033404e-03 4.603340e-03
  vertex -2.048622e-03 -1.394434e-03 5.201538e-03
 endloop
endfacet
facet normal 4.061152e-01 1.587458e-01 8.999279e-01
 outer loop
  vertex -1.816937e-03 -2.988202e-04 4.903719e-03
  vertex -2.048622e-03 -1.394434e-03 5.201538e-03
  vertex -8.641737e-04 -1.033404e-03 4.603340e-03
 endloop
endfacet
facet normal 1.324828e-01 -2.230761e-01 9.657564e-01
 outer loop
  vertex -9.873064e-04 5.907954e-04 4.995399e-03
  vertex -1.816937e-03 -2.988202e-04 4.903719e-03
  vertex -8.641737e-04 -1.033404e-03 4.603340e-03
 endloop
endfacet
facet normal -2.408233e-01 -4.888826e-01 8.384497e-01
 outer loop
  vertex -2.411852e-03 4.811650e-04 4.522311e-03
  vertex -9.873064e-04 5.907954e-04 4.995399e-03
  vertex -1.877086e-03 1.554226e-03 5.301589e-03
 endloop
endfacet
facet normal -3.226532e-01 2.056845e-01 9.238987e-01
 outer loop
  vertex -1.816937e-03 -2.988202e-04 4.903719e-03
  vertex -9.873064e-04 5.907954e-04 4.995399e-03
  vertex -2.411852e-03 4.811650e-04 4.522311e-03
 endloop
endfacet
facet normal -6.764048e-01 -1.813288e-01 7.138602e-01
 outer loop
  vertex -1.877086e-03 1.554226e-03 5.301589e-03
  vertex -3.123127e-03 1.827530e-03 4.190349e-03
  vertex -2.411852e-03 4.811650e-04 4.522311e-03
 endloop
endfacet
facet normal -6.576175e-01 5.632464e-02 7.512435e-01
 outer loop
  vertex -1.899535e-03 3.023689e-03 5.171764e-03
  vertex -3.123127e-03 1.827530e-03 4.190349e-03
  vertex -1.877086e-03 1.554226e-03 5.301589e-03
 endloop
endfacet
facet normal -4.268842e-01 -2.711463e-01 8.626990e-01
 outer loop
  vertex -3.075663e-03 2.927234e-03 4.559472e-03
  vertex -3.123127e-03 1.827530e-03 4.190349e-03
  vertex -1.899535e-03 3.023689e-03 5.171764e-03
 endloop
endfacet
facet normal -4.627126e-01 1.544198e-02 8.863738e-01
 outer loop
  vertex -1.899535e-03 3.023689e-03 5.171764e-03
  vertex -2.857313e-03 3.786229e-03 4.658492e-03
  vertex -3.075663e-03 2.927234e-03 4.559472e-03
 endloop
endfacet
facet normal -5.692494e-01 7.103659e-01 4.139269e-01
 outer loop
  vertex -4.186296e-03 3.396360e-03 3.499899e-03
  vertex -2.857313e-03 3.786229e-03 4.658492e-03
  vertex -2.571497e-03 4.583126e-03 3.683954e-03
 endloop
endfacet
facet normal 2.653753e-01 -3.963102e-01 8.789279e-01
 outer loop
  vertex -8.641737e-04 -1.033404e-03 4.603340e-03
  vertex -2.581705e-03 -2.784645e-03 4.332278e-03
  vertex -1.346280e-03 -2.670931e-03 4.010539e-03
 endloop
endfacet
facet normal -5.285444e-01 1.193372e-02 8.488218e-01
 outer loop
  vertex -2.932981e-03 -1.233423e-03 4.221921e-03
  vertex -1.816937e-03 -2.988202e-04 4.903719e-03
  vertex -2.411852e-03 4.811650e-04 4.522311e-03
 endloop
endfacet
facet normal -6.687908e-01 8.486112e-02 7.385915e-01
 outer loop
  vertex -4.186296e-03 3.396360e-03 3.499899e-03
  vertex -3.075663e-03 2.927234e-03 4.559472e-03
  vertex -2.857313e-03 3.786229e-03 4.658492e-03
 endloop
endfacet
facet normal -7.187656e-01 -1.931571e-01 6.678820e-01
 outer loop
  vertex -3.123127e-03 1.827530e-03 4.190349e-03
  vertex -3.075663e-03 2.927234e-03 4.559472e-03
  vertex -4.186296e-03 3.396360e-03 3.499899e-03
 endloop
endfacet
facet normal -7.363575e-01 1.067549e-01 6.681175e-01
 outer loop
  vertex -3.644855e-03 6.019121e-05 3.230638e-03
  vertex -2.932981e-03 -1.233423e-03 4.221921e-03
  vertex -2.411852e-03 4.811650e-04 4.522311e-03
 endloop
endfacet
facet normal -6.802163e-01 -1.844349e-01 7.094291e-01
 outer loop
  vertex -3.123127e-03 1.827530e-03 4.190349e-03
  vertex -3.644855e-03 6.019121e-05 3.230638e-03
  vertex -2.411852e-03 4.811650e-04 4.522311e-03
 endloop
endfacet
facet normal -4.429204e-01 9.232353e-02 8.917948e-01
 outer loop
  vertex -3.123127e-03 1.827530e-03 4.190349e-03
  vertex -4.186296e-03 3.396360e-03 3.499899e-03
  vertex -4.784934e-03 2.300490e-03 3.316029e-03
 endloop
endfacet
facet normal -5.186059e-01 -5.674547e-02 8.531283e-01
 outer loop
  vertex -2.932981e-03 -1.233423e-03 4.221921e-03
  vertex -3.634834e-03 -2.832966e-03 3.688880e-03
  vertex -2.581705e-03 -2.784645e-03 4.332278e-03
 endloop
endfacet
facet normal -8.014276e-01 1.595661e-01 5.764134e-01
 outer loop
  vertex -4.083834e-03 -1.656275e-03 2.738866e-03
  vertex -3.634834e-03 -2.832966e-03 3.688880e-03
  vertex -2.932981e-03 -1.233423e-03 4.221921e-03
 endloop
endfacet
facet normal -6.736690e-01 -2.583878e-01 6.923914e-01
 outer loop
  vertex -4.784934e-03 2.300490e-03 3.316029e-03
  vertex -5.734943e-03 2.317339e-03 2.397996e-03
  vertex -5.153621e-03 1.372911e-03 2.611155e-03
 endloop
endfacet
facet normal -6.706968e-01 2.491605e-01 6.986307e-01
 outer loop
  vertex -4.186296e-03 3.396360e-03 3.499899e-03
  vertex -5.734943e-03 2.317339e-03 2.397996e-03
  vertex -4.784934e-03 2.300490e-03 3.316029e-03
 endloop
endfacet
facet normal 2.019830e-01 -1.222840e-01 9.717250e-01
 outer loop
  vertex -5.782755e-04 1.669473e-03 5.046121e-03
  vertex -1.877086e-03 1.554226e-03 5.301589e-03
  vertex -9.873064e-04 5.907954e-04 4.995399e-03
 endloop
endfacet
facet normal 1.845913e-01 8.929106e-02 9.787508e-01
 outer loop
  vertex -5.782755e-04 1.669473e-03 5.046121e-03
  vertex -1.899535e-03 3.023689e-03 5.171764e-03
  vertex -1.877086e-03 1.554226e-03 5.301589e-03
 endloop
endfacet
facet normal -6.754641e-01 3.230259e-01 6.628744e-01
 outer loop
  vertex -1.816937e-03 -2.988202e-04 4.903719e-03
  vertex -2.932981e-03 -1.233423e-03 4.221921e-03
  vertex -2.048622e-03 -1.394434e-03 5.201538e-03
 endloop
endfacet
facet normal -7.466149e-01 -1.225541e-01 6.538705e-01
 outer loop
  vertex -2.581705e-03 -2.784645e-03 4.332278e-03
  vertex -2.048622e-03 -1.394434e-03 5.201538e-03
  vertex -2.932981e-03 -1.233423e-03 4.221921e-03
 endloop
endfacet
endsolid 
